<?xml version="1.0" standalone="no"?>
<!DOCTYPE svg PUBLIC "-//W3C//DTD SVG 1.1//EN" "http://www.w3.org/Graphics/SVG/1.1/DTD/svg11.dtd">
<svg width="196mm" height="96mm" viewBox="-48 -48 196 96" xmlns="http://www.w3.org/2000/svg" version="1.1">
<title>OpenSCAD Model</title>
<path d="
M 5.48477,47.157 L 5.96735,46.9422 L 6.39485,46.6315 L 6.74834,46.239 L 7.01254,45.7814 L 7.1758,45.2789
 L 7.20644,44.9874 L 7.2169,44.9255 L 7.23505,44.8654 L 7.26059,44.808 L 7.28909,44.7602 L 7.38057,44.6245
 L 7.44008,44.5519 L 7.71741,44.2722 L 7.76433,44.2305 L 7.79134,44.2108 L 8.22171,43.9181 L 8.27576,43.8861
 L 8.30658,43.8717 L 8.85718,43.6367 L 8.91635,43.6157 L 8.94951,43.6075 L 9.56094,43.4775 L 9.62306,43.4683
 L 9.65721,43.4666 L 10.2558,43.4574 L 10.3185,43.4604 L 10.3521,43.4653 L 10.8643,43.5576 L 10.9253,43.5726
 L 10.9569,43.5836 L 11.324,43.7264 L 11.4079,43.7684 L 11.5467,43.8552 L 11.5977,43.8918 L 11.6438,43.9345
 L 11.6841,43.9826 L 11.7146,44.0292 L 11.8612,44.283 L 12.2147,44.6757 L 12.6421,44.9862 L 13.1248,45.2011
 L 13.6416,45.3109 L 14.1699,45.3109 L 14.6867,45.2011 L 15.1693,44.9862 L 15.5968,44.6756 L 15.9503,44.283
 L 16.2145,43.8254 L 16.3778,43.323 L 16.433,42.7975 L 16.4024,42.506 L 16.3997,42.4433 L 16.405,42.3807
 L 16.418,42.3193 L 16.436,42.2665 L 16.4973,42.1148 L 16.5404,42.0315 L 16.7535,41.7002 L 16.7907,41.6496
 L 16.813,41.6248 L 17.1731,41.249 L 17.2193,41.2065 L 17.2465,41.186 L 17.7362,40.8416 L 17.7897,40.8088
 L 17.8204,40.7938 L 18.3915,40.5396 L 18.4503,40.5177 L 18.4834,40.5089 L 19.067,40.3755 L 19.129,40.3653
 L 19.1629,40.3631 L 19.6831,40.3469 L 19.7458,40.3489 L 19.779,40.3532 L 20.1678,40.4165 L 20.2585,40.4402
 L 20.4123,40.4962 L 20.4699,40.5213 L 20.5238,40.5535 L 20.5733,40.5921 L 20.6128,40.6314 L 20.809,40.8493
 L 21.2364,41.1598 L 21.719,41.3747 L 22.2358,41.4845 L 22.7642,41.4845 L 23.281,41.3747 L 23.7636,41.1598
 L 24.191,40.8493 L 24.5446,40.4566 L 24.8087,39.9991 L 24.972,39.4966 L 25.0272,38.9711 L 24.972,38.4457
 L 24.8814,38.1669 L 24.8658,38.1061 L 24.8579,38.0438 L 24.8579,37.981 L 24.8645,37.9257 L 24.8929,37.7645
 L 24.9178,37.6741 L 25.0573,37.3057 L 25.0832,37.2485 L 25.0999,37.2195 L 25.374,36.7771 L 25.4104,36.7259
 L 25.4327,36.7002 L 25.8401,36.2616 L 25.8856,36.2183 L 25.9125,36.1973 L 26.4182,35.8299 L 26.4713,35.7962
 L 26.5018,35.7808 L 27.0449,35.5289 L 27.1034,35.5061 L 27.1361,35.4969 L 27.6415,35.3729 L 27.7033,35.3618
 L 27.7367,35.3591 L 28.1301,35.3401 L 28.2238,35.3445 L 28.3859,35.3673 L 28.4474,35.3799 L 28.5069,35.4001
 L 28.5633,35.4277 L 28.6101,35.4579 L 28.8472,35.6301 L 29.3299,35.8451 L 29.8467,35.9549 L 30.375,35.9549
 L 30.8918,35.845 L 31.3745,35.6301 L 31.8019,35.3196 L 32.1555,34.927 L 32.4196,34.4694 L 32.5829,33.967
 L 32.6381,33.4415 L 32.5829,32.916 L 32.4196,32.4136 L 32.2731,32.1597 L 32.2451,32.1035 L 32.2245,32.0442
 L 32.2114,31.9828 L 32.2064,31.9273 L 32.2006,31.7637 L 32.2061,31.6701 L 32.2661,31.2808 L 32.2795,31.2194
 L 32.2898,31.1876 L 32.4659,30.6979 L 32.4908,30.6403 L 32.5073,30.6105 L 32.8146,30.0967 L 32.8502,30.0449
 L 32.8721,30.0188 L 33.2904,29.5542 L 33.3353,29.5103 L 33.3619,29.4889 L 33.8407,29.1296 L 33.8932,29.0951
 L 33.9233,29.0793 L 34.3919,28.8529 L 34.4501,28.8292 L 34.4821,28.8196 L 34.8631,28.7193 L 34.9556,28.704
 L 35.1189,28.6926 L 35.1817,28.6922 L 35.244,28.6997 L 35.3049,28.7149 L 35.357,28.7346 L 35.6248,28.8539
 L 36.1416,28.9637 L 36.6699,28.9637 L 37.1867,28.8539 L 37.6694,28.639 L 38.0969,28.3284 L 38.4503,27.9358
 L 38.7145,27.4783 L 38.8778,26.9758 L 38.933,26.4503 L 38.8778,25.9249 L 38.7145,25.4224 L 38.4503,24.9649
 L 38.2542,24.747 L 38.2152,24.6978 L 38.1827,24.6441 L 38.1571,24.5867 L 38.1406,24.5335 L 38.101,24.3747
 L 38.0869,24.282 L 38.0646,23.8887 L 38.065,23.8259 L 38.0684,23.7927 L 38.1389,23.277 L 38.1513,23.2155
 L 38.1612,23.1829 L 38.355,22.6165 L 38.379,22.5585 L 38.3951,22.5283 L 38.7076,21.9869 L 38.7423,21.9346
 L 38.7639,21.9081 L 39.1576,21.4571 L 39.2018,21.4125 L 39.2279,21.3908 L 39.6393,21.0719 L 39.6912,21.0366
 L 39.7205,21.0206 L 40.0723,20.8433 L 40.1596,20.8091 L 40.317,20.764 L 40.3783,20.7505 L 40.4408,20.7449
 L 40.5036,20.7471 L 40.5587,20.7556 L 40.8454,20.8165 L 41.3737,20.8165 L 41.8905,20.7067 L 42.3731,20.4918
 L 42.8006,20.1812 L 43.1541,19.7885 L 43.4183,19.3311 L 43.5815,18.8286 L 43.6368,18.3031 L 43.5815,17.7777
 L 43.4183,17.2752 L 43.1541,16.8177 L 42.8006,16.425 L 42.5634,16.2528 L 42.5151,16.2127 L 42.4721,16.167
 L 42.4352,16.1162 L 42.408,16.0675 L 42.3362,15.9204 L 42.3031,15.8326 L 42.1996,15.4526 L 42.1869,15.3911
 L 42.1833,15.3579 L 42.1451,14.8389 L 42.1444,14.7761 L 42.1473,14.7422 L 42.2191,14.1478 L 42.2305,14.0861
 L 42.2399,14.0532 L 42.4331,13.4587 L 42.4562,13.4003 L 42.4718,13.3699 L 42.7631,12.8469 L 42.797,12.7941
 L 42.8181,12.7674 L 43.1541,12.37 L 43.1976,12.3247 L 43.223,12.3029 L 43.5302,12.0563 L 43.6085,12.0047
 L 43.7531,11.9279 L 43.8102,11.902 L 43.8702,11.8834 L 43.9321,11.8725 L 43.9877,11.8694 L 44.2808,11.8694
 L 44.7976,11.7596 L 45.2802,11.5447 L 45.7077,11.2341 L 46.0612,10.8414 L 46.3254,10.384 L 46.4886,9.88148
 L 46.5439,9.35605 L 46.4886,8.83052 L 46.3254,8.32811 L 46.0612,7.87056 L 45.7077,7.47789 L 45.2803,7.16737
 L 45.0125,7.04814 L 44.9568,7.01906 L 44.9053,6.98322 L 44.8586,6.94121 L 44.8219,6.89932 L 44.7211,6.77039
 L 44.6705,6.69133 L 44.4902,6.34113 L 44.465,6.2836 L 44.4546,6.25186 L 44.3093,5.75212 L 44.2955,5.69084
 L 44.2914,5.65707 L 44.238,5.06081 L 44.2363,4.99805 L 44.2387,4.96396 L 44.304,4.34227 L 44.3145,4.28036
 L 44.3235,4.24736 L 44.4997,3.67523 L 44.5219,3.6165 L 44.5369,3.58601 L 44.783,3.12741 L 44.8161,3.07405
 L 44.8363,3.04747 L 45.0856,2.74242 L 45.1515,2.67564 L 45.2769,2.57047 L 45.3274,2.53322 L 45.3823,2.50259
 L 45.4405,2.4791 L 45.4942,2.46449 L 45.781,2.40355 L 46.2636,2.18867 L 46.691,1.87811 L 47.0446,1.48544
 L 47.3088,1.02791 L 47.472,0.525406 L 47.5273,-0 L 47.472,-0.525406 L 47.3088,-1.02791 L 47.0446,-1.48544
 L 46.691,-1.87811 L 46.2636,-2.18867 L 45.781,-2.40355 L 45.4942,-2.46449 L 45.4338,-2.48138 L 45.3759,-2.50571
 L 45.3215,-2.53711 L 45.2769,-2.57047 L 45.1515,-2.67563 L 45.0856,-2.7424 L 44.8364,-3.04745 L 44.7998,-3.09848
 L 44.783,-3.1274 L 44.5369,-3.586 L 44.5108,-3.64308 L 44.4997,-3.67523 L 44.3235,-4.24738 L 44.3088,-4.30843
 L 44.3041,-4.34225 L 44.2387,-4.96393 L 44.2361,-5.02667 L 44.238,-5.06081 L 44.2914,-5.65707 L 44.3009,-5.71915
 L 44.3093,-5.75209 L 44.4546,-6.25183 L 44.4759,-6.3109 L 44.4902,-6.34113 L 44.6705,-6.69133 L 44.7211,-6.77034
 L 44.8219,-6.89929 L 44.8636,-6.94624 L 44.9109,-6.98759 L 44.9629,-7.02269 L 45.0125,-7.04814 L 45.2803,-7.16736
 L 45.7077,-7.47789 L 46.0612,-7.87056 L 46.3254,-8.32811 L 46.4886,-8.83052 L 46.5439,-9.35603 L 46.4886,-9.88148
 L 46.3254,-10.384 L 46.0612,-10.8414 L 45.7077,-11.2341 L 45.2802,-11.5447 L 44.7976,-11.7596 L 44.2808,-11.8694
 L 43.9877,-11.8694 L 43.925,-11.8734 L 43.8633,-11.8851 L 43.8036,-11.9045 L 43.753,-11.9279 L 43.6085,-12.0047
 L 43.5302,-12.0563 L 43.223,-12.3029 L 43.1766,-12.3452 L 43.1541,-12.3699 L 42.8181,-12.7674 L 42.7807,-12.8178
 L 42.7631,-12.8469 L 42.4718,-13.3699 L 42.4448,-13.4266 L 42.4331,-13.4587 L 42.2399,-14.0532 L 42.2243,-14.114
 L 42.2191,-14.1478 L 42.1473,-14.7421 L 42.1437,-14.8048 L 42.1451,-14.8388 L 42.1833,-15.3578 L 42.1918,-15.42
 L 42.1996,-15.4526 L 42.3031,-15.8326 L 42.3362,-15.9204 L 42.408,-16.0675 L 42.439,-16.1221 L 42.4766,-16.1724
 L 42.5203,-16.2175 L 42.5634,-16.2527 L 42.8006,-16.425 L 43.1541,-16.8177 L 43.4183,-17.2752 L 43.5815,-17.7777
 L 43.6368,-18.3031 L 43.5815,-18.8286 L 43.4183,-19.3311 L 43.1541,-19.7885 L 42.8006,-20.1812 L 42.3731,-20.4918
 L 41.8905,-20.7067 L 41.3737,-20.8165 L 40.8454,-20.8165 L 40.5586,-20.7556 L 40.4965,-20.7464 L 40.4337,-20.7451
 L 40.3713,-20.7517 L 40.317,-20.764 L 40.1597,-20.8091 L 40.0723,-20.8433 L 39.7205,-21.0206 L 39.6664,-21.0523
 L 39.6393,-21.0719 L 39.228,-21.3908 L 39.1808,-21.4323 L 39.1576,-21.4571 L 38.7639,-21.9081 L 38.7257,-21.9579
 L 38.7076,-21.9869 L 38.3951,-22.5283 L 38.3671,-22.5845 L 38.355,-22.6165 L 38.1612,-23.1829 L 38.1447,-23.2435
 L 38.1389,-23.277 L 38.0684,-23.7926 L 38.0639,-23.8553 L 38.0646,-23.8887 L 38.0869,-24.282 L 38.101,-24.3747
 L 38.1406,-24.5335 L 38.1596,-24.5934 L 38.186,-24.6503 L 38.2193,-24.7036 L 38.2542,-24.747 L 38.4503,-24.9649
 L 38.7145,-25.4224 L 38.8778,-25.9249 L 38.933,-26.4503 L 38.8778,-26.9758 L 38.7145,-27.4783 L 38.4503,-27.9358
 L 38.0969,-28.3284 L 37.6694,-28.639 L 37.1867,-28.8539 L 36.6699,-28.9637 L 36.1416,-28.9637 L 35.6248,-28.8539
 L 35.357,-28.7346 L 35.2982,-28.7128 L 35.237,-28.6984 L 35.1746,-28.6919 L 35.1189,-28.6926 L 34.9556,-28.704
 L 34.863,-28.7193 L 34.4821,-28.8196 L 34.4225,-28.8394 L 34.392,-28.8529 L 33.9233,-29.0793 L 33.8686,-29.1101
 L 33.8407,-29.1296 L 33.3619,-29.4889 L 33.3141,-29.5296 L 33.2904,-29.5542 L 32.8721,-30.0188 L 32.8331,-30.068
 L 32.8146,-30.0967 L 32.5073,-30.6105 L 32.4785,-30.6663 L 32.4659,-30.6979 L 32.2898,-31.1876 L 32.2723,-31.2479
 L 32.2661,-31.2807 L 32.2061,-31.6701 L 32.2006,-31.7637 L 32.2064,-31.9273 L 32.2125,-31.9898 L 32.2264,-32.051
 L 32.2479,-32.11 L 32.2731,-32.1597 L 32.4196,-32.4136 L 32.5829,-32.916 L 32.6381,-33.4415 L 32.5829,-33.967
 L 32.4196,-34.4694 L 32.1555,-34.927 L 31.8019,-35.3196 L 31.3745,-35.6301 L 30.8918,-35.845 L 30.375,-35.9549
 L 29.8467,-35.9549 L 29.3299,-35.8451 L 28.8473,-35.6302 L 28.6101,-35.4579 L 28.5571,-35.4242 L 28.5003,-35.3975
 L 28.4405,-35.3781 L 28.3859,-35.3673 L 28.2239,-35.3444 L 28.1301,-35.3401 L 27.7367,-35.3591 L 27.6743,-35.366
 L 27.6416,-35.3729 L 27.1361,-35.4969 L 27.0762,-35.5156 L 27.0449,-35.5289 L 26.5018,-35.7808 L 26.4466,-35.8108
 L 26.4183,-35.8299 L 25.9126,-36.1973 L 25.8642,-36.2373 L 25.8401,-36.2616 L 25.4327,-36.7002 L 25.3929,-36.7488
 L 25.374,-36.7771 L 25.0999,-37.2195 L 25.0703,-37.2748 L 25.0574,-37.3057 L 24.9178,-37.6741 L 24.8929,-37.7645
 L 24.8645,-37.9257 L 24.8575,-37.9881 L 24.8584,-38.0508 L 24.8672,-38.113 L 24.8814,-38.1669 L 24.972,-38.4457
 L 25.0272,-38.9711 L 24.972,-39.4966 L 24.8087,-39.9991 L 24.5446,-40.4566 L 24.191,-40.8493 L 23.7636,-41.1598
 L 23.281,-41.3747 L 22.7642,-41.4845 L 22.2358,-41.4845 L 21.719,-41.3747 L 21.2364,-41.1598 L 20.809,-40.8493
 L 20.6128,-40.6314 L 20.5679,-40.5875 L 20.5179,-40.5495 L 20.4635,-40.5181 L 20.4124,-40.4962 L 20.2586,-40.4402
 L 20.1678,-40.4165 L 19.779,-40.3532 L 19.7165,-40.347 L 19.6831,-40.3469 L 19.1629,-40.3631 L 19.1004,-40.369
 L 19.067,-40.3755 L 18.4834,-40.5089 L 18.4232,-40.5268 L 18.3915,-40.5396 L 17.8205,-40.7938 L 17.7648,-40.8229
 L 17.7362,-40.8416 L 17.2465,-41.186 L 17.1975,-41.2253 L 17.1732,-41.249 L 16.813,-41.6247 L 16.7725,-41.6727
 L 16.7535,-41.7002 L 16.5404,-42.0315 L 16.4973,-42.1148 L 16.436,-42.2665 L 16.4162,-42.3261 L 16.404,-42.3877
 L 16.3996,-42.4503 L 16.4024,-42.506 L 16.433,-42.7975 L 16.3778,-43.323 L 16.2145,-43.8254 L 15.9503,-44.283
 L 15.5968,-44.6756 L 15.1693,-44.9862 L 14.6867,-45.2011 L 14.1699,-45.3109 L 13.6416,-45.3109 L 13.1248,-45.2011
 L 12.6421,-44.9862 L 12.2147,-44.6757 L 11.8612,-44.283 L 11.7146,-44.0291 L 11.6799,-43.9769 L 11.6388,-43.9293
 L 11.5922,-43.8873 L 11.5467,-43.8552 L 11.4079,-43.7684 L 11.324,-43.7264 L 10.9569,-43.5836 L 10.897,-43.5646
 L 10.8644,-43.5576 L 10.3522,-43.4653 L 10.2898,-43.458 L 10.2558,-43.4574 L 9.65721,-43.4666 L 9.5946,-43.4715
 L 9.56096,-43.4775 L 8.94952,-43.6075 L 8.88905,-43.6243 L 8.85718,-43.6367 L 8.30659,-43.8717 L 8.2505,-43.8999
 L 8.22174,-43.9181 L 7.79137,-44.2108 L 7.74178,-44.2493 L 7.71747,-44.2722 L 7.44012,-44.5519 L 7.3806,-44.6245
 L 7.28911,-44.7602 L 7.25734,-44.8143 L 7.23262,-44.872 L 7.21533,-44.9324 L 7.20644,-44.9874 L 7.1758,-45.2789
 L 7.01254,-45.7814 L 6.74834,-46.239 L 6.39485,-46.6315 L 5.96735,-46.9422 L 5.48477,-47.157 L 4.96791,-47.2669
 L 4.43961,-47.2669 L 3.92285,-47.157 L 3.44017,-46.9421 L 3.01273,-46.6316 L 2.65918,-46.2389 L 2.395,-45.7814
 L 2.30444,-45.5026 L 2.28134,-45.4442 L 2.25108,-45.3892 L 2.21419,-45.3384 L 2.17632,-45.2975 L 2.05861,-45.1838
 L 1.98534,-45.1253 L 1.65591,-44.9093 L 1.60135,-44.8782 L 1.57083,-44.8646 L 1.08902,-44.6678 L 1.02953,-44.6478
 L 0.996384,-44.6401 L 0.408951,-44.5246 L 0.34671,-44.5164 L 0.312546,-44.5152 L -0.312531,-44.5152 L -0.375198,-44.5192
 L -0.408936,-44.5246 L -0.996353,-44.6401 L -1.05708,-44.656 L -1.08899,-44.6678 L -1.5708,-44.8645 L -1.62732,-44.8919
 L -1.6559,-44.9093 L -1.98534,-45.1253 L -2.05861,-45.1838 L -2.17633,-45.2976 L -2.21866,-45.3439 L -2.25485,-45.3953
 L -2.28432,-45.4507 L -2.30444,-45.5026 L -2.395,-45.7814 L -2.65918,-46.2389 L -3.01273,-46.6316 L -3.44017,-46.9421
 L -3.92285,-47.157 L -4.43961,-47.2669 L -4.96791,-47.2669 L -5.48477,-47.157 L -5.96735,-46.9422 L -6.39485,-46.6315
 L -6.74834,-46.239 L -7.01254,-45.7814 L -7.1758,-45.2789 L -7.20644,-44.9874 L -7.2169,-44.9255 L -7.23505,-44.8654
 L -7.26059,-44.808 L -7.28909,-44.7602 L -7.38057,-44.6245 L -7.44008,-44.5519 L -7.71741,-44.2722 L -7.76433,-44.2305
 L -7.79134,-44.2108 L -8.22171,-43.9181 L -8.27576,-43.8861 L -8.30658,-43.8717 L -8.85718,-43.6367 L -8.91635,-43.6157
 L -8.94951,-43.6075 L -9.56094,-43.4775 L -9.62306,-43.4683 L -9.65721,-43.4666 L -10.2558,-43.4574 L -10.3185,-43.4604
 L -10.3521,-43.4653 L -10.8643,-43.5576 L -10.9253,-43.5726 L -10.9569,-43.5836 L -11.324,-43.7264 L -11.4079,-43.7684
 L -11.5467,-43.8552 L -11.5977,-43.8918 L -11.6438,-43.9345 L -11.6841,-43.9826 L -11.7146,-44.0292 L -11.8612,-44.283
 L -12.2147,-44.6757 L -12.6421,-44.9862 L -13.1248,-45.2011 L -13.6416,-45.3109 L -14.1699,-45.3109 L -14.6867,-45.2011
 L -15.1693,-44.9862 L -15.5968,-44.6756 L -15.9503,-44.283 L -16.2145,-43.8254 L -16.3778,-43.323 L -16.433,-42.7975
 L -16.4024,-42.506 L -16.3997,-42.4433 L -16.405,-42.3807 L -16.418,-42.3193 L -16.436,-42.2665 L -16.4973,-42.1148
 L -16.5404,-42.0315 L -16.7535,-41.7002 L -16.7907,-41.6496 L -16.813,-41.6248 L -17.1731,-41.249 L -17.2193,-41.2065
 L -17.2465,-41.186 L -17.7362,-40.8416 L -17.7897,-40.8088 L -17.8204,-40.7938 L -18.3915,-40.5396 L -18.4503,-40.5177
 L -18.4834,-40.5089 L -19.067,-40.3755 L -19.129,-40.3653 L -19.1629,-40.3631 L -19.6831,-40.3469 L -19.7458,-40.3489
 L -19.779,-40.3532 L -20.1678,-40.4165 L -20.2585,-40.4402 L -20.4123,-40.4962 L -20.4699,-40.5213 L -20.5238,-40.5535
 L -20.5733,-40.5921 L -20.6128,-40.6314 L -20.809,-40.8493 L -21.2364,-41.1598 L -21.719,-41.3747 L -22.2358,-41.4845
 L -22.7642,-41.4845 L -23.281,-41.3747 L -23.7636,-41.1598 L -24.191,-40.8493 L -24.5446,-40.4566 L -24.8087,-39.9991
 L -24.972,-39.4966 L -25.0272,-38.9711 L -24.972,-38.4457 L -24.8814,-38.1669 L -24.8658,-38.1061 L -24.8579,-38.0438
 L -24.8579,-37.981 L -24.8645,-37.9257 L -24.8929,-37.7645 L -24.9178,-37.6741 L -25.0573,-37.3057 L -25.0832,-37.2485
 L -25.0999,-37.2195 L -25.374,-36.7771 L -25.4104,-36.7259 L -25.4327,-36.7002 L -25.8401,-36.2616 L -25.8856,-36.2183
 L -25.9125,-36.1973 L -26.4182,-35.8299 L -26.4713,-35.7962 L -26.5018,-35.7808 L -27.0449,-35.5289 L -27.1034,-35.5061
 L -27.1361,-35.4969 L -27.6415,-35.3729 L -27.7033,-35.3618 L -27.7367,-35.3591 L -28.1301,-35.3401 L -28.2238,-35.3445
 L -28.3859,-35.3673 L -28.4474,-35.3799 L -28.5069,-35.4001 L -28.5633,-35.4277 L -28.6101,-35.4579 L -28.8472,-35.6301
 L -29.3299,-35.8451 L -29.8467,-35.9549 L -30.375,-35.9549 L -30.8918,-35.845 L -31.3745,-35.6301 L -31.8019,-35.3196
 L -32.1555,-34.927 L -32.4196,-34.4694 L -32.5829,-33.967 L -32.6381,-33.4415 L -32.5829,-32.916 L -32.4196,-32.4136
 L -32.2731,-32.1597 L -32.2451,-32.1035 L -32.2245,-32.0442 L -32.2114,-31.9828 L -32.2064,-31.9273 L -32.2006,-31.7637
 L -32.2061,-31.6701 L -32.2661,-31.2808 L -32.2795,-31.2194 L -32.2898,-31.1876 L -32.4659,-30.6979 L -32.4908,-30.6403
 L -32.5073,-30.6105 L -32.8146,-30.0967 L -32.8502,-30.0449 L -32.8721,-30.0188 L -33.2904,-29.5542 L -33.3353,-29.5103
 L -33.3619,-29.4889 L -33.8407,-29.1296 L -33.8932,-29.0951 L -33.9233,-29.0793 L -34.3919,-28.8529 L -34.4501,-28.8292
 L -34.4821,-28.8196 L -34.8631,-28.7193 L -34.9556,-28.704 L -35.1189,-28.6926 L -35.1817,-28.6922 L -35.244,-28.6997
 L -35.3049,-28.7149 L -35.357,-28.7346 L -35.6248,-28.8539 L -36.1416,-28.9637 L -36.6699,-28.9637 L -37.1867,-28.8539
 L -37.6694,-28.639 L -38.0969,-28.3284 L -38.4503,-27.9358 L -38.7145,-27.4783 L -38.8778,-26.9758 L -38.933,-26.4503
 L -38.8778,-25.9249 L -38.7145,-25.4224 L -38.4503,-24.9649 L -38.2542,-24.747 L -38.2152,-24.6978 L -38.1827,-24.6441
 L -38.1571,-24.5867 L -38.1406,-24.5335 L -38.101,-24.3747 L -38.0869,-24.282 L -38.0646,-23.8887 L -38.065,-23.8259
 L -38.0684,-23.7927 L -38.1389,-23.277 L -38.1513,-23.2155 L -38.1612,-23.1829 L -38.355,-22.6165 L -38.379,-22.5585
 L -38.3951,-22.5283 L -38.7076,-21.9869 L -38.7423,-21.9346 L -38.7639,-21.9081 L -39.1576,-21.4571 L -39.2018,-21.4125
 L -39.2279,-21.3908 L -39.6393,-21.0719 L -39.6912,-21.0366 L -39.7205,-21.0206 L -40.0723,-20.8433 L -40.1596,-20.8091
 L -40.317,-20.764 L -40.3783,-20.7505 L -40.4408,-20.7449 L -40.5036,-20.7471 L -40.5587,-20.7556 L -40.8454,-20.8165
 L -41.3737,-20.8165 L -41.8905,-20.7067 L -42.3731,-20.4918 L -42.8006,-20.1812 L -43.1541,-19.7885 L -43.4183,-19.3311
 L -43.5815,-18.8286 L -43.6368,-18.3031 L -43.5815,-17.7777 L -43.4183,-17.2752 L -43.1541,-16.8177 L -42.8006,-16.425
 L -42.5634,-16.2528 L -42.5151,-16.2127 L -42.4721,-16.167 L -42.4352,-16.1162 L -42.408,-16.0675 L -42.3362,-15.9204
 L -42.3031,-15.8326 L -42.1996,-15.4526 L -42.1869,-15.3911 L -42.1833,-15.3579 L -42.1451,-14.8389 L -42.1444,-14.7761
 L -42.1473,-14.7422 L -42.2191,-14.1478 L -42.2305,-14.0861 L -42.2399,-14.0532 L -42.4331,-13.4587 L -42.4562,-13.4003
 L -42.4718,-13.3699 L -42.7631,-12.8469 L -42.797,-12.7941 L -42.8181,-12.7674 L -43.1541,-12.37 L -43.1976,-12.3247
 L -43.223,-12.3029 L -43.5302,-12.0563 L -43.6085,-12.0047 L -43.7531,-11.9279 L -43.8102,-11.902 L -43.8702,-11.8834
 L -43.9321,-11.8725 L -43.9877,-11.8694 L -44.2808,-11.8694 L -44.7976,-11.7596 L -45.2802,-11.5447 L -45.7077,-11.2341
 L -46.0612,-10.8414 L -46.3254,-10.384 L -46.4886,-9.88148 L -46.5439,-9.35603 L -46.4886,-8.83052 L -46.3254,-8.32811
 L -46.0612,-7.87056 L -45.7077,-7.47789 L -45.2803,-7.16737 L -45.0125,-7.04814 L -44.9568,-7.01906 L -44.9053,-6.98322
 L -44.8586,-6.94121 L -44.8219,-6.89932 L -44.7211,-6.77039 L -44.6705,-6.69133 L -44.4902,-6.34113 L -44.465,-6.2836
 L -44.4546,-6.25186 L -44.3093,-5.75212 L -44.2955,-5.69084 L -44.2914,-5.65707 L -44.238,-5.06081 L -44.2363,-4.99805
 L -44.2387,-4.96396 L -44.304,-4.34227 L -44.3145,-4.28036 L -44.3235,-4.24736 L -44.4997,-3.67523 L -44.5219,-3.6165
 L -44.5369,-3.58601 L -44.783,-3.12741 L -44.8161,-3.07405 L -44.8363,-3.04747 L -45.0856,-2.74242 L -45.1515,-2.67564
 L -45.2769,-2.57047 L -45.3274,-2.53322 L -45.3823,-2.50259 L -45.4405,-2.4791 L -45.4942,-2.46449 L -45.781,-2.40355
 L -46.2636,-2.18867 L -46.691,-1.87811 L -47.0446,-1.48544 L -47.3088,-1.02791 L -47.472,-0.525406 L -47.5273,-0
 L -47.472,0.525406 L -47.3088,1.02791 L -47.0446,1.48544 L -46.691,1.87811 L -46.2636,2.18867 L -45.781,2.40355
 L -45.4942,2.46449 L -45.4338,2.48138 L -45.3759,2.50571 L -45.3215,2.53711 L -45.2769,2.57047 L -45.1515,2.67563
 L -45.0856,2.7424 L -44.8364,3.04745 L -44.7998,3.09848 L -44.783,3.1274 L -44.5369,3.586 L -44.5108,3.64308
 L -44.4997,3.67523 L -44.3235,4.24738 L -44.3088,4.30843 L -44.3041,4.34225 L -44.2387,4.96393 L -44.2361,5.02667
 L -44.238,5.06081 L -44.2914,5.65707 L -44.3009,5.71915 L -44.3093,5.75209 L -44.4546,6.25183 L -44.4759,6.3109
 L -44.4902,6.34113 L -44.6705,6.69133 L -44.7211,6.77034 L -44.8219,6.89929 L -44.8636,6.94624 L -44.9109,6.98759
 L -44.9629,7.02269 L -45.0125,7.04814 L -45.2803,7.16736 L -45.7077,7.47789 L -46.0612,7.87056 L -46.3254,8.32811
 L -46.4886,8.83052 L -46.5439,9.35605 L -46.4886,9.88148 L -46.3254,10.384 L -46.0612,10.8414 L -45.7077,11.2341
 L -45.2802,11.5447 L -44.7976,11.7596 L -44.2808,11.8694 L -43.9877,11.8694 L -43.925,11.8734 L -43.8633,11.8851
 L -43.8036,11.9045 L -43.753,11.9279 L -43.6085,12.0047 L -43.5302,12.0563 L -43.223,12.3029 L -43.1766,12.3452
 L -43.1541,12.3699 L -42.8181,12.7674 L -42.7807,12.8178 L -42.7631,12.8469 L -42.4718,13.3699 L -42.4448,13.4266
 L -42.4331,13.4587 L -42.2399,14.0532 L -42.2243,14.114 L -42.2191,14.1478 L -42.1473,14.7421 L -42.1437,14.8048
 L -42.1451,14.8388 L -42.1833,15.3578 L -42.1918,15.42 L -42.1996,15.4526 L -42.3031,15.8326 L -42.3362,15.9204
 L -42.408,16.0675 L -42.439,16.1221 L -42.4766,16.1724 L -42.5203,16.2175 L -42.5634,16.2527 L -42.8006,16.425
 L -43.1541,16.8177 L -43.4183,17.2752 L -43.5815,17.7777 L -43.6368,18.3031 L -43.5815,18.8286 L -43.4183,19.3311
 L -43.1541,19.7885 L -42.8006,20.1812 L -42.3731,20.4918 L -41.8905,20.7067 L -41.3737,20.8165 L -40.8454,20.8165
 L -40.5586,20.7556 L -40.4965,20.7464 L -40.4337,20.7451 L -40.3713,20.7517 L -40.317,20.764 L -40.1597,20.8091
 L -40.0723,20.8433 L -39.7205,21.0206 L -39.6664,21.0523 L -39.6393,21.0719 L -39.228,21.3908 L -39.1808,21.4323
 L -39.1576,21.4571 L -38.7639,21.9081 L -38.7257,21.9579 L -38.7076,21.9869 L -38.3951,22.5283 L -38.3671,22.5845
 L -38.355,22.6165 L -38.1612,23.1829 L -38.1447,23.2435 L -38.1389,23.277 L -38.0684,23.7926 L -38.0639,23.8553
 L -38.0646,23.8887 L -38.0869,24.282 L -38.101,24.3747 L -38.1407,24.5336 L -38.1597,24.5934 L -38.186,24.6504
 L -38.2193,24.7036 L -38.2542,24.747 L -38.4503,24.9649 L -38.7145,25.4224 L -38.8778,25.9249 L -38.933,26.4503
 L -38.8778,26.9758 L -38.7145,27.4783 L -38.4503,27.9358 L -38.0969,28.3284 L -37.6694,28.639 L -37.1867,28.8539
 L -36.6699,28.9637 L -36.1416,28.9637 L -35.6248,28.8539 L -35.357,28.7346 L -35.2982,28.7128 L -35.237,28.6984
 L -35.1746,28.6919 L -35.1189,28.6926 L -34.9556,28.704 L -34.863,28.7193 L -34.4821,28.8196 L -34.4225,28.8394
 L -34.392,28.8529 L -33.9233,29.0793 L -33.8686,29.1101 L -33.8407,29.1296 L -33.3619,29.4889 L -33.3141,29.5296
 L -33.2904,29.5542 L -32.8721,30.0188 L -32.8331,30.068 L -32.8146,30.0967 L -32.5073,30.6105 L -32.4785,30.6663
 L -32.4659,30.6979 L -32.2898,31.1876 L -32.2723,31.2479 L -32.2661,31.2807 L -32.2061,31.6701 L -32.2006,31.7637
 L -32.2064,31.9273 L -32.2125,31.9898 L -32.2264,32.051 L -32.2479,32.11 L -32.2731,32.1597 L -32.4196,32.4136
 L -32.5829,32.916 L -32.6381,33.4415 L -32.5829,33.967 L -32.4196,34.4694 L -32.1555,34.927 L -31.8019,35.3196
 L -31.3745,35.6301 L -30.8918,35.845 L -30.375,35.9549 L -29.8467,35.9549 L -29.3299,35.8451 L -28.8473,35.6302
 L -28.6101,35.4579 L -28.5571,35.4242 L -28.5003,35.3975 L -28.4405,35.3781 L -28.3859,35.3673 L -28.2239,35.3444
 L -28.1301,35.3401 L -27.7367,35.3591 L -27.6743,35.366 L -27.6416,35.3729 L -27.1361,35.4969 L -27.0762,35.5156
 L -27.0449,35.5289 L -26.5018,35.7808 L -26.4466,35.8108 L -26.4183,35.8299 L -25.9126,36.1973 L -25.8642,36.2373
 L -25.8401,36.2616 L -25.4327,36.7002 L -25.3929,36.7488 L -25.374,36.7771 L -25.0999,37.2195 L -25.0703,37.2748
 L -25.0574,37.3057 L -24.9178,37.6741 L -24.8929,37.7645 L -24.8645,37.9257 L -24.8575,37.9881 L -24.8584,38.0508
 L -24.8672,38.113 L -24.8814,38.1669 L -24.972,38.4457 L -25.0272,38.9711 L -24.972,39.4966 L -24.8087,39.9991
 L -24.5446,40.4566 L -24.191,40.8493 L -23.7636,41.1598 L -23.281,41.3747 L -22.7642,41.4845 L -22.2358,41.4845
 L -21.719,41.3747 L -21.2364,41.1598 L -20.809,40.8493 L -20.6128,40.6314 L -20.5679,40.5875 L -20.5179,40.5495
 L -20.4635,40.5181 L -20.4124,40.4962 L -20.2586,40.4402 L -20.1678,40.4165 L -19.779,40.3532 L -19.7165,40.347
 L -19.6831,40.3469 L -19.1629,40.3631 L -19.1004,40.369 L -19.067,40.3755 L -18.4834,40.5089 L -18.4232,40.5268
 L -18.3915,40.5396 L -17.8205,40.7938 L -17.7648,40.8229 L -17.7362,40.8416 L -17.2465,41.186 L -17.1975,41.2253
 L -17.1732,41.249 L -16.813,41.6247 L -16.7725,41.6727 L -16.7535,41.7002 L -16.5404,42.0315 L -16.4973,42.1148
 L -16.436,42.2665 L -16.4162,42.3261 L -16.404,42.3877 L -16.3996,42.4503 L -16.4024,42.506 L -16.433,42.7975
 L -16.3778,43.323 L -16.2145,43.8254 L -15.9503,44.283 L -15.5968,44.6756 L -15.1693,44.9862 L -14.6867,45.2011
 L -14.1699,45.3109 L -13.6416,45.3109 L -13.1248,45.2011 L -12.6421,44.9862 L -12.2147,44.6757 L -11.8612,44.283
 L -11.7146,44.0291 L -11.6799,43.9769 L -11.6388,43.9293 L -11.5922,43.8873 L -11.5467,43.8552 L -11.4079,43.7684
 L -11.324,43.7264 L -10.9569,43.5836 L -10.897,43.5646 L -10.8644,43.5576 L -10.3522,43.4653 L -10.2898,43.458
 L -10.2558,43.4574 L -9.65721,43.4666 L -9.5946,43.4715 L -9.56096,43.4775 L -8.94952,43.6075 L -8.88905,43.6243
 L -8.85718,43.6367 L -8.30659,43.8717 L -8.2505,43.8999 L -8.22174,43.9181 L -7.79137,44.2108 L -7.74178,44.2493
 L -7.71747,44.2722 L -7.44012,44.5519 L -7.38058,44.6245 L -7.28909,44.7602 L -7.25732,44.8144 L -7.2326,44.8721
 L -7.21532,44.9324 L -7.20644,44.9874 L -7.1758,45.2789 L -7.01254,45.7814 L -6.74834,46.239 L -6.39485,46.6315
 L -5.96735,46.9422 L -5.48477,47.157 L -4.96791,47.2669 L -4.43961,47.2669 L -3.92285,47.157 L -3.44017,46.9421
 L -3.01273,46.6316 L -2.65918,46.2389 L -2.395,45.7814 L -2.30444,45.5026 L -2.28134,45.4442 L -2.25108,45.3892
 L -2.21419,45.3384 L -2.17632,45.2975 L -2.05861,45.1838 L -1.98534,45.1253 L -1.65591,44.9093 L -1.60135,44.8782
 L -1.57083,44.8646 L -1.08902,44.6678 L -1.02953,44.6478 L -0.996384,44.6401 L -0.408951,44.5246 L -0.34671,44.5164
 L -0.312546,44.5152 L 0.312531,44.5152 L 0.375198,44.5192 L 0.408936,44.5246 L 0.996353,44.6401 L 1.05708,44.656
 L 1.08899,44.6678 L 1.5708,44.8645 L 1.62732,44.8919 L 1.6559,44.9093 L 1.98534,45.1253 L 2.05861,45.1838
 L 2.17633,45.2976 L 2.21866,45.3439 L 2.25485,45.3953 L 2.28432,45.4507 L 2.30444,45.5026 L 2.395,45.7814
 L 2.65918,46.2389 L 3.01273,46.6316 L 3.44017,46.9421 L 3.92285,47.157 L 4.43961,47.2669 L 4.96791,47.2669
 z
M -0.18837,-19.0059 L -0.562134,-19.0531 L -0.927048,-19.1468 L -1.27733,-19.2855 L -1.60747,-19.467 L -1.91226,-19.6884
 L -2.1869,-19.9464 L -2.42705,-20.2366 L -2.62891,-20.5547 L -2.78932,-20.8956 L -2.90575,-21.2539 L -2.97633,-21.624
 L -3,-22 L -2.97633,-22.376 L -2.90575,-22.7461 L -2.78932,-23.1044 L -2.62891,-23.4453 L -2.42705,-23.7634
 L -2.1869,-24.0536 L -1.91226,-24.3115 L -1.60747,-24.533 L -1.27733,-24.7145 L -0.927048,-24.8532 L -0.562134,-24.9469
 L -0.18837,-24.9941 L 0.18837,-24.9941 L 0.562134,-24.9469 L 0.927048,-24.8532 L 1.27733,-24.7145 L 1.60747,-24.533
 L 1.91226,-24.3115 L 2.1869,-24.0536 L 2.42705,-23.7634 L 2.62891,-23.4453 L 2.78932,-23.1044 L 2.90575,-22.7461
 L 2.97633,-22.376 L 3,-22 L 2.97633,-21.624 L 2.90575,-21.2539 L 2.78932,-20.8956 L 2.62891,-20.5547
 L 2.42705,-20.2366 L 2.1869,-19.9464 L 1.91226,-19.6884 L 1.60747,-19.467 L 1.27733,-19.2855 L 0.927048,-19.1468
 L 0.562134,-19.0531 L 0.18837,-19.0059 z
M 13.4133,-12.2517 L 11.8265,-15 L 13.4133,-17.7483 L 16.5867,-17.7483 L 18.1735,-15 L 16.5867,-12.2517
 z
M -15.113,-13.2036 L -15.3373,-13.2319 L -15.5562,-13.2881 L -15.7664,-13.3713 L -15.9645,-13.4802 L -16.1474,-13.6131
 L -16.3121,-13.7678 L -16.4562,-13.942 L -16.5773,-14.1328 L -16.6736,-14.3374 L -16.7434,-14.5524 L -16.7858,-14.7744
 L -16.8,-15 L -16.7858,-15.2256 L -16.7434,-15.4476 L -16.6736,-15.6626 L -16.5773,-15.8671 L -16.4562,-16.058
 L -16.3121,-16.2322 L -16.1474,-16.3869 L -15.9645,-16.5198 L -15.7664,-16.6287 L -15.5562,-16.7119 L -15.3373,-16.7681
 L -15.113,-16.7964 L -14.887,-16.7964 L -14.6627,-16.7681 L -14.4438,-16.7119 L -14.2336,-16.6287 L -14.0355,-16.5198
 L -13.8526,-16.3869 L -13.6879,-16.2322 L -13.5438,-16.058 L -13.4226,-15.8671 L -13.3264,-15.6626 L -13.2565,-15.4476
 L -13.2142,-15.2256 L -13.2,-15 L -13.2142,-14.7744 L -13.2565,-14.5524 L -13.3264,-14.3374 L -13.4226,-14.1328
 L -13.5438,-13.942 L -13.6879,-13.7678 L -13.8526,-13.6131 L -14.0355,-13.4802 L -14.2336,-13.3713 L -14.4438,-13.2881
 L -14.6627,-13.2319 L -14.887,-13.2036 z
M -1.00464,15.9684 L -2.99809,15.7166 L -4.94426,15.2169 L -6.81245,14.4772 L -8.57323,13.5092 L -10.1988,12.3282
 L -11.6635,10.9527 L -12.9443,9.40456 L -14.0209,7.70805 L -14.8764,5.88998 L -15.4973,3.97903 L -15.8738,2.00533
 L -16,-0 L -15.8738,-2.00533 L -15.4973,-3.97903 L -14.8764,-5.88998 L -14.0209,-7.70805 L -12.9443,-9.40456
 L -11.6635,-10.9527 L -10.1988,-12.3282 L -8.57323,-13.5092 L -6.81245,-14.4772 L -4.94426,-15.2169 L -2.99809,-15.7166
 L -1.00464,-15.9684 L 1.00464,-15.9684 L 2.99809,-15.7166 L 4.94426,-15.2169 L 6.81245,-14.4772 L 8.57323,-13.5092
 L 10.1988,-12.3282 L 11.6635,-10.9527 L 12.9443,-9.40456 L 14.0209,-7.70805 L 14.8764,-5.88998 L 15.4973,-3.97903
 L 15.8738,-2.00533 L 16,-0 L 15.8738,2.00533 L 15.4973,3.97903 L 14.8764,5.88998 L 14.0209,7.70805
 L 12.9443,9.40456 L 11.6635,10.9527 L 10.1988,12.3282 L 8.57323,13.5092 L 6.81245,14.4772 L 4.94426,15.2169
 L 2.99809,15.7166 L 1.00464,15.9684 z
M 2.34225,12.2786 L 3.8627,11.8882 L 5.32224,11.3103 L 6.69783,10.5541 L 7.96779,9.63141 L 9.11211,8.55682
 L 10.1127,7.34731 L 10.9538,6.02191 L 11.6222,4.60155 L 12.1073,3.10861 L 12.4014,1.56665 L 12.5,-0
 L 12.4014,-1.56665 L 12.1073,-3.10861 L 11.6222,-4.60155 L 10.9538,-6.02191 L 10.1127,-7.34731 L 9.11211,-8.55682
 L 7.96779,-9.63141 L 6.69783,-10.5541 L 5.32224,-11.3103 L 3.8627,-11.8882 L 2.34225,-12.2786 L 0.784866,-12.4753
 L -0.784866,-12.4753 L -2.34225,-12.2786 L -3.8627,-11.8882 L -5.32224,-11.3103 L -6.69783,-10.5541 L -7.96779,-9.63141
 L -9.11211,-8.55682 L -10.1127,-7.34731 L -10.9538,-6.02191 L -11.6222,-4.60155 L -12.1073,-3.10861 L -12.4014,-1.56665
 L -12.5,-0 L -12.4014,1.56665 L -12.1073,3.10861 L -11.6222,4.60155 L -10.9538,6.02191 L -10.1127,7.34731
 L -9.11211,8.55682 L -7.96779,9.63141 L -6.69783,10.5541 L -5.32224,11.3103 L -3.8627,11.8882 L -2.34225,12.2786
 L -0.784866,12.4753 L 0.784866,12.4753 z
M 21.8116,2.99408 L 21.4379,2.94685 L 21.0729,2.85316 L 20.7227,2.71448 L 20.3925,2.53297 L 20.0877,2.31154
 L 19.8131,2.05363 L 19.5729,1.76335 L 19.3711,1.44525 L 19.2107,1.10437 L 19.0942,0.746063 L 19.0237,0.375992
 L 19,-0 L 19.0237,-0.375992 L 19.0942,-0.746063 L 19.2107,-1.10437 L 19.3711,-1.44525 L 19.5729,-1.76335
 L 19.8131,-2.05363 L 20.0877,-2.31154 L 20.3925,-2.53297 L 20.7227,-2.71448 L 21.0729,-2.85316 L 21.4379,-2.94685
 L 21.8116,-2.99408 L 22.1884,-2.99408 L 22.5621,-2.94685 L 22.927,-2.85316 L 23.2773,-2.71448 L 23.6075,-2.53297
 L 23.9123,-2.31154 L 24.1869,-2.05363 L 24.427,-1.76335 L 24.6289,-1.44525 L 24.7893,-1.10437 L 24.9057,-0.746063
 L 24.9763,-0.375992 L 25,-0 L 24.9763,0.375992 L 24.9057,0.746063 L 24.7893,1.10437 L 24.6289,1.44525
 L 24.427,1.76335 L 24.1869,2.05363 L 23.9123,2.31154 L 23.6075,2.53297 L 23.2773,2.71448 L 22.927,2.85316
 L 22.5621,2.94685 L 22.1884,2.99408 z
M -22.1884,2.99408 L -22.5621,2.94685 L -22.927,2.85316 L -23.2773,2.71448 L -23.6075,2.53297 L -23.9123,2.31154
 L -24.1869,2.05363 L -24.427,1.76335 L -24.6289,1.44525 L -24.7893,1.10437 L -24.9057,0.746063 L -24.9763,0.375992
 L -25,-0 L -24.9763,-0.375992 L -24.9057,-0.746063 L -24.7893,-1.10437 L -24.6289,-1.44525 L -24.427,-1.76335
 L -24.1869,-2.05363 L -23.9123,-2.31154 L -23.6075,-2.53297 L -23.2773,-2.71448 L -22.927,-2.85316 L -22.5621,-2.94685
 L -22.1884,-2.99408 L -21.8116,-2.99408 L -21.4379,-2.94685 L -21.0729,-2.85316 L -20.7227,-2.71448 L -20.3925,-2.53297
 L -20.0877,-2.31154 L -19.8131,-2.05363 L -19.5729,-1.76335 L -19.3711,-1.44525 L -19.2107,-1.10437 L -19.0942,-0.746063
 L -19.0237,-0.375992 L -19,-0 L -19.0237,0.375992 L -19.0942,0.746063 L -19.2107,1.10437 L -19.3711,1.44525
 L -19.5729,1.76335 L -19.8131,2.05363 L -20.0877,2.31154 L -20.3925,2.53297 L -20.7227,2.71448 L -21.0729,2.85316
 L -21.4379,2.94685 L -21.8116,2.99408 z
M -16.5867,17.7483 L -18.1735,15 L -16.5867,12.2517 L -13.4133,12.2517 L -11.8265,15 L -13.4133,17.7483
 z
M 14.887,16.7964 L 14.6627,16.7681 L 14.4438,16.7119 L 14.2336,16.6287 L 14.0355,16.5198 L 13.8526,16.3869
 L 13.6879,16.2322 L 13.5438,16.058 L 13.4226,15.8671 L 13.3264,15.6626 L 13.2565,15.4476 L 13.2142,15.2256
 L 13.2,15 L 13.2142,14.7744 L 13.2565,14.5524 L 13.3264,14.3374 L 13.4226,14.1328 L 13.5438,13.942
 L 13.6879,13.7678 L 13.8526,13.6131 L 14.0355,13.4802 L 14.2336,13.3713 L 14.4438,13.2881 L 14.6627,13.2319
 L 14.887,13.2036 L 15.113,13.2036 L 15.3373,13.2319 L 15.5562,13.2881 L 15.7664,13.3713 L 15.9645,13.4802
 L 16.1474,13.6131 L 16.3121,13.7678 L 16.4562,13.942 L 16.5773,14.1328 L 16.6736,14.3374 L 16.7434,14.5524
 L 16.7858,14.7744 L 16.8,15 L 16.7858,15.2256 L 16.7434,15.4476 L 16.6736,15.6626 L 16.5773,15.8671
 L 16.4562,16.058 L 16.3121,16.2322 L 16.1474,16.3869 L 15.9645,16.5198 L 15.7664,16.6287 L 15.5562,16.7119
 L 15.3373,16.7681 L 15.113,16.7964 z
M -0.18837,24.9941 L -0.562134,24.9469 L -0.927048,24.8532 L -1.27733,24.7145 L -1.60747,24.533 L -1.91226,24.3115
 L -2.1869,24.0536 L -2.42705,23.7634 L -2.62891,23.4453 L -2.78932,23.1044 L -2.90575,22.7461 L -2.97633,22.376
 L -3,22 L -2.97633,21.624 L -2.90575,21.2539 L -2.78932,20.8956 L -2.62891,20.5547 L -2.42705,20.2366
 L -2.1869,19.9464 L -1.91226,19.6884 L -1.60747,19.467 L -1.27733,19.2855 L -0.927048,19.1468 L -0.562134,19.0531
 L -0.18837,19.0059 L 0.18837,19.0059 L 0.562134,19.0531 L 0.927048,19.1468 L 1.27733,19.2855 L 1.60747,19.467
 L 1.91226,19.6884 L 2.1869,19.9464 L 2.42705,20.2366 L 2.62891,20.5547 L 2.78932,20.8956 L 2.90575,21.2539
 L 2.97633,21.624 L 3,22 L 2.97633,22.376 L 2.90575,22.7461 L 2.78932,23.1044 L 2.62891,23.4453
 L 2.42705,23.7634 L 2.1869,24.0536 L 1.91226,24.3115 L 1.60747,24.533 L 1.27733,24.7145 L 0.927048,24.8532
 L 0.562134,24.9469 L 0.18837,24.9941 z
M 105.485,47.157 L 105.967,46.9422 L 106.395,46.6315 L 106.748,46.239 L 107.013,45.7814 L 107.176,45.2789
 L 107.206,44.9874 L 107.215,44.9324 L 107.233,44.872 L 107.257,44.8143 L 107.289,44.7602 L 107.381,44.6245
 L 107.44,44.5519 L 107.717,44.2722 L 107.742,44.2493 L 107.791,44.2108 L 108.222,43.9181 L 108.251,43.8999
 L 108.307,43.8717 L 108.857,43.6367 L 108.889,43.6243 L 108.95,43.6075 L 109.561,43.4775 L 109.595,43.4715
 L 109.657,43.4666 L 110.256,43.4574 L 110.29,43.458 L 110.352,43.4653 L 110.864,43.5576 L 110.897,43.5646
 L 110.957,43.5836 L 111.324,43.7264 L 111.408,43.7684 L 111.547,43.8552 L 111.592,43.8873 L 111.639,43.9293
 L 111.68,43.9769 L 111.715,44.0291 L 111.861,44.283 L 112.215,44.6757 L 112.642,44.9862 L 113.125,45.2011
 L 113.642,45.3109 L 114.17,45.3109 L 114.687,45.2011 L 115.169,44.9862 L 115.597,44.6756 L 115.95,44.283
 L 116.215,43.8254 L 116.378,43.323 L 116.433,42.7975 L 116.402,42.506 L 116.4,42.4503 L 116.404,42.3877
 L 116.416,42.3261 L 116.436,42.2665 L 116.497,42.1148 L 116.54,42.0315 L 116.753,41.7002 L 116.773,41.6727
 L 116.813,41.6247 L 117.173,41.249 L 117.198,41.2253 L 117.247,41.186 L 117.736,40.8416 L 117.765,40.8229
 L 117.82,40.7938 L 118.392,40.5396 L 118.423,40.5268 L 118.483,40.5089 L 119.067,40.3755 L 119.1,40.369
 L 119.163,40.3631 L 119.683,40.3469 L 119.717,40.347 L 119.779,40.3532 L 120.168,40.4165 L 120.259,40.4402
 L 120.412,40.4962 L 120.464,40.5181 L 120.518,40.5495 L 120.568,40.5875 L 120.613,40.6314 L 120.809,40.8493
 L 121.236,41.1598 L 121.719,41.3747 L 122.236,41.4845 L 122.764,41.4845 L 123.281,41.3747 L 123.764,41.1598
 L 124.191,40.8493 L 124.545,40.4566 L 124.809,39.9991 L 124.972,39.4966 L 125.027,38.9711 L 124.972,38.4457
 L 124.881,38.1669 L 124.867,38.113 L 124.858,38.0508 L 124.858,37.9881 L 124.865,37.9257 L 124.893,37.7645
 L 124.918,37.6741 L 125.057,37.3057 L 125.07,37.2748 L 125.1,37.2195 L 125.374,36.7771 L 125.393,36.7488
 L 125.433,36.7002 L 125.84,36.2616 L 125.864,36.2373 L 125.913,36.1973 L 126.418,35.8299 L 126.447,35.8108
 L 126.502,35.7808 L 127.045,35.5289 L 127.076,35.5156 L 127.136,35.4969 L 127.642,35.3729 L 127.674,35.366
 L 127.737,35.3591 L 128.13,35.3401 L 128.224,35.3444 L 128.386,35.3673 L 128.441,35.3781 L 128.5,35.3975
 L 128.557,35.4242 L 128.61,35.4579 L 128.847,35.6302 L 129.33,35.8451 L 129.847,35.9549 L 130.375,35.9549
 L 130.892,35.845 L 131.375,35.6301 L 131.802,35.3196 L 132.155,34.927 L 132.42,34.4694 L 132.583,33.967
 L 132.638,33.4415 L 132.583,32.916 L 132.42,32.4136 L 132.273,32.1597 L 132.248,32.11 L 132.226,32.051
 L 132.213,31.9898 L 132.206,31.9273 L 132.201,31.7637 L 132.206,31.6701 L 132.266,31.2807 L 132.272,31.2479
 L 132.29,31.1876 L 132.466,30.6979 L 132.479,30.6663 L 132.507,30.6105 L 132.815,30.0967 L 132.833,30.068
 L 132.872,30.0188 L 133.29,29.5542 L 133.314,29.5296 L 133.362,29.4889 L 133.841,29.1296 L 133.869,29.1101
 L 133.923,29.0793 L 134.392,28.8529 L 134.423,28.8394 L 134.482,28.8196 L 134.863,28.7193 L 134.956,28.704
 L 135.119,28.6926 L 135.175,28.6919 L 135.237,28.6984 L 135.298,28.7128 L 135.357,28.7346 L 135.625,28.8539
 L 136.142,28.9637 L 136.67,28.9637 L 137.187,28.8539 L 137.669,28.639 L 138.097,28.3284 L 138.45,27.9358
 L 138.714,27.4783 L 138.878,26.9758 L 138.933,26.4503 L 138.878,25.9249 L 138.715,25.4224 L 138.45,24.9649
 L 138.254,24.747 L 138.219,24.7036 L 138.186,24.6503 L 138.16,24.5934 L 138.141,24.5335 L 138.101,24.3747
 L 138.087,24.282 L 138.065,23.8887 L 138.064,23.8553 L 138.068,23.7926 L 138.139,23.277 L 138.145,23.2435
 L 138.161,23.1829 L 138.355,22.6165 L 138.367,22.5845 L 138.395,22.5283 L 138.708,21.9869 L 138.726,21.9579
 L 138.764,21.9081 L 139.158,21.4571 L 139.181,21.4323 L 139.228,21.3908 L 139.639,21.0719 L 139.666,21.0523
 L 139.721,21.0206 L 140.072,20.8433 L 140.16,20.8091 L 140.317,20.764 L 140.371,20.7517 L 140.434,20.7451
 L 140.497,20.7464 L 140.559,20.7556 L 140.845,20.8165 L 141.374,20.8165 L 141.891,20.7067 L 142.373,20.4918
 L 142.801,20.1812 L 143.154,19.7885 L 143.418,19.3311 L 143.582,18.8286 L 143.637,18.3031 L 143.582,17.7777
 L 143.418,17.2752 L 143.154,16.8177 L 142.801,16.425 L 142.563,16.2527 L 142.52,16.2175 L 142.477,16.1724
 L 142.439,16.1221 L 142.408,16.0675 L 142.336,15.9204 L 142.303,15.8326 L 142.2,15.4526 L 142.192,15.42
 L 142.183,15.3578 L 142.145,14.8388 L 142.144,14.8048 L 142.147,14.7421 L 142.219,14.1478 L 142.224,14.114
 L 142.24,14.0532 L 142.433,13.4587 L 142.445,13.4266 L 142.472,13.3699 L 142.763,12.8469 L 142.781,12.8178
 L 142.818,12.7674 L 143.154,12.3699 L 143.177,12.3452 L 143.223,12.3029 L 143.53,12.0563 L 143.609,12.0047
 L 143.753,11.9279 L 143.804,11.9045 L 143.863,11.8851 L 143.925,11.8734 L 143.988,11.8694 L 144.281,11.8694
 L 144.798,11.7596 L 145.28,11.5447 L 145.708,11.2341 L 146.061,10.8414 L 146.325,10.384 L 146.489,9.88148
 L 146.544,9.35603 L 146.489,8.83052 L 146.325,8.32811 L 146.061,7.87056 L 145.708,7.47789 L 145.28,7.16736
 L 145.012,7.04814 L 144.963,7.02269 L 144.911,6.98759 L 144.864,6.94624 L 144.822,6.89929 L 144.721,6.77034
 L 144.671,6.69133 L 144.49,6.34113 L 144.476,6.3109 L 144.455,6.25183 L 144.309,5.75209 L 144.301,5.71915
 L 144.291,5.65707 L 144.238,5.06081 L 144.236,5.02667 L 144.239,4.96393 L 144.304,4.34225 L 144.309,4.30843
 L 144.323,4.24738 L 144.5,3.67523 L 144.511,3.64308 L 144.537,3.586 L 144.783,3.1274 L 144.8,3.09848
 L 144.836,3.04745 L 145.086,2.7424 L 145.152,2.67563 L 145.277,2.57047 L 145.322,2.53711 L 145.376,2.50571
 L 145.434,2.48138 L 145.494,2.46449 L 145.781,2.40355 L 146.264,2.18867 L 146.691,1.87811 L 147.045,1.48544
 L 147.309,1.02791 L 147.472,0.525406 L 147.527,-0 L 147.472,-0.525406 L 147.309,-1.02791 L 147.045,-1.48544
 L 146.691,-1.87811 L 146.264,-2.18867 L 145.781,-2.40355 L 145.494,-2.46449 L 145.44,-2.4791 L 145.382,-2.50259
 L 145.327,-2.53322 L 145.277,-2.57047 L 145.151,-2.67564 L 145.086,-2.74242 L 144.836,-3.04747 L 144.816,-3.07405
 L 144.783,-3.12741 L 144.537,-3.58601 L 144.522,-3.6165 L 144.5,-3.67523 L 144.323,-4.24736 L 144.315,-4.28036
 L 144.304,-4.34227 L 144.239,-4.96396 L 144.236,-4.99805 L 144.238,-5.06081 L 144.291,-5.65707 L 144.296,-5.69084
 L 144.309,-5.75212 L 144.455,-6.25186 L 144.465,-6.2836 L 144.49,-6.34113 L 144.671,-6.69133 L 144.721,-6.77039
 L 144.822,-6.89932 L 144.859,-6.94121 L 144.905,-6.98322 L 144.957,-7.01906 L 145.012,-7.04814 L 145.28,-7.16737
 L 145.708,-7.47789 L 146.061,-7.87056 L 146.325,-8.32811 L 146.489,-8.83052 L 146.544,-9.35605 L 146.489,-9.88148
 L 146.325,-10.384 L 146.061,-10.8414 L 145.708,-11.2341 L 145.28,-11.5447 L 144.798,-11.7596 L 144.281,-11.8694
 L 143.988,-11.8694 L 143.932,-11.8725 L 143.87,-11.8834 L 143.81,-11.902 L 143.753,-11.9279 L 143.609,-12.0047
 L 143.53,-12.0563 L 143.223,-12.3029 L 143.198,-12.3247 L 143.154,-12.37 L 142.818,-12.7674 L 142.797,-12.7941
 L 142.763,-12.8469 L 142.472,-13.3699 L 142.456,-13.4003 L 142.433,-13.4587 L 142.24,-14.0532 L 142.23,-14.0861
 L 142.219,-14.1478 L 142.147,-14.7422 L 142.144,-14.7761 L 142.145,-14.8389 L 142.183,-15.3579 L 142.187,-15.3911
 L 142.2,-15.4526 L 142.303,-15.8326 L 142.336,-15.9204 L 142.408,-16.0675 L 142.435,-16.1162 L 142.472,-16.167
 L 142.515,-16.2127 L 142.563,-16.2528 L 142.801,-16.425 L 143.154,-16.8177 L 143.418,-17.2752 L 143.582,-17.7777
 L 143.637,-18.3031 L 143.582,-18.8286 L 143.418,-19.3311 L 143.154,-19.7885 L 142.801,-20.1812 L 142.373,-20.4918
 L 141.891,-20.7067 L 141.374,-20.8165 L 140.845,-20.8165 L 140.559,-20.7556 L 140.504,-20.7471 L 140.441,-20.7449
 L 140.378,-20.7505 L 140.317,-20.764 L 140.16,-20.8091 L 140.072,-20.8433 L 139.721,-21.0206 L 139.691,-21.0366
 L 139.639,-21.0719 L 139.228,-21.3908 L 139.202,-21.4125 L 139.158,-21.4571 L 138.764,-21.9081 L 138.742,-21.9346
 L 138.708,-21.9869 L 138.395,-22.5283 L 138.379,-22.5585 L 138.355,-22.6165 L 138.161,-23.1829 L 138.151,-23.2155
 L 138.139,-23.277 L 138.068,-23.7927 L 138.065,-23.8259 L 138.065,-23.8887 L 138.087,-24.282 L 138.101,-24.3747
 L 138.141,-24.5335 L 138.157,-24.5867 L 138.183,-24.6441 L 138.215,-24.6978 L 138.254,-24.747 L 138.45,-24.9649
 L 138.715,-25.4224 L 138.878,-25.9249 L 138.933,-26.4503 L 138.878,-26.9758 L 138.714,-27.4783 L 138.45,-27.9358
 L 138.097,-28.3284 L 137.669,-28.639 L 137.187,-28.8539 L 136.67,-28.9637 L 136.142,-28.9637 L 135.625,-28.8539
 L 135.357,-28.7346 L 135.305,-28.7149 L 135.244,-28.6997 L 135.182,-28.6922 L 135.119,-28.6926 L 134.956,-28.704
 L 134.863,-28.7193 L 134.482,-28.8196 L 134.45,-28.8292 L 134.392,-28.8529 L 133.923,-29.0793 L 133.893,-29.0951
 L 133.841,-29.1296 L 133.362,-29.4889 L 133.335,-29.5103 L 133.29,-29.5542 L 132.872,-30.0188 L 132.85,-30.0449
 L 132.815,-30.0967 L 132.507,-30.6105 L 132.491,-30.6403 L 132.466,-30.6979 L 132.29,-31.1876 L 132.28,-31.2194
 L 132.266,-31.2808 L 132.206,-31.6701 L 132.201,-31.7637 L 132.206,-31.9273 L 132.211,-31.9828 L 132.224,-32.0442
 L 132.245,-32.1035 L 132.273,-32.1597 L 132.42,-32.4136 L 132.583,-32.916 L 132.638,-33.4415 L 132.583,-33.967
 L 132.42,-34.4694 L 132.155,-34.927 L 131.802,-35.3196 L 131.375,-35.6301 L 130.892,-35.845 L 130.375,-35.9549
 L 129.847,-35.9549 L 129.33,-35.8451 L 128.847,-35.6301 L 128.61,-35.4579 L 128.563,-35.4277 L 128.507,-35.4001
 L 128.447,-35.3799 L 128.386,-35.3673 L 128.224,-35.3445 L 128.13,-35.3401 L 127.737,-35.3591 L 127.703,-35.3618
 L 127.642,-35.3729 L 127.136,-35.4969 L 127.103,-35.5061 L 127.045,-35.5289 L 126.502,-35.7808 L 126.471,-35.7962
 L 126.418,-35.8299 L 125.913,-36.1973 L 125.886,-36.2183 L 125.84,-36.2616 L 125.433,-36.7002 L 125.41,-36.7259
 L 125.374,-36.7771 L 125.1,-37.2195 L 125.083,-37.2485 L 125.057,-37.3057 L 124.918,-37.6741 L 124.893,-37.7645
 L 124.865,-37.9257 L 124.858,-37.981 L 124.858,-38.0438 L 124.866,-38.1061 L 124.881,-38.1669 L 124.972,-38.4457
 L 125.027,-38.9711 L 124.972,-39.4966 L 124.809,-39.9991 L 124.545,-40.4566 L 124.191,-40.8493 L 123.764,-41.1598
 L 123.281,-41.3747 L 122.764,-41.4845 L 122.236,-41.4845 L 121.719,-41.3747 L 121.236,-41.1598 L 120.809,-40.8493
 L 120.613,-40.6314 L 120.573,-40.5921 L 120.524,-40.5535 L 120.47,-40.5213 L 120.412,-40.4962 L 120.259,-40.4402
 L 120.168,-40.4165 L 119.779,-40.3532 L 119.746,-40.3489 L 119.683,-40.3469 L 119.163,-40.3631 L 119.129,-40.3653
 L 119.067,-40.3755 L 118.483,-40.5089 L 118.45,-40.5177 L 118.391,-40.5396 L 117.82,-40.7938 L 117.79,-40.8088
 L 117.736,-40.8416 L 117.247,-41.186 L 117.219,-41.2065 L 117.173,-41.249 L 116.813,-41.6248 L 116.791,-41.6496
 L 116.753,-41.7002 L 116.54,-42.0315 L 116.497,-42.1148 L 116.436,-42.2665 L 116.418,-42.3193 L 116.405,-42.3807
 L 116.4,-42.4433 L 116.402,-42.506 L 116.433,-42.7975 L 116.378,-43.323 L 116.215,-43.8254 L 115.95,-44.283
 L 115.597,-44.6756 L 115.169,-44.9862 L 114.687,-45.2011 L 114.17,-45.3109 L 113.642,-45.3109 L 113.125,-45.2011
 L 112.642,-44.9862 L 112.215,-44.6757 L 111.861,-44.283 L 111.715,-44.0292 L 111.684,-43.9826 L 111.644,-43.9345
 L 111.598,-43.8918 L 111.547,-43.8552 L 111.408,-43.7684 L 111.324,-43.7264 L 110.957,-43.5836 L 110.925,-43.5726
 L 110.864,-43.5576 L 110.352,-43.4653 L 110.319,-43.4604 L 110.256,-43.4574 L 109.657,-43.4666 L 109.623,-43.4683
 L 109.561,-43.4775 L 108.95,-43.6075 L 108.916,-43.6157 L 108.857,-43.6367 L 108.307,-43.8717 L 108.276,-43.8861
 L 108.222,-43.9181 L 107.791,-44.2108 L 107.764,-44.2305 L 107.717,-44.2722 L 107.44,-44.5519 L 107.381,-44.6245
 L 107.289,-44.7602 L 107.261,-44.808 L 107.235,-44.8654 L 107.217,-44.9255 L 107.206,-44.9874 L 107.176,-45.2789
 L 107.013,-45.7814 L 106.748,-46.239 L 106.395,-46.6315 L 105.967,-46.9422 L 105.485,-47.157 L 104.968,-47.2669
 L 104.44,-47.2669 L 103.923,-47.157 L 103.44,-46.9421 L 103.013,-46.6316 L 102.659,-46.2389 L 102.395,-45.7814
 L 102.304,-45.5026 L 102.284,-45.4507 L 102.255,-45.3953 L 102.219,-45.3439 L 102.176,-45.2976 L 102.059,-45.1838
 L 101.985,-45.1253 L 101.656,-44.9093 L 101.627,-44.8919 L 101.571,-44.8645 L 101.089,-44.6678 L 101.057,-44.656
 L 100.996,-44.6401 L 100.409,-44.5246 L 100.375,-44.5192 L 100.313,-44.5152 L 99.6875,-44.5152 L 99.6533,-44.5164
 L 99.591,-44.5246 L 99.0036,-44.6401 L 98.9705,-44.6478 L 98.911,-44.6678 L 98.4292,-44.8646 L 98.3987,-44.8782
 L 98.3441,-44.9093 L 98.0147,-45.1253 L 97.9414,-45.1838 L 97.8237,-45.2975 L 97.7858,-45.3384 L 97.7489,-45.3892
 L 97.7187,-45.4442 L 97.6956,-45.5026 L 97.605,-45.7814 L 97.3408,-46.2389 L 96.9873,-46.6316 L 96.5598,-46.9421
 L 96.0771,-47.157 L 95.5604,-47.2669 L 95.0321,-47.2669 L 94.5152,-47.157 L 94.0327,-46.9422 L 93.6051,-46.6315
 L 93.2517,-46.239 L 92.9875,-45.7814 L 92.8242,-45.2789 L 92.7936,-44.9874 L 92.7847,-44.9324 L 92.7674,-44.8721
 L 92.7427,-44.8144 L 92.7109,-44.7602 L 92.6194,-44.6245 L 92.5599,-44.5519 L 92.2825,-44.2722 L 92.2582,-44.2493
 L 92.2086,-44.2108 L 91.7783,-43.9181 L 91.7495,-43.8999 L 91.6934,-43.8717 L 91.1428,-43.6367 L 91.1109,-43.6243
 L 91.0505,-43.6075 L 90.439,-43.4775 L 90.4054,-43.4715 L 90.3428,-43.4666 L 89.7442,-43.4574 L 89.7102,-43.458
 L 89.6478,-43.4653 L 89.1356,-43.5576 L 89.103,-43.5646 L 89.0431,-43.5836 L 88.676,-43.7264 L 88.5921,-43.7684
 L 88.4533,-43.8552 L 88.4078,-43.8873 L 88.3612,-43.9293 L 88.3201,-43.9769 L 88.2854,-44.0291 L 88.1388,-44.283
 L 87.7853,-44.6757 L 87.3579,-44.9862 L 86.8752,-45.2011 L 86.3584,-45.3109 L 85.8301,-45.3109 L 85.3133,-45.2011
 L 84.8307,-44.9862 L 84.4032,-44.6756 L 84.0497,-44.283 L 83.7855,-43.8254 L 83.6222,-43.323 L 83.567,-42.7975
 L 83.5976,-42.506 L 83.6004,-42.4503 L 83.596,-42.3877 L 83.5838,-42.3261 L 83.564,-42.2665 L 83.5027,-42.1148
 L 83.4596,-42.0315 L 83.2465,-41.7002 L 83.2275,-41.6727 L 83.187,-41.6247 L 82.8268,-41.249 L 82.8025,-41.2253
 L 82.7535,-41.186 L 82.2638,-40.8416 L 82.2352,-40.8229 L 82.1795,-40.7938 L 81.6085,-40.5396 L 81.5768,-40.5268
 L 81.5166,-40.5089 L 80.933,-40.3755 L 80.8996,-40.369 L 80.8371,-40.3631 L 80.3169,-40.3469 L 80.2835,-40.347
 L 80.221,-40.3532 L 79.8322,-40.4165 L 79.7414,-40.4402 L 79.5876,-40.4962 L 79.5365,-40.5181 L 79.4821,-40.5495
 L 79.4321,-40.5875 L 79.3872,-40.6314 L 79.191,-40.8493 L 78.7636,-41.1598 L 78.281,-41.3747 L 77.7642,-41.4845
 L 77.2358,-41.4845 L 76.719,-41.3747 L 76.2364,-41.1598 L 75.809,-40.8493 L 75.4554,-40.4566 L 75.1913,-39.9991
 L 75.028,-39.4966 L 74.9728,-38.9711 L 75.028,-38.4457 L 75.1186,-38.1669 L 75.1328,-38.113 L 75.1416,-38.0508
 L 75.1425,-37.9881 L 75.1355,-37.9257 L 75.1071,-37.7645 L 75.0822,-37.6741 L 74.9426,-37.3057 L 74.9297,-37.2748
 L 74.9001,-37.2195 L 74.626,-36.7771 L 74.6071,-36.7488 L 74.5673,-36.7002 L 74.1599,-36.2616 L 74.1358,-36.2373
 L 74.0874,-36.1973 L 73.5817,-35.8299 L 73.5534,-35.8108 L 73.4982,-35.7808 L 72.9551,-35.5289 L 72.9238,-35.5156
 L 72.8639,-35.4969 L 72.3584,-35.3729 L 72.3257,-35.366 L 72.2633,-35.3591 L 71.8699,-35.3401 L 71.7761,-35.3444
 L 71.6141,-35.3673 L 71.5595,-35.3781 L 71.4997,-35.3975 L 71.4429,-35.4242 L 71.3899,-35.4579 L 71.1527,-35.6302
 L 70.6701,-35.8451 L 70.1533,-35.9549 L 69.625,-35.9549 L 69.1082,-35.845 L 68.6255,-35.6301 L 68.1981,-35.3196
 L 67.8445,-34.927 L 67.5804,-34.4694 L 67.4171,-33.967 L 67.3619,-33.4415 L 67.4171,-32.916 L 67.5804,-32.4136
 L 67.7269,-32.1597 L 67.7521,-32.11 L 67.7736,-32.051 L 67.7875,-31.9898 L 67.7936,-31.9273 L 67.7994,-31.7637
 L 67.7939,-31.6701 L 67.7339,-31.2807 L 67.7277,-31.2479 L 67.7102,-31.1876 L 67.5341,-30.6979 L 67.5215,-30.6663
 L 67.4927,-30.6105 L 67.1854,-30.0967 L 67.1669,-30.068 L 67.1279,-30.0188 L 66.7096,-29.5542 L 66.6859,-29.5296
 L 66.6381,-29.4889 L 66.1593,-29.1296 L 66.1314,-29.1101 L 66.0767,-29.0793 L 65.608,-28.8529 L 65.5775,-28.8394
 L 65.5179,-28.8196 L 65.137,-28.7193 L 65.0444,-28.704 L 64.8811,-28.6926 L 64.8254,-28.6919 L 64.763,-28.6984
 L 64.7018,-28.7128 L 64.643,-28.7346 L 64.3752,-28.8539 L 63.8584,-28.9637 L 63.3301,-28.9637 L 62.8133,-28.8539
 L 62.3306,-28.639 L 61.9031,-28.3284 L 61.5497,-27.9358 L 61.2855,-27.4783 L 61.1222,-26.9758 L 61.067,-26.4503
 L 61.1222,-25.9249 L 61.2855,-25.4224 L 61.5497,-24.9649 L 61.7458,-24.747 L 61.7807,-24.7036 L 61.814,-24.6504
 L 61.8403,-24.5934 L 61.8593,-24.5336 L 61.899,-24.3747 L 61.9131,-24.282 L 61.9354,-23.8887 L 61.9361,-23.8553
 L 61.9316,-23.7926 L 61.8611,-23.277 L 61.8553,-23.2435 L 61.8388,-23.1829 L 61.645,-22.6165 L 61.6329,-22.5845
 L 61.6049,-22.5283 L 61.2924,-21.9869 L 61.2743,-21.9579 L 61.2361,-21.9081 L 60.8424,-21.4571 L 60.8192,-21.4323
 L 60.772,-21.3908 L 60.3607,-21.0719 L 60.3336,-21.0523 L 60.2795,-21.0206 L 59.9277,-20.8433 L 59.8403,-20.8091
 L 59.683,-20.764 L 59.6287,-20.7517 L 59.5663,-20.7451 L 59.5035,-20.7464 L 59.4414,-20.7556 L 59.1546,-20.8165
 L 58.6263,-20.8165 L 58.1095,-20.7067 L 57.6269,-20.4918 L 57.1994,-20.1812 L 56.8459,-19.7885 L 56.5817,-19.3311
 L 56.4185,-18.8286 L 56.3632,-18.3031 L 56.4185,-17.7777 L 56.5817,-17.2752 L 56.8459,-16.8177 L 57.1994,-16.425
 L 57.4366,-16.2527 L 57.4797,-16.2175 L 57.5234,-16.1724 L 57.561,-16.1221 L 57.592,-16.0675 L 57.6638,-15.9204
 L 57.6969,-15.8326 L 57.8004,-15.4526 L 57.8082,-15.42 L 57.8167,-15.3578 L 57.8549,-14.8388 L 57.8563,-14.8048
 L 57.8527,-14.7421 L 57.7809,-14.1478 L 57.7757,-14.114 L 57.7601,-14.0532 L 57.5669,-13.4587 L 57.5552,-13.4266
 L 57.5282,-13.3699 L 57.2369,-12.8469 L 57.2193,-12.8178 L 57.1819,-12.7674 L 56.8459,-12.3699 L 56.8234,-12.3452
 L 56.777,-12.3029 L 56.4698,-12.0563 L 56.3915,-12.0047 L 56.247,-11.9279 L 56.1964,-11.9045 L 56.1367,-11.8851
 L 56.075,-11.8734 L 56.0123,-11.8694 L 55.7192,-11.8694 L 55.2024,-11.7596 L 54.7198,-11.5447 L 54.2923,-11.2341
 L 53.9388,-10.8414 L 53.6746,-10.384 L 53.5114,-9.88148 L 53.4561,-9.35605 L 53.5114,-8.83052 L 53.6746,-8.32811
 L 53.9388,-7.87056 L 54.2923,-7.47789 L 54.7197,-7.16736 L 54.9875,-7.04814 L 55.0371,-7.02269 L 55.0891,-6.98759
 L 55.1364,-6.94624 L 55.1781,-6.89929 L 55.2789,-6.77034 L 55.3295,-6.69133 L 55.5098,-6.34113 L 55.5241,-6.3109
 L 55.5454,-6.25183 L 55.6907,-5.75209 L 55.6991,-5.71915 L 55.7086,-5.65707 L 55.762,-5.06081 L 55.7639,-5.02667
 L 55.7613,-4.96393 L 55.6959,-4.34225 L 55.6912,-4.30843 L 55.6765,-4.24738 L 55.5003,-3.67523 L 55.4892,-3.64308
 L 55.4631,-3.586 L 55.217,-3.1274 L 55.2002,-3.09848 L 55.1636,-3.04745 L 54.9144,-2.7424 L 54.8485,-2.67563
 L 54.7231,-2.57047 L 54.6785,-2.53711 L 54.6241,-2.50571 L 54.5662,-2.48138 L 54.5058,-2.46449 L 54.219,-2.40355
 L 53.7364,-2.18867 L 53.309,-1.87811 L 52.9554,-1.48544 L 52.6912,-1.02791 L 52.528,-0.525406 L 52.4727,-0
 L 52.528,0.525406 L 52.6912,1.02791 L 52.9554,1.48544 L 53.309,1.87811 L 53.7364,2.18867 L 54.219,2.40355
 L 54.5058,2.46449 L 54.5595,2.4791 L 54.6177,2.50259 L 54.6726,2.53322 L 54.7231,2.57047 L 54.8485,2.67564
 L 54.9144,2.74242 L 55.1637,3.04747 L 55.1839,3.07405 L 55.217,3.12741 L 55.4631,3.58601 L 55.4781,3.6165
 L 55.5003,3.67523 L 55.6765,4.24736 L 55.6855,4.28036 L 55.696,4.34227 L 55.7613,4.96396 L 55.7637,4.99805
 L 55.762,5.06081 L 55.7086,5.65707 L 55.7045,5.69084 L 55.6907,5.75212 L 55.5454,6.25186 L 55.535,6.2836
 L 55.5098,6.34113 L 55.3295,6.69133 L 55.2789,6.77039 L 55.1781,6.89932 L 55.1414,6.94121 L 55.0947,6.98322
 L 55.0432,7.01906 L 54.9875,7.04814 L 54.7197,7.16737 L 54.2923,7.47789 L 53.9388,7.87056 L 53.6746,8.32811
 L 53.5114,8.83052 L 53.4561,9.35603 L 53.5114,9.88148 L 53.6746,10.384 L 53.9388,10.8414 L 54.2923,11.2341
 L 54.7198,11.5447 L 55.2024,11.7596 L 55.7192,11.8694 L 56.0123,11.8694 L 56.0679,11.8725 L 56.1298,11.8834
 L 56.1898,11.902 L 56.2469,11.9279 L 56.3915,12.0047 L 56.4698,12.0563 L 56.777,12.3029 L 56.8024,12.3247
 L 56.8459,12.37 L 57.1819,12.7674 L 57.203,12.7941 L 57.2369,12.8469 L 57.5282,13.3699 L 57.5438,13.4003
 L 57.5669,13.4587 L 57.7601,14.0532 L 57.7695,14.0861 L 57.7809,14.1478 L 57.8527,14.7422 L 57.8556,14.7761
 L 57.8549,14.8389 L 57.8167,15.3579 L 57.8131,15.3911 L 57.8004,15.4526 L 57.6969,15.8326 L 57.6638,15.9204
 L 57.592,16.0675 L 57.5648,16.1162 L 57.5279,16.167 L 57.4849,16.2127 L 57.4366,16.2528 L 57.1994,16.425
 L 56.8459,16.8177 L 56.5817,17.2752 L 56.4185,17.7777 L 56.3632,18.3031 L 56.4185,18.8286 L 56.5817,19.3311
 L 56.8459,19.7885 L 57.1994,20.1812 L 57.6269,20.4918 L 58.1095,20.7067 L 58.6263,20.8165 L 59.1546,20.8165
 L 59.4413,20.7556 L 59.4964,20.7471 L 59.5592,20.7449 L 59.6217,20.7505 L 59.683,20.764 L 59.8404,20.8091
 L 59.9277,20.8433 L 60.2795,21.0206 L 60.3088,21.0366 L 60.3607,21.0719 L 60.7721,21.3908 L 60.7982,21.4125
 L 60.8424,21.4571 L 61.2361,21.9081 L 61.2577,21.9346 L 61.2924,21.9869 L 61.6049,22.5283 L 61.621,22.5585
 L 61.645,22.6165 L 61.8388,23.1829 L 61.8487,23.2155 L 61.8611,23.277 L 61.9316,23.7927 L 61.935,23.8259
 L 61.9354,23.8887 L 61.9131,24.282 L 61.899,24.3747 L 61.8594,24.5335 L 61.8429,24.5867 L 61.8173,24.6441
 L 61.7848,24.6978 L 61.7458,24.747 L 61.5497,24.9649 L 61.2855,25.4224 L 61.1222,25.9249 L 61.067,26.4503
 L 61.1222,26.9758 L 61.2855,27.4783 L 61.5497,27.9358 L 61.9031,28.3284 L 62.3306,28.639 L 62.8133,28.8539
 L 63.3301,28.9637 L 63.8584,28.9637 L 64.3752,28.8539 L 64.643,28.7346 L 64.6951,28.7149 L 64.756,28.6997
 L 64.8183,28.6922 L 64.8811,28.6926 L 65.0444,28.704 L 65.1369,28.7193 L 65.5179,28.8196 L 65.5499,28.8292
 L 65.6081,28.8529 L 66.0767,29.0793 L 66.1068,29.0951 L 66.1593,29.1296 L 66.6381,29.4889 L 66.6647,29.5103
 L 66.7096,29.5542 L 67.1279,30.0188 L 67.1498,30.0449 L 67.1854,30.0967 L 67.4927,30.6105 L 67.5092,30.6403
 L 67.5341,30.6979 L 67.7102,31.1876 L 67.7205,31.2194 L 67.7339,31.2808 L 67.7939,31.6701 L 67.7994,31.7637
 L 67.7936,31.9273 L 67.7886,31.9828 L 67.7755,32.0442 L 67.7549,32.1035 L 67.7269,32.1597 L 67.5804,32.4136
 L 67.4171,32.916 L 67.3619,33.4415 L 67.4171,33.967 L 67.5804,34.4694 L 67.8445,34.927 L 68.1981,35.3196
 L 68.6255,35.6301 L 69.1082,35.845 L 69.625,35.9549 L 70.1533,35.9549 L 70.6701,35.8451 L 71.1528,35.6301
 L 71.3899,35.4579 L 71.4367,35.4277 L 71.4931,35.4001 L 71.5526,35.3799 L 71.6141,35.3673 L 71.7762,35.3445
 L 71.8699,35.3401 L 72.2633,35.3591 L 72.2967,35.3618 L 72.3585,35.3729 L 72.8639,35.4969 L 72.8966,35.5061
 L 72.9551,35.5289 L 73.4982,35.7808 L 73.5287,35.7962 L 73.5818,35.8299 L 74.0875,36.1973 L 74.1144,36.2183
 L 74.1599,36.2616 L 74.5673,36.7002 L 74.5896,36.7259 L 74.626,36.7771 L 74.9001,37.2195 L 74.9168,37.2485
 L 74.9427,37.3057 L 75.0822,37.6741 L 75.1071,37.7645 L 75.1355,37.9257 L 75.1421,37.981 L 75.1421,38.0438
 L 75.1342,38.1061 L 75.1186,38.1669 L 75.028,38.4457 L 74.9728,38.9711 L 75.028,39.4966 L 75.1913,39.9991
 L 75.4554,40.4566 L 75.809,40.8493 L 76.2364,41.1598 L 76.719,41.3747 L 77.2358,41.4845 L 77.7642,41.4845
 L 78.281,41.3747 L 78.7636,41.1598 L 79.191,40.8493 L 79.3872,40.6314 L 79.4267,40.5921 L 79.4762,40.5535
 L 79.5301,40.5213 L 79.5877,40.4962 L 79.7415,40.4402 L 79.8322,40.4165 L 80.221,40.3532 L 80.2542,40.3489
 L 80.3169,40.3469 L 80.8371,40.3631 L 80.871,40.3653 L 80.933,40.3755 L 81.5166,40.5089 L 81.5497,40.5177
 L 81.6085,40.5396 L 82.1796,40.7938 L 82.2103,40.8088 L 82.2638,40.8416 L 82.7535,41.186 L 82.7807,41.2065
 L 82.8269,41.249 L 83.187,41.6248 L 83.2093,41.6496 L 83.2465,41.7002 L 83.4596,42.0315 L 83.5027,42.1148
 L 83.564,42.2665 L 83.582,42.3193 L 83.595,42.3807 L 83.6003,42.4433 L 83.5976,42.506 L 83.567,42.7975
 L 83.6222,43.323 L 83.7855,43.8254 L 84.0497,44.283 L 84.4032,44.6756 L 84.8307,44.9862 L 85.3133,45.2011
 L 85.8301,45.3109 L 86.3584,45.3109 L 86.8752,45.2011 L 87.3579,44.9862 L 87.7853,44.6757 L 88.1388,44.283
 L 88.2854,44.0292 L 88.3159,43.9826 L 88.3562,43.9345 L 88.4023,43.8918 L 88.4533,43.8552 L 88.5921,43.7684
 L 88.676,43.7264 L 89.0431,43.5836 L 89.0747,43.5726 L 89.1357,43.5576 L 89.6479,43.4653 L 89.6815,43.4604
 L 89.7442,43.4574 L 90.3428,43.4666 L 90.3769,43.4683 L 90.4391,43.4775 L 91.0505,43.6075 L 91.0836,43.6157
 L 91.1428,43.6367 L 91.6934,43.8717 L 91.7242,43.8861 L 91.7783,43.9181 L 92.2087,44.2108 L 92.2357,44.2305
 L 92.2826,44.2722 L 92.5599,44.5519 L 92.6194,44.6245 L 92.7109,44.7602 L 92.7394,44.808 L 92.765,44.8654
 L 92.7831,44.9255 L 92.7936,44.9874 L 92.8242,45.2789 L 92.9875,45.7814 L 93.2517,46.239 L 93.6051,46.6315
 L 94.0327,46.9422 L 94.5152,47.157 L 95.0321,47.2669 L 95.5604,47.2669 L 96.0771,47.157 L 96.5598,46.9421
 L 96.9873,46.6316 L 97.3408,46.2389 L 97.605,45.7814 L 97.6956,45.5026 L 97.7157,45.4507 L 97.7451,45.3953
 L 97.7813,45.3439 L 97.8237,45.2976 L 97.9414,45.1838 L 98.0147,45.1253 L 98.3441,44.9093 L 98.3727,44.8919
 L 98.4292,44.8645 L 98.911,44.6678 L 98.9429,44.656 L 99.0036,44.6401 L 99.5911,44.5246 L 99.6248,44.5192
 L 99.6875,44.5152 L 100.313,44.5152 L 100.347,44.5164 L 100.409,44.5246 L 100.996,44.6401 L 101.03,44.6478
 L 101.089,44.6678 L 101.571,44.8646 L 101.601,44.8782 L 101.656,44.9093 L 101.985,45.1253 L 102.059,45.1838
 L 102.176,45.2975 L 102.214,45.3384 L 102.251,45.3892 L 102.281,45.4442 L 102.304,45.5026 L 102.395,45.7814
 L 102.659,46.2389 L 103.013,46.6316 L 103.44,46.9421 L 103.923,47.157 L 104.44,47.2669 L 104.968,47.2669
 z
M 99.8116,-19.0059 L 99.4379,-19.0531 L 99.073,-19.1468 L 98.7227,-19.2855 L 98.3925,-19.467 L 98.0877,-19.6884
 L 97.8131,-19.9464 L 97.573,-20.2366 L 97.3711,-20.5547 L 97.2107,-20.8956 L 97.0943,-21.2539 L 97.0237,-21.624
 L 97,-22 L 97.0237,-22.376 L 97.0943,-22.7461 L 97.2107,-23.1044 L 97.3711,-23.4453 L 97.573,-23.7634
 L 97.8131,-24.0536 L 98.0877,-24.3115 L 98.3925,-24.533 L 98.7227,-24.7145 L 99.073,-24.8532 L 99.4379,-24.9469
 L 99.8116,-24.9941 L 100.188,-24.9941 L 100.562,-24.9469 L 100.927,-24.8532 L 101.277,-24.7145 L 101.607,-24.533
 L 101.912,-24.3115 L 102.187,-24.0536 L 102.427,-23.7634 L 102.629,-23.4453 L 102.789,-23.1044 L 102.906,-22.7461
 L 102.976,-22.376 L 103,-22 L 102.976,-21.624 L 102.906,-21.2539 L 102.789,-20.8956 L 102.629,-20.5547
 L 102.427,-20.2366 L 102.187,-19.9464 L 101.912,-19.6884 L 101.607,-19.467 L 101.277,-19.2855 L 100.927,-19.1468
 L 100.562,-19.0531 L 100.188,-19.0059 z
M 113.413,-12.2517 L 111.827,-15 L 113.413,-17.7483 L 116.587,-17.7483 L 118.173,-15 L 116.587,-12.2517
 z
M 84.887,-13.2036 L 84.6627,-13.2319 L 84.4438,-13.2881 L 84.2336,-13.3713 L 84.0355,-13.4802 L 83.8526,-13.6131
 L 83.6879,-13.7678 L 83.5438,-13.942 L 83.4226,-14.1328 L 83.3264,-14.3374 L 83.2565,-14.5524 L 83.2142,-14.7744
 L 83.2,-15 L 83.2142,-15.2256 L 83.2565,-15.4476 L 83.3264,-15.6626 L 83.4226,-15.8671 L 83.5438,-16.058
 L 83.6879,-16.2322 L 83.8526,-16.3869 L 84.0355,-16.5198 L 84.2336,-16.6287 L 84.4438,-16.7119 L 84.6627,-16.7681
 L 84.887,-16.7964 L 85.113,-16.7964 L 85.3373,-16.7681 L 85.5562,-16.7119 L 85.7664,-16.6287 L 85.9645,-16.5198
 L 86.1474,-16.3869 L 86.3121,-16.2322 L 86.4562,-16.058 L 86.5773,-15.8671 L 86.6736,-15.6626 L 86.7434,-15.4476
 L 86.7858,-15.2256 L 86.8,-15 L 86.7858,-14.7744 L 86.7434,-14.5524 L 86.6736,-14.3374 L 86.5773,-14.1328
 L 86.4562,-13.942 L 86.3121,-13.7678 L 86.1474,-13.6131 L 85.9645,-13.4802 L 85.7664,-13.3713 L 85.5562,-13.2881
 L 85.3373,-13.2319 L 85.113,-13.2036 z
M 98.9953,15.9684 L 97.0019,15.7166 L 95.0557,15.2169 L 93.1875,14.4772 L 91.4268,13.5092 L 89.8012,12.3282
 L 88.3365,10.9527 L 87.0557,9.40456 L 85.9791,7.70805 L 85.1236,5.88998 L 84.5027,3.97903 L 84.1262,2.00533
 L 84,-0 L 84.1262,-2.00533 L 84.5027,-3.97903 L 85.1236,-5.88998 L 85.9791,-7.70805 L 87.0557,-9.40456
 L 88.3365,-10.9527 L 89.8012,-12.3282 L 91.4268,-13.5092 L 93.1875,-14.4772 L 95.0557,-15.2169 L 97.0019,-15.7166
 L 98.9953,-15.9684 L 101.005,-15.9684 L 102.998,-15.7166 L 104.944,-15.2169 L 106.812,-14.4772 L 108.573,-13.5092
 L 110.199,-12.3282 L 111.663,-10.9527 L 112.944,-9.40456 L 114.021,-7.70805 L 114.876,-5.88998 L 115.497,-3.97903
 L 115.874,-2.00533 L 116,-0 L 115.874,2.00533 L 115.497,3.97903 L 114.876,5.88998 L 114.021,7.70805
 L 112.944,9.40456 L 111.663,10.9527 L 110.199,12.3282 L 108.573,13.5092 L 106.812,14.4772 L 104.944,15.2169
 L 102.998,15.7166 L 101.005,15.9684 z
M 102.342,12.2786 L 103.863,11.8882 L 105.322,11.3103 L 106.698,10.5541 L 107.968,9.63141 L 109.112,8.55682
 L 110.113,7.34731 L 110.954,6.02191 L 111.622,4.60155 L 112.107,3.10861 L 112.401,1.56665 L 112.5,-0
 L 112.401,-1.56665 L 112.107,-3.10861 L 111.622,-4.60155 L 110.954,-6.02191 L 110.113,-7.34731 L 109.112,-8.55682
 L 107.968,-9.63141 L 106.698,-10.5541 L 105.322,-11.3103 L 103.863,-11.8882 L 102.342,-12.2786 L 100.785,-12.4753
 L 99.2151,-12.4753 L 97.6577,-12.2786 L 96.1373,-11.8882 L 94.6777,-11.3103 L 93.3022,-10.5541 L 92.0322,-9.63141
 L 90.8879,-8.55682 L 89.8873,-7.34731 L 89.0462,-6.02191 L 88.3778,-4.60155 L 87.8927,-3.10861 L 87.5986,-1.56665
 L 87.5,-0 L 87.5986,1.56665 L 87.8927,3.10861 L 88.3778,4.60155 L 89.0462,6.02191 L 89.8873,7.34731
 L 90.8879,8.55682 L 92.0322,9.63141 L 93.3022,10.5541 L 94.6777,11.3103 L 96.1373,11.8882 L 97.6577,12.2786
 L 99.2151,12.4753 L 100.785,12.4753 z
M 77.8116,2.99408 L 77.4379,2.94685 L 77.073,2.85316 L 76.7227,2.71448 L 76.3925,2.53297 L 76.0877,2.31154
 L 75.8131,2.05363 L 75.573,1.76335 L 75.3711,1.44525 L 75.2107,1.10437 L 75.0943,0.746063 L 75.0237,0.375992
 L 75,-0 L 75.0237,-0.375992 L 75.0943,-0.746063 L 75.2107,-1.10437 L 75.3711,-1.44525 L 75.573,-1.76335
 L 75.8131,-2.05363 L 76.0877,-2.31154 L 76.3925,-2.53297 L 76.7227,-2.71448 L 77.073,-2.85316 L 77.4379,-2.94685
 L 77.8116,-2.99408 L 78.1884,-2.99408 L 78.5621,-2.94685 L 78.927,-2.85316 L 79.2773,-2.71448 L 79.6075,-2.53297
 L 79.9123,-2.31154 L 80.1869,-2.05363 L 80.427,-1.76335 L 80.6289,-1.44525 L 80.7893,-1.10437 L 80.9057,-0.746063
 L 80.9763,-0.375992 L 81,-0 L 80.9763,0.375992 L 80.9057,0.746063 L 80.7893,1.10437 L 80.6289,1.44525
 L 80.427,1.76335 L 80.1869,2.05363 L 79.9123,2.31154 L 79.6075,2.53297 L 79.2773,2.71448 L 78.927,2.85316
 L 78.5621,2.94685 L 78.1884,2.99408 z
M 121.812,2.99408 L 121.438,2.94685 L 121.073,2.85316 L 120.723,2.71448 L 120.393,2.53297 L 120.088,2.31154
 L 119.813,2.05363 L 119.573,1.76335 L 119.371,1.44525 L 119.211,1.10437 L 119.094,0.746063 L 119.024,0.375992
 L 119,-0 L 119.024,-0.375992 L 119.094,-0.746063 L 119.211,-1.10437 L 119.371,-1.44525 L 119.573,-1.76335
 L 119.813,-2.05363 L 120.088,-2.31154 L 120.393,-2.53297 L 120.723,-2.71448 L 121.073,-2.85316 L 121.438,-2.94685
 L 121.812,-2.99408 L 122.188,-2.99408 L 122.562,-2.94685 L 122.927,-2.85316 L 123.277,-2.71448 L 123.607,-2.53297
 L 123.912,-2.31154 L 124.187,-2.05363 L 124.427,-1.76335 L 124.629,-1.44525 L 124.789,-1.10437 L 124.906,-0.746063
 L 124.976,-0.375992 L 125,-0 L 124.976,0.375992 L 124.906,0.746063 L 124.789,1.10437 L 124.629,1.44525
 L 124.427,1.76335 L 124.187,2.05363 L 123.912,2.31154 L 123.607,2.53297 L 123.277,2.71448 L 122.927,2.85316
 L 122.562,2.94685 L 122.188,2.99408 z
M 83.4133,17.7483 L 81.8265,15 L 83.4133,12.2517 L 86.5867,12.2517 L 88.1735,15 L 86.5867,17.7483
 z
M 114.887,16.7964 L 114.663,16.7681 L 114.444,16.7119 L 114.234,16.6287 L 114.036,16.5198 L 113.853,16.3869
 L 113.688,16.2322 L 113.544,16.058 L 113.423,15.8671 L 113.326,15.6626 L 113.257,15.4476 L 113.214,15.2256
 L 113.2,15 L 113.214,14.7744 L 113.257,14.5524 L 113.326,14.3374 L 113.423,14.1328 L 113.544,13.942
 L 113.688,13.7678 L 113.853,13.6131 L 114.036,13.4802 L 114.234,13.3713 L 114.444,13.2881 L 114.663,13.2319
 L 114.887,13.2036 L 115.113,13.2036 L 115.337,13.2319 L 115.556,13.2881 L 115.766,13.3713 L 115.964,13.4802
 L 116.147,13.6131 L 116.312,13.7678 L 116.456,13.942 L 116.577,14.1328 L 116.674,14.3374 L 116.743,14.5524
 L 116.786,14.7744 L 116.8,15 L 116.786,15.2256 L 116.743,15.4476 L 116.674,15.6626 L 116.577,15.8671
 L 116.456,16.058 L 116.312,16.2322 L 116.147,16.3869 L 115.964,16.5198 L 115.766,16.6287 L 115.556,16.7119
 L 115.337,16.7681 L 115.113,16.7964 z
M 99.8116,24.9941 L 99.4379,24.9469 L 99.073,24.8532 L 98.7227,24.7145 L 98.3925,24.533 L 98.0877,24.3115
 L 97.8131,24.0536 L 97.573,23.7634 L 97.3711,23.4453 L 97.2107,23.1044 L 97.0943,22.7461 L 97.0237,22.376
 L 97,22 L 97.0237,21.624 L 97.0943,21.2539 L 97.2107,20.8956 L 97.3711,20.5547 L 97.573,20.2366
 L 97.8131,19.9464 L 98.0877,19.6884 L 98.3925,19.467 L 98.7227,19.2855 L 99.073,19.1468 L 99.4379,19.0531
 L 99.8116,19.0059 L 100.188,19.0059 L 100.562,19.0531 L 100.927,19.1468 L 101.277,19.2855 L 101.607,19.467
 L 101.912,19.6884 L 102.187,19.9464 L 102.427,20.2366 L 102.629,20.5547 L 102.789,20.8956 L 102.906,21.2539
 L 102.976,21.624 L 103,22 L 102.976,22.376 L 102.906,22.7461 L 102.789,23.1044 L 102.629,23.4453
 L 102.427,23.7634 L 102.187,24.0536 L 101.912,24.3115 L 101.607,24.533 L 101.277,24.7145 L 100.927,24.8532
 L 100.562,24.9469 L 100.188,24.9941 z
" stroke="black" fill="lightgray" stroke-width="0.5"/>
</svg>
