<?xml version="1.0" standalone="no"?>
<!DOCTYPE svg PUBLIC "-//W3C//DTD SVG 1.1//EN" "http://www.w3.org/Graphics/SVG/1.1/DTD/svg11.dtd">
<svg width="134mm" height="293mm" viewBox="-67 -226 134 293" xmlns="http://www.w3.org/2000/svg" version="1.1">
<title>OpenSCAD Model</title>
<path d="
M 12.5545,-93.1868 L 20.7041,-95.2792 L 28.5272,-98.3766 L 35.9004,-102.43 L 42.7074,-107.376 L 48.8409,-113.135
 L 54.2041,-119.618 L 58.7125,-126.723 L 62.295,-134.336 L 64.8951,-142.338 L 66.4717,-150.603 L 67,-159
 L 66.4717,-167.397 L 64.8951,-175.662 L 62.295,-183.664 L 58.7125,-191.277 L 54.2041,-198.382 L 48.8409,-204.865
 L 42.7074,-210.624 L 35.9004,-215.57 L 28.5272,-219.623 L 20.7041,-222.721 L 12.5545,-224.813 L 4.20695,-225.868
 L -4.20695,-225.868 L -12.5545,-224.813 L -20.7041,-222.721 L -28.5272,-219.623 L -35.9004,-215.57 L -42.7074,-210.624
 L -48.8409,-204.865 L -54.2041,-198.382 L -58.7125,-191.277 L -62.295,-183.664 L -64.8951,-175.662 L -66.4717,-167.397
 L -67,-159 L -66.4717,-150.603 L -64.8951,-142.338 L -62.295,-134.336 L -58.7125,-126.723 L -54.2041,-119.618
 L -48.8409,-113.135 L -42.7074,-107.376 L -35.9004,-102.43 L -28.5272,-98.3766 L -20.7041,-95.2792 L -12.5545,-93.1868
 L -4.20695,-92.1322 L 4.20695,-92.1322 z
M -0.18837,-216.006 L -0.562134,-216.053 L -0.927048,-216.147 L -1.27733,-216.286 L -1.60747,-216.467 L -1.91226,-216.688
 L -2.1869,-216.946 L -2.42705,-217.237 L -2.62891,-217.555 L -2.78932,-217.896 L -2.90575,-218.254 L -2.97633,-218.624
 L -3,-219 L -2.97633,-219.376 L -2.90575,-219.746 L -2.78932,-220.104 L -2.62891,-220.445 L -2.42705,-220.763
 L -2.1869,-221.054 L -1.91226,-221.312 L -1.60747,-221.533 L -1.27733,-221.714 L -0.927048,-221.853 L -0.562134,-221.947
 L -0.18837,-221.994 L 0.18837,-221.994 L 0.562134,-221.947 L 0.927048,-221.853 L 1.27733,-221.714 L 1.60747,-221.533
 L 1.91226,-221.312 L 2.1869,-221.054 L 2.42705,-220.763 L 2.62891,-220.445 L 2.78932,-220.104 L 2.90575,-219.746
 L 2.97633,-219.376 L 3,-219 L 2.97633,-218.624 L 2.90575,-218.254 L 2.78932,-217.896 L 2.62891,-217.555
 L 2.42705,-217.237 L 2.1869,-216.946 L 1.91226,-216.688 L 1.60747,-216.467 L 1.27733,-216.286 L 0.927048,-216.147
 L 0.562134,-216.053 L 0.18837,-216.006 z
M -2.72083,-205.942 L -3.09459,-205.989 L -3.4595,-206.083 L -3.80978,-206.221 L -4.13994,-206.403 L -4.44472,-206.624
 L -4.71936,-206.882 L -4.9595,-207.172 L -5.16138,-207.491 L -5.32178,-207.831 L -5.4382,-208.19 L -5.50879,-208.56
 L -5.53246,-208.936 L -5.50879,-209.312 L -5.4382,-209.682 L -5.32178,-210.04 L -5.16138,-210.381 L -4.9595,-210.699
 L -4.71936,-210.989 L -4.44472,-211.247 L -4.13994,-211.469 L -3.80978,-211.65 L -3.4595,-211.789 L -3.09459,-211.883
 L -2.72083,-211.93 L -2.34409,-211.93 L -1.97031,-211.883 L -1.60539,-211.789 L -1.25511,-211.65 L -0.924973,-211.469
 L -0.620178,-211.247 L -0.345551,-210.989 L -0.105392,-210.699 L 0.0964508,-210.381 L 0.256866,-210.04 L 0.373291,-209.682
 L 0.443878,-209.312 L 0.467529,-208.936 L 0.443878,-208.56 L 0.373291,-208.19 L 0.256866,-207.831 L 0.0964508,-207.491
 L -0.105392,-207.172 L -0.345551,-206.882 L -0.620178,-206.624 L -0.924973,-206.403 L -1.25511,-206.221 L -1.60539,-206.083
 L -1.97031,-205.989 L -2.34409,-205.942 z
M 7.38301,-205.429 L 7.00923,-205.477 L 6.64433,-205.57 L 6.29404,-205.709 L 5.9639,-205.89 L 5.6591,-206.112
 L 5.38448,-206.37 L 5.14433,-206.66 L 4.94246,-206.978 L 4.78206,-207.319 L 4.66563,-207.677 L 4.59503,-208.047
 L 4.57138,-208.423 L 4.59503,-208.799 L 4.66563,-209.169 L 4.78206,-209.528 L 4.94246,-209.869 L 5.14433,-210.187
 L 5.38448,-210.477 L 5.6591,-210.735 L 5.9639,-210.956 L 6.29404,-211.138 L 6.64433,-211.277 L 7.00923,-211.37
 L 7.38301,-211.417 L 7.75975,-211.417 L 8.13353,-211.37 L 8.49843,-211.277 L 8.84872,-211.138 L 9.17886,-210.956
 L 9.48366,-210.735 L 9.75829,-210.477 L 9.99843,-210.187 L 10.2003,-209.869 L 10.3607,-209.528 L 10.4771,-209.169
 L 10.5477,-208.799 L 10.5714,-208.423 L 10.5477,-208.047 L 10.4771,-207.677 L 10.3607,-207.319 L 10.2003,-206.978
 L 9.99843,-206.66 L 9.75829,-206.37 L 9.48366,-206.112 L 9.17886,-205.89 L 8.84872,-205.709 L 8.49843,-205.57
 L 8.13353,-205.477 L 7.75975,-205.429 z
M -12.721,-204.41 L -13.0948,-204.457 L -13.4597,-204.551 L -13.81,-204.689 L -14.1401,-204.871 L -14.4449,-205.092
 L -14.7195,-205.35 L -14.9597,-205.64 L -15.1615,-205.959 L -15.3219,-206.299 L -15.4384,-206.658 L -15.509,-207.028
 L -15.5326,-207.404 L -15.509,-207.78 L -15.4384,-208.15 L -15.3219,-208.508 L -15.1615,-208.849 L -14.9597,-209.167
 L -14.7195,-209.457 L -14.4449,-209.715 L -14.1401,-209.937 L -13.81,-210.118 L -13.4597,-210.257 L -13.0948,-210.351
 L -12.721,-210.398 L -12.3443,-210.398 L -11.9705,-210.351 L -11.6056,-210.257 L -11.2553,-210.118 L -10.9251,-209.937
 L -10.6203,-209.715 L -10.3457,-209.457 L -10.1056,-209.167 L -9.9037,-208.849 L -9.74329,-208.508 L -9.62688,-208.15
 L -9.55627,-207.78 L -9.53262,-207.404 L -9.55627,-207.028 L -9.62688,-206.658 L -9.74329,-206.299 L -9.9037,-205.959
 L -10.1056,-205.64 L -10.3457,-205.35 L -10.6203,-205.092 L -10.9251,-204.871 L -11.2553,-204.689 L -11.6056,-204.551
 L -11.9705,-204.457 L -12.3443,-204.41 z
M 17.1769,-202.894 L 16.8031,-202.941 L 16.4382,-203.034 L 16.0879,-203.173 L 15.7578,-203.355 L 15.453,-203.576
 L 15.1783,-203.834 L 14.9382,-204.124 L 14.7363,-204.442 L 14.5759,-204.783 L 14.4595,-205.142 L 14.3889,-205.512
 L 14.3652,-205.888 L 14.3889,-206.264 L 14.4595,-206.634 L 14.5759,-206.992 L 14.7363,-207.333 L 14.9382,-207.651
 L 15.1783,-207.941 L 15.453,-208.199 L 15.7578,-208.421 L 16.0879,-208.602 L 16.4382,-208.741 L 16.8031,-208.834
 L 17.1769,-208.882 L 17.5536,-208.882 L 17.9274,-208.834 L 18.2923,-208.741 L 18.6426,-208.602 L 18.9727,-208.421
 L 19.2775,-208.199 L 19.5522,-207.941 L 19.7923,-207.651 L 19.9942,-207.333 L 20.1546,-206.992 L 20.271,-206.634
 L 20.3416,-206.264 L 20.3652,-205.888 L 20.3416,-205.512 L 20.271,-205.142 L 20.1546,-204.783 L 19.9942,-204.442
 L 19.7923,-204.124 L 19.5522,-203.834 L 19.2775,-203.576 L 18.9727,-203.355 L 18.6426,-203.173 L 18.2923,-203.034
 L 17.9274,-202.941 L 17.5536,-202.894 z
M -22.2081,-200.896 L -22.5818,-200.943 L -22.9467,-201.037 L -23.297,-201.176 L -23.6272,-201.357 L -23.932,-201.579
 L -24.2066,-201.837 L -24.4467,-202.127 L -24.6486,-202.445 L -24.809,-202.786 L -24.9254,-203.144 L -24.996,-203.514
 L -25.0197,-203.89 L -24.996,-204.266 L -24.9254,-204.636 L -24.809,-204.995 L -24.6486,-205.335 L -24.4467,-205.654
 L -24.2066,-205.944 L -23.932,-206.202 L -23.6272,-206.423 L -23.297,-206.605 L -22.9467,-206.743 L -22.5818,-206.837
 L -22.2081,-206.884 L -21.8313,-206.884 L -21.4576,-206.837 L -21.0927,-206.743 L -20.7424,-206.605 L -20.4122,-206.423
 L -20.1074,-206.202 L -19.8328,-205.944 L -19.5927,-205.654 L -19.3908,-205.335 L -19.2304,-204.995 L -19.114,-204.636
 L -19.0434,-204.266 L -19.0197,-203.89 L -19.0434,-203.514 L -19.114,-203.144 L -19.2304,-202.786 L -19.3908,-202.445
 L -19.5927,-202.127 L -19.8328,-201.837 L -20.1074,-201.579 L -20.4122,-201.357 L -20.7424,-201.176 L -21.0927,-201.037
 L -21.4576,-200.943 L -21.8313,-200.896 z
M 26.2598,-198.438 L 25.886,-198.485 L 25.5211,-198.579 L 25.1709,-198.718 L 24.8407,-198.899 L 24.5359,-199.121
 L 24.2613,-199.379 L 24.0211,-199.669 L 23.8193,-199.987 L 23.6589,-200.328 L 23.5424,-200.686 L 23.4718,-201.056
 L 23.4482,-201.432 L 23.4718,-201.808 L 23.5424,-202.178 L 23.6589,-202.537 L 23.8193,-202.877 L 24.0211,-203.196
 L 24.2613,-203.486 L 24.5359,-203.744 L 24.8407,-203.965 L 25.1709,-204.147 L 25.5211,-204.285 L 25.886,-204.379
 L 26.2598,-204.426 L 26.6366,-204.426 L 27.0103,-204.379 L 27.3752,-204.285 L 27.7255,-204.147 L 28.0557,-203.965
 L 28.3605,-203.744 L 28.6351,-203.486 L 28.8752,-203.196 L 29.0771,-202.877 L 29.2375,-202.537 L 29.3539,-202.178
 L 29.4245,-201.808 L 29.4482,-201.432 L 29.4245,-201.056 L 29.3539,-200.686 L 29.2375,-200.328 L 29.0771,-199.987
 L 28.8752,-199.669 L 28.6351,-199.379 L 28.3605,-199.121 L 28.0557,-198.899 L 27.7255,-198.718 L 27.3752,-198.579
 L 27.0103,-198.485 L 26.6366,-198.438 z
M -30.7937,-195.545 L -31.1674,-195.592 L -31.5323,-195.686 L -31.8826,-195.824 L -32.2128,-196.006 L -32.5176,-196.227
 L -32.7922,-196.485 L -33.0323,-196.775 L -33.2342,-197.094 L -33.3946,-197.434 L -33.511,-197.793 L -33.5816,-198.163
 L -33.6053,-198.539 L -33.5816,-198.915 L -33.511,-199.285 L -33.3946,-199.643 L -33.2342,-199.984 L -33.0323,-200.302
 L -32.7922,-200.592 L -32.5176,-200.85 L -32.2128,-201.072 L -31.8826,-201.253 L -31.5323,-201.392 L -31.1674,-201.486
 L -30.7937,-201.533 L -30.4169,-201.533 L -30.0432,-201.486 L -29.6782,-201.392 L -29.328,-201.253 L -28.9978,-201.072
 L -28.693,-200.85 L -28.4184,-200.592 L -28.1782,-200.302 L -27.9764,-199.984 L -27.816,-199.643 L -27.6995,-199.285
 L -27.629,-198.915 L -27.6053,-198.539 L -27.629,-198.163 L -27.6995,-197.793 L -27.816,-197.434 L -27.9764,-197.094
 L -28.1782,-196.775 L -28.4184,-196.485 L -28.693,-196.227 L -28.9978,-196.006 L -29.328,-195.824 L -29.6782,-195.686
 L -30.0432,-195.592 L -30.4169,-195.545 z
M 34.26,-192.246 L 33.8862,-192.293 L 33.5213,-192.386 L 33.171,-192.525 L 32.8409,-192.707 L 32.5361,-192.928
 L 32.2614,-193.186 L 32.0213,-193.476 L 31.8194,-193.794 L 31.659,-194.135 L 31.5426,-194.494 L 31.472,-194.864
 L 31.4483,-195.24 L 31.472,-195.616 L 31.5426,-195.986 L 31.659,-196.344 L 31.8194,-196.685 L 32.0213,-197.003
 L 32.2614,-197.293 L 32.5361,-197.551 L 32.8409,-197.773 L 33.171,-197.954 L 33.5213,-198.093 L 33.8862,-198.186
 L 34.26,-198.234 L 34.6367,-198.234 L 35.0105,-198.186 L 35.3754,-198.093 L 35.7257,-197.954 L 36.0558,-197.773
 L 36.3606,-197.551 L 36.6352,-197.293 L 36.8754,-197.003 L 37.0773,-196.685 L 37.2377,-196.344 L 37.3541,-195.986
 L 37.4247,-195.616 L 37.4483,-195.24 L 37.4247,-194.864 L 37.3541,-194.494 L 37.2377,-194.135 L 37.0773,-193.794
 L 36.8754,-193.476 L 36.6352,-193.186 L 36.3606,-192.928 L 36.0558,-192.707 L 35.7257,-192.525 L 35.3754,-192.386
 L 35.0105,-192.293 L 34.6367,-192.246 z
M -0.533707,-120.517 L -1.59273,-120.651 L -2.62663,-120.916 L -3.61911,-121.309 L -4.55452,-121.823 L -5.41809,-122.451
 L -6.19623,-123.181 L -6.87663,-124.004 L -7.44859,-124.905 L -7.90309,-125.871 L -8.23296,-126.886 L -8.38133,-127.664
 L -10.043,-128.091 L -13.8378,-129.593 L -17.4144,-131.559 L -20.7163,-133.958 L -23.6915,-136.752 L -26.293,-139.897
 L -28.48,-143.343 L -30.2177,-147.036 L -31.3836,-150.624 L -31.5927,-150.651 L -32.6266,-150.916 L -33.6191,-151.309
 L -34.5545,-151.823 L -35.4181,-152.451 L -36.1962,-153.181 L -36.8766,-154.004 L -37.4486,-154.905 L -37.9031,-155.871
 L -38.233,-156.886 L -38.433,-157.935 L -38.5,-159 L -38.433,-160.065 L -38.233,-161.114 L -37.9031,-162.129
 L -37.4486,-163.095 L -36.8766,-163.996 L -36.1962,-164.819 L -35.4181,-165.549 L -34.5545,-166.177 L -33.6191,-166.691
 L -32.6266,-167.084 L -31.5927,-167.349 L -31.3836,-167.376 L -30.2177,-170.964 L -28.48,-174.657 L -26.293,-178.103
 L -23.6915,-181.248 L -20.7163,-184.042 L -17.4144,-186.441 L -13.8378,-188.407 L -10.043,-189.909 L -8.38133,-190.336
 L -8.23296,-191.114 L -7.90309,-192.129 L -7.44859,-193.095 L -6.87663,-193.996 L -6.19623,-194.819 L -5.41809,-195.549
 L -4.55452,-196.177 L -3.61911,-196.691 L -2.62663,-197.084 L -1.59273,-197.349 L -0.533707,-197.483 L 0.533707,-197.483
 L 1.59273,-197.349 L 2.62663,-197.084 L 3.61911,-196.691 L 4.55452,-196.177 L 5.41809,-195.549 L 6.19623,-194.819
 L 6.87663,-193.996 L 7.44859,-193.095 L 7.90309,-192.129 L 8.23296,-191.114 L 8.38133,-190.336 L 10.043,-189.909
 L 13.8378,-188.407 L 17.4144,-186.441 L 20.7163,-184.042 L 23.6915,-181.248 L 26.293,-178.103 L 28.48,-174.657
 L 30.2177,-170.964 L 31.3836,-167.376 L 31.5927,-167.349 L 32.6266,-167.084 L 33.6191,-166.691 L 34.5545,-166.177
 L 35.4181,-165.549 L 36.1962,-164.819 L 36.8766,-163.996 L 37.4486,-163.095 L 37.9031,-162.129 L 38.233,-161.114
 L 38.433,-160.065 L 38.5,-159 L 38.433,-157.935 L 38.233,-156.886 L 37.9031,-155.871 L 37.4486,-154.905
 L 36.8766,-154.004 L 36.1962,-153.181 L 35.4181,-152.451 L 34.5545,-151.823 L 33.6191,-151.309 L 32.6266,-150.916
 L 31.5927,-150.651 L 31.3836,-150.624 L 30.2177,-147.036 L 28.48,-143.343 L 26.293,-139.897 L 23.6915,-136.752
 L 20.7163,-133.958 L 17.4144,-131.559 L 13.8378,-129.593 L 10.043,-128.091 L 8.38133,-127.664 L 8.23296,-126.886
 L 7.90309,-125.871 L 7.44859,-124.905 L 6.87663,-124.004 L 6.19623,-123.181 L 5.41809,-122.451 L 4.55452,-121.823
 L 3.61911,-121.309 L 2.62663,-120.916 L 1.59273,-120.651 L 0.533707,-120.517 z
M 7.72542,-135.224 L 10.6445,-136.379 L 13.3957,-137.892 L 15.9356,-139.737 L 18.2242,-141.886 L 20.2254,-144.305
 L 21.9077,-146.956 L 23.2444,-149.797 L 24.2146,-152.783 L 24.2166,-152.794 L 23.8038,-153.181 L 23.1234,-154.004
 L 22.5514,-154.905 L 22.0969,-155.871 L 21.767,-156.886 L 21.567,-157.935 L 21.5,-159 L 21.567,-160.065
 L 21.767,-161.114 L 22.0969,-162.129 L 22.5514,-163.095 L 23.1234,-163.996 L 23.8038,-164.819 L 24.2166,-165.206
 L 24.2146,-165.217 L 23.2444,-168.203 L 21.9077,-171.044 L 20.2254,-173.695 L 18.2242,-176.114 L 15.9356,-178.263
 L 13.3957,-180.108 L 10.6445,-181.621 L 7.72542,-182.776 L 6.18593,-183.172 L 5.41809,-182.451 L 4.55452,-181.823
 L 3.61911,-181.309 L 2.62663,-180.916 L 1.59273,-180.651 L 0.533707,-180.517 L -0.533707,-180.517 L -1.59273,-180.651
 L -2.62663,-180.916 L -3.61911,-181.309 L -4.55452,-181.823 L -5.41809,-182.451 L -6.18593,-183.172 L -7.72542,-182.776
 L -10.6445,-181.621 L -13.3957,-180.108 L -15.9356,-178.263 L -18.2242,-176.114 L -20.2254,-173.695 L -21.9077,-171.044
 L -23.2444,-168.203 L -24.2146,-165.217 L -24.2166,-165.206 L -23.8038,-164.819 L -23.1234,-163.996 L -22.5514,-163.095
 L -22.0969,-162.129 L -21.767,-161.114 L -21.567,-160.065 L -21.5,-159 L -21.567,-157.935 L -21.767,-156.886
 L -22.0969,-155.871 L -22.5514,-154.905 L -23.1234,-154.004 L -23.8038,-153.181 L -24.2166,-152.794 L -24.2146,-152.783
 L -23.2444,-149.797 L -21.9077,-146.956 L -20.2254,-144.305 L -18.2242,-141.886 L -15.9356,-139.737 L -13.3957,-137.892
 L -10.6445,-136.379 L -7.72542,-135.224 L -6.18593,-134.828 L -5.41809,-135.549 L -4.55452,-136.177 L -3.61911,-136.691
 L -2.62663,-137.084 L -1.59273,-137.349 L -0.533707,-137.483 L 0.533707,-137.483 L 1.59273,-137.349 L 2.62663,-137.084
 L 3.61911,-136.691 L 4.55452,-136.177 L 5.41809,-135.549 L 6.18593,-134.828 z
M 14.887,-172.204 L 14.6627,-172.232 L 14.4438,-172.288 L 14.2336,-172.371 L 14.0355,-172.48 L 13.8526,-172.613
 L 13.6879,-172.768 L 13.5438,-172.942 L 13.4226,-173.133 L 13.3264,-173.337 L 13.2565,-173.552 L 13.2142,-173.774
 L 13.2,-174 L 13.2142,-174.226 L 13.2565,-174.448 L 13.3264,-174.663 L 13.4226,-174.867 L 13.5438,-175.058
 L 13.6879,-175.232 L 13.8526,-175.387 L 14.0355,-175.52 L 14.2336,-175.629 L 14.4438,-175.712 L 14.6627,-175.768
 L 14.887,-175.796 L 15.113,-175.796 L 15.3373,-175.768 L 15.5562,-175.712 L 15.7664,-175.629 L 15.9645,-175.52
 L 16.1474,-175.387 L 16.3121,-175.232 L 16.4562,-175.058 L 16.5773,-174.867 L 16.6736,-174.663 L 16.7434,-174.448
 L 16.7858,-174.226 L 16.8,-174 L 16.7858,-173.774 L 16.7434,-173.552 L 16.6736,-173.337 L 16.5773,-173.133
 L 16.4562,-172.942 L 16.3121,-172.768 L 16.1474,-172.613 L 15.9645,-172.48 L 15.7664,-172.371 L 15.5562,-172.288
 L 15.3373,-172.232 L 15.113,-172.204 z
M -15.113,-172.204 L -15.3373,-172.232 L -15.5562,-172.288 L -15.7664,-172.371 L -15.9645,-172.48 L -16.1474,-172.613
 L -16.3121,-172.768 L -16.4562,-172.942 L -16.5773,-173.133 L -16.6736,-173.337 L -16.7434,-173.552 L -16.7858,-173.774
 L -16.8,-174 L -16.7858,-174.226 L -16.7434,-174.448 L -16.6736,-174.663 L -16.5773,-174.867 L -16.4562,-175.058
 L -16.3121,-175.232 L -16.1474,-175.387 L -15.9645,-175.52 L -15.7664,-175.629 L -15.5562,-175.712 L -15.3373,-175.768
 L -15.113,-175.796 L -14.887,-175.796 L -14.6627,-175.768 L -14.4438,-175.712 L -14.2336,-175.629 L -14.0355,-175.52
 L -13.8526,-175.387 L -13.6879,-175.232 L -13.5438,-175.058 L -13.4226,-174.867 L -13.3264,-174.663 L -13.2565,-174.448
 L -13.2142,-174.226 L -13.2,-174 L -13.2142,-173.774 L -13.2565,-173.552 L -13.3264,-173.337 L -13.4226,-173.133
 L -13.5438,-172.942 L -13.6879,-172.768 L -13.8526,-172.613 L -14.0355,-172.48 L -14.2336,-172.371 L -14.4438,-172.288
 L -14.6627,-172.232 L -14.887,-172.204 z
M -1.00464,-143.032 L -2.99809,-143.283 L -4.94426,-143.783 L -6.81245,-144.523 L -8.57323,-145.491 L -10.1988,-146.672
 L -11.6635,-148.047 L -12.9443,-149.595 L -14.0209,-151.292 L -14.8764,-153.11 L -15.4973,-155.021 L -15.8738,-156.995
 L -16,-159 L -15.8738,-161.005 L -15.4973,-162.979 L -14.8764,-164.89 L -14.0209,-166.708 L -12.9443,-168.405
 L -11.6635,-169.953 L -10.1988,-171.328 L -8.57323,-172.509 L -6.81245,-173.477 L -4.94426,-174.217 L -2.99809,-174.717
 L -1.00464,-174.968 L 1.00464,-174.968 L 2.99809,-174.717 L 4.94426,-174.217 L 6.81245,-173.477 L 8.57323,-172.509
 L 10.1988,-171.328 L 11.6635,-169.953 L 12.9443,-168.405 L 14.0209,-166.708 L 14.8764,-164.89 L 15.4973,-162.979
 L 15.8738,-161.005 L 16,-159 L 15.8738,-156.995 L 15.4973,-155.021 L 14.8764,-153.11 L 14.0209,-151.292
 L 12.9443,-149.595 L 11.6635,-148.047 L 10.1988,-146.672 L 8.57323,-145.491 L 6.81245,-144.523 L 4.94426,-143.783
 L 2.99809,-143.283 L 1.00464,-143.032 z
M 2.34225,-146.721 L 3.8627,-147.112 L 5.32224,-147.69 L 6.69783,-148.446 L 7.96779,-149.369 L 9.11211,-150.443
 L 10.1127,-151.653 L 10.9538,-152.978 L 11.6222,-154.398 L 12.1073,-155.891 L 12.4014,-157.433 L 12.5,-159
 L 12.4014,-160.567 L 12.1073,-162.109 L 11.6222,-163.602 L 10.9538,-165.022 L 10.1127,-166.347 L 9.11211,-167.557
 L 7.96779,-168.631 L 6.69783,-169.554 L 5.32224,-170.31 L 3.8627,-170.888 L 2.34225,-171.279 L 0.784866,-171.475
 L -0.784866,-171.475 L -2.34225,-171.279 L -3.8627,-170.888 L -5.32224,-170.31 L -6.69783,-169.554 L -7.96779,-168.631
 L -9.11211,-167.557 L -10.1127,-166.347 L -10.9538,-165.022 L -11.6222,-163.602 L -12.1073,-162.109 L -12.4014,-160.567
 L -12.5,-159 L -12.4014,-157.433 L -12.1073,-155.891 L -11.6222,-154.398 L -10.9538,-152.978 L -10.1127,-151.653
 L -9.11211,-150.443 L -7.96779,-149.369 L -6.69783,-148.446 L -5.32224,-147.69 L -3.8627,-147.112 L -2.34225,-146.721
 L -0.784866,-146.525 L 0.784866,-146.525 z
M -15.113,-142.204 L -15.3373,-142.232 L -15.5562,-142.288 L -15.7664,-142.371 L -15.9645,-142.48 L -16.1474,-142.613
 L -16.3121,-142.768 L -16.4562,-142.942 L -16.5773,-143.133 L -16.6736,-143.337 L -16.7434,-143.552 L -16.7858,-143.774
 L -16.8,-144 L -16.7858,-144.226 L -16.7434,-144.448 L -16.6736,-144.663 L -16.5773,-144.867 L -16.4562,-145.058
 L -16.3121,-145.232 L -16.1474,-145.387 L -15.9645,-145.52 L -15.7664,-145.629 L -15.5562,-145.712 L -15.3373,-145.768
 L -15.113,-145.796 L -14.887,-145.796 L -14.6627,-145.768 L -14.4438,-145.712 L -14.2336,-145.629 L -14.0355,-145.52
 L -13.8526,-145.387 L -13.6879,-145.232 L -13.5438,-145.058 L -13.4226,-144.867 L -13.3264,-144.663 L -13.2565,-144.448
 L -13.2142,-144.226 L -13.2,-144 L -13.2142,-143.774 L -13.2565,-143.552 L -13.3264,-143.337 L -13.4226,-143.133
 L -13.5438,-142.942 L -13.6879,-142.768 L -13.8526,-142.613 L -14.0355,-142.48 L -14.2336,-142.371 L -14.4438,-142.288
 L -14.6627,-142.232 L -14.887,-142.204 z
M 14.887,-142.204 L 14.6627,-142.232 L 14.4438,-142.288 L 14.2336,-142.371 L 14.0355,-142.48 L 13.8526,-142.613
 L 13.6879,-142.768 L 13.5438,-142.942 L 13.4226,-143.133 L 13.3264,-143.337 L 13.2565,-143.552 L 13.2142,-143.774
 L 13.2,-144 L 13.2142,-144.226 L 13.2565,-144.448 L 13.3264,-144.663 L 13.4226,-144.867 L 13.5438,-145.058
 L 13.6879,-145.232 L 13.8526,-145.387 L 14.0355,-145.52 L 14.2336,-145.629 L 14.4438,-145.712 L 14.6627,-145.768
 L 14.887,-145.796 L 15.113,-145.796 L 15.3373,-145.768 L 15.5562,-145.712 L 15.7664,-145.629 L 15.9645,-145.52
 L 16.1474,-145.387 L 16.3121,-145.232 L 16.4562,-145.058 L 16.5773,-144.867 L 16.6736,-144.663 L 16.7434,-144.448
 L 16.7858,-144.226 L 16.8,-144 L 16.7858,-143.774 L 16.7434,-143.552 L 16.6736,-143.337 L 16.5773,-143.133
 L 16.4562,-142.942 L 16.3121,-142.768 L 16.1474,-142.613 L 15.9645,-142.48 L 15.7664,-142.371 L 15.5562,-142.288
 L 15.3373,-142.232 L 15.113,-142.204 z
M -38.1263,-188.575 L -38.5,-188.622 L -38.8649,-188.715 L -39.2152,-188.854 L -39.5454,-189.036 L -39.8502,-189.257
 L -40.1248,-189.515 L -40.3649,-189.805 L -40.5668,-190.123 L -40.7272,-190.464 L -40.8436,-190.823 L -40.9142,-191.193
 L -40.9379,-191.569 L -40.9142,-191.945 L -40.8436,-192.315 L -40.7272,-192.673 L -40.5668,-193.014 L -40.3649,-193.332
 L -40.1248,-193.622 L -39.8502,-193.88 L -39.5454,-194.102 L -39.2152,-194.283 L -38.8649,-194.422 L -38.5,-194.515
 L -38.1263,-194.563 L -37.7495,-194.563 L -37.3758,-194.515 L -37.0108,-194.422 L -36.6606,-194.283 L -36.3304,-194.102
 L -36.0256,-193.88 L -35.751,-193.622 L -35.5108,-193.332 L -35.309,-193.014 L -35.1486,-192.673 L -35.0322,-192.315
 L -34.9616,-191.945 L -34.9379,-191.569 L -34.9616,-191.193 L -35.0322,-190.823 L -35.1486,-190.464 L -35.309,-190.123
 L -35.5108,-189.805 L -35.751,-189.515 L -36.0256,-189.257 L -36.3304,-189.036 L -36.6606,-188.854 L -37.0108,-188.715
 L -37.3758,-188.622 L -37.7495,-188.575 z
M 40.8498,-184.569 L 40.476,-184.617 L 40.1111,-184.71 L 39.7608,-184.849 L 39.4307,-185.03 L 39.1259,-185.252
 L 38.8513,-185.51 L 38.6111,-185.8 L 38.4092,-186.118 L 38.2488,-186.459 L 38.1324,-186.817 L 38.0618,-187.187
 L 38.0382,-187.563 L 38.0618,-187.939 L 38.1324,-188.309 L 38.2488,-188.668 L 38.4092,-189.009 L 38.6111,-189.327
 L 38.8513,-189.617 L 39.1259,-189.875 L 39.4307,-190.096 L 39.7608,-190.278 L 40.1111,-190.417 L 40.476,-190.51
 L 40.8498,-190.557 L 41.2265,-190.557 L 41.6003,-190.51 L 41.9652,-190.417 L 42.3155,-190.278 L 42.6456,-190.096
 L 42.9504,-189.875 L 43.2251,-189.617 L 43.4652,-189.327 L 43.6671,-189.009 L 43.8275,-188.668 L 43.9439,-188.309
 L 44.0145,-187.939 L 44.0382,-187.563 L 44.0145,-187.187 L 43.9439,-186.817 L 43.8275,-186.459 L 43.6671,-186.118
 L 43.4652,-185.8 L 43.2251,-185.51 L 42.9504,-185.252 L 42.6456,-185.03 L 42.3155,-184.849 L 41.9652,-184.71
 L 41.6003,-184.617 L 41.2265,-184.569 z
M -43.9057,-180.271 L -44.2795,-180.318 L -44.6444,-180.412 L -44.9947,-180.551 L -45.3248,-180.732 L -45.6296,-180.954
 L -45.9042,-181.211 L -46.1444,-181.502 L -46.3463,-181.82 L -46.5067,-182.161 L -46.6231,-182.519 L -46.6937,-182.889
 L -46.7173,-183.265 L -46.6937,-183.641 L -46.6231,-184.011 L -46.5067,-184.369 L -46.3463,-184.71 L -46.1444,-185.028
 L -45.9042,-185.319 L -45.6296,-185.577 L -45.3248,-185.798 L -44.9947,-185.98 L -44.6444,-186.118 L -44.2795,-186.212
 L -43.9057,-186.259 L -43.5289,-186.259 L -43.1552,-186.212 L -42.7903,-186.118 L -42.44,-185.98 L -42.1098,-185.798
 L -41.8051,-185.577 L -41.5304,-185.319 L -41.2903,-185.028 L -41.0884,-184.71 L -40.928,-184.369 L -40.8116,-184.011
 L -40.741,-183.641 L -40.7173,-183.265 L -40.741,-182.889 L -40.8116,-182.519 L -40.928,-182.161 L -41.0884,-181.82
 L -41.2903,-181.502 L -41.5304,-181.211 L -41.8051,-180.954 L -42.1098,-180.732 L -42.44,-180.551 L -42.7903,-180.412
 L -43.1552,-180.318 L -43.5289,-180.271 z
M 45.7595,-175.724 L 45.3857,-175.771 L 45.0208,-175.865 L 44.6705,-176.003 L 44.3404,-176.185 L 44.0356,-176.406
 L 43.761,-176.664 L 43.5208,-176.954 L 43.319,-177.273 L 43.1586,-177.613 L 43.0421,-177.972 L 42.9715,-178.342
 L 42.9479,-178.718 L 42.9715,-179.094 L 43.0421,-179.464 L 43.1586,-179.822 L 43.319,-180.163 L 43.5208,-180.481
 L 43.761,-180.771 L 44.0356,-181.029 L 44.3404,-181.251 L 44.6705,-181.432 L 45.0208,-181.571 L 45.3857,-181.665
 L 45.7595,-181.712 L 46.1363,-181.712 L 46.51,-181.665 L 46.8749,-181.571 L 47.2252,-181.432 L 47.5554,-181.251
 L 47.8602,-181.029 L 48.1348,-180.771 L 48.3749,-180.481 L 48.5768,-180.163 L 48.7372,-179.822 L 48.8536,-179.464
 L 48.9242,-179.094 L 48.9479,-178.718 L 48.9242,-178.342 L 48.8536,-177.972 L 48.7372,-177.613 L 48.5768,-177.273
 L 48.3749,-176.954 L 48.1348,-176.664 L 47.8602,-176.406 L 47.5554,-176.185 L 47.2252,-176.003 L 46.8749,-175.865
 L 46.51,-175.771 L 46.1363,-175.724 z
M -47.8953,-170.974 L -48.2691,-171.021 L -48.634,-171.115 L -48.9843,-171.254 L -49.3144,-171.435 L -49.6192,-171.657
 L -49.8939,-171.915 L -50.134,-172.205 L -50.3359,-172.523 L -50.4963,-172.864 L -50.6127,-173.222 L -50.6833,-173.592
 L -50.707,-173.968 L -50.6833,-174.344 L -50.6127,-174.714 L -50.4963,-175.073 L -50.3359,-175.413 L -50.134,-175.732
 L -49.8939,-176.022 L -49.6192,-176.28 L -49.3144,-176.501 L -48.9843,-176.683 L -48.634,-176.821 L -48.2691,-176.915
 L -47.8953,-176.962 L -47.5186,-176.962 L -47.1448,-176.915 L -46.7799,-176.821 L -46.4296,-176.683 L -46.0995,-176.501
 L -45.7947,-176.28 L -45.5201,-176.022 L -45.2799,-175.732 L -45.078,-175.413 L -44.9176,-175.073 L -44.8012,-174.714
 L -44.7306,-174.344 L -44.707,-173.968 L -44.7306,-173.592 L -44.8012,-173.222 L -44.9176,-172.864 L -45.078,-172.523
 L -45.2799,-172.205 L -45.5201,-171.915 L -45.7947,-171.657 L -46.0995,-171.435 L -46.4296,-171.254 L -46.7799,-171.115
 L -47.1448,-171.021 L -47.5186,-170.974 z
M 48.7881,-166.071 L 48.4144,-166.118 L 48.0494,-166.212 L 47.6992,-166.35 L 47.369,-166.532 L 47.0642,-166.753
 L 46.7896,-167.011 L 46.5494,-167.302 L 46.3476,-167.62 L 46.1872,-167.961 L 46.0707,-168.319 L 46.0002,-168.689
 L 45.9765,-169.065 L 46.0002,-169.441 L 46.0707,-169.811 L 46.1872,-170.169 L 46.3476,-170.51 L 46.5494,-170.828
 L 46.7896,-171.119 L 47.0642,-171.376 L 47.369,-171.598 L 47.6992,-171.779 L 48.0494,-171.918 L 48.4144,-172.012
 L 48.7881,-172.059 L 49.1649,-172.059 L 49.5386,-172.012 L 49.9035,-171.918 L 50.2538,-171.779 L 50.584,-171.598
 L 50.8888,-171.376 L 51.1634,-171.119 L 51.4035,-170.828 L 51.6054,-170.51 L 51.7658,-170.169 L 51.8822,-169.811
 L 51.9528,-169.441 L 51.9765,-169.065 L 51.9528,-168.689 L 51.8822,-168.319 L 51.7658,-167.961 L 51.6054,-167.62
 L 51.4035,-167.302 L 51.1634,-167.011 L 50.8888,-166.753 L 50.584,-166.532 L 50.2538,-166.35 L 49.9035,-166.212
 L 49.5386,-166.118 L 49.1649,-166.071 z
M -49.9318,-161.064 L -50.3056,-161.112 L -50.6705,-161.205 L -51.0208,-161.344 L -51.3509,-161.525 L -51.6557,-161.747
 L -51.9304,-162.005 L -52.1705,-162.295 L -52.3724,-162.613 L -52.5328,-162.954 L -52.6492,-163.312 L -52.7198,-163.682
 L -52.7435,-164.058 L -52.7198,-164.434 L -52.6492,-164.804 L -52.5328,-165.163 L -52.3724,-165.504 L -52.1705,-165.822
 L -51.9304,-166.112 L -51.6557,-166.37 L -51.3509,-166.591 L -51.0208,-166.773 L -50.6705,-166.912 L -50.3056,-167.005
 L -49.9318,-167.052 L -49.5551,-167.052 L -49.1813,-167.005 L -48.8164,-166.912 L -48.4661,-166.773 L -48.136,-166.591
 L -47.8312,-166.37 L -47.5565,-166.112 L -47.3164,-165.822 L -47.1145,-165.504 L -46.9541,-165.163 L -46.8377,-164.804
 L -46.7671,-164.434 L -46.7435,-164.058 L -46.7671,-163.682 L -46.8377,-163.312 L -46.9541,-162.954 L -47.1145,-162.613
 L -47.3164,-162.295 L -47.5565,-162.005 L -47.8312,-161.747 L -48.136,-161.525 L -48.4661,-161.344 L -48.8164,-161.205
 L -49.1813,-161.112 L -49.5551,-161.064 z
M 49.8116,-156.006 L 49.4379,-156.053 L 49.0729,-156.147 L 48.7227,-156.286 L 48.3925,-156.467 L 48.0877,-156.688
 L 47.8131,-156.946 L 47.5729,-157.237 L 47.3711,-157.555 L 47.2107,-157.896 L 47.0942,-158.254 L 47.0237,-158.624
 L 47,-159 L 47.0237,-159.376 L 47.0942,-159.746 L 47.2107,-160.104 L 47.3711,-160.445 L 47.5729,-160.763
 L 47.8131,-161.054 L 48.0877,-161.312 L 48.3925,-161.533 L 48.7227,-161.714 L 49.0729,-161.853 L 49.4379,-161.947
 L 49.8116,-161.994 L 50.1884,-161.994 L 50.5621,-161.947 L 50.927,-161.853 L 51.2773,-161.714 L 51.6075,-161.533
 L 51.9123,-161.312 L 52.1869,-161.054 L 52.427,-160.763 L 52.6289,-160.445 L 52.7893,-160.104 L 52.9057,-159.746
 L 52.9763,-159.376 L 53,-159 L 52.9763,-158.624 L 52.9057,-158.254 L 52.7893,-157.896 L 52.6289,-157.555
 L 52.427,-157.237 L 52.1869,-156.946 L 51.9123,-156.688 L 51.6075,-156.467 L 51.2773,-156.286 L 50.927,-156.147
 L 50.5621,-156.053 L 50.1884,-156.006 z
M 59.8116,-156.006 L 59.4379,-156.053 L 59.0729,-156.147 L 58.7227,-156.286 L 58.3925,-156.467 L 58.0877,-156.688
 L 57.8131,-156.946 L 57.5729,-157.237 L 57.3711,-157.555 L 57.2107,-157.896 L 57.0942,-158.254 L 57.0237,-158.624
 L 57,-159 L 57.0237,-159.376 L 57.0942,-159.746 L 57.2107,-160.104 L 57.3711,-160.445 L 57.5729,-160.763
 L 57.8131,-161.054 L 58.0877,-161.312 L 58.3925,-161.533 L 58.7227,-161.714 L 59.0729,-161.853 L 59.4379,-161.947
 L 59.8116,-161.994 L 60.1884,-161.994 L 60.5621,-161.947 L 60.927,-161.853 L 61.2773,-161.714 L 61.6075,-161.533
 L 61.9123,-161.312 L 62.1869,-161.054 L 62.427,-160.763 L 62.6289,-160.445 L 62.7893,-160.104 L 62.9057,-159.746
 L 62.9763,-159.376 L 63,-159 L 62.9763,-158.624 L 62.9057,-158.254 L 62.7893,-157.896 L 62.6289,-157.555
 L 62.427,-157.237 L 62.1869,-156.946 L 61.9123,-156.688 L 61.6075,-156.467 L 61.2773,-156.286 L 60.927,-156.147
 L 60.5621,-156.053 L 60.1884,-156.006 z
M -60.1884,-156.006 L -60.5621,-156.053 L -60.927,-156.147 L -61.2773,-156.286 L -61.6075,-156.467 L -61.9123,-156.688
 L -62.1869,-156.946 L -62.427,-157.237 L -62.6289,-157.555 L -62.7893,-157.896 L -62.9057,-158.254 L -62.9763,-158.624
 L -63,-159 L -62.9763,-159.376 L -62.9057,-159.746 L -62.7893,-160.104 L -62.6289,-160.445 L -62.427,-160.763
 L -62.1869,-161.054 L -61.9123,-161.312 L -61.6075,-161.533 L -61.2773,-161.714 L -60.927,-161.853 L -60.5621,-161.947
 L -60.1884,-161.994 L -59.8116,-161.994 L -59.4379,-161.947 L -59.0729,-161.853 L -58.7227,-161.714 L -58.3925,-161.533
 L -58.0877,-161.312 L -57.8131,-161.054 L -57.5729,-160.763 L -57.3711,-160.445 L -57.2107,-160.104 L -57.0942,-159.746
 L -57.0237,-159.376 L -57,-159 L -57.0237,-158.624 L -57.0942,-158.254 L -57.2107,-157.896 L -57.3711,-157.555
 L -57.5729,-157.237 L -57.8131,-156.946 L -58.0877,-156.688 L -58.3925,-156.467 L -58.7227,-156.286 L -59.0729,-156.147
 L -59.4379,-156.053 L -59.8116,-156.006 z
M -49.9318,-150.948 L -50.3056,-150.995 L -50.6705,-151.088 L -51.0208,-151.227 L -51.3509,-151.409 L -51.6557,-151.63
 L -51.9304,-151.888 L -52.1705,-152.178 L -52.3724,-152.496 L -52.5328,-152.837 L -52.6492,-153.196 L -52.7198,-153.566
 L -52.7435,-153.942 L -52.7198,-154.318 L -52.6492,-154.688 L -52.5328,-155.046 L -52.3724,-155.387 L -52.1705,-155.705
 L -51.9304,-155.995 L -51.6557,-156.253 L -51.3509,-156.475 L -51.0208,-156.656 L -50.6705,-156.795 L -50.3056,-156.888
 L -49.9318,-156.936 L -49.5551,-156.936 L -49.1813,-156.888 L -48.8164,-156.795 L -48.4661,-156.656 L -48.136,-156.475
 L -47.8312,-156.253 L -47.5565,-155.995 L -47.3164,-155.705 L -47.1145,-155.387 L -46.9541,-155.046 L -46.8377,-154.688
 L -46.7671,-154.318 L -46.7435,-153.942 L -46.7671,-153.566 L -46.8377,-153.196 L -46.9541,-152.837 L -47.1145,-152.496
 L -47.3164,-152.178 L -47.5565,-151.888 L -47.8312,-151.63 L -48.136,-151.409 L -48.4661,-151.227 L -48.8164,-151.088
 L -49.1813,-150.995 L -49.5551,-150.948 z
M 48.7881,-145.941 L 48.4144,-145.988 L 48.0494,-146.082 L 47.6992,-146.221 L 47.369,-146.402 L 47.0642,-146.624
 L 46.7896,-146.881 L 46.5494,-147.172 L 46.3476,-147.49 L 46.1872,-147.831 L 46.0707,-148.189 L 46.0002,-148.559
 L 45.9765,-148.935 L 46.0002,-149.311 L 46.0707,-149.681 L 46.1872,-150.039 L 46.3476,-150.38 L 46.5494,-150.698
 L 46.7896,-150.989 L 47.0642,-151.247 L 47.369,-151.468 L 47.6992,-151.65 L 48.0494,-151.788 L 48.4144,-151.882
 L 48.7881,-151.929 L 49.1649,-151.929 L 49.5386,-151.882 L 49.9035,-151.788 L 50.2538,-151.65 L 50.584,-151.468
 L 50.8888,-151.247 L 51.1634,-150.989 L 51.4035,-150.698 L 51.6054,-150.38 L 51.7658,-150.039 L 51.8822,-149.681
 L 51.9528,-149.311 L 51.9765,-148.935 L 51.9528,-148.559 L 51.8822,-148.189 L 51.7658,-147.831 L 51.6054,-147.49
 L 51.4035,-147.172 L 51.1634,-146.881 L 50.8888,-146.624 L 50.584,-146.402 L 50.2538,-146.221 L 49.9035,-146.082
 L 49.5386,-145.988 L 49.1649,-145.941 z
M -47.8953,-141.038 L -48.2691,-141.085 L -48.634,-141.179 L -48.9843,-141.317 L -49.3144,-141.499 L -49.6192,-141.72
 L -49.8939,-141.978 L -50.134,-142.268 L -50.3359,-142.587 L -50.4963,-142.927 L -50.6127,-143.286 L -50.6833,-143.656
 L -50.707,-144.032 L -50.6833,-144.408 L -50.6127,-144.778 L -50.4963,-145.136 L -50.3359,-145.477 L -50.134,-145.795
 L -49.8939,-146.085 L -49.6192,-146.343 L -49.3144,-146.565 L -48.9843,-146.746 L -48.634,-146.885 L -48.2691,-146.979
 L -47.8953,-147.026 L -47.5186,-147.026 L -47.1448,-146.979 L -46.7799,-146.885 L -46.4296,-146.746 L -46.0995,-146.565
 L -45.7947,-146.343 L -45.5201,-146.085 L -45.2799,-145.795 L -45.078,-145.477 L -44.9176,-145.136 L -44.8012,-144.778
 L -44.7306,-144.408 L -44.707,-144.032 L -44.7306,-143.656 L -44.8012,-143.286 L -44.9176,-142.927 L -45.078,-142.587
 L -45.2799,-142.268 L -45.5201,-141.978 L -45.7947,-141.72 L -46.0995,-141.499 L -46.4296,-141.317 L -46.7799,-141.179
 L -47.1448,-141.085 L -47.5186,-141.038 z
M 45.7595,-136.288 L 45.3857,-136.335 L 45.0208,-136.429 L 44.6705,-136.568 L 44.3404,-136.749 L 44.0356,-136.971
 L 43.761,-137.229 L 43.5208,-137.519 L 43.319,-137.837 L 43.1586,-138.178 L 43.0421,-138.536 L 42.9715,-138.906
 L 42.9479,-139.282 L 42.9715,-139.658 L 43.0421,-140.028 L 43.1586,-140.387 L 43.319,-140.727 L 43.5208,-141.046
 L 43.761,-141.336 L 44.0356,-141.594 L 44.3404,-141.815 L 44.6705,-141.997 L 45.0208,-142.135 L 45.3857,-142.229
 L 45.7595,-142.276 L 46.1363,-142.276 L 46.51,-142.229 L 46.8749,-142.135 L 47.2252,-141.997 L 47.5554,-141.815
 L 47.8602,-141.594 L 48.1348,-141.336 L 48.3749,-141.046 L 48.5768,-140.727 L 48.7372,-140.387 L 48.8536,-140.028
 L 48.9242,-139.658 L 48.9479,-139.282 L 48.9242,-138.906 L 48.8536,-138.536 L 48.7372,-138.178 L 48.5768,-137.837
 L 48.3749,-137.519 L 48.1348,-137.229 L 47.8602,-136.971 L 47.5554,-136.749 L 47.2252,-136.568 L 46.8749,-136.429
 L 46.51,-136.335 L 46.1363,-136.288 z
M -43.9057,-131.741 L -44.2795,-131.788 L -44.6444,-131.882 L -44.9947,-132.02 L -45.3248,-132.202 L -45.6296,-132.423
 L -45.9042,-132.681 L -46.1444,-132.972 L -46.3463,-133.29 L -46.5067,-133.631 L -46.6231,-133.989 L -46.6937,-134.359
 L -46.7173,-134.735 L -46.6937,-135.111 L -46.6231,-135.481 L -46.5067,-135.839 L -46.3463,-136.18 L -46.1444,-136.498
 L -45.9042,-136.789 L -45.6296,-137.046 L -45.3248,-137.268 L -44.9947,-137.449 L -44.6444,-137.588 L -44.2795,-137.682
 L -43.9057,-137.729 L -43.5289,-137.729 L -43.1552,-137.682 L -42.7903,-137.588 L -42.44,-137.449 L -42.1098,-137.268
 L -41.8051,-137.046 L -41.5304,-136.789 L -41.2903,-136.498 L -41.0884,-136.18 L -40.928,-135.839 L -40.8116,-135.481
 L -40.741,-135.111 L -40.7173,-134.735 L -40.741,-134.359 L -40.8116,-133.989 L -40.928,-133.631 L -41.0884,-133.29
 L -41.2903,-132.972 L -41.5304,-132.681 L -41.8051,-132.423 L -42.1098,-132.202 L -42.44,-132.02 L -42.7903,-131.882
 L -43.1552,-131.788 L -43.5289,-131.741 z
M 40.8498,-127.443 L 40.476,-127.49 L 40.1111,-127.583 L 39.7608,-127.722 L 39.4307,-127.904 L 39.1259,-128.125
 L 38.8513,-128.383 L 38.6111,-128.673 L 38.4092,-128.991 L 38.2488,-129.332 L 38.1324,-129.691 L 38.0618,-130.061
 L 38.0382,-130.437 L 38.0618,-130.813 L 38.1324,-131.183 L 38.2488,-131.541 L 38.4092,-131.882 L 38.6111,-132.2
 L 38.8513,-132.49 L 39.1259,-132.748 L 39.4307,-132.97 L 39.7608,-133.151 L 40.1111,-133.29 L 40.476,-133.383
 L 40.8498,-133.431 L 41.2265,-133.431 L 41.6003,-133.383 L 41.9652,-133.29 L 42.3155,-133.151 L 42.6456,-132.97
 L 42.9504,-132.748 L 43.2251,-132.49 L 43.4652,-132.2 L 43.6671,-131.882 L 43.8275,-131.541 L 43.9439,-131.183
 L 44.0145,-130.813 L 44.0382,-130.437 L 44.0145,-130.061 L 43.9439,-129.691 L 43.8275,-129.332 L 43.6671,-128.991
 L 43.4652,-128.673 L 43.2251,-128.383 L 42.9504,-128.125 L 42.6456,-127.904 L 42.3155,-127.722 L 41.9652,-127.583
 L 41.6003,-127.49 L 41.2265,-127.443 z
M -38.1263,-123.437 L -38.5,-123.485 L -38.8649,-123.578 L -39.2152,-123.717 L -39.5454,-123.898 L -39.8502,-124.12
 L -40.1248,-124.378 L -40.3649,-124.668 L -40.5668,-124.986 L -40.7272,-125.327 L -40.8436,-125.685 L -40.9142,-126.055
 L -40.9379,-126.431 L -40.9142,-126.807 L -40.8436,-127.177 L -40.7272,-127.536 L -40.5668,-127.877 L -40.3649,-128.195
 L -40.1248,-128.485 L -39.8502,-128.743 L -39.5454,-128.964 L -39.2152,-129.146 L -38.8649,-129.285 L -38.5,-129.378
 L -38.1263,-129.425 L -37.7495,-129.425 L -37.3758,-129.378 L -37.0108,-129.285 L -36.6606,-129.146 L -36.3304,-128.964
 L -36.0256,-128.743 L -35.751,-128.485 L -35.5108,-128.195 L -35.309,-127.877 L -35.1486,-127.536 L -35.0322,-127.177
 L -34.9616,-126.807 L -34.9379,-126.431 L -34.9616,-126.055 L -35.0322,-125.685 L -35.1486,-125.327 L -35.309,-124.986
 L -35.5108,-124.668 L -35.751,-124.378 L -36.0256,-124.12 L -36.3304,-123.898 L -36.6606,-123.717 L -37.0108,-123.578
 L -37.3758,-123.485 L -37.7495,-123.437 z
M 34.26,-119.766 L 33.8862,-119.814 L 33.5213,-119.907 L 33.171,-120.046 L 32.8409,-120.227 L 32.5361,-120.449
 L 32.2614,-120.707 L 32.0213,-120.997 L 31.8194,-121.315 L 31.659,-121.656 L 31.5426,-122.014 L 31.472,-122.384
 L 31.4483,-122.76 L 31.472,-123.136 L 31.5426,-123.506 L 31.659,-123.865 L 31.8194,-124.206 L 32.0213,-124.524
 L 32.2614,-124.814 L 32.5361,-125.072 L 32.8409,-125.293 L 33.171,-125.475 L 33.5213,-125.614 L 33.8862,-125.707
 L 34.26,-125.754 L 34.6367,-125.754 L 35.0105,-125.707 L 35.3754,-125.614 L 35.7257,-125.475 L 36.0558,-125.293
 L 36.3606,-125.072 L 36.6352,-124.814 L 36.8754,-124.524 L 37.0773,-124.206 L 37.2377,-123.865 L 37.3541,-123.506
 L 37.4247,-123.136 L 37.4483,-122.76 L 37.4247,-122.384 L 37.3541,-122.014 L 37.2377,-121.656 L 37.0773,-121.315
 L 36.8754,-120.997 L 36.6352,-120.707 L 36.3606,-120.449 L 36.0558,-120.227 L 35.7257,-120.046 L 35.3754,-119.907
 L 35.0105,-119.814 L 34.6367,-119.766 z
M -30.7937,-116.467 L -31.1674,-116.514 L -31.5323,-116.608 L -31.8826,-116.747 L -32.2128,-116.928 L -32.5176,-117.15
 L -32.7922,-117.408 L -33.0323,-117.698 L -33.2342,-118.016 L -33.3946,-118.357 L -33.511,-118.715 L -33.5816,-119.085
 L -33.6053,-119.461 L -33.5816,-119.837 L -33.511,-120.207 L -33.3946,-120.566 L -33.2342,-120.906 L -33.0323,-121.225
 L -32.7922,-121.515 L -32.5176,-121.773 L -32.2128,-121.994 L -31.8826,-122.176 L -31.5323,-122.314 L -31.1674,-122.408
 L -30.7937,-122.455 L -30.4169,-122.455 L -30.0432,-122.408 L -29.6782,-122.314 L -29.328,-122.176 L -28.9978,-121.994
 L -28.693,-121.773 L -28.4184,-121.515 L -28.1782,-121.225 L -27.9764,-120.906 L -27.816,-120.566 L -27.6995,-120.207
 L -27.629,-119.837 L -27.6053,-119.461 L -27.629,-119.085 L -27.6995,-118.715 L -27.816,-118.357 L -27.9764,-118.016
 L -28.1782,-117.698 L -28.4184,-117.408 L -28.693,-117.15 L -28.9978,-116.928 L -29.328,-116.747 L -29.6782,-116.608
 L -30.0432,-116.514 L -30.4169,-116.467 z
M 26.2598,-113.574 L 25.886,-113.621 L 25.5211,-113.715 L 25.1709,-113.853 L 24.8407,-114.035 L 24.5359,-114.256
 L 24.2613,-114.514 L 24.0211,-114.804 L 23.8193,-115.123 L 23.6589,-115.463 L 23.5424,-115.822 L 23.4718,-116.192
 L 23.4482,-116.568 L 23.4718,-116.944 L 23.5424,-117.314 L 23.6589,-117.672 L 23.8193,-118.013 L 24.0211,-118.331
 L 24.2613,-118.621 L 24.5359,-118.879 L 24.8407,-119.101 L 25.1709,-119.282 L 25.5211,-119.421 L 25.886,-119.515
 L 26.2598,-119.562 L 26.6366,-119.562 L 27.0103,-119.515 L 27.3752,-119.421 L 27.7255,-119.282 L 28.0557,-119.101
 L 28.3605,-118.879 L 28.6351,-118.621 L 28.8752,-118.331 L 29.0771,-118.013 L 29.2375,-117.672 L 29.3539,-117.314
 L 29.4245,-116.944 L 29.4482,-116.568 L 29.4245,-116.192 L 29.3539,-115.822 L 29.2375,-115.463 L 29.0771,-115.123
 L 28.8752,-114.804 L 28.6351,-114.514 L 28.3605,-114.256 L 28.0557,-114.035 L 27.7255,-113.853 L 27.3752,-113.715
 L 27.0103,-113.621 L 26.6366,-113.574 z
M -22.2081,-111.116 L -22.5818,-111.163 L -22.9467,-111.257 L -23.297,-111.395 L -23.6272,-111.577 L -23.932,-111.798
 L -24.2066,-112.056 L -24.4467,-112.346 L -24.6486,-112.665 L -24.809,-113.005 L -24.9254,-113.364 L -24.996,-113.734
 L -25.0197,-114.11 L -24.996,-114.486 L -24.9254,-114.856 L -24.809,-115.214 L -24.6486,-115.555 L -24.4467,-115.873
 L -24.2066,-116.163 L -23.932,-116.421 L -23.6272,-116.643 L -23.297,-116.824 L -22.9467,-116.963 L -22.5818,-117.057
 L -22.2081,-117.104 L -21.8313,-117.104 L -21.4576,-117.057 L -21.0927,-116.963 L -20.7424,-116.824 L -20.4122,-116.643
 L -20.1074,-116.421 L -19.8328,-116.163 L -19.5927,-115.873 L -19.3908,-115.555 L -19.2304,-115.214 L -19.114,-114.856
 L -19.0434,-114.486 L -19.0197,-114.11 L -19.0434,-113.734 L -19.114,-113.364 L -19.2304,-113.005 L -19.3908,-112.665
 L -19.5927,-112.346 L -19.8328,-112.056 L -20.1074,-111.798 L -20.4122,-111.577 L -20.7424,-111.395 L -21.0927,-111.257
 L -21.4576,-111.163 L -21.8313,-111.116 z
M 17.1769,-109.118 L 16.8031,-109.166 L 16.4382,-109.259 L 16.0879,-109.398 L 15.7578,-109.579 L 15.453,-109.801
 L 15.1783,-110.059 L 14.9382,-110.349 L 14.7363,-110.667 L 14.5759,-111.008 L 14.4595,-111.366 L 14.3889,-111.736
 L 14.3652,-112.112 L 14.3889,-112.488 L 14.4595,-112.858 L 14.5759,-113.217 L 14.7363,-113.558 L 14.9382,-113.876
 L 15.1783,-114.166 L 15.453,-114.424 L 15.7578,-114.645 L 16.0879,-114.827 L 16.4382,-114.966 L 16.8031,-115.059
 L 17.1769,-115.106 L 17.5536,-115.106 L 17.9274,-115.059 L 18.2923,-114.966 L 18.6426,-114.827 L 18.9727,-114.645
 L 19.2775,-114.424 L 19.5522,-114.166 L 19.7923,-113.876 L 19.9942,-113.558 L 20.1546,-113.217 L 20.271,-112.858
 L 20.3416,-112.488 L 20.3652,-112.112 L 20.3416,-111.736 L 20.271,-111.366 L 20.1546,-111.008 L 19.9942,-110.667
 L 19.7923,-110.349 L 19.5522,-110.059 L 19.2775,-109.801 L 18.9727,-109.579 L 18.6426,-109.398 L 18.2923,-109.259
 L 17.9274,-109.166 L 17.5536,-109.118 z
M -12.721,-107.602 L -13.0948,-107.649 L -13.4597,-107.743 L -13.81,-107.882 L -14.1401,-108.063 L -14.4449,-108.285
 L -14.7195,-108.543 L -14.9597,-108.833 L -15.1615,-109.151 L -15.3219,-109.492 L -15.4384,-109.85 L -15.509,-110.22
 L -15.5326,-110.596 L -15.509,-110.972 L -15.4384,-111.342 L -15.3219,-111.701 L -15.1615,-112.041 L -14.9597,-112.36
 L -14.7195,-112.65 L -14.4449,-112.908 L -14.1401,-113.129 L -13.81,-113.311 L -13.4597,-113.449 L -13.0948,-113.543
 L -12.721,-113.59 L -12.3443,-113.59 L -11.9705,-113.543 L -11.6056,-113.449 L -11.2553,-113.311 L -10.9251,-113.129
 L -10.6203,-112.908 L -10.3457,-112.65 L -10.1056,-112.36 L -9.9037,-112.041 L -9.74329,-111.701 L -9.62688,-111.342
 L -9.55627,-110.972 L -9.53262,-110.596 L -9.55627,-110.22 L -9.62688,-109.85 L -9.74329,-109.492 L -9.9037,-109.151
 L -10.1056,-108.833 L -10.3457,-108.543 L -10.6203,-108.285 L -10.9251,-108.063 L -11.2553,-107.882 L -11.6056,-107.743
 L -11.9705,-107.649 L -12.3443,-107.602 z
M 7.38301,-106.583 L 7.00923,-106.63 L 6.64433,-106.723 L 6.29404,-106.862 L 5.9639,-107.044 L 5.6591,-107.265
 L 5.38448,-107.523 L 5.14433,-107.813 L 4.94246,-108.131 L 4.78206,-108.472 L 4.66563,-108.831 L 4.59503,-109.201
 L 4.57138,-109.577 L 4.59503,-109.953 L 4.66563,-110.323 L 4.78206,-110.681 L 4.94246,-111.022 L 5.14433,-111.34
 L 5.38448,-111.63 L 5.6591,-111.888 L 5.9639,-112.11 L 6.29404,-112.291 L 6.64433,-112.43 L 7.00923,-112.523
 L 7.38301,-112.571 L 7.75975,-112.571 L 8.13353,-112.523 L 8.49843,-112.43 L 8.84872,-112.291 L 9.17886,-112.11
 L 9.48366,-111.888 L 9.75829,-111.63 L 9.99843,-111.34 L 10.2003,-111.022 L 10.3607,-110.681 L 10.4771,-110.323
 L 10.5477,-109.953 L 10.5714,-109.577 L 10.5477,-109.201 L 10.4771,-108.831 L 10.3607,-108.472 L 10.2003,-108.131
 L 9.99843,-107.813 L 9.75829,-107.523 L 9.48366,-107.265 L 9.17886,-107.044 L 8.84872,-106.862 L 8.49843,-106.723
 L 8.13353,-106.63 L 7.75975,-106.583 z
M -2.72083,-106.07 L -3.09459,-106.117 L -3.4595,-106.211 L -3.80978,-106.35 L -4.13994,-106.531 L -4.44472,-106.753
 L -4.71936,-107.011 L -4.9595,-107.301 L -5.16138,-107.619 L -5.32178,-107.96 L -5.4382,-108.318 L -5.50879,-108.688
 L -5.53246,-109.064 L -5.50879,-109.44 L -5.4382,-109.81 L -5.32178,-110.169 L -5.16138,-110.509 L -4.9595,-110.828
 L -4.71936,-111.118 L -4.44472,-111.376 L -4.13994,-111.597 L -3.80978,-111.779 L -3.4595,-111.917 L -3.09459,-112.011
 L -2.72083,-112.058 L -2.34409,-112.058 L -1.97031,-112.011 L -1.60539,-111.917 L -1.25511,-111.779 L -0.924973,-111.597
 L -0.620178,-111.376 L -0.345551,-111.118 L -0.105392,-110.828 L 0.0964508,-110.509 L 0.256866,-110.169 L 0.373291,-109.81
 L 0.443878,-109.44 L 0.467529,-109.064 L 0.443878,-108.688 L 0.373291,-108.318 L 0.256866,-107.96 L 0.0964508,-107.619
 L -0.105392,-107.301 L -0.345551,-107.011 L -0.620178,-106.753 L -0.924973,-106.531 L -1.25511,-106.35 L -1.60539,-106.211
 L -1.97031,-106.117 L -2.34409,-106.07 z
M -0.18837,-96.0059 L -0.562134,-96.0531 L -0.927048,-96.1468 L -1.27733,-96.2855 L -1.60747,-96.467 L -1.91226,-96.6885
 L -2.1869,-96.9464 L -2.42705,-97.2366 L -2.62891,-97.5547 L -2.78932,-97.8956 L -2.90575,-98.2539 L -2.97633,-98.624
 L -3,-99 L -2.97633,-99.376 L -2.90575,-99.7461 L -2.78932,-100.104 L -2.62891,-100.445 L -2.42705,-100.763
 L -2.1869,-101.054 L -1.91226,-101.312 L -1.60747,-101.533 L -1.27733,-101.714 L -0.927048,-101.853 L -0.562134,-101.947
 L -0.18837,-101.994 L 0.18837,-101.994 L 0.562134,-101.947 L 0.927048,-101.853 L 1.27733,-101.714 L 1.60747,-101.533
 L 1.91226,-101.312 L 2.1869,-101.054 L 2.42705,-100.763 L 2.62891,-100.445 L 2.78932,-100.104 L 2.90575,-99.7461
 L 2.97633,-99.376 L 3,-99 L 2.97633,-98.624 L 2.90575,-98.2539 L 2.78932,-97.8956 L 2.62891,-97.5547
 L 2.42705,-97.2366 L 2.1869,-96.9464 L 1.91226,-96.6885 L 1.60747,-96.467 L 1.27733,-96.2855 L 0.927048,-96.1468
 L 0.562134,-96.0531 L 0.18837,-96.0059 z
M 12.5545,65.8132 L 20.7041,63.7208 L 28.5272,60.6234 L 35.9004,56.57 L 42.7074,51.6244 L 48.8409,45.8647
 L 54.2041,39.3816 L 58.7125,32.2775 L 62.295,24.6643 L 64.8951,16.6622 L 66.4717,8.39732 L 67,-0
 L 66.4717,-8.39732 L 64.8951,-16.6622 L 62.295,-24.6643 L 58.7125,-32.2775 L 54.2041,-39.3816 L 48.8409,-45.8647
 L 42.7074,-51.6244 L 35.9004,-56.57 L 28.5272,-60.6234 L 20.7041,-63.7208 L 12.5545,-65.8132 L 4.20695,-66.8678
 L -4.20695,-66.8678 L -12.5545,-65.8132 L -20.7041,-63.7208 L -28.5272,-60.6234 L -35.9004,-56.57 L -42.7074,-51.6244
 L -48.8409,-45.8647 L -54.2041,-39.3816 L -58.7125,-32.2775 L -62.295,-24.6643 L -64.8951,-16.6622 L -66.4717,-8.39732
 L -67,-0 L -66.4717,8.39732 L -64.8951,16.6622 L -62.295,24.6643 L -58.7125,32.2775 L -54.2041,39.3816
 L -48.8409,45.8647 L -42.7074,51.6244 L -35.9004,56.57 L -28.5272,60.6234 L -20.7041,63.7208 L -12.5545,65.8132
 L -4.20695,66.8678 L 4.20695,66.8678 z
M -0.18837,-57.0059 L -0.562134,-57.0531 L -0.927048,-57.1468 L -1.27733,-57.2855 L -1.60747,-57.467 L -1.91226,-57.6885
 L -2.1869,-57.9464 L -2.42705,-58.2366 L -2.62891,-58.5547 L -2.78932,-58.8956 L -2.90575,-59.2539 L -2.97633,-59.624
 L -3,-60 L -2.97633,-60.376 L -2.90575,-60.7461 L -2.78932,-61.1044 L -2.62891,-61.4453 L -2.42705,-61.7634
 L -2.1869,-62.0536 L -1.91226,-62.3115 L -1.60747,-62.533 L -1.27733,-62.7145 L -0.927048,-62.8532 L -0.562134,-62.9469
 L -0.18837,-62.9941 L 0.18837,-62.9941 L 0.562134,-62.9469 L 0.927048,-62.8532 L 1.27733,-62.7145 L 1.60747,-62.533
 L 1.91226,-62.3115 L 2.1869,-62.0536 L 2.42705,-61.7634 L 2.62891,-61.4453 L 2.78932,-61.1044 L 2.90575,-60.7461
 L 2.97633,-60.376 L 3,-60 L 2.97633,-59.624 L 2.90575,-59.2539 L 2.78932,-58.8956 L 2.62891,-58.5547
 L 2.42705,-58.2366 L 2.1869,-57.9464 L 1.91226,-57.6885 L 1.60747,-57.467 L 1.27733,-57.2855 L 0.927048,-57.1468
 L 0.562134,-57.0531 L 0.18837,-57.0059 z
M -2.72083,-46.9417 L -3.09459,-46.989 L -3.4595,-47.0827 L -3.80978,-47.2213 L -4.13994,-47.4028 L -4.44472,-47.6243
 L -4.71936,-47.8822 L -4.9595,-48.1725 L -5.16138,-48.4906 L -5.32178,-48.8315 L -5.4382,-49.1897 L -5.50879,-49.5598
 L -5.53246,-49.9358 L -5.50879,-50.3118 L -5.4382,-50.6819 L -5.32178,-51.0402 L -5.16138,-51.3811 L -4.9595,-51.6992
 L -4.71936,-51.9895 L -4.44472,-52.2474 L -4.13994,-52.4688 L -3.80978,-52.6503 L -3.4595,-52.789 L -3.09459,-52.8827
 L -2.72083,-52.9299 L -2.34409,-52.9299 L -1.97031,-52.8827 L -1.60539,-52.789 L -1.25511,-52.6503 L -0.924973,-52.4688
 L -0.620178,-52.2474 L -0.345551,-51.9895 L -0.105392,-51.6992 L 0.0964508,-51.3811 L 0.256866,-51.0402 L 0.373291,-50.6819
 L 0.443878,-50.3118 L 0.467529,-49.9358 L 0.443878,-49.5598 L 0.373291,-49.1897 L 0.256866,-48.8315 L 0.0964508,-48.4906
 L -0.105392,-48.1725 L -0.345551,-47.8822 L -0.620178,-47.6243 L -0.924973,-47.4028 L -1.25511,-47.2213 L -1.60539,-47.0827
 L -1.97031,-46.989 L -2.34409,-46.9417 z
M 7.38301,-46.4293 L 7.00923,-46.4765 L 6.64433,-46.5702 L 6.29404,-46.7089 L 5.9639,-46.8904 L 5.6591,-47.1119
 L 5.38448,-47.3698 L 5.14433,-47.66 L 4.94246,-47.9781 L 4.78206,-48.319 L 4.66563,-48.6773 L 4.59503,-49.0474
 L 4.57138,-49.4234 L 4.59503,-49.7994 L 4.66563,-50.1695 L 4.78206,-50.5278 L 4.94246,-50.8687 L 5.14433,-51.1868
 L 5.38448,-51.4771 L 5.6591,-51.735 L 5.9639,-51.9564 L 6.29404,-52.1379 L 6.64433,-52.2766 L 7.00923,-52.3703
 L 7.38301,-52.4175 L 7.75975,-52.4175 L 8.13353,-52.3703 L 8.49843,-52.2766 L 8.84872,-52.1379 L 9.17886,-51.9564
 L 9.48366,-51.735 L 9.75829,-51.4771 L 9.99843,-51.1868 L 10.2003,-50.8687 L 10.3607,-50.5278 L 10.4771,-50.1695
 L 10.5477,-49.7994 L 10.5714,-49.4234 L 10.5477,-49.0474 L 10.4771,-48.6773 L 10.3607,-48.319 L 10.2003,-47.9781
 L 9.99843,-47.66 L 9.75829,-47.3698 L 9.48366,-47.1119 L 9.17886,-46.8904 L 8.84872,-46.7089 L 8.49843,-46.5702
 L 8.13353,-46.4765 L 7.75975,-46.4293 z
M -12.721,-45.4098 L -13.0948,-45.457 L -13.4597,-45.5507 L -13.81,-45.6894 L -14.1401,-45.8709 L -14.4449,-46.0923
 L -14.7195,-46.3502 L -14.9597,-46.6405 L -15.1615,-46.9586 L -15.3219,-47.2995 L -15.4384,-47.6578 L -15.509,-48.0278
 L -15.5326,-48.4039 L -15.509,-48.7798 L -15.4384,-49.1499 L -15.3219,-49.5082 L -15.1615,-49.8491 L -14.9597,-50.1672
 L -14.7195,-50.4575 L -14.4449,-50.7154 L -14.1401,-50.9368 L -13.81,-51.1183 L -13.4597,-51.257 L -13.0948,-51.3507
 L -12.721,-51.3979 L -12.3443,-51.3979 L -11.9705,-51.3507 L -11.6056,-51.257 L -11.2553,-51.1183 L -10.9251,-50.9368
 L -10.6203,-50.7154 L -10.3457,-50.4575 L -10.1056,-50.1672 L -9.9037,-49.8491 L -9.74329,-49.5082 L -9.62688,-49.1499
 L -9.55627,-48.7798 L -9.53262,-48.4039 L -9.55627,-48.0278 L -9.62688,-47.6578 L -9.74329,-47.2995 L -9.9037,-46.9586
 L -10.1056,-46.6405 L -10.3457,-46.3502 L -10.6203,-46.0923 L -10.9251,-45.8709 L -11.2553,-45.6894 L -11.6056,-45.5507
 L -11.9705,-45.457 L -12.3443,-45.4098 z
M 17.1769,-43.8935 L 16.8031,-43.9407 L 16.4382,-44.0344 L 16.0879,-44.1731 L 15.7578,-44.3546 L 15.453,-44.5761
 L 15.1783,-44.834 L 14.9382,-45.1243 L 14.7363,-45.4423 L 14.5759,-45.7832 L 14.4595,-46.1415 L 14.3889,-46.5116
 L 14.3652,-46.8876 L 14.3889,-47.2636 L 14.4595,-47.6337 L 14.5759,-47.992 L 14.7363,-48.3329 L 14.9382,-48.651
 L 15.1783,-48.9412 L 15.453,-49.1991 L 15.7578,-49.4206 L 16.0879,-49.6021 L 16.4382,-49.7408 L 16.8031,-49.8345
 L 17.1769,-49.8817 L 17.5536,-49.8817 L 17.9274,-49.8345 L 18.2923,-49.7408 L 18.6426,-49.6021 L 18.9727,-49.4206
 L 19.2775,-49.1991 L 19.5522,-48.9412 L 19.7923,-48.651 L 19.9942,-48.3329 L 20.1546,-47.992 L 20.271,-47.6337
 L 20.3416,-47.2636 L 20.3652,-46.8876 L 20.3416,-46.5116 L 20.271,-46.1415 L 20.1546,-45.7832 L 19.9942,-45.4423
 L 19.7923,-45.1243 L 19.5522,-44.834 L 19.2775,-44.5761 L 18.9727,-44.3546 L 18.6426,-44.1731 L 18.2923,-44.0344
 L 17.9274,-43.9407 L 17.5536,-43.8935 z
M -22.2081,-41.8961 L -22.5818,-41.9434 L -22.9467,-42.037 L -23.297,-42.1757 L -23.6272,-42.3572 L -23.932,-42.5787
 L -24.2066,-42.8366 L -24.4467,-43.1269 L -24.6486,-43.445 L -24.809,-43.7858 L -24.9254,-44.1441 L -24.996,-44.5142
 L -25.0197,-44.8902 L -24.996,-45.2662 L -24.9254,-45.6363 L -24.809,-45.9946 L -24.6486,-46.3355 L -24.4467,-46.6536
 L -24.2066,-46.9439 L -23.932,-47.2018 L -23.6272,-47.4232 L -23.297,-47.6047 L -22.9467,-47.7434 L -22.5818,-47.8371
 L -22.2081,-47.8843 L -21.8313,-47.8843 L -21.4576,-47.8371 L -21.0927,-47.7434 L -20.7424,-47.6047 L -20.4122,-47.4232
 L -20.1074,-47.2018 L -19.8328,-46.9439 L -19.5927,-46.6536 L -19.3908,-46.3355 L -19.2304,-45.9946 L -19.114,-45.6363
 L -19.0434,-45.2662 L -19.0197,-44.8902 L -19.0434,-44.5142 L -19.114,-44.1441 L -19.2304,-43.7858 L -19.3908,-43.445
 L -19.5927,-43.1269 L -19.8328,-42.8366 L -20.1074,-42.5787 L -20.4122,-42.3572 L -20.7424,-42.1757 L -21.0927,-42.037
 L -21.4576,-41.9434 L -21.8313,-41.8961 z
M 26.2598,-39.4381 L 25.886,-39.4854 L 25.5211,-39.579 L 25.1709,-39.7177 L 24.8407,-39.8992 L 24.5359,-40.1207
 L 24.2613,-40.3786 L 24.0211,-40.6689 L 23.8193,-40.987 L 23.6589,-41.3278 L 23.5424,-41.6861 L 23.4718,-42.0562
 L 23.4482,-42.4322 L 23.4718,-42.8082 L 23.5424,-43.1783 L 23.6589,-43.5366 L 23.8193,-43.8775 L 24.0211,-44.1956
 L 24.2613,-44.4859 L 24.5359,-44.7437 L 24.8407,-44.9652 L 25.1709,-45.1467 L 25.5211,-45.2854 L 25.886,-45.3791
 L 26.2598,-45.4263 L 26.6366,-45.4263 L 27.0103,-45.3791 L 27.3752,-45.2854 L 27.7255,-45.1467 L 28.0557,-44.9652
 L 28.3605,-44.7437 L 28.6351,-44.4859 L 28.8752,-44.1956 L 29.0771,-43.8775 L 29.2375,-43.5366 L 29.3539,-43.1783
 L 29.4245,-42.8082 L 29.4482,-42.4322 L 29.4245,-42.0562 L 29.3539,-41.6861 L 29.2375,-41.3278 L 29.0771,-40.987
 L 28.8752,-40.6689 L 28.6351,-40.3786 L 28.3605,-40.1207 L 28.0557,-39.8992 L 27.7255,-39.7177 L 27.3752,-39.579
 L 27.0103,-39.4854 L 26.6366,-39.4381 z
M -30.7937,-36.5447 L -31.1674,-36.5919 L -31.5323,-36.6856 L -31.8826,-36.8243 L -32.2128,-37.0058 L -32.5176,-37.2272
 L -32.7922,-37.4851 L -33.0323,-37.7754 L -33.2342,-38.0935 L -33.3946,-38.4344 L -33.511,-38.7927 L -33.5816,-39.1628
 L -33.6053,-39.5388 L -33.5816,-39.9148 L -33.511,-40.2849 L -33.3946,-40.6432 L -33.2342,-40.984 L -33.0323,-41.3021
 L -32.7922,-41.5924 L -32.5176,-41.8503 L -32.2128,-42.0718 L -31.8826,-42.2533 L -31.5323,-42.392 L -31.1674,-42.4856
 L -30.7937,-42.5329 L -30.4169,-42.5329 L -30.0432,-42.4856 L -29.6782,-42.392 L -29.328,-42.2533 L -28.9978,-42.0718
 L -28.693,-41.8503 L -28.4184,-41.5924 L -28.1782,-41.3021 L -27.9764,-40.984 L -27.816,-40.6432 L -27.6995,-40.2849
 L -27.629,-39.9148 L -27.6053,-39.5388 L -27.629,-39.1628 L -27.6995,-38.7927 L -27.816,-38.4344 L -27.9764,-38.0935
 L -28.1782,-37.7754 L -28.4184,-37.4851 L -28.693,-37.2272 L -28.9978,-37.0058 L -29.328,-36.8243 L -29.6782,-36.6856
 L -30.0432,-36.5919 L -30.4169,-36.5447 z
M 34.26,-33.2456 L 33.8862,-33.2928 L 33.5213,-33.3865 L 33.171,-33.5251 L 32.8409,-33.7066 L 32.5361,-33.9281
 L 32.2614,-34.186 L 32.0213,-34.4763 L 31.8194,-34.7944 L 31.659,-35.1353 L 31.5426,-35.4936 L 31.472,-35.8636
 L 31.4483,-36.2396 L 31.472,-36.6156 L 31.5426,-36.9857 L 31.659,-37.344 L 31.8194,-37.6849 L 32.0213,-38.003
 L 32.2614,-38.2933 L 32.5361,-38.5512 L 32.8409,-38.7726 L 33.171,-38.9541 L 33.5213,-39.0928 L 33.8862,-39.1865
 L 34.26,-39.2337 L 34.6367,-39.2337 L 35.0105,-39.1865 L 35.3754,-39.0928 L 35.7257,-38.9541 L 36.0558,-38.7726
 L 36.3606,-38.5512 L 36.6352,-38.2933 L 36.8754,-38.003 L 37.0773,-37.6849 L 37.2377,-37.344 L 37.3541,-36.9857
 L 37.4247,-36.6156 L 37.4483,-36.2396 L 37.4247,-35.8636 L 37.3541,-35.4936 L 37.2377,-35.1353 L 37.0773,-34.7944
 L 36.8754,-34.4763 L 36.6352,-34.186 L 36.3606,-33.9281 L 36.0558,-33.7066 L 35.7257,-33.5251 L 35.3754,-33.3865
 L 35.0105,-33.2928 L 34.6367,-33.2456 z
M -0.392426,36.2377 L -1.17113,36.1393 L -1.93135,35.9441 L -2.66112,35.6552 L -3.34891,35.277 L -3.98389,34.8157
 L -4.55605,34.2784 L -5.05635,33.6736 L -5.47691,33.011 L -5.8111,32.3008 L -6.05363,31.5543 L -6.20071,30.7833
 L -6.25,30 L -6.20071,29.2167 L -6.07895,28.5783 L -9.03874,27.8184 L -12.454,26.4662 L -15.6729,24.6966
 L -18.6446,22.5375 L -21.3223,20.023 L -23.6637,17.1927 L -25.632,14.0913 L -27.196,10.7676 L -28.3311,7.27417
 L -28.5607,6.07043 L -28.8289,6.13928 L -29.6076,6.23766 L -30.3924,6.23766 L -31.1711,6.13928 L -31.9314,5.94409
 L -32.6611,5.65517 L -33.3489,5.27704 L -33.9839,4.8157 L -34.556,4.27841 L -35.0564,3.67365 L -35.4769,3.01096
 L -35.8111,2.30077 L -36.0536,1.55431 L -36.2007,0.783325 L -36.25,-0 L -36.2007,-0.783325 L -36.0536,-1.55431
 L -35.8111,-2.30077 L -35.4769,-3.01096 L -35.0564,-3.67365 L -34.556,-4.27841 L -33.9839,-4.8157 L -33.3489,-5.27704
 L -32.6611,-5.65517 L -31.9314,-5.94409 L -31.1711,-6.13928 L -30.3924,-6.23766 L -29.6076,-6.23766 L -28.8289,-6.13928
 L -28.5607,-6.07043 L -28.3311,-7.27417 L -27.196,-10.7676 L -25.632,-14.0913 L -23.6637,-17.1927 L -21.3223,-20.023
 L -18.6446,-22.5375 L -15.6729,-24.6966 L -12.454,-26.4662 L -9.03874,-27.8184 L -6.07895,-28.5783 L -6.20071,-29.2167
 L -6.25,-30 L -6.20071,-30.7833 L -6.05363,-31.5543 L -5.8111,-32.3008 L -5.47691,-33.011 L -5.05635,-33.6736
 L -4.55605,-34.2784 L -3.98389,-34.8157 L -3.34891,-35.277 L -2.66112,-35.6552 L -1.93135,-35.9441 L -1.17113,-36.1393
 L -0.392426,-36.2377 L 0.392426,-36.2377 L 1.17113,-36.1393 L 1.93135,-35.9441 L 2.66112,-35.6552 L 3.34891,-35.277
 L 3.98389,-34.8157 L 4.55605,-34.2784 L 5.05635,-33.6736 L 5.47691,-33.011 L 5.8111,-32.3008 L 6.05363,-31.5543
 L 6.20071,-30.7833 L 6.25,-30 L 6.20071,-29.2167 L 6.07895,-28.5783 L 9.03874,-27.8184 L 12.454,-26.4662
 L 15.6729,-24.6966 L 18.6446,-22.5375 L 21.3223,-20.023 L 23.6637,-17.1927 L 25.632,-14.0913 L 27.196,-10.7676
 L 28.3311,-7.27417 L 28.5607,-6.07043 L 28.8289,-6.13928 L 29.6076,-6.23766 L 30.3924,-6.23766 L 31.1711,-6.13928
 L 31.9314,-5.94409 L 32.6611,-5.65517 L 33.3489,-5.27704 L 33.9839,-4.8157 L 34.556,-4.27841 L 35.0564,-3.67365
 L 35.4769,-3.01096 L 35.8111,-2.30077 L 36.0536,-1.55431 L 36.2007,-0.783325 L 36.25,-0 L 36.2007,0.783325
 L 36.0536,1.55431 L 35.8111,2.30077 L 35.4769,3.01096 L 35.0564,3.67365 L 34.556,4.27841 L 33.9839,4.8157
 L 33.3489,5.27704 L 32.6611,5.65517 L 31.9314,5.94409 L 31.1711,6.13928 L 30.3924,6.23766 L 29.6076,6.23766
 L 28.8289,6.13928 L 28.5607,6.07043 L 28.3311,7.27417 L 27.196,10.7676 L 25.632,14.0913 L 23.6637,17.1927
 L 21.3223,20.023 L 18.6446,22.5375 L 15.6729,24.6966 L 12.454,26.4662 L 9.03874,27.8184 L 6.07895,28.5783
 L 6.20071,29.2167 L 6.25,30 L 6.20071,30.7833 L 6.05363,31.5543 L 5.8111,32.3008 L 5.47691,33.011
 L 5.05635,33.6736 L 4.55605,34.2784 L 3.98389,34.8157 L 3.34891,35.277 L 2.66112,35.6552 L 1.93135,35.9441
 L 1.17113,36.1393 L 0.392426,36.2377 z
M 8.72972,26.8673 L 12.0283,25.5614 L 15.1371,23.8523 L 18.0072,21.767 L 20.5934,19.3385 L 22.8547,16.6049
 L 24.7557,13.6095 L 26.2662,10.3995 L 27.3625,7.02548 L 27.6039,5.76007 L 27.3389,5.65517 L 26.6511,5.27704
 L 26.0161,4.8157 L 25.4439,4.27841 L 24.9436,3.67365 L 24.5231,3.01096 L 24.1889,2.30077 L 23.9464,1.55431
 L 23.7993,0.783325 L 23.75,-0 L 23.7993,-0.783325 L 23.9464,-1.55431 L 24.1889,-2.30077 L 24.5231,-3.01096
 L 24.9436,-3.67365 L 25.4439,-4.27841 L 26.0161,-4.8157 L 26.6511,-5.27704 L 27.3389,-5.65517 L 27.6039,-5.76007
 L 27.3625,-7.02548 L 26.2662,-10.3995 L 24.7557,-13.6095 L 22.8547,-16.6049 L 20.5934,-19.3385 L 18.0072,-21.767
 L 15.1371,-23.8523 L 12.0283,-25.5614 L 8.72972,-26.8673 L 5.77646,-27.6256 L 5.47691,-26.989 L 5.05635,-26.3263
 L 4.55605,-25.7216 L 3.98389,-25.1843 L 3.34891,-24.7229 L 2.66112,-24.3448 L 1.93135,-24.0559 L 1.17113,-23.8607
 L 0.392426,-23.7623 L -0.392426,-23.7623 L -1.17113,-23.8607 L -1.93135,-24.0559 L -2.66112,-24.3448 L -3.34891,-24.7229
 L -3.98389,-25.1843 L -4.55605,-25.7216 L -5.05635,-26.3263 L -5.47691,-26.989 L -5.77646,-27.6256 L -8.72972,-26.8673
 L -12.0283,-25.5614 L -15.1371,-23.8523 L -18.0072,-21.767 L -20.5934,-19.3385 L -22.8547,-16.6049 L -24.7557,-13.6095
 L -26.2662,-10.3995 L -27.3625,-7.02548 L -27.6039,-5.76007 L -27.3389,-5.65517 L -26.6511,-5.27704 L -26.0161,-4.8157
 L -25.4439,-4.27841 L -24.9436,-3.67365 L -24.5231,-3.01096 L -24.1889,-2.30077 L -23.9464,-1.55431 L -23.7993,-0.783325
 L -23.75,-0 L -23.7993,0.783325 L -23.9464,1.55431 L -24.1889,2.30077 L -24.5231,3.01096 L -24.9436,3.67365
 L -25.4439,4.27841 L -26.0161,4.8157 L -26.6511,5.27704 L -27.3389,5.65517 L -27.6039,5.76007 L -27.3625,7.02548
 L -26.2662,10.3995 L -24.7557,13.6095 L -22.8547,16.6049 L -20.5934,19.3385 L -18.0072,21.767 L -15.1371,23.8523
 L -12.0283,25.5614 L -8.72972,26.8673 L -5.77646,27.6256 L -5.47691,26.989 L -5.05635,26.3263 L -4.55605,25.7216
 L -3.98389,25.1843 L -3.34891,24.7229 L -2.66112,24.3448 L -1.93135,24.0559 L -1.17113,23.8607 L -0.392426,23.7623
 L 0.392426,23.7623 L 1.17113,23.8607 L 1.93135,24.0559 L 2.66112,24.3448 L 3.34891,24.7229 L 3.98389,25.1843
 L 4.55605,25.7216 L 5.05635,26.3263 L 5.47691,26.989 L 5.77646,27.6256 z
M -0.926147,14.7209 L -2.76387,14.4887 L -4.558,14.0281 L -6.28024,13.3462 L -7.90344,12.4538 L -9.40199,11.3651
 L -10.7523,10.0971 L -11.933,8.66983 L -12.9255,7.10587 L -13.7142,5.42982 L -14.2866,3.66817 L -14.6337,1.84866
 L -14.75,-0 L -14.6337,-1.84866 L -14.2866,-3.66817 L -13.7142,-5.42982 L -12.9255,-7.10587 L -11.933,-8.66983
 L -10.7523,-10.0971 L -9.40199,-11.3651 L -7.90344,-12.4538 L -6.28024,-13.3462 L -4.558,-14.0281 L -2.76387,-14.4887
 L -0.926147,-14.7209 L 0.926147,-14.7209 L 2.76387,-14.4887 L 4.558,-14.0281 L 6.28024,-13.3462 L 7.90344,-12.4538
 L 9.40199,-11.3651 L 10.7523,-10.0971 L 11.933,-8.66983 L 12.9255,-7.10587 L 13.7142,-5.42982 L 14.2866,-3.66817
 L 14.6337,-1.84866 L 14.75,-0 L 14.6337,1.84866 L 14.2866,3.66817 L 13.7142,5.42982 L 12.9255,7.10587
 L 11.933,8.66983 L 10.7523,10.0971 L 9.40199,11.3651 L 7.90344,12.4538 L 6.28024,13.3462 L 4.558,14.0281
 L 2.76387,14.4887 L 0.926147,14.7209 z
M 2.57649,13.5064 L 4.24898,13.077 L 5.85446,12.4414 L 7.36761,11.6095 L 8.76457,10.5945 L 10.0233,9.41252
 L 11.124,8.08205 L 12.0492,6.6241 L 12.7844,5.06171 L 13.318,3.41948 L 13.6416,1.72333 L 13.75,-0
 L 13.6416,-1.72333 L 13.318,-3.41948 L 12.7844,-5.06171 L 12.0492,-6.6241 L 11.124,-8.08205 L 10.0233,-9.41252
 L 8.76457,-10.5945 L 7.36761,-11.6095 L 5.85446,-12.4414 L 4.24898,-13.077 L 2.57649,-13.5064 L 0.863358,-13.7229
 L -0.863358,-13.7229 L -2.57649,-13.5064 L -4.24898,-13.077 L -5.85446,-12.4414 L -7.36761,-11.6095 L -8.76457,-10.5945
 L -10.0233,-9.41252 L -11.124,-8.08205 L -12.0492,-6.6241 L -12.7844,-5.06171 L -13.318,-3.41948 L -13.6416,-1.72333
 L -13.75,-0 L -13.6416,1.72333 L -13.318,3.41948 L -12.7844,5.06171 L -12.0492,6.6241 L -11.124,8.08205
 L -10.0233,9.41252 L -8.76457,10.5945 L -7.36761,11.6095 L -5.85446,12.4414 L -4.24898,13.077 L -2.57649,13.5064
 L -0.863358,13.7229 L 0.863358,13.7229 z
M -38.1263,-29.5745 L -38.5,-29.6217 L -38.8649,-29.7155 L -39.2152,-29.8541 L -39.5454,-30.0356 L -39.8502,-30.2571
 L -40.1248,-30.515 L -40.3649,-30.8053 L -40.5668,-31.1234 L -40.7272,-31.4642 L -40.8436,-31.8225 L -40.9142,-32.1926
 L -40.9379,-32.5686 L -40.9142,-32.9446 L -40.8436,-33.3147 L -40.7272,-33.673 L -40.5668,-34.0139 L -40.3649,-34.332
 L -40.1248,-34.6223 L -39.8502,-34.8802 L -39.5454,-35.1016 L -39.2152,-35.2831 L -38.8649,-35.4218 L -38.5,-35.5155
 L -38.1263,-35.5627 L -37.7495,-35.5627 L -37.3758,-35.5155 L -37.0108,-35.4218 L -36.6606,-35.2831 L -36.3304,-35.1016
 L -36.0256,-34.8802 L -35.751,-34.6223 L -35.5108,-34.332 L -35.309,-34.0139 L -35.1486,-33.673 L -35.0322,-33.3147
 L -34.9616,-32.9446 L -34.9379,-32.5686 L -34.9616,-32.1926 L -35.0322,-31.8225 L -35.1486,-31.4642 L -35.309,-31.1234
 L -35.5108,-30.8053 L -35.751,-30.515 L -36.0256,-30.2571 L -36.3304,-30.0356 L -36.6606,-29.8541 L -37.0108,-29.7155
 L -37.3758,-29.6217 L -37.7495,-29.5745 z
M 40.8498,-25.5693 L 40.476,-25.6165 L 40.1111,-25.7102 L 39.7608,-25.8489 L 39.4307,-26.0304 L 39.1259,-26.2519
 L 38.8513,-26.5098 L 38.6111,-26.8 L 38.4092,-27.1181 L 38.2488,-27.459 L 38.1324,-27.8173 L 38.0618,-28.1874
 L 38.0382,-28.5634 L 38.0618,-28.9394 L 38.1324,-29.3095 L 38.2488,-29.6678 L 38.4092,-30.0087 L 38.6111,-30.3268
 L 38.8513,-30.6171 L 39.1259,-30.8749 L 39.4307,-31.0964 L 39.7608,-31.2779 L 40.1111,-31.4166 L 40.476,-31.5103
 L 40.8498,-31.5575 L 41.2265,-31.5575 L 41.6003,-31.5103 L 41.9652,-31.4166 L 42.3155,-31.2779 L 42.6456,-31.0964
 L 42.9504,-30.8749 L 43.2251,-30.6171 L 43.4652,-30.3268 L 43.6671,-30.0087 L 43.8275,-29.6678 L 43.9439,-29.3095
 L 44.0145,-28.9394 L 44.0382,-28.5634 L 44.0145,-28.1874 L 43.9439,-27.8173 L 43.8275,-27.459 L 43.6671,-27.1181
 L 43.4652,-26.8 L 43.2251,-26.5098 L 42.9504,-26.2519 L 42.6456,-26.0304 L 42.3155,-25.8489 L 41.9652,-25.7102
 L 41.6003,-25.6165 L 41.2265,-25.5693 z
M -43.9057,-21.271 L -44.2795,-21.3182 L -44.6444,-21.4119 L -44.9947,-21.5506 L -45.3248,-21.7321 L -45.6296,-21.9536
 L -45.9042,-22.2115 L -46.1444,-22.5017 L -46.3463,-22.8198 L -46.5067,-23.1607 L -46.6231,-23.519 L -46.6937,-23.8891
 L -46.7173,-24.2651 L -46.6937,-24.6411 L -46.6231,-25.0112 L -46.5067,-25.3695 L -46.3463,-25.7104 L -46.1444,-26.0284
 L -45.9042,-26.3187 L -45.6296,-26.5766 L -45.3248,-26.7981 L -44.9947,-26.9796 L -44.6444,-27.1183 L -44.2795,-27.212
 L -43.9057,-27.2592 L -43.5289,-27.2592 L -43.1552,-27.212 L -42.7903,-27.1183 L -42.44,-26.9796 L -42.1098,-26.7981
 L -41.8051,-26.5766 L -41.5304,-26.3187 L -41.2903,-26.0284 L -41.0884,-25.7104 L -40.928,-25.3695 L -40.8116,-25.0112
 L -40.741,-24.6411 L -40.7173,-24.2651 L -40.741,-23.8891 L -40.8116,-23.519 L -40.928,-23.1607 L -41.0884,-22.8198
 L -41.2903,-22.5017 L -41.5304,-22.2115 L -41.8051,-21.9536 L -42.1098,-21.7321 L -42.44,-21.5506 L -42.7903,-21.4119
 L -43.1552,-21.3182 L -43.5289,-21.271 z
M 45.7595,-16.7237 L 45.3857,-16.7709 L 45.0208,-16.8646 L 44.6705,-17.0033 L 44.3404,-17.1848 L 44.0356,-17.4062
 L 43.761,-17.6641 L 43.5208,-17.9544 L 43.319,-18.2725 L 43.1586,-18.6134 L 43.0421,-18.9717 L 42.9715,-19.3418
 L 42.9479,-19.7178 L 42.9715,-20.0938 L 43.0421,-20.4639 L 43.1586,-20.8222 L 43.319,-21.163 L 43.5208,-21.4811
 L 43.761,-21.7714 L 44.0356,-22.0293 L 44.3404,-22.2508 L 44.6705,-22.4323 L 45.0208,-22.571 L 45.3857,-22.6646
 L 45.7595,-22.7119 L 46.1363,-22.7119 L 46.51,-22.6646 L 46.8749,-22.571 L 47.2252,-22.4323 L 47.5554,-22.2508
 L 47.8602,-22.0293 L 48.1348,-21.7714 L 48.3749,-21.4811 L 48.5768,-21.163 L 48.7372,-20.8222 L 48.8536,-20.4639
 L 48.9242,-20.0938 L 48.9479,-19.7178 L 48.9242,-19.3418 L 48.8536,-18.9717 L 48.7372,-18.6134 L 48.5768,-18.2725
 L 48.3749,-17.9544 L 48.1348,-17.6641 L 47.8602,-17.4062 L 47.5554,-17.1848 L 47.2252,-17.0033 L 46.8749,-16.8646
 L 46.51,-16.7709 L 46.1363,-16.7237 z
M -47.8953,-11.9741 L -48.2691,-12.0213 L -48.634,-12.115 L -48.9843,-12.2537 L -49.3144,-12.4352 L -49.6192,-12.6566
 L -49.8939,-12.9145 L -50.134,-13.2048 L -50.3359,-13.5229 L -50.4963,-13.8638 L -50.6127,-14.2221 L -50.6833,-14.5921
 L -50.707,-14.9682 L -50.6833,-15.3441 L -50.6127,-15.7142 L -50.4963,-16.0725 L -50.3359,-16.4134 L -50.134,-16.7315
 L -49.8939,-17.0218 L -49.6192,-17.2797 L -49.3144,-17.5011 L -48.9843,-17.6826 L -48.634,-17.8213 L -48.2691,-17.915
 L -47.8953,-17.9622 L -47.5186,-17.9622 L -47.1448,-17.915 L -46.7799,-17.8213 L -46.4296,-17.6826 L -46.0995,-17.5011
 L -45.7947,-17.2797 L -45.5201,-17.0218 L -45.2799,-16.7315 L -45.078,-16.4134 L -44.9176,-16.0725 L -44.8012,-15.7142
 L -44.7306,-15.3441 L -44.707,-14.9682 L -44.7306,-14.5921 L -44.8012,-14.2221 L -44.9176,-13.8638 L -45.078,-13.5229
 L -45.2799,-13.2048 L -45.5201,-12.9145 L -45.7947,-12.6566 L -46.0995,-12.4352 L -46.4296,-12.2537 L -46.7799,-12.115
 L -47.1448,-12.0213 L -47.5186,-11.9741 z
M 48.7881,-7.07083 L 48.4144,-7.11806 L 48.0494,-7.21175 L 47.6992,-7.35043 L 47.369,-7.53194 L 47.0642,-7.75337
 L 46.7896,-8.01128 L 46.5494,-8.30156 L 46.3476,-8.61966 L 46.1872,-8.96054 L 46.0707,-9.31885 L 46.0002,-9.68892
 L 45.9765,-10.0649 L 46.0002,-10.4409 L 46.0707,-10.811 L 46.1872,-11.1693 L 46.3476,-11.5102 L 46.5494,-11.8283
 L 46.7896,-12.1186 L 47.0642,-12.3765 L 47.369,-12.5979 L 47.6992,-12.7794 L 48.0494,-12.9181 L 48.4144,-13.0118
 L 48.7881,-13.059 L 49.1649,-13.059 L 49.5386,-13.0118 L 49.9035,-12.9181 L 50.2538,-12.7794 L 50.584,-12.5979
 L 50.8888,-12.3765 L 51.1634,-12.1186 L 51.4035,-11.8283 L 51.6054,-11.5102 L 51.7658,-11.1693 L 51.8822,-10.811
 L 51.9528,-10.4409 L 51.9765,-10.0649 L 51.9528,-9.68892 L 51.8822,-9.31885 L 51.7658,-8.96054 L 51.6054,-8.61966
 L 51.4035,-8.30156 L 51.1634,-8.01128 L 50.8888,-7.75337 L 50.584,-7.53194 L 50.2538,-7.35043 L 49.9035,-7.21175
 L 49.5386,-7.11806 L 49.1649,-7.07083 z
M -49.9318,-2.06433 L -50.3056,-2.11154 L -50.6705,-2.20525 L -51.0208,-2.34393 L -51.3509,-2.52542 L -51.6557,-2.74687
 L -51.9304,-3.00476 L -52.1705,-3.29506 L -52.3724,-3.61314 L -52.5328,-3.95404 L -52.6492,-4.31233 L -52.7198,-4.6824
 L -52.7435,-5.05841 L -52.7198,-5.4344 L -52.6492,-5.80447 L -52.5328,-6.16278 L -52.3724,-6.50366 L -52.1705,-6.82176
 L -51.9304,-7.11205 L -51.6557,-7.36995 L -51.3509,-7.59138 L -51.0208,-7.77289 L -50.6705,-7.91158 L -50.3056,-8.00526
 L -49.9318,-8.05249 L -49.5551,-8.05249 L -49.1813,-8.00526 L -48.8164,-7.91158 L -48.4661,-7.77289 L -48.136,-7.59138
 L -47.8312,-7.36995 L -47.5565,-7.11205 L -47.3164,-6.82176 L -47.1145,-6.50366 L -46.9541,-6.16278 L -46.8377,-5.80447
 L -46.7671,-5.4344 L -46.7435,-5.05841 L -46.7671,-4.6824 L -46.8377,-4.31233 L -46.9541,-3.95404 L -47.1145,-3.61314
 L -47.3164,-3.29506 L -47.5565,-3.00476 L -47.8312,-2.74687 L -48.136,-2.52542 L -48.4661,-2.34393 L -48.8164,-2.20525
 L -49.1813,-2.11154 L -49.5551,-2.06433 z
M 59.8116,2.99408 L 59.4379,2.94685 L 59.0729,2.85316 L 58.7227,2.71448 L 58.3925,2.53297 L 58.0877,2.31154
 L 57.8131,2.05363 L 57.5729,1.76335 L 57.3711,1.44525 L 57.2107,1.10437 L 57.0942,0.746063 L 57.0237,0.375992
 L 57,-0 L 57.0237,-0.375992 L 57.0942,-0.746063 L 57.2107,-1.10437 L 57.3711,-1.44525 L 57.5729,-1.76335
 L 57.8131,-2.05363 L 58.0877,-2.31154 L 58.3925,-2.53297 L 58.7227,-2.71448 L 59.0729,-2.85316 L 59.4379,-2.94685
 L 59.8116,-2.99408 L 60.1884,-2.99408 L 60.5621,-2.94685 L 60.927,-2.85316 L 61.2773,-2.71448 L 61.6075,-2.53297
 L 61.9123,-2.31154 L 62.1869,-2.05363 L 62.427,-1.76335 L 62.6289,-1.44525 L 62.7893,-1.10437 L 62.9057,-0.746063
 L 62.9763,-0.375992 L 63,-0 L 62.9763,0.375992 L 62.9057,0.746063 L 62.7893,1.10437 L 62.6289,1.44525
 L 62.427,1.76335 L 62.1869,2.05363 L 61.9123,2.31154 L 61.6075,2.53297 L 61.2773,2.71448 L 60.927,2.85316
 L 60.5621,2.94685 L 60.1884,2.99408 z
M 49.8116,2.99408 L 49.4379,2.94685 L 49.0729,2.85316 L 48.7227,2.71448 L 48.3925,2.53297 L 48.0877,2.31154
 L 47.8131,2.05363 L 47.5729,1.76335 L 47.3711,1.44525 L 47.2107,1.10437 L 47.0942,0.746063 L 47.0237,0.375992
 L 47,-0 L 47.0237,-0.375992 L 47.0942,-0.746063 L 47.2107,-1.10437 L 47.3711,-1.44525 L 47.5729,-1.76335
 L 47.8131,-2.05363 L 48.0877,-2.31154 L 48.3925,-2.53297 L 48.7227,-2.71448 L 49.0729,-2.85316 L 49.4379,-2.94685
 L 49.8116,-2.99408 L 50.1884,-2.99408 L 50.5621,-2.94685 L 50.927,-2.85316 L 51.2773,-2.71448 L 51.6075,-2.53297
 L 51.9123,-2.31154 L 52.1869,-2.05363 L 52.427,-1.76335 L 52.6289,-1.44525 L 52.7893,-1.10437 L 52.9057,-0.746063
 L 52.9763,-0.375992 L 53,-0 L 52.9763,0.375992 L 52.9057,0.746063 L 52.7893,1.10437 L 52.6289,1.44525
 L 52.427,1.76335 L 52.1869,2.05363 L 51.9123,2.31154 L 51.6075,2.53297 L 51.2773,2.71448 L 50.927,2.85316
 L 50.5621,2.94685 L 50.1884,2.99408 z
M -60.1884,2.99408 L -60.5621,2.94685 L -60.927,2.85316 L -61.2773,2.71448 L -61.6075,2.53297 L -61.9123,2.31154
 L -62.1869,2.05363 L -62.427,1.76335 L -62.6289,1.44525 L -62.7893,1.10437 L -62.9057,0.746063 L -62.9763,0.375992
 L -63,-0 L -62.9763,-0.375992 L -62.9057,-0.746063 L -62.7893,-1.10437 L -62.6289,-1.44525 L -62.427,-1.76335
 L -62.1869,-2.05363 L -61.9123,-2.31154 L -61.6075,-2.53297 L -61.2773,-2.71448 L -60.927,-2.85316 L -60.5621,-2.94685
 L -60.1884,-2.99408 L -59.8116,-2.99408 L -59.4379,-2.94685 L -59.0729,-2.85316 L -58.7227,-2.71448 L -58.3925,-2.53297
 L -58.0877,-2.31154 L -57.8131,-2.05363 L -57.5729,-1.76335 L -57.3711,-1.44525 L -57.2107,-1.10437 L -57.0942,-0.746063
 L -57.0237,-0.375992 L -57,-0 L -57.0237,0.375992 L -57.0942,0.746063 L -57.2107,1.10437 L -57.3711,1.44525
 L -57.5729,1.76335 L -57.8131,2.05363 L -58.0877,2.31154 L -58.3925,2.53297 L -58.7227,2.71448 L -59.0729,2.85316
 L -59.4379,2.94685 L -59.8116,2.99408 z
M -49.9318,8.05249 L -50.3056,8.00526 L -50.6705,7.91158 L -51.0208,7.77289 L -51.3509,7.59138 L -51.6557,7.36995
 L -51.9304,7.11205 L -52.1705,6.82176 L -52.3724,6.50366 L -52.5328,6.16278 L -52.6492,5.80447 L -52.7198,5.4344
 L -52.7435,5.05841 L -52.7198,4.6824 L -52.6492,4.31233 L -52.5328,3.95404 L -52.3724,3.61314 L -52.1705,3.29506
 L -51.9304,3.00476 L -51.6557,2.74687 L -51.3509,2.52542 L -51.0208,2.34393 L -50.6705,2.20525 L -50.3056,2.11154
 L -49.9318,2.06433 L -49.5551,2.06433 L -49.1813,2.11154 L -48.8164,2.20525 L -48.4661,2.34393 L -48.136,2.52542
 L -47.8312,2.74687 L -47.5565,3.00476 L -47.3164,3.29506 L -47.1145,3.61314 L -46.9541,3.95404 L -46.8377,4.31233
 L -46.7671,4.6824 L -46.7435,5.05841 L -46.7671,5.4344 L -46.8377,5.80447 L -46.9541,6.16278 L -47.1145,6.50366
 L -47.3164,6.82176 L -47.5565,7.11205 L -47.8312,7.36995 L -48.136,7.59138 L -48.4661,7.77289 L -48.8164,7.91158
 L -49.1813,8.00526 L -49.5551,8.05249 z
M 48.7881,13.059 L 48.4144,13.0118 L 48.0494,12.9181 L 47.6992,12.7794 L 47.369,12.5979 L 47.0642,12.3765
 L 46.7896,12.1186 L 46.5494,11.8283 L 46.3476,11.5102 L 46.1872,11.1693 L 46.0707,10.811 L 46.0002,10.4409
 L 45.9765,10.0649 L 46.0002,9.68892 L 46.0707,9.31885 L 46.1872,8.96054 L 46.3476,8.61966 L 46.5494,8.30156
 L 46.7896,8.01128 L 47.0642,7.75337 L 47.369,7.53194 L 47.6992,7.35043 L 48.0494,7.21175 L 48.4144,7.11806
 L 48.7881,7.07083 L 49.1649,7.07083 L 49.5386,7.11806 L 49.9035,7.21175 L 50.2538,7.35043 L 50.584,7.53194
 L 50.8888,7.75337 L 51.1634,8.01128 L 51.4035,8.30156 L 51.6054,8.61966 L 51.7658,8.96054 L 51.8822,9.31885
 L 51.9528,9.68892 L 51.9765,10.0649 L 51.9528,10.4409 L 51.8822,10.811 L 51.7658,11.1693 L 51.6054,11.5102
 L 51.4035,11.8283 L 51.1634,12.1186 L 50.8888,12.3765 L 50.584,12.5979 L 50.2538,12.7794 L 49.9035,12.9181
 L 49.5386,13.0118 L 49.1649,13.059 z
M -47.8953,17.9622 L -48.2691,17.915 L -48.634,17.8213 L -48.9843,17.6826 L -49.3144,17.5011 L -49.6192,17.2797
 L -49.8939,17.0218 L -50.134,16.7315 L -50.3359,16.4134 L -50.4963,16.0725 L -50.6127,15.7142 L -50.6833,15.3441
 L -50.707,14.9682 L -50.6833,14.5921 L -50.6127,14.2221 L -50.4963,13.8638 L -50.3359,13.5229 L -50.134,13.2048
 L -49.8939,12.9145 L -49.6192,12.6566 L -49.3144,12.4352 L -48.9843,12.2537 L -48.634,12.115 L -48.2691,12.0213
 L -47.8953,11.9741 L -47.5186,11.9741 L -47.1448,12.0213 L -46.7799,12.115 L -46.4296,12.2537 L -46.0995,12.4352
 L -45.7947,12.6566 L -45.5201,12.9145 L -45.2799,13.2048 L -45.078,13.5229 L -44.9176,13.8638 L -44.8012,14.2221
 L -44.7306,14.5921 L -44.707,14.9682 L -44.7306,15.3441 L -44.8012,15.7142 L -44.9176,16.0725 L -45.078,16.4134
 L -45.2799,16.7315 L -45.5201,17.0218 L -45.7947,17.2797 L -46.0995,17.5011 L -46.4296,17.6826 L -46.7799,17.8213
 L -47.1448,17.915 L -47.5186,17.9622 z
M 45.7595,22.7119 L 45.3857,22.6646 L 45.0208,22.571 L 44.6705,22.4323 L 44.3404,22.2508 L 44.0356,22.0293
 L 43.761,21.7714 L 43.5208,21.4811 L 43.319,21.163 L 43.1586,20.8222 L 43.0421,20.4639 L 42.9715,20.0938
 L 42.9479,19.7178 L 42.9715,19.3418 L 43.0421,18.9717 L 43.1586,18.6134 L 43.319,18.2725 L 43.5208,17.9544
 L 43.761,17.6641 L 44.0356,17.4062 L 44.3404,17.1848 L 44.6705,17.0033 L 45.0208,16.8646 L 45.3857,16.7709
 L 45.7595,16.7237 L 46.1363,16.7237 L 46.51,16.7709 L 46.8749,16.8646 L 47.2252,17.0033 L 47.5554,17.1848
 L 47.8602,17.4062 L 48.1348,17.6641 L 48.3749,17.9544 L 48.5768,18.2725 L 48.7372,18.6134 L 48.8536,18.9717
 L 48.9242,19.3418 L 48.9479,19.7178 L 48.9242,20.0938 L 48.8536,20.4639 L 48.7372,20.8222 L 48.5768,21.163
 L 48.3749,21.4811 L 48.1348,21.7714 L 47.8602,22.0293 L 47.5554,22.2508 L 47.2252,22.4323 L 46.8749,22.571
 L 46.51,22.6646 L 46.1363,22.7119 z
M -43.9057,27.2592 L -44.2795,27.212 L -44.6444,27.1183 L -44.9947,26.9796 L -45.3248,26.7981 L -45.6296,26.5766
 L -45.9042,26.3187 L -46.1444,26.0284 L -46.3463,25.7104 L -46.5067,25.3695 L -46.6231,25.0112 L -46.6937,24.6411
 L -46.7173,24.2651 L -46.6937,23.8891 L -46.6231,23.519 L -46.5067,23.1607 L -46.3463,22.8198 L -46.1444,22.5017
 L -45.9042,22.2115 L -45.6296,21.9536 L -45.3248,21.7321 L -44.9947,21.5506 L -44.6444,21.4119 L -44.2795,21.3182
 L -43.9057,21.271 L -43.5289,21.271 L -43.1552,21.3182 L -42.7903,21.4119 L -42.44,21.5506 L -42.1098,21.7321
 L -41.8051,21.9536 L -41.5304,22.2115 L -41.2903,22.5017 L -41.0884,22.8198 L -40.928,23.1607 L -40.8116,23.519
 L -40.741,23.8891 L -40.7173,24.2651 L -40.741,24.6411 L -40.8116,25.0112 L -40.928,25.3695 L -41.0884,25.7104
 L -41.2903,26.0284 L -41.5304,26.3187 L -41.8051,26.5766 L -42.1098,26.7981 L -42.44,26.9796 L -42.7903,27.1183
 L -43.1552,27.212 L -43.5289,27.2592 z
M 40.8498,31.5575 L 40.476,31.5103 L 40.1111,31.4166 L 39.7608,31.2779 L 39.4307,31.0964 L 39.1259,30.8749
 L 38.8513,30.6171 L 38.6111,30.3268 L 38.4092,30.0087 L 38.2488,29.6678 L 38.1324,29.3095 L 38.0618,28.9394
 L 38.0382,28.5634 L 38.0618,28.1874 L 38.1324,27.8173 L 38.2488,27.459 L 38.4092,27.1181 L 38.6111,26.8
 L 38.8513,26.5098 L 39.1259,26.2519 L 39.4307,26.0304 L 39.7608,25.8489 L 40.1111,25.7102 L 40.476,25.6165
 L 40.8498,25.5693 L 41.2265,25.5693 L 41.6003,25.6165 L 41.9652,25.7102 L 42.3155,25.8489 L 42.6456,26.0304
 L 42.9504,26.2519 L 43.2251,26.5098 L 43.4652,26.8 L 43.6671,27.1181 L 43.8275,27.459 L 43.9439,27.8173
 L 44.0145,28.1874 L 44.0382,28.5634 L 44.0145,28.9394 L 43.9439,29.3095 L 43.8275,29.6678 L 43.6671,30.0087
 L 43.4652,30.3268 L 43.2251,30.6171 L 42.9504,30.8749 L 42.6456,31.0964 L 42.3155,31.2779 L 41.9652,31.4166
 L 41.6003,31.5103 L 41.2265,31.5575 z
M -38.1263,35.5627 L -38.5,35.5155 L -38.8649,35.4218 L -39.2152,35.2831 L -39.5454,35.1016 L -39.8502,34.8802
 L -40.1248,34.6223 L -40.3649,34.332 L -40.5668,34.0139 L -40.7272,33.673 L -40.8436,33.3147 L -40.9142,32.9446
 L -40.9379,32.5686 L -40.9142,32.1926 L -40.8436,31.8225 L -40.7272,31.4642 L -40.5668,31.1234 L -40.3649,30.8053
 L -40.1248,30.515 L -39.8502,30.2571 L -39.5454,30.0356 L -39.2152,29.8541 L -38.8649,29.7155 L -38.5,29.6217
 L -38.1263,29.5745 L -37.7495,29.5745 L -37.3758,29.6217 L -37.0108,29.7155 L -36.6606,29.8541 L -36.3304,30.0356
 L -36.0256,30.2571 L -35.751,30.515 L -35.5108,30.8053 L -35.309,31.1234 L -35.1486,31.4642 L -35.0322,31.8225
 L -34.9616,32.1926 L -34.9379,32.5686 L -34.9616,32.9446 L -35.0322,33.3147 L -35.1486,33.673 L -35.309,34.0139
 L -35.5108,34.332 L -35.751,34.6223 L -36.0256,34.8802 L -36.3304,35.1016 L -36.6606,35.2831 L -37.0108,35.4218
 L -37.3758,35.5155 L -37.7495,35.5627 z
M 34.26,39.2337 L 33.8862,39.1865 L 33.5213,39.0928 L 33.171,38.9541 L 32.8409,38.7726 L 32.5361,38.5512
 L 32.2614,38.2933 L 32.0213,38.003 L 31.8194,37.6849 L 31.659,37.344 L 31.5426,36.9857 L 31.472,36.6156
 L 31.4483,36.2396 L 31.472,35.8636 L 31.5426,35.4936 L 31.659,35.1353 L 31.8194,34.7944 L 32.0213,34.4763
 L 32.2614,34.186 L 32.5361,33.9281 L 32.8409,33.7066 L 33.171,33.5251 L 33.5213,33.3865 L 33.8862,33.2928
 L 34.26,33.2456 L 34.6367,33.2456 L 35.0105,33.2928 L 35.3754,33.3865 L 35.7257,33.5251 L 36.0558,33.7066
 L 36.3606,33.9281 L 36.6352,34.186 L 36.8754,34.4763 L 37.0773,34.7944 L 37.2377,35.1353 L 37.3541,35.4936
 L 37.4247,35.8636 L 37.4483,36.2396 L 37.4247,36.6156 L 37.3541,36.9857 L 37.2377,37.344 L 37.0773,37.6849
 L 36.8754,38.003 L 36.6352,38.2933 L 36.3606,38.5512 L 36.0558,38.7726 L 35.7257,38.9541 L 35.3754,39.0928
 L 35.0105,39.1865 L 34.6367,39.2337 z
M -30.7937,42.5329 L -31.1674,42.4856 L -31.5323,42.392 L -31.8826,42.2533 L -32.2128,42.0718 L -32.5176,41.8503
 L -32.7922,41.5924 L -33.0323,41.3021 L -33.2342,40.984 L -33.3946,40.6432 L -33.511,40.2849 L -33.5816,39.9148
 L -33.6053,39.5388 L -33.5816,39.1628 L -33.511,38.7927 L -33.3946,38.4344 L -33.2342,38.0935 L -33.0323,37.7754
 L -32.7922,37.4851 L -32.5176,37.2272 L -32.2128,37.0058 L -31.8826,36.8243 L -31.5323,36.6856 L -31.1674,36.5919
 L -30.7937,36.5447 L -30.4169,36.5447 L -30.0432,36.5919 L -29.6782,36.6856 L -29.328,36.8243 L -28.9978,37.0058
 L -28.693,37.2272 L -28.4184,37.4851 L -28.1782,37.7754 L -27.9764,38.0935 L -27.816,38.4344 L -27.6995,38.7927
 L -27.629,39.1628 L -27.6053,39.5388 L -27.629,39.9148 L -27.6995,40.2849 L -27.816,40.6432 L -27.9764,40.984
 L -28.1782,41.3021 L -28.4184,41.5924 L -28.693,41.8503 L -28.9978,42.0718 L -29.328,42.2533 L -29.6782,42.392
 L -30.0432,42.4856 L -30.4169,42.5329 z
M 26.2598,45.4263 L 25.886,45.3791 L 25.5211,45.2854 L 25.1709,45.1467 L 24.8407,44.9652 L 24.5359,44.7437
 L 24.2613,44.4859 L 24.0211,44.1956 L 23.8193,43.8775 L 23.6589,43.5366 L 23.5424,43.1783 L 23.4718,42.8082
 L 23.4482,42.4322 L 23.4718,42.0562 L 23.5424,41.6861 L 23.6589,41.3278 L 23.8193,40.987 L 24.0211,40.6689
 L 24.2613,40.3786 L 24.5359,40.1207 L 24.8407,39.8992 L 25.1709,39.7177 L 25.5211,39.579 L 25.886,39.4854
 L 26.2598,39.4381 L 26.6366,39.4381 L 27.0103,39.4854 L 27.3752,39.579 L 27.7255,39.7177 L 28.0557,39.8992
 L 28.3605,40.1207 L 28.6351,40.3786 L 28.8752,40.6689 L 29.0771,40.987 L 29.2375,41.3278 L 29.3539,41.6861
 L 29.4245,42.0562 L 29.4482,42.4322 L 29.4245,42.8082 L 29.3539,43.1783 L 29.2375,43.5366 L 29.0771,43.8775
 L 28.8752,44.1956 L 28.6351,44.4859 L 28.3605,44.7437 L 28.0557,44.9652 L 27.7255,45.1467 L 27.3752,45.2854
 L 27.0103,45.3791 L 26.6366,45.4263 z
M -22.2081,47.8843 L -22.5818,47.8371 L -22.9467,47.7434 L -23.297,47.6047 L -23.6272,47.4232 L -23.932,47.2018
 L -24.2066,46.9439 L -24.4467,46.6536 L -24.6486,46.3355 L -24.809,45.9946 L -24.9254,45.6363 L -24.996,45.2662
 L -25.0197,44.8902 L -24.996,44.5142 L -24.9254,44.1441 L -24.809,43.7858 L -24.6486,43.445 L -24.4467,43.1269
 L -24.2066,42.8366 L -23.932,42.5787 L -23.6272,42.3572 L -23.297,42.1757 L -22.9467,42.037 L -22.5818,41.9434
 L -22.2081,41.8961 L -21.8313,41.8961 L -21.4576,41.9434 L -21.0927,42.037 L -20.7424,42.1757 L -20.4122,42.3572
 L -20.1074,42.5787 L -19.8328,42.8366 L -19.5927,43.1269 L -19.3908,43.445 L -19.2304,43.7858 L -19.114,44.1441
 L -19.0434,44.5142 L -19.0197,44.8902 L -19.0434,45.2662 L -19.114,45.6363 L -19.2304,45.9946 L -19.3908,46.3355
 L -19.5927,46.6536 L -19.8328,46.9439 L -20.1074,47.2018 L -20.4122,47.4232 L -20.7424,47.6047 L -21.0927,47.7434
 L -21.4576,47.8371 L -21.8313,47.8843 z
M 17.1769,49.8817 L 16.8031,49.8345 L 16.4382,49.7408 L 16.0879,49.6021 L 15.7578,49.4206 L 15.453,49.1991
 L 15.1783,48.9412 L 14.9382,48.651 L 14.7363,48.3329 L 14.5759,47.992 L 14.4595,47.6337 L 14.3889,47.2636
 L 14.3652,46.8876 L 14.3889,46.5116 L 14.4595,46.1415 L 14.5759,45.7832 L 14.7363,45.4423 L 14.9382,45.1243
 L 15.1783,44.834 L 15.453,44.5761 L 15.7578,44.3546 L 16.0879,44.1731 L 16.4382,44.0344 L 16.8031,43.9407
 L 17.1769,43.8935 L 17.5536,43.8935 L 17.9274,43.9407 L 18.2923,44.0344 L 18.6426,44.1731 L 18.9727,44.3546
 L 19.2775,44.5761 L 19.5522,44.834 L 19.7923,45.1243 L 19.9942,45.4423 L 20.1546,45.7832 L 20.271,46.1415
 L 20.3416,46.5116 L 20.3652,46.8876 L 20.3416,47.2636 L 20.271,47.6337 L 20.1546,47.992 L 19.9942,48.3329
 L 19.7923,48.651 L 19.5522,48.9412 L 19.2775,49.1991 L 18.9727,49.4206 L 18.6426,49.6021 L 18.2923,49.7408
 L 17.9274,49.8345 L 17.5536,49.8817 z
M -12.721,51.3979 L -13.0948,51.3507 L -13.4597,51.257 L -13.81,51.1183 L -14.1401,50.9368 L -14.4449,50.7154
 L -14.7195,50.4575 L -14.9597,50.1672 L -15.1615,49.8491 L -15.3219,49.5082 L -15.4384,49.1499 L -15.509,48.7798
 L -15.5326,48.4039 L -15.509,48.0278 L -15.4384,47.6578 L -15.3219,47.2995 L -15.1615,46.9586 L -14.9597,46.6405
 L -14.7195,46.3502 L -14.4449,46.0923 L -14.1401,45.8709 L -13.81,45.6894 L -13.4597,45.5507 L -13.0948,45.457
 L -12.721,45.4098 L -12.3443,45.4098 L -11.9705,45.457 L -11.6056,45.5507 L -11.2553,45.6894 L -10.9251,45.8709
 L -10.6203,46.0923 L -10.3457,46.3502 L -10.1056,46.6405 L -9.9037,46.9586 L -9.74329,47.2995 L -9.62688,47.6578
 L -9.55627,48.0278 L -9.53262,48.4039 L -9.55627,48.7798 L -9.62688,49.1499 L -9.74329,49.5082 L -9.9037,49.8491
 L -10.1056,50.1672 L -10.3457,50.4575 L -10.6203,50.7154 L -10.9251,50.9368 L -11.2553,51.1183 L -11.6056,51.257
 L -11.9705,51.3507 L -12.3443,51.3979 z
M 7.38301,52.4175 L 7.00923,52.3703 L 6.64433,52.2766 L 6.29404,52.1379 L 5.9639,51.9564 L 5.6591,51.735
 L 5.38448,51.4771 L 5.14433,51.1868 L 4.94246,50.8687 L 4.78206,50.5278 L 4.66563,50.1695 L 4.59503,49.7994
 L 4.57138,49.4234 L 4.59503,49.0474 L 4.66563,48.6773 L 4.78206,48.319 L 4.94246,47.9781 L 5.14433,47.66
 L 5.38448,47.3698 L 5.6591,47.1119 L 5.9639,46.8904 L 6.29404,46.7089 L 6.64433,46.5702 L 7.00923,46.4765
 L 7.38301,46.4293 L 7.75975,46.4293 L 8.13353,46.4765 L 8.49843,46.5702 L 8.84872,46.7089 L 9.17886,46.8904
 L 9.48366,47.1119 L 9.75829,47.3698 L 9.99843,47.66 L 10.2003,47.9781 L 10.3607,48.319 L 10.4771,48.6773
 L 10.5477,49.0474 L 10.5714,49.4234 L 10.5477,49.7994 L 10.4771,50.1695 L 10.3607,50.5278 L 10.2003,50.8687
 L 9.99843,51.1868 L 9.75829,51.4771 L 9.48366,51.735 L 9.17886,51.9564 L 8.84872,52.1379 L 8.49843,52.2766
 L 8.13353,52.3703 L 7.75975,52.4175 z
M -2.72083,52.9299 L -3.09459,52.8827 L -3.4595,52.789 L -3.80978,52.6503 L -4.13994,52.4688 L -4.44472,52.2474
 L -4.71936,51.9895 L -4.9595,51.6992 L -5.16138,51.3811 L -5.32178,51.0402 L -5.4382,50.6819 L -5.50879,50.3118
 L -5.53246,49.9358 L -5.50879,49.5598 L -5.4382,49.1897 L -5.32178,48.8315 L -5.16138,48.4906 L -4.9595,48.1725
 L -4.71936,47.8822 L -4.44472,47.6243 L -4.13994,47.4028 L -3.80978,47.2213 L -3.4595,47.0827 L -3.09459,46.989
 L -2.72083,46.9417 L -2.34409,46.9417 L -1.97031,46.989 L -1.60539,47.0827 L -1.25511,47.2213 L -0.924973,47.4028
 L -0.620178,47.6243 L -0.345551,47.8822 L -0.105392,48.1725 L 0.0964508,48.4906 L 0.256866,48.8315 L 0.373291,49.1897
 L 0.443878,49.5598 L 0.467529,49.9358 L 0.443878,50.3118 L 0.373291,50.6819 L 0.256866,51.0402 L 0.0964508,51.3811
 L -0.105392,51.6992 L -0.345551,51.9895 L -0.620178,52.2474 L -0.924973,52.4688 L -1.25511,52.6503 L -1.60539,52.789
 L -1.97031,52.8827 L -2.34409,52.9299 z
M -0.18837,62.9941 L -0.562134,62.9469 L -0.927048,62.8532 L -1.27733,62.7145 L -1.60747,62.533 L -1.91226,62.3115
 L -2.1869,62.0536 L -2.42705,61.7634 L -2.62891,61.4453 L -2.78932,61.1044 L -2.90575,60.7461 L -2.97633,60.376
 L -3,60 L -2.97633,59.624 L -2.90575,59.2539 L -2.78932,58.8956 L -2.62891,58.5547 L -2.42705,58.2366
 L -2.1869,57.9464 L -1.91226,57.6885 L -1.60747,57.467 L -1.27733,57.2855 L -0.927048,57.1468 L -0.562134,57.0531
 L -0.18837,57.0059 L 0.18837,57.0059 L 0.562134,57.0531 L 0.927048,57.1468 L 1.27733,57.2855 L 1.60747,57.467
 L 1.91226,57.6885 L 2.1869,57.9464 L 2.42705,58.2366 L 2.62891,58.5547 L 2.78932,58.8956 L 2.90575,59.2539
 L 2.97633,59.624 L 3,60 L 2.97633,60.376 L 2.90575,60.7461 L 2.78932,61.1044 L 2.62891,61.4453
 L 2.42705,61.7634 L 2.1869,62.0536 L 1.91226,62.3115 L 1.60747,62.533 L 1.27733,62.7145 L 0.927048,62.8532
 L 0.562134,62.9469 L 0.18837,62.9941 z
" stroke="black" fill="lightgray" stroke-width="0.5"/>
</svg>
