<?xml version="1.0" standalone="no"?>
<!DOCTYPE svg PUBLIC "-//W3C//DTD SVG 1.1//EN" "http://www.w3.org/Graphics/SVG/1.1/DTD/svg11.dtd">
<svg width="134mm" height="134mm" viewBox="-67 -67 134 134" xmlns="http://www.w3.org/2000/svg" version="1.1">
<title>OpenSCAD Model</title>
<path d="
M 2.9369,66.9114 L 3.54507,66.7553 L 4.12889,66.5241 L 4.67912,66.2216 L 5.18712,65.8526 L 5.64484,65.4227
 L 6.04507,64.9389 L 6.38153,64.4088 L 6.64888,63.8406 L 6.84291,63.2434 L 6.96057,62.6267 L 7,62
 L 7,56.7068 L 10.7276,56.2359 L 17.6912,54.448 L 24.3759,51.8013 L 30.6761,48.3378 L 36.4925,44.1119
 L 41.7334,39.1903 L 46.3162,33.6507 L 50.1685,27.5804 L 53.2297,21.0751 L 55.4514,14.2375 L 56.7986,7.17532
 L 56.8102,6.99013 L 62.3139,6.99013 L 62.9369,6.91142 L 63.5451,6.75528 L 64.1289,6.52412 L 64.6791,6.22163
 L 65.1871,5.85255 L 65.6448,5.42273 L 66.0451,4.93892 L 66.3815,4.40877 L 66.6489,3.84062 L 66.8429,3.24344
 L 66.9606,2.62666 L 67,2 L 67,-2 L 66.9606,-2.62666 L 66.8429,-3.24344 L 66.6489,-3.84062
 L 66.3815,-4.40877 L 66.0451,-4.93892 L 65.6448,-5.42273 L 65.1871,-5.85255 L 64.6791,-6.22163 L 64.1289,-6.52412
 L 63.5451,-6.75528 L 62.9369,-6.91142 L 62.3139,-6.99013 L 56.8102,-6.99013 L 56.7986,-7.17532 L 55.4514,-14.2375
 L 53.2297,-21.0751 L 50.1685,-27.5804 L 46.3162,-33.6507 L 41.7334,-39.1903 L 36.4925,-44.1119 L 30.6761,-48.3378
 L 24.3759,-51.8013 L 17.6912,-54.448 L 10.7276,-56.2359 L 7,-56.7068 L 7,-62 L 6.96057,-62.6267
 L 6.84291,-63.2434 L 6.64888,-63.8406 L 6.38153,-64.4088 L 6.04507,-64.9389 L 5.64484,-65.4227 L 5.18712,-65.8526
 L 4.67912,-66.2216 L 4.12889,-66.5241 L 3.54507,-66.7553 L 2.9369,-66.9114 L 2.31395,-66.9901 L -2.31395,-66.9901
 L -2.9369,-66.9114 L -3.54507,-66.7553 L -4.12889,-66.5241 L -4.67912,-66.2216 L -5.18712,-65.8526 L -5.64484,-65.4227
 L -6.04507,-64.9389 L -6.38153,-64.4088 L -6.64888,-63.8406 L -6.84291,-63.2434 L -6.96057,-62.6267 L -7,-62
 L -7,-56.7068 L -10.7276,-56.2359 L -17.6912,-54.448 L -24.3759,-51.8013 L -30.6761,-48.3378 L -36.4925,-44.1119
 L -41.7334,-39.1903 L -46.3162,-33.6507 L -50.1685,-27.5804 L -53.2297,-21.0751 L -55.4514,-14.2375 L -56.7986,-7.17532
 L -56.8102,-6.99013 L -62.3139,-6.99013 L -62.9369,-6.91142 L -63.5451,-6.75528 L -64.1289,-6.52412 L -64.6791,-6.22163
 L -65.1871,-5.85255 L -65.6448,-5.42273 L -66.0451,-4.93892 L -66.3815,-4.40877 L -66.6489,-3.84062 L -66.8429,-3.24344
 L -66.9606,-2.62666 L -67,-2 L -67,2 L -66.9606,2.62666 L -66.8429,3.24344 L -66.6489,3.84062
 L -66.3815,4.40877 L -66.0451,4.93892 L -65.6448,5.42273 L -65.1871,5.85255 L -64.6791,6.22163 L -64.1289,6.52412
 L -63.5451,6.75528 L -62.9369,6.91142 L -62.3139,6.99013 L -56.8102,6.99013 L -56.7986,7.17532 L -55.4514,14.2375
 L -53.2297,21.0751 L -50.1685,27.5804 L -46.3162,33.6507 L -41.7334,39.1903 L -36.4925,44.1119 L -30.6761,48.3378
 L -24.3759,51.8013 L -17.6912,54.448 L -10.7276,56.2359 L -7,56.7068 L -7,62 L -6.96057,62.6267
 L -6.84291,63.2434 L -6.64888,63.8406 L -6.38153,64.4088 L -6.04507,64.9389 L -5.64484,65.4227 L -5.18712,65.8526
 L -4.67912,66.2216 L -4.12889,66.5241 L -3.54507,66.7553 L -2.9369,66.9114 L -2.31395,66.9901 L 2.31395,66.9901
 z
M -0.18837,-57.0059 L -0.562134,-57.0531 L -0.927048,-57.1468 L -1.27733,-57.2855 L -1.60747,-57.467 L -1.91226,-57.6885
 L -2.1869,-57.9464 L -2.42705,-58.2366 L -2.62891,-58.5547 L -2.78932,-58.8956 L -2.90575,-59.2539 L -2.97633,-59.624
 L -3,-60 L -2.97633,-60.376 L -2.90575,-60.7461 L -2.78932,-61.1044 L -2.62891,-61.4453 L -2.42705,-61.7634
 L -2.1869,-62.0536 L -1.91226,-62.3115 L -1.60747,-62.533 L -1.27733,-62.7145 L -0.927048,-62.8532 L -0.562134,-62.9469
 L -0.18837,-62.9941 L 0.18837,-62.9941 L 0.562134,-62.9469 L 0.927048,-62.8532 L 1.27733,-62.7145 L 1.60747,-62.533
 L 1.91226,-62.3115 L 2.1869,-62.0536 L 2.42705,-61.7634 L 2.62891,-61.4453 L 2.78932,-61.1044 L 2.90575,-60.7461
 L 2.97633,-60.376 L 3,-60 L 2.97633,-59.624 L 2.90575,-59.2539 L 2.78932,-58.8956 L 2.62891,-58.5547
 L 2.42705,-58.2366 L 2.1869,-57.9464 L 1.91226,-57.6885 L 1.60747,-57.467 L 1.27733,-57.2855 L 0.927048,-57.1468
 L 0.562134,-57.0531 L 0.18837,-57.0059 z
M 1.25113,-50.7356 L 1.06425,-50.7592 L 0.88179,-50.8061 L 0.70665,-50.8754 L 0.54158,-50.9662 L 0.389191,-51.0769
 L 0.251862,-51.2059 L 0.13179,-51.351 L 0.0308533,-51.51 L -0.0493317,-51.6805 L -0.107544,-51.8596 L -0.142838,-52.0447
 L -0.154663,-52.2327 L -0.142838,-52.4207 L -0.107544,-52.6057 L -0.0493317,-52.7849 L 0.0308533,-52.9553 L 0.13179,-53.1143
 L 0.251862,-53.2595 L 0.389191,-53.3884 L 0.54158,-53.4992 L 0.70665,-53.5899 L 0.88179,-53.6593 L 1.06425,-53.7061
 L 1.25113,-53.7297 L 1.43951,-53.7297 L 1.62639,-53.7061 L 1.80885,-53.6593 L 1.98399,-53.5899 L 2.14906,-53.4992
 L 2.30145,-53.3884 L 2.43877,-53.2595 L 2.55885,-53.1143 L 2.65977,-52.9553 L 2.73999,-52.7849 L 2.7982,-52.6057
 L 2.8335,-52.4207 L 2.84532,-52.2327 L 2.8335,-52.0447 L 2.7982,-51.8596 L 2.73999,-51.6805 L 2.65977,-51.51
 L 2.55885,-51.351 L 2.43877,-51.2059 L 2.30145,-51.0769 L 2.14906,-50.9662 L 1.98399,-50.8754 L 1.80885,-50.8061
 L 1.62639,-50.7592 L 1.43951,-50.7356 z
M -4.1266,-50.5971 L -4.31348,-50.6207 L -4.49594,-50.6676 L -4.67108,-50.7369 L -4.83615,-50.8277 L -4.98854,-50.9384
 L -5.12587,-51.0673 L -5.24594,-51.2125 L -5.34686,-51.3715 L -5.42708,-51.542 L -5.48529,-51.7211 L -5.52058,-51.9062
 L -5.53241,-52.0942 L -5.52058,-52.2822 L -5.48529,-52.4672 L -5.42708,-52.6463 L -5.34686,-52.8168 L -5.24594,-52.9758
 L -5.12587,-53.121 L -4.98854,-53.2499 L -4.83615,-53.3607 L -4.67108,-53.4514 L -4.49594,-53.5208 L -4.31348,-53.5676
 L -4.1266,-53.5912 L -3.93822,-53.5912 L -3.75134,-53.5676 L -3.56888,-53.5208 L -3.39374,-53.4514 L -3.22867,-53.3607
 L -3.07628,-53.2499 L -2.93896,-53.121 L -2.81888,-52.9758 L -2.71796,-52.8168 L -2.63774,-52.6463 L -2.57953,-52.4672
 L -2.54424,-52.2822 L -2.53241,-52.0942 L -2.54424,-51.9062 L -2.57953,-51.7211 L -2.63774,-51.542 L -2.71796,-51.3715
 L -2.81888,-51.2125 L -2.93896,-51.0673 L -3.07628,-50.9384 L -3.22867,-50.8277 L -3.39374,-50.7369 L -3.56888,-50.6676
 L -3.75134,-50.6207 L -3.93822,-50.5971 z
M 6.61462,-50.3205 L 6.42773,-50.3441 L 6.24529,-50.3909 L 6.07014,-50.4603 L 5.90506,-50.551 L 5.75267,-50.6617
 L 5.61536,-50.7907 L 5.49529,-50.9358 L 5.39435,-51.0949 L 5.31415,-51.2653 L 5.25594,-51.4445 L 5.22063,-51.6295
 L 5.2088,-51.8175 L 5.22063,-52.0055 L 5.25594,-52.1905 L 5.31415,-52.3697 L 5.39435,-52.5401 L 5.49529,-52.6992
 L 5.61536,-52.8443 L 5.75267,-52.9733 L 5.90506,-53.084 L 6.07014,-53.1747 L 6.24529,-53.2441 L 6.42773,-53.2909
 L 6.61462,-53.3145 L 6.80299,-53.3145 L 6.98988,-53.2909 L 7.17233,-53.2441 L 7.34747,-53.1747 L 7.51254,-53.084
 L 7.66495,-52.9733 L 7.80226,-52.8443 L 7.92233,-52.6992 L 8.02327,-52.5401 L 8.10347,-52.3697 L 8.16168,-52.1905
 L 8.19698,-52.0055 L 8.2088,-51.8175 L 8.19698,-51.6295 L 8.16168,-51.4445 L 8.10347,-51.2653 L 8.02327,-51.0949
 L 7.92233,-50.9358 L 7.80226,-50.7907 L 7.66495,-50.6617 L 7.51254,-50.551 L 7.34747,-50.4603 L 7.17233,-50.3909
 L 6.98988,-50.3441 L 6.80299,-50.3205 z
M -9.46159,-49.9064 L -9.64848,-49.93 L -9.83093,-49.9769 L -10.0061,-50.0462 L -10.1712,-50.1369 L -10.3235,-50.2477
 L -10.4609,-50.3766 L -10.5809,-50.5218 L -10.6819,-50.6808 L -10.7621,-50.8513 L -10.8203,-51.0304 L -10.8556,-51.2154
 L -10.8674,-51.4034 L -10.8556,-51.5914 L -10.8203,-51.7765 L -10.7621,-51.9556 L -10.6819,-52.1261 L -10.5809,-52.2851
 L -10.4609,-52.4303 L -10.3235,-52.5592 L -10.1712,-52.6699 L -10.0061,-52.7607 L -9.83093,-52.83 L -9.64848,-52.8769
 L -9.46159,-52.9005 L -9.27322,-52.9005 L -9.08633,-52.8769 L -8.90388,-52.83 L -8.72874,-52.7607 L -8.56367,-52.6699
 L -8.41127,-52.5592 L -8.27396,-52.4303 L -8.15388,-52.2851 L -8.05295,-52.1261 L -7.97275,-51.9556 L -7.91454,-51.7765
 L -7.87924,-51.5914 L -7.86742,-51.4034 L -7.87924,-51.2154 L -7.91454,-51.0304 L -7.97275,-50.8513 L -8.05295,-50.6808
 L -8.15388,-50.5218 L -8.27396,-50.3766 L -8.41127,-50.2477 L -8.56367,-50.1369 L -8.72874,-50.0462 L -8.90388,-49.9769
 L -9.08633,-49.93 L -9.27322,-49.9064 z
M 11.907,-49.356 L 11.7201,-49.3796 L 11.5377,-49.4265 L 11.3625,-49.4958 L 11.1974,-49.5866 L 11.045,-49.6973
 L 10.9077,-49.8262 L 10.7877,-49.9714 L 10.6867,-50.1304 L 10.6065,-50.3009 L 10.5483,-50.48 L 10.513,-50.6651
 L 10.5012,-50.8531 L 10.513,-51.0411 L 10.5483,-51.2261 L 10.6065,-51.4052 L 10.6867,-51.5757 L 10.7877,-51.7347
 L 10.9077,-51.8799 L 11.045,-52.0088 L 11.1974,-52.1196 L 11.3625,-52.2103 L 11.5377,-52.2796 L 11.7201,-52.3265
 L 11.907,-52.3501 L 12.0954,-52.3501 L 12.2822,-52.3265 L 12.4647,-52.2796 L 12.6398,-52.2103 L 12.8049,-52.1196
 L 12.9573,-52.0088 L 13.0946,-51.8799 L 13.2147,-51.7347 L 13.3156,-51.5757 L 13.3958,-51.4052 L 13.4541,-51.2261
 L 13.4893,-51.0411 L 13.5012,-50.8531 L 13.4893,-50.6651 L 13.4541,-50.48 L 13.3958,-50.3009 L 13.3156,-50.1304
 L 13.2147,-49.9714 L 13.0946,-49.8262 L 12.9573,-49.6973 L 12.8049,-49.5866 L 12.6398,-49.4958 L 12.4647,-49.4265
 L 12.2822,-49.3796 L 12.0954,-49.356 z
M -14.6973,-48.6708 L -14.8842,-48.6944 L -15.0666,-48.7412 L -15.2418,-48.8106 L -15.4069,-48.9013 L -15.5592,-49.0121
 L -15.6966,-49.141 L -15.8166,-49.2861 L -15.9176,-49.4452 L -15.9978,-49.6156 L -16.056,-49.7948 L -16.0913,-49.9798
 L -16.1031,-50.1678 L -16.0913,-50.3558 L -16.056,-50.5409 L -15.9978,-50.72 L -15.9176,-50.8905 L -15.8166,-51.0495
 L -15.6966,-51.1946 L -15.5592,-51.3236 L -15.4069,-51.4343 L -15.2418,-51.5251 L -15.0666,-51.5944 L -14.8842,-51.6413
 L -14.6973,-51.6649 L -14.5089,-51.6649 L -14.3221,-51.6413 L -14.1396,-51.5944 L -13.9644,-51.5251 L -13.7994,-51.4343
 L -13.647,-51.3236 L -13.5097,-51.1946 L -13.3896,-51.0495 L -13.2887,-50.8905 L -13.2085,-50.72 L -13.1502,-50.5409
 L -13.1149,-50.3558 L -13.1031,-50.1678 L -13.1149,-49.9798 L -13.1502,-49.7948 L -13.2085,-49.6156 L -13.2887,-49.4452
 L -13.3896,-49.2861 L -13.5097,-49.141 L -13.647,-49.0121 L -13.7994,-48.9013 L -13.9644,-48.8106 L -14.1396,-48.7412
 L -14.3221,-48.6944 L -14.5089,-48.6708 z
M 17.0721,-47.8525 L 16.8853,-47.8761 L 16.7028,-47.923 L 16.5277,-47.9923 L 16.3626,-48.0831 L 16.2102,-48.1938
 L 16.0729,-48.3227 L 15.9528,-48.4679 L 15.8519,-48.6269 L 15.7717,-48.7974 L 15.7135,-48.9765 L 15.6782,-49.1616
 L 15.6663,-49.3496 L 15.6782,-49.5376 L 15.7135,-49.7226 L 15.7717,-49.9017 L 15.8519,-50.0722 L 15.9528,-50.2312
 L 16.0729,-50.3764 L 16.2102,-50.5053 L 16.3626,-50.616 L 16.5277,-50.7068 L 16.7028,-50.7761 L 16.8853,-50.823
 L 17.0721,-50.8466 L 17.2605,-50.8466 L 17.4474,-50.823 L 17.6299,-50.7761 L 17.805,-50.7068 L 17.9701,-50.616
 L 18.1225,-50.5053 L 18.2598,-50.3764 L 18.3799,-50.2312 L 18.4808,-50.0722 L 18.561,-49.9017 L 18.6192,-49.7226
 L 18.6545,-49.5376 L 18.6663,-49.3496 L 18.6545,-49.1616 L 18.6192,-48.9765 L 18.561,-48.7974 L 18.4808,-48.6269
 L 18.3799,-48.4679 L 18.2598,-48.3227 L 18.1225,-48.1938 L 17.9701,-48.0831 L 17.805,-47.9923 L 17.6299,-47.923
 L 17.4474,-47.8761 L 17.2605,-47.8525 z
M -19.7782,-46.9034 L -19.9651,-46.927 L -20.1476,-46.9738 L -20.3227,-47.0432 L -20.4878,-47.1339 L -20.6402,-47.2446
 L -20.7775,-47.3736 L -20.8976,-47.5187 L -20.9985,-47.6778 L -21.0787,-47.8482 L -21.1369,-48.0274 L -21.1722,-48.2124
 L -21.184,-48.4004 L -21.1722,-48.5884 L -21.1369,-48.7735 L -21.0787,-48.9526 L -20.9985,-49.123 L -20.8976,-49.2821
 L -20.7775,-49.4272 L -20.6402,-49.5562 L -20.4878,-49.6669 L -20.3227,-49.7577 L -20.1476,-49.827 L -19.9651,-49.8739
 L -19.7782,-49.8975 L -19.5898,-49.8975 L -19.403,-49.8739 L -19.2205,-49.827 L -19.0454,-49.7577 L -18.8803,-49.6669
 L -18.7279,-49.5562 L -18.5906,-49.4272 L -18.4705,-49.2821 L -18.3696,-49.123 L -18.2894,-48.9526 L -18.2312,-48.7735
 L -18.1958,-48.5884 L -18.184,-48.4004 L -18.1958,-48.2124 L -18.2312,-48.0274 L -18.2894,-47.8482 L -18.3696,-47.6778
 L -18.4705,-47.5187 L -18.5906,-47.3736 L -18.7279,-47.2446 L -18.8803,-47.1339 L -19.0454,-47.0432 L -19.2205,-46.9738
 L -19.403,-46.927 L -19.5898,-46.9034 z
M 22.0553,-45.8259 L 21.8685,-45.8495 L 21.686,-45.8963 L 21.5108,-45.9657 L 21.3458,-46.0564 L 21.1934,-46.1672
 L 21.0561,-46.2961 L 20.936,-46.4413 L 20.8351,-46.6003 L 20.7549,-46.7708 L 20.6966,-46.9499 L 20.6613,-47.1349
 L 20.6495,-47.3229 L 20.6613,-47.5109 L 20.6966,-47.696 L 20.7549,-47.8751 L 20.8351,-48.0456 L 20.936,-48.2046
 L 21.0561,-48.3498 L 21.1934,-48.4787 L 21.3458,-48.5894 L 21.5108,-48.6802 L 21.686,-48.7495 L 21.8685,-48.7964
 L 22.0553,-48.82 L 22.2437,-48.82 L 22.4306,-48.7964 L 22.6131,-48.7495 L 22.7882,-48.6802 L 22.9533,-48.5894
 L 23.1057,-48.4787 L 23.243,-48.3498 L 23.3631,-48.2046 L 23.464,-48.0456 L 23.5442,-47.8751 L 23.6024,-47.696
 L 23.6377,-47.5109 L 23.6495,-47.3229 L 23.6377,-47.1349 L 23.6024,-46.9499 L 23.5442,-46.7708 L 23.464,-46.6003
 L 23.3631,-46.4413 L 23.243,-46.2961 L 23.1057,-46.1672 L 22.9533,-46.0564 L 22.7882,-45.9657 L 22.6131,-45.8963
 L 22.4306,-45.8495 L 22.2437,-45.8259 z
M -24.6505,-44.6229 L -24.8374,-44.6465 L -25.0198,-44.6934 L -25.1949,-44.7627 L -25.36,-44.8535 L -25.5124,-44.9642
 L -25.6497,-45.0931 L -25.7698,-45.2383 L -25.8707,-45.3973 L -25.9509,-45.5678 L -26.0092,-45.7469 L -26.0444,-45.932
 L -26.0563,-46.12 L -26.0444,-46.308 L -26.0092,-46.493 L -25.9509,-46.6721 L -25.8707,-46.8426 L -25.7698,-47.0016
 L -25.6497,-47.1468 L -25.5124,-47.2757 L -25.36,-47.3865 L -25.1949,-47.4772 L -25.0198,-47.5465 L -24.8374,-47.5934
 L -24.6505,-47.617 L -24.4621,-47.617 L -24.2752,-47.5934 L -24.0928,-47.5465 L -23.9176,-47.4772 L -23.7525,-47.3865
 L -23.6001,-47.2757 L -23.4628,-47.1468 L -23.3428,-47.0016 L -23.2418,-46.8426 L -23.1616,-46.6721 L -23.1034,-46.493
 L -23.0681,-46.308 L -23.0563,-46.12 L -23.0681,-45.932 L -23.1034,-45.7469 L -23.1616,-45.5678 L -23.2418,-45.3973
 L -23.3428,-45.2383 L -23.4628,-45.0931 L -23.6001,-44.9642 L -23.7525,-44.8535 L -23.9176,-44.7627 L -24.0928,-44.6934
 L -24.2752,-44.6465 L -24.4621,-44.6229 z
M 26.8037,-43.2976 L 26.6169,-43.3213 L 26.4344,-43.3681 L 26.2592,-43.4374 L 26.0942,-43.5282 L 25.9418,-43.6389
 L 25.8045,-43.7679 L 25.6844,-43.913 L 25.5835,-44.0721 L 25.5033,-44.2425 L 25.445,-44.4216 L 25.4097,-44.6067
 L 25.3979,-44.7947 L 25.4097,-44.9827 L 25.445,-45.1677 L 25.5033,-45.3469 L 25.5835,-45.5173 L 25.6844,-45.6764
 L 25.8045,-45.8215 L 25.9418,-45.9505 L 26.0942,-46.0612 L 26.2592,-46.1519 L 26.4344,-46.2213 L 26.6169,-46.2681
 L 26.8037,-46.2917 L 26.9921,-46.2917 L 27.179,-46.2681 L 27.3615,-46.2213 L 27.5366,-46.1519 L 27.7017,-46.0612
 L 27.854,-45.9505 L 27.9914,-45.8215 L 28.1115,-45.6764 L 28.2124,-45.5173 L 28.2926,-45.3469 L 28.3508,-45.1677
 L 28.3861,-44.9827 L 28.3979,-44.7947 L 28.3861,-44.6067 L 28.3508,-44.4216 L 28.2926,-44.2425 L 28.2124,-44.0721
 L 28.1115,-43.913 L 27.9914,-43.7679 L 27.854,-43.6389 L 27.7017,-43.5282 L 27.5366,-43.4374 L 27.3615,-43.3681
 L 27.179,-43.3213 L 26.9921,-43.2976 z
M -29.2624,-41.8536 L -29.4493,-41.8772 L -29.6318,-41.924 L -29.8069,-41.9934 L -29.972,-42.0841 L -30.1244,-42.1949
 L -30.2617,-42.3238 L -30.3818,-42.4689 L -30.4827,-42.628 L -30.5629,-42.7984 L -30.6211,-42.9776 L -30.6564,-43.1626
 L -30.6682,-43.3506 L -30.6564,-43.5386 L -30.6211,-43.7236 L -30.5629,-43.9028 L -30.4827,-44.0732 L -30.3818,-44.2323
 L -30.2617,-44.3774 L -30.1244,-44.5064 L -29.972,-44.6171 L -29.8069,-44.7079 L -29.6318,-44.7772 L -29.4493,-44.8241
 L -29.2624,-44.8477 L -29.074,-44.8477 L -28.8872,-44.8241 L -28.7047,-44.7772 L -28.5296,-44.7079 L -28.3645,-44.6171
 L -28.2121,-44.5064 L -28.0748,-44.3774 L -27.9547,-44.2323 L -27.8538,-44.0732 L -27.7736,-43.9028 L -27.7153,-43.7236
 L -27.6801,-43.5386 L -27.6682,-43.3506 L -27.6801,-43.1626 L -27.7153,-42.9776 L -27.7736,-42.7984 L -27.8538,-42.628
 L -27.9547,-42.4689 L -28.0748,-42.3238 L -28.2121,-42.1949 L -28.3645,-42.0841 L -28.5296,-41.9934 L -28.7047,-41.924
 L -28.8872,-41.8772 L -29.074,-41.8536 z
M 31.267,-40.2946 L 31.0801,-40.3182 L 30.8977,-40.365 L 30.7225,-40.4344 L 30.5574,-40.5251 L 30.4051,-40.6358
 L 30.2677,-40.7648 L 30.1477,-40.9099 L 30.0467,-41.069 L 29.9665,-41.2394 L 29.9083,-41.4186 L 29.873,-41.6036
 L 29.8612,-41.7916 L 29.873,-41.9796 L 29.9083,-42.1646 L 29.9665,-42.3438 L 30.0467,-42.5142 L 30.1477,-42.6733
 L 30.2677,-42.8184 L 30.4051,-42.9474 L 30.5574,-43.0581 L 30.7225,-43.1488 L 30.8977,-43.2182 L 31.0801,-43.265
 L 31.267,-43.2886 L 31.4554,-43.2886 L 31.6423,-43.265 L 31.8247,-43.2182 L 31.9999,-43.1488 L 32.1649,-43.0581
 L 32.3173,-42.9474 L 32.4547,-42.8184 L 32.5747,-42.6733 L 32.6756,-42.5142 L 32.7559,-42.3438 L 32.8141,-42.1646
 L 32.8494,-41.9796 L 32.8612,-41.7916 L 32.8494,-41.6036 L 32.8141,-41.4186 L 32.7559,-41.2394 L 32.6756,-41.069
 L 32.5747,-40.9099 L 32.4547,-40.7648 L 32.3173,-40.6358 L 32.1649,-40.5251 L 31.9999,-40.4344 L 31.8247,-40.365
 L 31.6423,-40.3182 L 31.4554,-40.2946 z
M -33.5652,-38.6247 L -33.7521,-38.6483 L -33.9345,-38.6952 L -34.1096,-38.7645 L -34.2747,-38.8553 L -34.4271,-38.966
 L -34.5644,-39.0949 L -34.6845,-39.2401 L -34.7854,-39.3991 L -34.8656,-39.5696 L -34.9239,-39.7487 L -34.9592,-39.9337
 L -34.971,-40.1217 L -34.9592,-40.3098 L -34.9239,-40.4948 L -34.8656,-40.6739 L -34.7854,-40.8444 L -34.6845,-41.0034
 L -34.5644,-41.1486 L -34.4271,-41.2775 L -34.2747,-41.3882 L -34.1096,-41.479 L -33.9345,-41.5483 L -33.7521,-41.5952
 L -33.5652,-41.6188 L -33.3768,-41.6188 L -33.1899,-41.5952 L -33.0075,-41.5483 L -32.8323,-41.479 L -32.6673,-41.3882
 L -32.5148,-41.2775 L -32.3775,-41.1486 L -32.2575,-41.0034 L -32.1565,-40.8444 L -32.0763,-40.6739 L -32.0181,-40.4948
 L -31.9828,-40.3098 L -31.971,-40.1217 L -31.9828,-39.9337 L -32.0181,-39.7487 L -32.0763,-39.5696 L -32.1565,-39.3991
 L -32.2575,-39.2401 L -32.3775,-39.0949 L -32.5148,-38.966 L -32.6673,-38.8553 L -32.8323,-38.7645 L -33.0075,-38.6952
 L -33.1899,-38.6483 L -33.3768,-38.6247 z
M 35.3978,-36.8485 L 35.211,-36.8721 L 35.0285,-36.9189 L 34.8534,-36.9883 L 34.6883,-37.079 L 34.5359,-37.1897
 L 34.3986,-37.3187 L 34.2785,-37.4638 L 34.1776,-37.6229 L 34.0974,-37.7933 L 34.0392,-37.9725 L 34.0039,-38.1575
 L 33.992,-38.3455 L 34.0039,-38.5335 L 34.0392,-38.7185 L 34.0974,-38.8977 L 34.1776,-39.0681 L 34.2785,-39.2272
 L 34.3986,-39.3723 L 34.5359,-39.5013 L 34.6883,-39.612 L 34.8534,-39.7027 L 35.0285,-39.7721 L 35.211,-39.8189
 L 35.3978,-39.8425 L 35.5862,-39.8425 L 35.7731,-39.8189 L 35.9556,-39.7721 L 36.1307,-39.7027 L 36.2958,-39.612
 L 36.4482,-39.5013 L 36.5855,-39.3723 L 36.7056,-39.2272 L 36.8065,-39.0681 L 36.8867,-38.8977 L 36.9449,-38.7185
 L 36.9802,-38.5335 L 36.992,-38.3455 L 36.9802,-38.1575 L 36.9449,-37.9725 L 36.8867,-37.7933 L 36.8065,-37.6229
 L 36.7056,-37.4638 L 36.5855,-37.3187 L 36.4482,-37.1897 L 36.2958,-37.079 L 36.1307,-36.9883 L 35.9556,-36.9189
 L 35.7731,-36.8721 L 35.5862,-36.8485 z
M -37.5131,-34.9705 L -37.7,-34.9941 L -37.8825,-35.041 L -38.0576,-35.1103 L -38.2227,-35.2011 L -38.3751,-35.3118
 L -38.5124,-35.4408 L -38.6325,-35.5859 L -38.7334,-35.7449 L -38.8136,-35.9154 L -38.8718,-36.0945 L -38.9071,-36.2796
 L -38.9189,-36.4676 L -38.9071,-36.6556 L -38.8718,-36.8406 L -38.8136,-37.0198 L -38.7334,-37.1902 L -38.6325,-37.3493
 L -38.5124,-37.4944 L -38.3751,-37.6234 L -38.2227,-37.7341 L -38.0576,-37.8248 L -37.8825,-37.8942 L -37.7,-37.941
 L -37.5131,-37.9646 L -37.3248,-37.9646 L -37.1379,-37.941 L -36.9554,-37.8942 L -36.7803,-37.8248 L -36.6152,-37.7341
 L -36.4628,-37.6234 L -36.3255,-37.4944 L -36.2054,-37.3493 L -36.1045,-37.1902 L -36.0243,-37.0198 L -35.9661,-36.8406
 L -35.9308,-36.6556 L -35.9189,-36.4676 L -35.9308,-36.2796 L -35.9661,-36.0945 L -36.0243,-35.9154 L -36.1045,-35.7449
 L -36.2054,-35.5859 L -36.3255,-35.4408 L -36.4628,-35.3118 L -36.6152,-35.2011 L -36.7803,-35.1103 L -36.9554,-35.041
 L -37.1379,-34.9941 L -37.3248,-34.9705 z
M 39.1525,-32.9959 L 38.9656,-33.0195 L 38.7831,-33.0664 L 38.608,-33.1357 L 38.4429,-33.2265 L 38.2905,-33.3372
 L 38.1532,-33.4661 L 38.0331,-33.6113 L 37.9322,-33.7703 L 37.852,-33.9408 L 37.7938,-34.1199 L 37.7585,-34.3049
 L 37.7466,-34.4929 L 37.7585,-34.6809 L 37.7938,-34.866 L 37.852,-35.0451 L 37.9322,-35.2156 L 38.0331,-35.3746
 L 38.1532,-35.5198 L 38.2905,-35.6487 L 38.4429,-35.7594 L 38.608,-35.8502 L 38.7831,-35.9195 L 38.9656,-35.9664
 L 39.1525,-35.99 L 39.3408,-35.99 L 39.5277,-35.9664 L 39.7102,-35.9195 L 39.8853,-35.8502 L 40.0504,-35.7594
 L 40.2028,-35.6487 L 40.3401,-35.5198 L 40.4602,-35.3746 L 40.5611,-35.2156 L 40.6413,-35.0451 L 40.6995,-34.866
 L 40.7348,-34.6809 L 40.7466,-34.4929 L 40.7348,-34.3049 L 40.6995,-34.1199 L 40.6413,-33.9408 L 40.5611,-33.7703
 L 40.4602,-33.6113 L 40.3401,-33.4661 L 40.2028,-33.3372 L 40.0504,-33.2265 L 39.8853,-33.1357 L 39.7102,-33.0664
 L 39.5277,-33.0195 L 39.3408,-32.9959 z
M -41.0644,-30.9298 L -41.2513,-30.9534 L -41.4338,-31.0003 L -41.6089,-31.0696 L -41.774,-31.1603 L -41.9264,-31.2711
 L -42.0637,-31.4 L -42.1838,-31.5452 L -42.2847,-31.7042 L -42.3649,-31.8746 L -42.4231,-32.0538 L -42.4584,-32.2388
 L -42.4703,-32.4268 L -42.4584,-32.6148 L -42.4231,-32.7999 L -42.3649,-32.979 L -42.2847,-33.1495 L -42.1838,-33.3085
 L -42.0637,-33.4537 L -41.9264,-33.5826 L -41.774,-33.6933 L -41.6089,-33.7841 L -41.4338,-33.8534 L -41.2513,-33.9003
 L -41.0644,-33.9239 L -40.8761,-33.9239 L -40.6892,-33.9003 L -40.5067,-33.8534 L -40.3316,-33.7841 L -40.1665,-33.6933
 L -40.0141,-33.5826 L -39.8768,-33.4537 L -39.7567,-33.3085 L -39.6558,-33.1495 L -39.5756,-32.979 L -39.5174,-32.7999
 L -39.4821,-32.6148 L -39.4703,-32.4268 L -39.4821,-32.2388 L -39.5174,-32.0538 L -39.5756,-31.8746 L -39.6558,-31.7042
 L -39.7567,-31.5452 L -39.8768,-31.4 L -40.0141,-31.2711 L -40.1665,-31.1603 L -40.3316,-31.0696 L -40.5067,-31.0003
 L -40.6892,-30.9534 L -40.8761,-30.9298 z
M 42.491,-28.7777 L 42.3042,-28.8013 L 42.1217,-28.8482 L 41.9465,-28.9175 L 41.7815,-29.0083 L 41.6291,-29.119
 L 41.4918,-29.2479 L 41.3717,-29.3931 L 41.2708,-29.5521 L 41.1906,-29.7226 L 41.1324,-29.9017 L 41.097,-30.0867
 L 41.0852,-30.2747 L 41.097,-30.4627 L 41.1324,-30.6478 L 41.1906,-30.8269 L 41.2708,-30.9974 L 41.3717,-31.1564
 L 41.4918,-31.3016 L 41.6291,-31.4305 L 41.7815,-31.5412 L 41.9465,-31.632 L 42.1217,-31.7013 L 42.3042,-31.7482
 L 42.491,-31.7718 L 42.6794,-31.7718 L 42.8663,-31.7482 L 43.0488,-31.7013 L 43.2239,-31.632 L 43.389,-31.5412
 L 43.5414,-31.4305 L 43.6787,-31.3016 L 43.7988,-31.1564 L 43.8997,-30.9974 L 43.9799,-30.8269 L 44.0381,-30.6478
 L 44.0734,-30.4627 L 44.0852,-30.2747 L 44.0734,-30.0867 L 44.0381,-29.9017 L 43.9799,-29.7226 L 43.8997,-29.5521
 L 43.7988,-29.3931 L 43.6787,-29.2479 L 43.5414,-29.119 L 43.389,-29.0083 L 43.2239,-28.9175 L 43.0488,-28.8482
 L 42.8663,-28.8013 L 42.6794,-28.7777 z
M -44.1815,-26.5453 L -44.3683,-26.5689 L -44.5508,-26.6158 L -44.7259,-26.6851 L -44.891,-26.7759 L -45.0434,-26.8866
 L -45.1807,-27.0155 L -45.3008,-27.1607 L -45.4017,-27.3197 L -45.4819,-27.4902 L -45.5401,-27.6693 L -45.5754,-27.8544
 L -45.5873,-28.0424 L -45.5754,-28.2304 L -45.5401,-28.4154 L -45.4819,-28.5946 L -45.4017,-28.765 L -45.3008,-28.924
 L -45.1807,-29.0692 L -45.0434,-29.1981 L -44.891,-29.3089 L -44.7259,-29.3996 L -44.5508,-29.4689 L -44.3683,-29.5158
 L -44.1815,-29.5394 L -43.9931,-29.5394 L -43.8062,-29.5158 L -43.6237,-29.4689 L -43.4486,-29.3996 L -43.2835,-29.3089
 L -43.1311,-29.1981 L -42.9938,-29.0692 L -42.8737,-28.924 L -42.7728,-28.765 L -42.6926,-28.5946 L -42.6344,-28.4154
 L -42.5991,-28.2304 L -42.5873,-28.0424 L -42.5991,-27.8544 L -42.6344,-27.6693 L -42.6926,-27.4902 L -42.7728,-27.3197
 L -42.8737,-27.1607 L -42.9938,-27.0155 L -43.1311,-26.8866 L -43.2835,-26.7759 L -43.4486,-26.6851 L -43.6237,-26.6158
 L -43.8062,-26.5689 L -43.9931,-26.5453 z
M -1.77382,28.1942 L -5.29352,27.7496 L -8.72972,26.8673 L -12.0283,25.5614 L -15.1371,23.8523 L -18.0072,21.767
 L -20.5934,19.3385 L -22.8547,16.6049 L -24.7557,13.6095 L -26.2662,10.3995 L -27.3625,7.02548 L -28.0272,3.54065
 L -28.25,-0 L -28.0272,-3.54065 L -27.3625,-7.02548 L -26.2662,-10.3995 L -24.7557,-13.6095 L -22.8547,-16.6049
 L -20.5934,-19.3385 L -18.0072,-21.767 L -15.1371,-23.8523 L -12.0283,-25.5614 L -8.72972,-26.8673 L -5.29352,-27.7496
 L -1.77382,-28.1942 L 1.77382,-28.1942 L 5.29352,-27.7496 L 8.72972,-26.8673 L 12.0283,-25.5614 L 15.1371,-23.8523
 L 18.0072,-21.767 L 20.5934,-19.3385 L 22.8547,-16.6049 L 24.7557,-13.6095 L 26.2662,-10.3995 L 27.3625,-7.02548
 L 28.0272,-3.54065 L 28.25,-0 L 28.0272,3.54065 L 27.3625,7.02548 L 26.2662,10.3995 L 24.7557,13.6095
 L 22.8547,16.6049 L 20.5934,19.3385 L 18.0072,21.767 L 15.1371,23.8523 L 12.0283,25.5614 L 8.72972,26.8673
 L 5.29352,27.7496 L 1.77382,28.1942 z
M 45.3782,-24.2386 L 45.1913,-24.2622 L 45.0089,-24.3091 L 44.8337,-24.3784 L 44.6687,-24.4691 L 44.5163,-24.5799
 L 44.379,-24.7088 L 44.2589,-24.854 L 44.1579,-25.013 L 44.0777,-25.1834 L 44.0195,-25.3626 L 43.9842,-25.5476
 L 43.9724,-25.7356 L 43.9842,-25.9236 L 44.0195,-26.1087 L 44.0777,-26.2878 L 44.1579,-26.4583 L 44.2589,-26.6173
 L 44.379,-26.7625 L 44.5163,-26.8914 L 44.6687,-27.0021 L 44.8337,-27.0929 L 45.0089,-27.1622 L 45.1913,-27.2091
 L 45.3782,-27.2327 L 45.5666,-27.2327 L 45.7535,-27.2091 L 45.9359,-27.1622 L 46.1111,-27.0929 L 46.2761,-27.0021
 L 46.4285,-26.8914 L 46.5659,-26.7625 L 46.6859,-26.6173 L 46.7869,-26.4583 L 46.8671,-26.2878 L 46.9253,-26.1087
 L 46.9606,-25.9236 L 46.9724,-25.7356 L 46.9606,-25.5476 L 46.9253,-25.3626 L 46.8671,-25.1834 L 46.7869,-25.013
 L 46.6859,-24.854 L 46.5659,-24.7088 L 46.4285,-24.5799 L 46.2761,-24.4691 L 46.1111,-24.3784 L 45.9359,-24.3091
 L 45.7535,-24.2622 L 45.5666,-24.2386 z
M -46.8311,-21.8636 L -47.018,-21.8872 L -47.2005,-21.9341 L -47.3756,-22.0034 L -47.5407,-22.0941 L -47.6931,-22.2049
 L -47.8304,-22.3338 L -47.9505,-22.479 L -48.0514,-22.638 L -48.1316,-22.8085 L -48.1898,-22.9876 L -48.2251,-23.1726
 L -48.2369,-23.3606 L -48.2251,-23.5486 L -48.1898,-23.7337 L -48.1316,-23.9128 L -48.0514,-24.0833 L -47.9505,-24.2423
 L -47.8304,-24.3875 L -47.6931,-24.5164 L -47.5407,-24.6271 L -47.3756,-24.7179 L -47.2005,-24.7872 L -47.018,-24.8341
 L -46.8311,-24.8577 L -46.6428,-24.8577 L -46.4559,-24.8341 L -46.2734,-24.7872 L -46.0983,-24.7179 L -45.9332,-24.6271
 L -45.7808,-24.5164 L -45.6435,-24.3875 L -45.5234,-24.2423 L -45.4225,-24.0833 L -45.3423,-23.9128 L -45.2841,-23.7337
 L -45.2488,-23.5486 L -45.2369,-23.3606 L -45.2488,-23.1726 L -45.2841,-22.9876 L -45.3423,-22.8085 L -45.4225,-22.638
 L -45.5234,-22.479 L -45.6435,-22.3338 L -45.7808,-22.2049 L -45.9332,-22.0941 L -46.0983,-22.0034 L -46.2734,-21.9341
 L -46.4559,-21.8872 L -46.6428,-21.8636 z
M 47.7834,-19.4267 L 47.5965,-19.4503 L 47.414,-19.4971 L 47.2389,-19.5665 L 47.0738,-19.6572 L 46.9214,-19.7679
 L 46.7841,-19.8969 L 46.664,-20.042 L 46.5631,-20.2011 L 46.4829,-20.3715 L 46.4247,-20.5507 L 46.3894,-20.7357
 L 46.3775,-20.9237 L 46.3894,-21.1117 L 46.4247,-21.2967 L 46.4829,-21.4759 L 46.5631,-21.6463 L 46.664,-21.8054
 L 46.7841,-21.9505 L 46.9214,-22.0795 L 47.0738,-22.1902 L 47.2389,-22.2809 L 47.414,-22.3503 L 47.5965,-22.3971
 L 47.7834,-22.4207 L 47.9717,-22.4207 L 48.1586,-22.3971 L 48.3411,-22.3503 L 48.5162,-22.2809 L 48.6813,-22.1902
 L 48.8337,-22.0795 L 48.971,-21.9505 L 49.0911,-21.8054 L 49.192,-21.6463 L 49.2722,-21.4759 L 49.3304,-21.2967
 L 49.3657,-21.1117 L 49.3775,-20.9237 L 49.3657,-20.7357 L 49.3304,-20.5507 L 49.2722,-20.3715 L 49.192,-20.2011
 L 49.0911,-20.042 L 48.971,-19.8969 L 48.8337,-19.7679 L 48.6813,-19.6572 L 48.5162,-19.5665 L 48.3411,-19.4971
 L 48.1586,-19.4503 L 47.9717,-19.4267 z
M -48.9854,-16.9342 L -49.1723,-16.9579 L -49.3547,-17.0047 L -49.5299,-17.0741 L -49.6949,-17.1648 L -49.8473,-17.2755
 L -49.9846,-17.4045 L -50.1047,-17.5496 L -50.2057,-17.7087 L -50.2859,-17.8791 L -50.3441,-18.0583 L -50.3794,-18.2433
 L -50.3912,-18.4313 L -50.3794,-18.6193 L -50.3441,-18.8043 L -50.2859,-18.9835 L -50.2057,-19.1539 L -50.1047,-19.313
 L -49.9846,-19.4581 L -49.8473,-19.5871 L -49.6949,-19.6978 L -49.5299,-19.7885 L -49.3547,-19.8579 L -49.1723,-19.9047
 L -48.9854,-19.9283 L -48.797,-19.9283 L -48.6101,-19.9047 L -48.4277,-19.8579 L -48.2525,-19.7885 L -48.0875,-19.6978
 L -47.9351,-19.5871 L -47.7977,-19.4581 L -47.6777,-19.313 L -47.5767,-19.1539 L -47.4965,-18.9835 L -47.4383,-18.8043
 L -47.403,-18.6193 L -47.3912,-18.4313 L -47.403,-18.2433 L -47.4383,-18.0583 L -47.4965,-17.8791 L -47.5767,-17.7087
 L -47.6777,-17.5496 L -47.7977,-17.4045 L -47.9351,-17.2755 L -48.0875,-17.1648 L -48.2525,-17.0741 L -48.4277,-17.0047
 L -48.6101,-16.9579 L -48.797,-16.9342 z
M 49.681,-14.393 L 49.4941,-14.4166 L 49.3117,-14.4634 L 49.1365,-14.5327 L 48.9715,-14.6235 L 48.8191,-14.7342
 L 48.6817,-14.8632 L 48.5617,-15.0083 L 48.4607,-15.1674 L 48.3805,-15.3378 L 48.3223,-15.517 L 48.287,-15.702
 L 48.2752,-15.89 L 48.287,-16.078 L 48.3223,-16.263 L 48.3805,-16.4422 L 48.4607,-16.6126 L 48.5617,-16.7717
 L 48.6817,-16.9168 L 48.8191,-17.0458 L 48.9715,-17.1565 L 49.1365,-17.2472 L 49.3117,-17.3166 L 49.4941,-17.3634
 L 49.681,-17.387 L 49.8694,-17.387 L 50.0563,-17.3634 L 50.2387,-17.3166 L 50.4139,-17.2472 L 50.5789,-17.1565
 L 50.7313,-17.0458 L 50.8687,-16.9168 L 50.9887,-16.7717 L 51.0896,-16.6126 L 51.1699,-16.4422 L 51.2281,-16.263
 L 51.2634,-16.078 L 51.2752,-15.89 L 51.2634,-15.702 L 51.2281,-15.517 L 51.1699,-15.3378 L 51.0896,-15.1674
 L 50.9887,-15.0083 L 50.8687,-14.8632 L 50.7313,-14.7342 L 50.5789,-14.6235 L 50.4139,-14.5327 L 50.2387,-14.4634
 L 50.0563,-14.4166 L 49.8694,-14.393 z
M -50.6214,-11.8095 L -50.8083,-11.8331 L -50.9907,-11.88 L -51.1659,-11.9493 L -51.3309,-12.0401 L -51.4833,-12.1508
 L -51.6207,-12.2797 L -51.7407,-12.4249 L -51.8417,-12.5839 L -51.9219,-12.7544 L -51.9801,-12.9335 L -52.0154,-13.1186
 L -52.0272,-13.3066 L -52.0154,-13.4946 L -51.9801,-13.6796 L -51.9219,-13.8587 L -51.8417,-14.0292 L -51.7407,-14.1882
 L -51.6207,-14.3334 L -51.4833,-14.4623 L -51.3309,-14.573 L -51.1659,-14.6638 L -50.9907,-14.7331 L -50.8083,-14.78
 L -50.6214,-14.8036 L -50.433,-14.8036 L -50.2461,-14.78 L -50.0637,-14.7331 L -49.8885,-14.6638 L -49.7234,-14.573
 L -49.5711,-14.4623 L -49.4337,-14.3334 L -49.3137,-14.1882 L -49.2127,-14.0292 L -49.1325,-13.8587 L -49.0743,-13.6796
 L -49.039,-13.4946 L -49.0272,-13.3066 L -49.039,-13.1186 L -49.0743,-12.9335 L -49.1325,-12.7544 L -49.2127,-12.5839
 L -49.3137,-12.4249 L -49.4337,-12.2797 L -49.5711,-12.1508 L -49.7234,-12.0401 L -49.8885,-11.9493 L -50.0637,-11.88
 L -50.2461,-11.8331 L -50.433,-11.8095 z
M 51.051,-9.1908 L 50.8641,-9.2144 L 50.6817,-9.26125 L 50.5065,-9.3306 L 50.3415,-9.42134 L 50.1891,-9.53207
 L 50.0518,-9.66101 L 49.9317,-9.80615 L 49.8307,-9.96521 L 49.7505,-10.1357 L 49.6923,-10.3148 L 49.657,-10.4998
 L 49.6452,-10.6878 L 49.657,-10.8758 L 49.6923,-11.0609 L 49.7505,-11.24 L 49.8307,-11.4105 L 49.9317,-11.5695
 L 50.0518,-11.7147 L 50.1891,-11.8436 L 50.3415,-11.9543 L 50.5065,-12.0451 L 50.6817,-12.1144 L 50.8641,-12.1613
 L 51.051,-12.1849 L 51.2394,-12.1849 L 51.4263,-12.1613 L 51.6087,-12.1144 L 51.7839,-12.0451 L 51.9489,-11.9543
 L 52.1013,-11.8436 L 52.2387,-11.7147 L 52.3587,-11.5695 L 52.4597,-11.4105 L 52.5399,-11.24 L 52.5981,-11.0609
 L 52.6334,-10.8758 L 52.6452,-10.6878 L 52.6334,-10.4998 L 52.5981,-10.3148 L 52.5399,-10.1357 L 52.4597,-9.96521
 L 52.3587,-9.80615 L 52.2387,-9.66101 L 52.1013,-9.53207 L 51.9489,-9.42134 L 51.7839,-9.3306 L 51.6087,-9.26125
 L 51.4263,-9.2144 L 51.2394,-9.1908 z
M -51.7218,-6.54373 L -51.9087,-6.56734 L -52.0911,-6.6142 L -52.2663,-6.68353 L -52.4313,-6.77428 L -52.5837,-6.88501
 L -52.721,-7.01396 L -52.8411,-7.1591 L -52.942,-7.31815 L -53.0222,-7.48859 L -53.0805,-7.66774 L -53.1158,-7.85277
 L -53.1276,-8.04077 L -53.1158,-8.22878 L -53.0805,-8.4138 L -53.0222,-8.59296 L -52.942,-8.76341 L -52.8411,-8.92245
 L -52.721,-9.0676 L -52.5837,-9.19655 L -52.4313,-9.30727 L -52.2663,-9.39801 L -52.0911,-9.46736 L -51.9087,-9.51421
 L -51.7218,-9.53781 L -51.5334,-9.53781 L -51.3465,-9.51421 L -51.1641,-9.46736 L -50.9889,-9.39801 L -50.8239,-9.30727
 L -50.6714,-9.19655 L -50.5341,-9.0676 L -50.4141,-8.92245 L -50.3131,-8.76341 L -50.2329,-8.59296 L -50.1747,-8.4138
 L -50.1394,-8.22878 L -50.1276,-8.04077 L -50.1394,-7.85277 L -50.1747,-7.66774 L -50.2329,-7.48859 L -50.3131,-7.31815
 L -50.4141,-7.1591 L -50.5341,-7.01396 L -50.6714,-6.88501 L -50.8239,-6.77428 L -50.9889,-6.68353 L -51.1641,-6.6142
 L -51.3465,-6.56734 L -51.5334,-6.54373 z
M 51.8789,-3.87535 L 51.692,-3.89896 L 51.5095,-3.9458 L 51.3344,-4.01515 L 51.1693,-4.1059 L 51.0169,-4.21661
 L 50.8796,-4.34557 L 50.7595,-4.49071 L 50.6586,-4.64977 L 50.5784,-4.82021 L 50.5202,-4.99936 L 50.4849,-5.18439
 L 50.4731,-5.37239 L 50.4849,-5.56039 L 50.5202,-5.74542 L 50.5784,-5.92458 L 50.6586,-6.09502 L 50.7595,-6.25407
 L 50.8796,-6.39922 L 51.0169,-6.52815 L 51.1693,-6.63889 L 51.3344,-6.72963 L 51.5095,-6.79898 L 51.692,-6.84583
 L 51.8789,-6.86943 L 52.0672,-6.86943 L 52.2541,-6.84583 L 52.4366,-6.79898 L 52.6117,-6.72963 L 52.7768,-6.63889
 L 52.9292,-6.52815 L 53.0665,-6.39922 L 53.1866,-6.25407 L 53.2875,-6.09502 L 53.3677,-5.92458 L 53.4259,-5.74542
 L 53.4612,-5.56039 L 53.4731,-5.37239 L 53.4612,-5.18439 L 53.4259,-4.99936 L 53.3677,-4.82021 L 53.2875,-4.64977
 L 53.1866,-4.49071 L 53.0665,-4.34557 L 52.9292,-4.21661 L 52.7768,-4.1059 L 52.6117,-4.01515 L 52.4366,-3.9458
 L 52.2541,-3.89896 L 52.0672,-3.87535 z
M -52.2749,-1.19272 L -52.4618,-1.21632 L -52.6442,-1.26317 L -52.8194,-1.33252 L -52.9845,-1.42326 L -53.1369,-1.53398
 L -53.2742,-1.66293 L -53.3942,-1.80807 L -53.4952,-1.96713 L -53.5754,-2.13757 L -53.6336,-2.31673 L -53.6689,-2.50175
 L -53.6807,-2.68976 L -53.6689,-2.87776 L -53.6336,-3.06279 L -53.5754,-3.24194 L -53.4952,-3.41238 L -53.3942,-3.57144
 L -53.2742,-3.71658 L -53.1369,-3.84552 L -52.9845,-3.95625 L -52.8194,-4.047 L -52.6442,-4.11635 L -52.4618,-4.16319
 L -52.2749,-4.1868 L -52.0865,-4.1868 L -51.8996,-4.16319 L -51.7172,-4.11635 L -51.5421,-4.047 L -51.377,-3.95625
 L -51.2246,-3.84552 L -51.0873,-3.71658 L -50.9672,-3.57144 L -50.8663,-3.41238 L -50.7861,-3.24194 L -50.7278,-3.06279
 L -50.6926,-2.87776 L -50.6807,-2.68976 L -50.6926,-2.50175 L -50.7278,-2.31673 L -50.7861,-2.13757 L -50.8663,-1.96713
 L -50.9672,-1.80807 L -51.0873,-1.66293 L -51.2246,-1.53398 L -51.377,-1.42326 L -51.5421,-1.33252 L -51.7172,-1.26317
 L -51.8996,-1.21632 L -52.0865,-1.19272 z
M -60.1884,2.99408 L -60.5621,2.94685 L -60.927,2.85316 L -61.2773,2.71448 L -61.6075,2.53297 L -61.9123,2.31154
 L -62.1869,2.05363 L -62.427,1.76335 L -62.6289,1.44525 L -62.7893,1.10437 L -62.9057,0.746063 L -62.9763,0.375992
 L -63,-0 L -62.9763,-0.375992 L -62.9057,-0.746063 L -62.7893,-1.10437 L -62.6289,-1.44525 L -62.427,-1.76335
 L -62.1869,-2.05363 L -61.9123,-2.31154 L -61.6075,-2.53297 L -61.2773,-2.71448 L -60.927,-2.85316 L -60.5621,-2.94685
 L -60.1884,-2.99408 L -59.8116,-2.99408 L -59.4379,-2.94685 L -59.0729,-2.85316 L -58.7227,-2.71448 L -58.3925,-2.53297
 L -58.0877,-2.31154 L -57.8131,-2.05363 L -57.5729,-1.76335 L -57.3711,-1.44525 L -57.2107,-1.10437 L -57.0942,-0.746063
 L -57.0237,-0.375992 L -57,-0 L -57.0237,0.375992 L -57.0942,0.746063 L -57.2107,1.10437 L -57.3711,1.44525
 L -57.5729,1.76335 L -57.8131,2.05363 L -58.0877,2.31154 L -58.3925,2.53297 L -58.7227,2.71448 L -59.0729,2.85316
 L -59.4379,2.94685 L -59.8116,2.99408 z
M 59.8116,2.99408 L 59.4379,2.94685 L 59.0729,2.85316 L 58.7227,2.71448 L 58.3925,2.53297 L 58.0877,2.31154
 L 57.8131,2.05363 L 57.5729,1.76335 L 57.3711,1.44525 L 57.2107,1.10437 L 57.0942,0.746063 L 57.0237,0.375992
 L 57,-0 L 57.0237,-0.375992 L 57.0942,-0.746063 L 57.2107,-1.10437 L 57.3711,-1.44525 L 57.5729,-1.76335
 L 57.8131,-2.05363 L 58.0877,-2.31154 L 58.3925,-2.53297 L 58.7227,-2.71448 L 59.0729,-2.85316 L 59.4379,-2.94685
 L 59.8116,-2.99408 L 60.1884,-2.99408 L 60.5621,-2.94685 L 60.927,-2.85316 L 61.2773,-2.71448 L 61.6075,-2.53297
 L 61.9123,-2.31154 L 62.1869,-2.05363 L 62.427,-1.76335 L 62.6289,-1.44525 L 62.7893,-1.10437 L 62.9057,-0.746063
 L 62.9763,-0.375992 L 63,-0 L 62.9763,0.375992 L 62.9057,0.746063 L 62.7893,1.10437 L 62.6289,1.44525
 L 62.427,1.76335 L 62.1869,2.05363 L 61.9123,2.31154 L 61.6075,2.53297 L 61.2773,2.71448 L 60.927,2.85316
 L 60.5621,2.94685 L 60.1884,2.99408 z
M 52.1558,1.49704 L 51.9689,1.47342 L 51.7865,1.42657 L 51.6113,1.35724 L 51.4463,1.26648 L 51.2939,1.15576
 L 51.1565,1.02681 L 51.0365,0.881668 L 50.9355,0.722626 L 50.8553,0.552185 L 50.7971,0.373032 L 50.7618,0.187988
 L 50.75,-0 L 50.7618,-0.187988 L 50.7971,-0.373032 L 50.8553,-0.552185 L 50.9355,-0.722626 L 51.0365,-0.881668
 L 51.1565,-1.02681 L 51.2939,-1.15576 L 51.4463,-1.26648 L 51.6113,-1.35724 L 51.7865,-1.42657 L 51.9689,-1.47342
 L 52.1558,-1.49704 L 52.3442,-1.49704 L 52.5311,-1.47342 L 52.7135,-1.42657 L 52.8887,-1.35724 L 53.0537,-1.26648
 L 53.2061,-1.15576 L 53.3434,-1.02681 L 53.4635,-0.881668 L 53.5645,-0.722626 L 53.6447,-0.552185 L 53.7029,-0.373032
 L 53.7382,-0.187988 L 53.75,-0 L 53.7382,0.187988 L 53.7029,0.373032 L 53.6447,0.552185 L 53.5645,0.722626
 L 53.4635,0.881668 L 53.3434,1.02681 L 53.2061,1.15576 L 53.0537,1.26648 L 52.8887,1.35724 L 52.7135,1.42657
 L 52.5311,1.47342 L 52.3442,1.49704 z
M -52.2749,4.1868 L -52.4618,4.16319 L -52.6442,4.11635 L -52.8194,4.047 L -52.9845,3.95625 L -53.1369,3.84552
 L -53.2742,3.71658 L -53.3942,3.57144 L -53.4952,3.41238 L -53.5754,3.24194 L -53.6336,3.06279 L -53.6689,2.87776
 L -53.6807,2.68976 L -53.6689,2.50175 L -53.6336,2.31673 L -53.5754,2.13757 L -53.4952,1.96713 L -53.3942,1.80807
 L -53.2742,1.66293 L -53.1369,1.53398 L -52.9845,1.42326 L -52.8194,1.33252 L -52.6442,1.26317 L -52.4618,1.21632
 L -52.2749,1.19272 L -52.0865,1.19272 L -51.8996,1.21632 L -51.7172,1.26317 L -51.5421,1.33252 L -51.377,1.42326
 L -51.2246,1.53398 L -51.0873,1.66293 L -50.9672,1.80807 L -50.8663,1.96713 L -50.7861,2.13757 L -50.7278,2.31673
 L -50.6926,2.50175 L -50.6807,2.68976 L -50.6926,2.87776 L -50.7278,3.06279 L -50.7861,3.24194 L -50.8663,3.41238
 L -50.9672,3.57144 L -51.0873,3.71658 L -51.2246,3.84552 L -51.377,3.95625 L -51.5421,4.047 L -51.7172,4.11635
 L -51.8996,4.16319 L -52.0865,4.1868 z
M 51.8789,6.86943 L 51.692,6.84583 L 51.5095,6.79898 L 51.3344,6.72963 L 51.1693,6.63889 L 51.0169,6.52815
 L 50.8796,6.39922 L 50.7595,6.25407 L 50.6586,6.09502 L 50.5784,5.92458 L 50.5202,5.74542 L 50.4849,5.56039
 L 50.4731,5.37239 L 50.4849,5.18439 L 50.5202,4.99936 L 50.5784,4.82021 L 50.6586,4.64977 L 50.7595,4.49071
 L 50.8796,4.34557 L 51.0169,4.21661 L 51.1693,4.1059 L 51.3344,4.01515 L 51.5095,3.9458 L 51.692,3.89896
 L 51.8789,3.87535 L 52.0672,3.87535 L 52.2541,3.89896 L 52.4366,3.9458 L 52.6117,4.01515 L 52.7768,4.1059
 L 52.9292,4.21661 L 53.0665,4.34557 L 53.1866,4.49071 L 53.2875,4.64977 L 53.3677,4.82021 L 53.4259,4.99936
 L 53.4612,5.18439 L 53.4731,5.37239 L 53.4612,5.56039 L 53.4259,5.74542 L 53.3677,5.92458 L 53.2875,6.09502
 L 53.1866,6.25407 L 53.0665,6.39922 L 52.9292,6.52815 L 52.7768,6.63889 L 52.6117,6.72963 L 52.4366,6.79898
 L 52.2541,6.84583 L 52.0672,6.86943 z
M -51.7218,9.53781 L -51.9087,9.51421 L -52.0911,9.46736 L -52.2663,9.39801 L -52.4313,9.30727 L -52.5837,9.19655
 L -52.721,9.0676 L -52.8411,8.92245 L -52.942,8.76341 L -53.0222,8.59296 L -53.0805,8.4138 L -53.1158,8.22878
 L -53.1276,8.04077 L -53.1158,7.85277 L -53.0805,7.66774 L -53.0222,7.48859 L -52.942,7.31815 L -52.8411,7.1591
 L -52.721,7.01396 L -52.5837,6.88501 L -52.4313,6.77428 L -52.2663,6.68353 L -52.0911,6.6142 L -51.9087,6.56734
 L -51.7218,6.54373 L -51.5334,6.54373 L -51.3465,6.56734 L -51.1641,6.6142 L -50.9889,6.68353 L -50.8239,6.77428
 L -50.6714,6.88501 L -50.5341,7.01396 L -50.4141,7.1591 L -50.3131,7.31815 L -50.2329,7.48859 L -50.1747,7.66774
 L -50.1394,7.85277 L -50.1276,8.04077 L -50.1394,8.22878 L -50.1747,8.4138 L -50.2329,8.59296 L -50.3131,8.76341
 L -50.4141,8.92245 L -50.5341,9.0676 L -50.6714,9.19655 L -50.8239,9.30727 L -50.9889,9.39801 L -51.1641,9.46736
 L -51.3465,9.51421 L -51.5334,9.53781 z
M 51.051,12.1849 L 50.8641,12.1613 L 50.6817,12.1144 L 50.5065,12.0451 L 50.3415,11.9543 L 50.1891,11.8436
 L 50.0518,11.7147 L 49.9317,11.5695 L 49.8307,11.4105 L 49.7505,11.24 L 49.6923,11.0609 L 49.657,10.8758
 L 49.6452,10.6878 L 49.657,10.4998 L 49.6923,10.3148 L 49.7505,10.1357 L 49.8307,9.96521 L 49.9317,9.80615
 L 50.0518,9.66101 L 50.1891,9.53207 L 50.3415,9.42134 L 50.5065,9.3306 L 50.6817,9.26125 L 50.8641,9.2144
 L 51.051,9.1908 L 51.2394,9.1908 L 51.4263,9.2144 L 51.6087,9.26125 L 51.7839,9.3306 L 51.9489,9.42134
 L 52.1013,9.53207 L 52.2387,9.66101 L 52.3587,9.80615 L 52.4597,9.96521 L 52.5399,10.1357 L 52.5981,10.3148
 L 52.6334,10.4998 L 52.6452,10.6878 L 52.6334,10.8758 L 52.5981,11.0609 L 52.5399,11.24 L 52.4597,11.4105
 L 52.3587,11.5695 L 52.2387,11.7147 L 52.1013,11.8436 L 51.9489,11.9543 L 51.7839,12.0451 L 51.6087,12.1144
 L 51.4263,12.1613 L 51.2394,12.1849 z
M -50.6214,14.8036 L -50.8083,14.78 L -50.9907,14.7331 L -51.1659,14.6638 L -51.3309,14.573 L -51.4833,14.4623
 L -51.6207,14.3334 L -51.7407,14.1882 L -51.8417,14.0292 L -51.9219,13.8587 L -51.9801,13.6796 L -52.0154,13.4946
 L -52.0272,13.3066 L -52.0154,13.1186 L -51.9801,12.9335 L -51.9219,12.7544 L -51.8417,12.5839 L -51.7407,12.4249
 L -51.6207,12.2797 L -51.4833,12.1508 L -51.3309,12.0401 L -51.1659,11.9493 L -50.9907,11.88 L -50.8083,11.8331
 L -50.6214,11.8095 L -50.433,11.8095 L -50.2461,11.8331 L -50.0637,11.88 L -49.8885,11.9493 L -49.7234,12.0401
 L -49.5711,12.1508 L -49.4337,12.2797 L -49.3137,12.4249 L -49.2127,12.5839 L -49.1325,12.7544 L -49.0743,12.9335
 L -49.039,13.1186 L -49.0272,13.3066 L -49.039,13.4946 L -49.0743,13.6796 L -49.1325,13.8587 L -49.2127,14.0292
 L -49.3137,14.1882 L -49.4337,14.3334 L -49.5711,14.4623 L -49.7234,14.573 L -49.8885,14.6638 L -50.0637,14.7331
 L -50.2461,14.78 L -50.433,14.8036 z
M 49.681,17.387 L 49.4941,17.3634 L 49.3117,17.3166 L 49.1365,17.2472 L 48.9715,17.1565 L 48.8191,17.0458
 L 48.6817,16.9168 L 48.5617,16.7717 L 48.4607,16.6126 L 48.3805,16.4422 L 48.3223,16.263 L 48.287,16.078
 L 48.2752,15.89 L 48.287,15.702 L 48.3223,15.517 L 48.3805,15.3378 L 48.4607,15.1674 L 48.5617,15.0083
 L 48.6817,14.8632 L 48.8191,14.7342 L 48.9715,14.6235 L 49.1365,14.5327 L 49.3117,14.4634 L 49.4941,14.4166
 L 49.681,14.393 L 49.8694,14.393 L 50.0563,14.4166 L 50.2387,14.4634 L 50.4139,14.5327 L 50.5789,14.6235
 L 50.7313,14.7342 L 50.8687,14.8632 L 50.9887,15.0083 L 51.0896,15.1674 L 51.1699,15.3378 L 51.2281,15.517
 L 51.2634,15.702 L 51.2752,15.89 L 51.2634,16.078 L 51.2281,16.263 L 51.1699,16.4422 L 51.0896,16.6126
 L 50.9887,16.7717 L 50.8687,16.9168 L 50.7313,17.0458 L 50.5789,17.1565 L 50.4139,17.2472 L 50.2387,17.3166
 L 50.0563,17.3634 L 49.8694,17.387 z
M -48.9854,19.9283 L -49.1723,19.9047 L -49.3547,19.8579 L -49.5299,19.7885 L -49.6949,19.6978 L -49.8473,19.5871
 L -49.9846,19.4581 L -50.1047,19.313 L -50.2057,19.1539 L -50.2859,18.9835 L -50.3441,18.8043 L -50.3794,18.6193
 L -50.3912,18.4313 L -50.3794,18.2433 L -50.3441,18.0583 L -50.2859,17.8791 L -50.2057,17.7087 L -50.1047,17.5496
 L -49.9846,17.4045 L -49.8473,17.2755 L -49.6949,17.1648 L -49.5299,17.0741 L -49.3547,17.0047 L -49.1723,16.9579
 L -48.9854,16.9342 L -48.797,16.9342 L -48.6101,16.9579 L -48.4277,17.0047 L -48.2525,17.0741 L -48.0875,17.1648
 L -47.9351,17.2755 L -47.7977,17.4045 L -47.6777,17.5496 L -47.5767,17.7087 L -47.4965,17.8791 L -47.4383,18.0583
 L -47.403,18.2433 L -47.3912,18.4313 L -47.403,18.6193 L -47.4383,18.8043 L -47.4965,18.9835 L -47.5767,19.1539
 L -47.6777,19.313 L -47.7977,19.4581 L -47.9351,19.5871 L -48.0875,19.6978 L -48.2525,19.7885 L -48.4277,19.8579
 L -48.6101,19.9047 L -48.797,19.9283 z
M 47.7834,22.4207 L 47.5965,22.3971 L 47.414,22.3503 L 47.2389,22.2809 L 47.0738,22.1902 L 46.9214,22.0795
 L 46.7841,21.9505 L 46.664,21.8054 L 46.5631,21.6463 L 46.4829,21.4759 L 46.4247,21.2967 L 46.3894,21.1117
 L 46.3775,20.9237 L 46.3894,20.7357 L 46.4247,20.5507 L 46.4829,20.3715 L 46.5631,20.2011 L 46.664,20.042
 L 46.7841,19.8969 L 46.9214,19.7679 L 47.0738,19.6572 L 47.2389,19.5665 L 47.414,19.4971 L 47.5965,19.4503
 L 47.7834,19.4267 L 47.9717,19.4267 L 48.1586,19.4503 L 48.3411,19.4971 L 48.5162,19.5665 L 48.6813,19.6572
 L 48.8337,19.7679 L 48.971,19.8969 L 49.0911,20.042 L 49.192,20.2011 L 49.2722,20.3715 L 49.3304,20.5507
 L 49.3657,20.7357 L 49.3775,20.9237 L 49.3657,21.1117 L 49.3304,21.2967 L 49.2722,21.4759 L 49.192,21.6463
 L 49.0911,21.8054 L 48.971,21.9505 L 48.8337,22.0795 L 48.6813,22.1902 L 48.5162,22.2809 L 48.3411,22.3503
 L 48.1586,22.3971 L 47.9717,22.4207 z
M -46.8311,24.8577 L -47.018,24.8341 L -47.2005,24.7872 L -47.3756,24.7179 L -47.5407,24.6271 L -47.6931,24.5164
 L -47.8304,24.3875 L -47.9505,24.2423 L -48.0514,24.0833 L -48.1316,23.9128 L -48.1898,23.7337 L -48.2251,23.5486
 L -48.2369,23.3606 L -48.2251,23.1726 L -48.1898,22.9876 L -48.1316,22.8085 L -48.0514,22.638 L -47.9505,22.479
 L -47.8304,22.3338 L -47.6931,22.2049 L -47.5407,22.0941 L -47.3756,22.0034 L -47.2005,21.9341 L -47.018,21.8872
 L -46.8311,21.8636 L -46.6428,21.8636 L -46.4559,21.8872 L -46.2734,21.9341 L -46.0983,22.0034 L -45.9332,22.0941
 L -45.7808,22.2049 L -45.6435,22.3338 L -45.5234,22.479 L -45.4225,22.638 L -45.3423,22.8085 L -45.2841,22.9876
 L -45.2488,23.1726 L -45.2369,23.3606 L -45.2488,23.5486 L -45.2841,23.7337 L -45.3423,23.9128 L -45.4225,24.0833
 L -45.5234,24.2423 L -45.6435,24.3875 L -45.7808,24.5164 L -45.9332,24.6271 L -46.0983,24.7179 L -46.2734,24.7872
 L -46.4559,24.8341 L -46.6428,24.8577 z
M 45.3782,27.2327 L 45.1913,27.2091 L 45.0089,27.1622 L 44.8337,27.0929 L 44.6687,27.0021 L 44.5163,26.8914
 L 44.379,26.7625 L 44.2589,26.6173 L 44.1579,26.4583 L 44.0777,26.2878 L 44.0195,26.1087 L 43.9842,25.9236
 L 43.9724,25.7356 L 43.9842,25.5476 L 44.0195,25.3626 L 44.0777,25.1834 L 44.1579,25.013 L 44.2589,24.854
 L 44.379,24.7088 L 44.5163,24.5799 L 44.6687,24.4691 L 44.8337,24.3784 L 45.0089,24.3091 L 45.1913,24.2622
 L 45.3782,24.2386 L 45.5666,24.2386 L 45.7535,24.2622 L 45.9359,24.3091 L 46.1111,24.3784 L 46.2761,24.4691
 L 46.4285,24.5799 L 46.5659,24.7088 L 46.6859,24.854 L 46.7869,25.013 L 46.8671,25.1834 L 46.9253,25.3626
 L 46.9606,25.5476 L 46.9724,25.7356 L 46.9606,25.9236 L 46.9253,26.1087 L 46.8671,26.2878 L 46.7869,26.4583
 L 46.6859,26.6173 L 46.5659,26.7625 L 46.4285,26.8914 L 46.2761,27.0021 L 46.1111,27.0929 L 45.9359,27.1622
 L 45.7535,27.2091 L 45.5666,27.2327 z
M -44.1815,29.5394 L -44.3683,29.5158 L -44.5508,29.4689 L -44.7259,29.3996 L -44.891,29.3089 L -45.0434,29.1981
 L -45.1807,29.0692 L -45.3008,28.924 L -45.4017,28.765 L -45.4819,28.5946 L -45.5401,28.4154 L -45.5754,28.2304
 L -45.5873,28.0424 L -45.5754,27.8544 L -45.5401,27.6693 L -45.4819,27.4902 L -45.4017,27.3197 L -45.3008,27.1607
 L -45.1807,27.0155 L -45.0434,26.8866 L -44.891,26.7759 L -44.7259,26.6851 L -44.5508,26.6158 L -44.3683,26.5689
 L -44.1815,26.5453 L -43.9931,26.5453 L -43.8062,26.5689 L -43.6237,26.6158 L -43.4486,26.6851 L -43.2835,26.7759
 L -43.1311,26.8866 L -42.9938,27.0155 L -42.8737,27.1607 L -42.7728,27.3197 L -42.6926,27.4902 L -42.6344,27.6693
 L -42.5991,27.8544 L -42.5873,28.0424 L -42.5991,28.2304 L -42.6344,28.4154 L -42.6926,28.5946 L -42.7728,28.765
 L -42.8737,28.924 L -42.9938,29.0692 L -43.1311,29.1981 L -43.2835,29.3089 L -43.4486,29.3996 L -43.6237,29.4689
 L -43.8062,29.5158 L -43.9931,29.5394 z
M 42.491,31.7718 L 42.3042,31.7482 L 42.1217,31.7013 L 41.9465,31.632 L 41.7815,31.5412 L 41.6291,31.4305
 L 41.4918,31.3016 L 41.3717,31.1564 L 41.2708,30.9974 L 41.1906,30.8269 L 41.1324,30.6478 L 41.097,30.4627
 L 41.0852,30.2747 L 41.097,30.0867 L 41.1324,29.9017 L 41.1906,29.7226 L 41.2708,29.5521 L 41.3717,29.3931
 L 41.4918,29.2479 L 41.6291,29.119 L 41.7815,29.0083 L 41.9465,28.9175 L 42.1217,28.8482 L 42.3042,28.8013
 L 42.491,28.7777 L 42.6794,28.7777 L 42.8663,28.8013 L 43.0488,28.8482 L 43.2239,28.9175 L 43.389,29.0083
 L 43.5414,29.119 L 43.6787,29.2479 L 43.7988,29.3931 L 43.8997,29.5521 L 43.9799,29.7226 L 44.0381,29.9017
 L 44.0734,30.0867 L 44.0852,30.2747 L 44.0734,30.4627 L 44.0381,30.6478 L 43.9799,30.8269 L 43.8997,30.9974
 L 43.7988,31.1564 L 43.6787,31.3016 L 43.5414,31.4305 L 43.389,31.5412 L 43.2239,31.632 L 43.0488,31.7013
 L 42.8663,31.7482 L 42.6794,31.7718 z
M -41.0644,33.9239 L -41.2513,33.9003 L -41.4338,33.8534 L -41.6089,33.7841 L -41.774,33.6933 L -41.9264,33.5826
 L -42.0637,33.4537 L -42.1838,33.3085 L -42.2847,33.1495 L -42.3649,32.979 L -42.4231,32.7999 L -42.4584,32.6148
 L -42.4703,32.4268 L -42.4584,32.2388 L -42.4231,32.0538 L -42.3649,31.8746 L -42.2847,31.7042 L -42.1838,31.5452
 L -42.0637,31.4 L -41.9264,31.2711 L -41.774,31.1603 L -41.6089,31.0696 L -41.4338,31.0003 L -41.2513,30.9534
 L -41.0644,30.9298 L -40.8761,30.9298 L -40.6892,30.9534 L -40.5067,31.0003 L -40.3316,31.0696 L -40.1665,31.1603
 L -40.0141,31.2711 L -39.8768,31.4 L -39.7567,31.5452 L -39.6558,31.7042 L -39.5756,31.8746 L -39.5174,32.0538
 L -39.4821,32.2388 L -39.4703,32.4268 L -39.4821,32.6148 L -39.5174,32.7999 L -39.5756,32.979 L -39.6558,33.1495
 L -39.7567,33.3085 L -39.8768,33.4537 L -40.0141,33.5826 L -40.1665,33.6933 L -40.3316,33.7841 L -40.5067,33.8534
 L -40.6892,33.9003 L -40.8761,33.9239 z
M 39.1525,35.99 L 38.9656,35.9664 L 38.7831,35.9195 L 38.608,35.8502 L 38.4429,35.7594 L 38.2905,35.6487
 L 38.1532,35.5198 L 38.0331,35.3746 L 37.9322,35.2156 L 37.852,35.0451 L 37.7938,34.866 L 37.7585,34.6809
 L 37.7466,34.4929 L 37.7585,34.3049 L 37.7938,34.1199 L 37.852,33.9408 L 37.9322,33.7703 L 38.0331,33.6113
 L 38.1532,33.4661 L 38.2905,33.3372 L 38.4429,33.2265 L 38.608,33.1357 L 38.7831,33.0664 L 38.9656,33.0195
 L 39.1525,32.9959 L 39.3408,32.9959 L 39.5277,33.0195 L 39.7102,33.0664 L 39.8853,33.1357 L 40.0504,33.2265
 L 40.2028,33.3372 L 40.3401,33.4661 L 40.4602,33.6113 L 40.5611,33.7703 L 40.6413,33.9408 L 40.6995,34.1199
 L 40.7348,34.3049 L 40.7466,34.4929 L 40.7348,34.6809 L 40.6995,34.866 L 40.6413,35.0451 L 40.5611,35.2156
 L 40.4602,35.3746 L 40.3401,35.5198 L 40.2028,35.6487 L 40.0504,35.7594 L 39.8853,35.8502 L 39.7102,35.9195
 L 39.5277,35.9664 L 39.3408,35.99 z
M -37.5131,37.9646 L -37.7,37.941 L -37.8825,37.8942 L -38.0576,37.8248 L -38.2227,37.7341 L -38.3751,37.6234
 L -38.5124,37.4944 L -38.6325,37.3493 L -38.7334,37.1902 L -38.8136,37.0198 L -38.8718,36.8406 L -38.9071,36.6556
 L -38.9189,36.4676 L -38.9071,36.2796 L -38.8718,36.0945 L -38.8136,35.9154 L -38.7334,35.7449 L -38.6325,35.5859
 L -38.5124,35.4408 L -38.3751,35.3118 L -38.2227,35.2011 L -38.0576,35.1103 L -37.8825,35.041 L -37.7,34.9941
 L -37.5131,34.9705 L -37.3248,34.9705 L -37.1379,34.9941 L -36.9554,35.041 L -36.7803,35.1103 L -36.6152,35.2011
 L -36.4628,35.3118 L -36.3255,35.4408 L -36.2054,35.5859 L -36.1045,35.7449 L -36.0243,35.9154 L -35.9661,36.0945
 L -35.9308,36.2796 L -35.9189,36.4676 L -35.9308,36.6556 L -35.9661,36.8406 L -36.0243,37.0198 L -36.1045,37.1902
 L -36.2054,37.3493 L -36.3255,37.4944 L -36.4628,37.6234 L -36.6152,37.7341 L -36.7803,37.8248 L -36.9554,37.8942
 L -37.1379,37.941 L -37.3248,37.9646 z
M 35.3978,39.8425 L 35.211,39.8189 L 35.0285,39.7721 L 34.8534,39.7027 L 34.6883,39.612 L 34.5359,39.5013
 L 34.3986,39.3723 L 34.2785,39.2272 L 34.1776,39.0681 L 34.0974,38.8977 L 34.0392,38.7185 L 34.0039,38.5335
 L 33.992,38.3455 L 34.0039,38.1575 L 34.0392,37.9725 L 34.0974,37.7933 L 34.1776,37.6229 L 34.2785,37.4638
 L 34.3986,37.3187 L 34.5359,37.1897 L 34.6883,37.079 L 34.8534,36.9883 L 35.0285,36.9189 L 35.211,36.8721
 L 35.3978,36.8485 L 35.5862,36.8485 L 35.7731,36.8721 L 35.9556,36.9189 L 36.1307,36.9883 L 36.2958,37.079
 L 36.4482,37.1897 L 36.5855,37.3187 L 36.7056,37.4638 L 36.8065,37.6229 L 36.8867,37.7933 L 36.9449,37.9725
 L 36.9802,38.1575 L 36.992,38.3455 L 36.9802,38.5335 L 36.9449,38.7185 L 36.8867,38.8977 L 36.8065,39.0681
 L 36.7056,39.2272 L 36.5855,39.3723 L 36.4482,39.5013 L 36.2958,39.612 L 36.1307,39.7027 L 35.9556,39.7721
 L 35.7731,39.8189 L 35.5862,39.8425 z
M -33.5652,41.6188 L -33.7521,41.5952 L -33.9345,41.5483 L -34.1096,41.479 L -34.2747,41.3882 L -34.4271,41.2775
 L -34.5644,41.1486 L -34.6845,41.0034 L -34.7854,40.8444 L -34.8656,40.6739 L -34.9239,40.4948 L -34.9592,40.3098
 L -34.971,40.1217 L -34.9592,39.9337 L -34.9239,39.7487 L -34.8656,39.5696 L -34.7854,39.3991 L -34.6845,39.2401
 L -34.5644,39.0949 L -34.4271,38.966 L -34.2747,38.8553 L -34.1096,38.7645 L -33.9345,38.6952 L -33.7521,38.6483
 L -33.5652,38.6247 L -33.3768,38.6247 L -33.1899,38.6483 L -33.0075,38.6952 L -32.8323,38.7645 L -32.6673,38.8553
 L -32.5148,38.966 L -32.3775,39.0949 L -32.2575,39.2401 L -32.1565,39.3991 L -32.0763,39.5696 L -32.0181,39.7487
 L -31.9828,39.9337 L -31.971,40.1217 L -31.9828,40.3098 L -32.0181,40.4948 L -32.0763,40.6739 L -32.1565,40.8444
 L -32.2575,41.0034 L -32.3775,41.1486 L -32.5148,41.2775 L -32.6673,41.3882 L -32.8323,41.479 L -33.0075,41.5483
 L -33.1899,41.5952 L -33.3768,41.6188 z
M 31.267,43.2886 L 31.0801,43.265 L 30.8977,43.2182 L 30.7225,43.1488 L 30.5574,43.0581 L 30.4051,42.9474
 L 30.2677,42.8184 L 30.1477,42.6733 L 30.0467,42.5142 L 29.9665,42.3438 L 29.9083,42.1646 L 29.873,41.9796
 L 29.8612,41.7916 L 29.873,41.6036 L 29.9083,41.4186 L 29.9665,41.2394 L 30.0467,41.069 L 30.1477,40.9099
 L 30.2677,40.7648 L 30.4051,40.6358 L 30.5574,40.5251 L 30.7225,40.4344 L 30.8977,40.365 L 31.0801,40.3182
 L 31.267,40.2946 L 31.4554,40.2946 L 31.6423,40.3182 L 31.8247,40.365 L 31.9999,40.4344 L 32.1649,40.5251
 L 32.3173,40.6358 L 32.4547,40.7648 L 32.5747,40.9099 L 32.6756,41.069 L 32.7559,41.2394 L 32.8141,41.4186
 L 32.8494,41.6036 L 32.8612,41.7916 L 32.8494,41.9796 L 32.8141,42.1646 L 32.7559,42.3438 L 32.6756,42.5142
 L 32.5747,42.6733 L 32.4547,42.8184 L 32.3173,42.9474 L 32.1649,43.0581 L 31.9999,43.1488 L 31.8247,43.2182
 L 31.6423,43.265 L 31.4554,43.2886 z
M -29.2624,44.8477 L -29.4493,44.8241 L -29.6318,44.7772 L -29.8069,44.7079 L -29.972,44.6171 L -30.1244,44.5064
 L -30.2617,44.3774 L -30.3818,44.2323 L -30.4827,44.0732 L -30.5629,43.9028 L -30.6211,43.7236 L -30.6564,43.5386
 L -30.6682,43.3506 L -30.6564,43.1626 L -30.6211,42.9776 L -30.5629,42.7984 L -30.4827,42.628 L -30.3818,42.4689
 L -30.2617,42.3238 L -30.1244,42.1949 L -29.972,42.0841 L -29.8069,41.9934 L -29.6318,41.924 L -29.4493,41.8772
 L -29.2624,41.8536 L -29.074,41.8536 L -28.8872,41.8772 L -28.7047,41.924 L -28.5296,41.9934 L -28.3645,42.0841
 L -28.2121,42.1949 L -28.0748,42.3238 L -27.9547,42.4689 L -27.8538,42.628 L -27.7736,42.7984 L -27.7153,42.9776
 L -27.6801,43.1626 L -27.6682,43.3506 L -27.6801,43.5386 L -27.7153,43.7236 L -27.7736,43.9028 L -27.8538,44.0732
 L -27.9547,44.2323 L -28.0748,44.3774 L -28.2121,44.5064 L -28.3645,44.6171 L -28.5296,44.7079 L -28.7047,44.7772
 L -28.8872,44.8241 L -29.074,44.8477 z
M 26.8037,46.2917 L 26.6169,46.2681 L 26.4344,46.2213 L 26.2592,46.1519 L 26.0942,46.0612 L 25.9418,45.9505
 L 25.8045,45.8215 L 25.6844,45.6764 L 25.5835,45.5173 L 25.5033,45.3469 L 25.445,45.1677 L 25.4097,44.9827
 L 25.3979,44.7947 L 25.4097,44.6067 L 25.445,44.4216 L 25.5033,44.2425 L 25.5835,44.0721 L 25.6844,43.913
 L 25.8045,43.7679 L 25.9418,43.6389 L 26.0942,43.5282 L 26.2592,43.4374 L 26.4344,43.3681 L 26.6169,43.3213
 L 26.8037,43.2976 L 26.9921,43.2976 L 27.179,43.3213 L 27.3615,43.3681 L 27.5366,43.4374 L 27.7017,43.5282
 L 27.854,43.6389 L 27.9914,43.7679 L 28.1115,43.913 L 28.2124,44.0721 L 28.2926,44.2425 L 28.3508,44.4216
 L 28.3861,44.6067 L 28.3979,44.7947 L 28.3861,44.9827 L 28.3508,45.1677 L 28.2926,45.3469 L 28.2124,45.5173
 L 28.1115,45.6764 L 27.9914,45.8215 L 27.854,45.9505 L 27.7017,46.0612 L 27.5366,46.1519 L 27.3615,46.2213
 L 27.179,46.2681 L 26.9921,46.2917 z
M -24.6505,47.617 L -24.8374,47.5934 L -25.0198,47.5465 L -25.1949,47.4772 L -25.36,47.3865 L -25.5124,47.2757
 L -25.6497,47.1468 L -25.7698,47.0016 L -25.8707,46.8426 L -25.9509,46.6721 L -26.0092,46.493 L -26.0444,46.308
 L -26.0563,46.12 L -26.0444,45.932 L -26.0092,45.7469 L -25.9509,45.5678 L -25.8707,45.3973 L -25.7698,45.2383
 L -25.6497,45.0931 L -25.5124,44.9642 L -25.36,44.8535 L -25.1949,44.7627 L -25.0198,44.6934 L -24.8374,44.6465
 L -24.6505,44.6229 L -24.4621,44.6229 L -24.2752,44.6465 L -24.0928,44.6934 L -23.9176,44.7627 L -23.7525,44.8535
 L -23.6001,44.9642 L -23.4628,45.0931 L -23.3428,45.2383 L -23.2418,45.3973 L -23.1616,45.5678 L -23.1034,45.7469
 L -23.0681,45.932 L -23.0563,46.12 L -23.0681,46.308 L -23.1034,46.493 L -23.1616,46.6721 L -23.2418,46.8426
 L -23.3428,47.0016 L -23.4628,47.1468 L -23.6001,47.2757 L -23.7525,47.3865 L -23.9176,47.4772 L -24.0928,47.5465
 L -24.2752,47.5934 L -24.4621,47.617 z
M 22.0553,48.82 L 21.8685,48.7964 L 21.686,48.7495 L 21.5108,48.6802 L 21.3458,48.5894 L 21.1934,48.4787
 L 21.0561,48.3498 L 20.936,48.2046 L 20.8351,48.0456 L 20.7549,47.8751 L 20.6966,47.696 L 20.6613,47.5109
 L 20.6495,47.3229 L 20.6613,47.1349 L 20.6966,46.9499 L 20.7549,46.7708 L 20.8351,46.6003 L 20.936,46.4413
 L 21.0561,46.2961 L 21.1934,46.1672 L 21.3458,46.0564 L 21.5108,45.9657 L 21.686,45.8963 L 21.8685,45.8495
 L 22.0553,45.8259 L 22.2437,45.8259 L 22.4306,45.8495 L 22.6131,45.8963 L 22.7882,45.9657 L 22.9533,46.0564
 L 23.1057,46.1672 L 23.243,46.2961 L 23.3631,46.4413 L 23.464,46.6003 L 23.5442,46.7708 L 23.6024,46.9499
 L 23.6377,47.1349 L 23.6495,47.3229 L 23.6377,47.5109 L 23.6024,47.696 L 23.5442,47.8751 L 23.464,48.0456
 L 23.3631,48.2046 L 23.243,48.3498 L 23.1057,48.4787 L 22.9533,48.5894 L 22.7882,48.6802 L 22.6131,48.7495
 L 22.4306,48.7964 L 22.2437,48.82 z
M -19.7782,49.8975 L -19.9651,49.8739 L -20.1476,49.827 L -20.3227,49.7577 L -20.4878,49.6669 L -20.6402,49.5562
 L -20.7775,49.4272 L -20.8976,49.2821 L -20.9985,49.123 L -21.0787,48.9526 L -21.1369,48.7735 L -21.1722,48.5884
 L -21.184,48.4004 L -21.1722,48.2124 L -21.1369,48.0274 L -21.0787,47.8482 L -20.9985,47.6778 L -20.8976,47.5187
 L -20.7775,47.3736 L -20.6402,47.2446 L -20.4878,47.1339 L -20.3227,47.0432 L -20.1476,46.9738 L -19.9651,46.927
 L -19.7782,46.9034 L -19.5898,46.9034 L -19.403,46.927 L -19.2205,46.9738 L -19.0454,47.0432 L -18.8803,47.1339
 L -18.7279,47.2446 L -18.5906,47.3736 L -18.4705,47.5187 L -18.3696,47.6778 L -18.2894,47.8482 L -18.2312,48.0274
 L -18.1958,48.2124 L -18.184,48.4004 L -18.1958,48.5884 L -18.2312,48.7735 L -18.2894,48.9526 L -18.3696,49.123
 L -18.4705,49.2821 L -18.5906,49.4272 L -18.7279,49.5562 L -18.8803,49.6669 L -19.0454,49.7577 L -19.2205,49.827
 L -19.403,49.8739 L -19.5898,49.8975 z
M 17.0721,50.8466 L 16.8853,50.823 L 16.7028,50.7761 L 16.5277,50.7068 L 16.3626,50.616 L 16.2102,50.5053
 L 16.0729,50.3764 L 15.9528,50.2312 L 15.8519,50.0722 L 15.7717,49.9017 L 15.7135,49.7226 L 15.6782,49.5376
 L 15.6663,49.3496 L 15.6782,49.1616 L 15.7135,48.9765 L 15.7717,48.7974 L 15.8519,48.6269 L 15.9528,48.4679
 L 16.0729,48.3227 L 16.2102,48.1938 L 16.3626,48.0831 L 16.5277,47.9923 L 16.7028,47.923 L 16.8853,47.8761
 L 17.0721,47.8525 L 17.2605,47.8525 L 17.4474,47.8761 L 17.6299,47.923 L 17.805,47.9923 L 17.9701,48.0831
 L 18.1225,48.1938 L 18.2598,48.3227 L 18.3799,48.4679 L 18.4808,48.6269 L 18.561,48.7974 L 18.6192,48.9765
 L 18.6545,49.1616 L 18.6663,49.3496 L 18.6545,49.5376 L 18.6192,49.7226 L 18.561,49.9017 L 18.4808,50.0722
 L 18.3799,50.2312 L 18.2598,50.3764 L 18.1225,50.5053 L 17.9701,50.616 L 17.805,50.7068 L 17.6299,50.7761
 L 17.4474,50.823 L 17.2605,50.8466 z
M -14.6973,51.6649 L -14.8842,51.6413 L -15.0666,51.5944 L -15.2418,51.5251 L -15.4069,51.4343 L -15.5592,51.3236
 L -15.6966,51.1946 L -15.8166,51.0495 L -15.9176,50.8905 L -15.9978,50.72 L -16.056,50.5409 L -16.0913,50.3558
 L -16.1031,50.1678 L -16.0913,49.9798 L -16.056,49.7948 L -15.9978,49.6156 L -15.9176,49.4452 L -15.8166,49.2861
 L -15.6966,49.141 L -15.5592,49.0121 L -15.4069,48.9013 L -15.2418,48.8106 L -15.0666,48.7412 L -14.8842,48.6944
 L -14.6973,48.6708 L -14.5089,48.6708 L -14.3221,48.6944 L -14.1396,48.7412 L -13.9644,48.8106 L -13.7994,48.9013
 L -13.647,49.0121 L -13.5097,49.141 L -13.3896,49.2861 L -13.2887,49.4452 L -13.2085,49.6156 L -13.1502,49.7948
 L -13.1149,49.9798 L -13.1031,50.1678 L -13.1149,50.3558 L -13.1502,50.5409 L -13.2085,50.72 L -13.2887,50.8905
 L -13.3896,51.0495 L -13.5097,51.1946 L -13.647,51.3236 L -13.7994,51.4343 L -13.9644,51.5251 L -14.1396,51.5944
 L -14.3221,51.6413 L -14.5089,51.6649 z
M 11.907,52.3501 L 11.7201,52.3265 L 11.5377,52.2796 L 11.3625,52.2103 L 11.1974,52.1196 L 11.045,52.0088
 L 10.9077,51.8799 L 10.7877,51.7347 L 10.6867,51.5757 L 10.6065,51.4052 L 10.5483,51.2261 L 10.513,51.0411
 L 10.5012,50.8531 L 10.513,50.6651 L 10.5483,50.48 L 10.6065,50.3009 L 10.6867,50.1304 L 10.7877,49.9714
 L 10.9077,49.8262 L 11.045,49.6973 L 11.1974,49.5866 L 11.3625,49.4958 L 11.5377,49.4265 L 11.7201,49.3796
 L 11.907,49.356 L 12.0954,49.356 L 12.2822,49.3796 L 12.4647,49.4265 L 12.6398,49.4958 L 12.8049,49.5866
 L 12.9573,49.6973 L 13.0946,49.8262 L 13.2147,49.9714 L 13.3156,50.1304 L 13.3958,50.3009 L 13.4541,50.48
 L 13.4893,50.6651 L 13.5012,50.8531 L 13.4893,51.0411 L 13.4541,51.2261 L 13.3958,51.4052 L 13.3156,51.5757
 L 13.2147,51.7347 L 13.0946,51.8799 L 12.9573,52.0088 L 12.8049,52.1196 L 12.6398,52.2103 L 12.4647,52.2796
 L 12.2822,52.3265 L 12.0954,52.3501 z
M -9.46159,52.9005 L -9.64848,52.8769 L -9.83093,52.83 L -10.0061,52.7607 L -10.1712,52.6699 L -10.3235,52.5592
 L -10.4609,52.4303 L -10.5809,52.2851 L -10.6819,52.1261 L -10.7621,51.9556 L -10.8203,51.7765 L -10.8556,51.5914
 L -10.8674,51.4034 L -10.8556,51.2154 L -10.8203,51.0304 L -10.7621,50.8513 L -10.6819,50.6808 L -10.5809,50.5218
 L -10.4609,50.3766 L -10.3235,50.2477 L -10.1712,50.1369 L -10.0061,50.0462 L -9.83093,49.9769 L -9.64848,49.93
 L -9.46159,49.9064 L -9.27322,49.9064 L -9.08633,49.93 L -8.90388,49.9769 L -8.72874,50.0462 L -8.56367,50.1369
 L -8.41127,50.2477 L -8.27396,50.3766 L -8.15388,50.5218 L -8.05295,50.6808 L -7.97275,50.8513 L -7.91454,51.0304
 L -7.87924,51.2154 L -7.86742,51.4034 L -7.87924,51.5914 L -7.91454,51.7765 L -7.97275,51.9556 L -8.05295,52.1261
 L -8.15388,52.2851 L -8.27396,52.4303 L -8.41127,52.5592 L -8.56367,52.6699 L -8.72874,52.7607 L -8.90388,52.83
 L -9.08633,52.8769 L -9.27322,52.9005 z
M 6.61462,53.3145 L 6.42773,53.2909 L 6.24529,53.2441 L 6.07014,53.1747 L 5.90506,53.084 L 5.75267,52.9733
 L 5.61536,52.8443 L 5.49529,52.6992 L 5.39435,52.5401 L 5.31415,52.3697 L 5.25594,52.1905 L 5.22063,52.0055
 L 5.2088,51.8175 L 5.22063,51.6295 L 5.25594,51.4445 L 5.31415,51.2653 L 5.39435,51.0949 L 5.49529,50.9358
 L 5.61536,50.7907 L 5.75267,50.6617 L 5.90506,50.551 L 6.07014,50.4603 L 6.24529,50.3909 L 6.42773,50.3441
 L 6.61462,50.3205 L 6.80299,50.3205 L 6.98988,50.3441 L 7.17233,50.3909 L 7.34747,50.4603 L 7.51254,50.551
 L 7.66495,50.6617 L 7.80226,50.7907 L 7.92233,50.9358 L 8.02327,51.0949 L 8.10347,51.2653 L 8.16168,51.4445
 L 8.19698,51.6295 L 8.2088,51.8175 L 8.19698,52.0055 L 8.16168,52.1905 L 8.10347,52.3697 L 8.02327,52.5401
 L 7.92233,52.6992 L 7.80226,52.8443 L 7.66495,52.9733 L 7.51254,53.084 L 7.34747,53.1747 L 7.17233,53.2441
 L 6.98988,53.2909 L 6.80299,53.3145 z
M -4.1266,53.5912 L -4.31348,53.5676 L -4.49594,53.5208 L -4.67108,53.4514 L -4.83615,53.3607 L -4.98854,53.2499
 L -5.12587,53.121 L -5.24594,52.9758 L -5.34686,52.8168 L -5.42708,52.6463 L -5.48529,52.4672 L -5.52058,52.2822
 L -5.53241,52.0942 L -5.52058,51.9062 L -5.48529,51.7211 L -5.42708,51.542 L -5.34686,51.3715 L -5.24594,51.2125
 L -5.12587,51.0673 L -4.98854,50.9384 L -4.83615,50.8277 L -4.67108,50.7369 L -4.49594,50.6676 L -4.31348,50.6207
 L -4.1266,50.5971 L -3.93822,50.5971 L -3.75134,50.6207 L -3.56888,50.6676 L -3.39374,50.7369 L -3.22867,50.8277
 L -3.07628,50.9384 L -2.93896,51.0673 L -2.81888,51.2125 L -2.71796,51.3715 L -2.63774,51.542 L -2.57953,51.7211
 L -2.54424,51.9062 L -2.53241,52.0942 L -2.54424,52.2822 L -2.57953,52.4672 L -2.63774,52.6463 L -2.71796,52.8168
 L -2.81888,52.9758 L -2.93896,53.121 L -3.07628,53.2499 L -3.22867,53.3607 L -3.39374,53.4514 L -3.56888,53.5208
 L -3.75134,53.5676 L -3.93822,53.5912 z
M 1.25113,53.7297 L 1.06425,53.7061 L 0.88179,53.6593 L 0.70665,53.5899 L 0.54158,53.4992 L 0.389191,53.3884
 L 0.251862,53.2595 L 0.13179,53.1143 L 0.0308533,52.9553 L -0.0493317,52.7849 L -0.107544,52.6057 L -0.142838,52.4207
 L -0.154663,52.2327 L -0.142838,52.0447 L -0.107544,51.8596 L -0.0493317,51.6805 L 0.0308533,51.51 L 0.13179,51.351
 L 0.251862,51.2059 L 0.389191,51.0769 L 0.54158,50.9662 L 0.70665,50.8754 L 0.88179,50.8061 L 1.06425,50.7592
 L 1.25113,50.7356 L 1.43951,50.7356 L 1.62639,50.7592 L 1.80885,50.8061 L 1.98399,50.8754 L 2.14906,50.9662
 L 2.30145,51.0769 L 2.43877,51.2059 L 2.55885,51.351 L 2.65977,51.51 L 2.73999,51.6805 L 2.7982,51.8596
 L 2.8335,52.0447 L 2.84532,52.2327 L 2.8335,52.4207 L 2.7982,52.6057 L 2.73999,52.7849 L 2.65977,52.9553
 L 2.55885,53.1143 L 2.43877,53.2595 L 2.30145,53.3884 L 2.14906,53.4992 L 1.98399,53.5899 L 1.80885,53.6593
 L 1.62639,53.7061 L 1.43951,53.7297 z
M -0.18837,62.9941 L -0.562134,62.9469 L -0.927048,62.8532 L -1.27733,62.7145 L -1.60747,62.533 L -1.91226,62.3115
 L -2.1869,62.0536 L -2.42705,61.7634 L -2.62891,61.4453 L -2.78932,61.1044 L -2.90575,60.7461 L -2.97633,60.376
 L -3,60 L -2.97633,59.624 L -2.90575,59.2539 L -2.78932,58.8956 L -2.62891,58.5547 L -2.42705,58.2366
 L -2.1869,57.9464 L -1.91226,57.6885 L -1.60747,57.467 L -1.27733,57.2855 L -0.927048,57.1468 L -0.562134,57.0531
 L -0.18837,57.0059 L 0.18837,57.0059 L 0.562134,57.0531 L 0.927048,57.1468 L 1.27733,57.2855 L 1.60747,57.467
 L 1.91226,57.6885 L 2.1869,57.9464 L 2.42705,58.2366 L 2.62891,58.5547 L 2.78932,58.8956 L 2.90575,59.2539
 L 2.97633,59.624 L 3,60 L 2.97633,60.376 L 2.90575,60.7461 L 2.78932,61.1044 L 2.62891,61.4453
 L 2.42705,61.7634 L 2.1869,62.0536 L 1.91226,62.3115 L 1.60747,62.533 L 1.27733,62.7145 L 0.927048,62.8532
 L 0.562134,62.9469 L 0.18837,62.9941 z
" stroke="black" fill="lightgray" stroke-width="0.5"/>
</svg>
