<?xml version="1.0" standalone="no"?>
<!DOCTYPE svg PUBLIC "-//W3C//DTD SVG 1.1//EN" "http://www.w3.org/Graphics/SVG/1.1/DTD/svg11.dtd">
<svg width="76mm" height="26mm" viewBox="-13 -13 76 26" xmlns="http://www.w3.org/2000/svg" version="1.1">
<title>OpenSCAD Model</title>
<path d="
M 2.34225,12.2786 L 3.8627,11.8882 L 5.32224,11.3103 L 6.69783,10.5541 L 7.96779,9.63141 L 9.11211,8.55682
 L 10.1127,7.34731 L 10.9538,6.02191 L 11.6222,4.60155 L 12.1073,3.10861 L 12.4014,1.56665 L 12.5,-0
 L 12.4014,-1.56665 L 12.1073,-3.10861 L 11.6222,-4.60155 L 10.9538,-6.02191 L 10.1127,-7.34731 L 9.11211,-8.55682
 L 7.96779,-9.63141 L 6.69783,-10.5541 L 5.32224,-11.3103 L 3.8627,-11.8882 L 2.34225,-12.2786 L 0.784866,-12.4753
 L -0.784866,-12.4753 L -2.34225,-12.2786 L -3.8627,-11.8882 L -5.32224,-11.3103 L -6.69783,-10.5541 L -7.96779,-9.63141
 L -9.11211,-8.55682 L -10.1127,-7.34731 L -10.9538,-6.02191 L -11.6222,-4.60155 L -12.1073,-3.10861 L -12.4014,-1.56665
 L -12.5,-0 L -12.4014,1.56665 L -12.1073,3.10861 L -11.6222,4.60155 L -10.9538,6.02191 L -10.1127,7.34731
 L -9.11211,8.55682 L -7.96779,9.63141 L -6.69783,10.5541 L -5.32224,11.3103 L -3.8627,11.8882 L -2.34225,12.2786
 L -0.784866,12.4753 L 0.784866,12.4753 z
M -1.58675,-4.75168 L -3.17349,-7.5 L -1.58675,-10.2483 L 1.58675,-10.2483 L 3.17349,-7.5 L 1.58675,-4.75168
 z
M -5.39717,-3.80595 L -5.58406,-3.82956 L -5.76653,-3.8764 L -5.94167,-3.94576 L -6.10674,-4.0365 L -6.25912,-4.14722
 L -6.39644,-4.27617 L -6.51653,-4.42131 L -6.61745,-4.58037 L -6.69766,-4.75081 L -6.75587,-4.92996 L -6.79117,-5.11499
 L -6.80299,-5.30299 L -6.79117,-5.491 L -6.75587,-5.67603 L -6.69766,-5.85518 L -6.61745,-6.02562 L -6.51653,-6.18468
 L -6.39644,-6.32982 L -6.25912,-6.45876 L -6.10674,-6.56949 L -5.94167,-6.66023 L -5.76653,-6.72958 L -5.58406,-6.77643
 L -5.39717,-6.80003 L -5.2088,-6.80003 L -5.02193,-6.77643 L -4.83946,-6.72958 L -4.66432,-6.66023 L -4.49925,-6.56949
 L -4.34686,-6.45876 L -4.20953,-6.32982 L -4.08946,-6.18468 L -3.98853,-6.02562 L -3.90833,-5.85518 L -3.85011,-5.67603
 L -3.81482,-5.491 L -3.80299,-5.30299 L -3.81482,-5.11499 L -3.85011,-4.92996 L -3.90833,-4.75081 L -3.98853,-4.58037
 L -4.08946,-4.42131 L -4.20953,-4.27617 L -4.34686,-4.14722 L -4.49925,-4.0365 L -4.66432,-3.94576 L -4.83946,-3.8764
 L -5.02193,-3.82956 L -5.2088,-3.80595 z
M 5.2088,-3.80595 L 5.02193,-3.82956 L 4.83946,-3.8764 L 4.66432,-3.94576 L 4.49925,-4.0365 L 4.34686,-4.14722
 L 4.20953,-4.27617 L 4.08946,-4.42131 L 3.98853,-4.58037 L 3.90833,-4.75081 L 3.85011,-4.92996 L 3.81482,-5.11499
 L 3.80299,-5.30299 L 3.81482,-5.491 L 3.85011,-5.67603 L 3.90833,-5.85518 L 3.98853,-6.02562 L 4.08946,-6.18468
 L 4.20953,-6.32982 L 4.34686,-6.45876 L 4.49925,-6.56949 L 4.66432,-6.66023 L 4.83946,-6.72958 L 5.02193,-6.77643
 L 5.2088,-6.80003 L 5.39717,-6.80003 L 5.58406,-6.77643 L 5.76653,-6.72958 L 5.94167,-6.66023 L 6.10674,-6.56949
 L 6.25912,-6.45876 L 6.39644,-6.32982 L 6.51653,-6.18468 L 6.61745,-6.02562 L 6.69766,-5.85518 L 6.75587,-5.67603
 L 6.79117,-5.491 L 6.80299,-5.30299 L 6.79117,-5.11499 L 6.75587,-4.92996 L 6.69766,-4.75081 L 6.61745,-4.58037
 L 6.51653,-4.42131 L 6.39644,-4.27617 L 6.25912,-4.14722 L 6.10674,-4.0365 L 5.94167,-3.94576 L 5.76653,-3.8764
 L 5.58406,-3.82956 L 5.39717,-3.80595 z
M -0.18837,2.99408 L -0.562134,2.94685 L -0.927048,2.85316 L -1.27733,2.71448 L -1.60747,2.53297 L -1.91226,2.31154
 L -2.1869,2.05363 L -2.42705,1.76335 L -2.62891,1.44525 L -2.78932,1.10437 L -2.90575,0.746063 L -2.97633,0.375992
 L -3,-0 L -2.97633,-0.375992 L -2.90575,-0.746063 L -2.78932,-1.10437 L -2.62891,-1.44525 L -2.42705,-1.76335
 L -2.1869,-2.05363 L -1.91226,-2.31154 L -1.60747,-2.53297 L -1.27733,-2.71448 L -0.927048,-2.85316 L -0.562134,-2.94685
 L -0.18837,-2.99408 L 0.18837,-2.99408 L 0.562134,-2.94685 L 0.927048,-2.85316 L 1.27733,-2.71448 L 1.60747,-2.53297
 L 1.91226,-2.31154 L 2.1869,-2.05363 L 2.42705,-1.76335 L 2.62891,-1.44525 L 2.78932,-1.10437 L 2.90575,-0.746063
 L 2.97633,-0.375992 L 3,-0 L 2.97633,0.375992 L 2.90575,0.746063 L 2.78932,1.10437 L 2.62891,1.44525
 L 2.42705,1.76335 L 2.1869,2.05363 L 1.91226,2.31154 L 1.60747,2.53297 L 1.27733,2.71448 L 0.927048,2.85316
 L 0.562134,2.94685 L 0.18837,2.99408 z
M 7.38696,1.79645 L 7.1627,1.76811 L 6.94376,1.7119 L 6.7336,1.62868 L 6.53551,1.51978 L 6.35263,1.38692
 L 6.18785,1.23218 L 6.04376,1.058 L 5.92264,0.867142 L 5.8264,0.662613 L 5.75655,0.447632 L 5.71419,0.225586
 L 5.7,-0 L 5.71419,-0.225586 L 5.75655,-0.447632 L 5.8264,-0.662613 L 5.92264,-0.867142 L 6.04376,-1.058
 L 6.18785,-1.23218 L 6.35263,-1.38692 L 6.53551,-1.51978 L 6.7336,-1.62868 L 6.94376,-1.7119 L 7.1627,-1.76811
 L 7.38696,-1.79645 L 7.61302,-1.79645 L 7.83728,-1.76811 L 8.05623,-1.7119 L 8.26639,-1.62868 L 8.46448,-1.51978
 L 8.64735,-1.38692 L 8.81213,-1.23218 L 8.95622,-1.058 L 9.07735,-0.867142 L 9.17358,-0.662613 L 9.24344,-0.447632
 L 9.2858,-0.225586 L 9.29999,-0 L 9.2858,0.225586 L 9.24344,0.447632 L 9.17358,0.662613 L 9.07735,0.867142
 L 8.95622,1.058 L 8.81213,1.23218 L 8.64735,1.38692 L 8.46448,1.51978 L 8.26639,1.62868 L 8.05623,1.7119
 L 7.83728,1.76811 L 7.61302,1.79645 z
M -7.61302,1.79645 L -7.83728,1.76811 L -8.05623,1.7119 L -8.26639,1.62868 L -8.46448,1.51978 L -8.64735,1.38692
 L -8.81213,1.23218 L -8.95622,1.058 L -9.07735,0.867142 L -9.17358,0.662613 L -9.24344,0.447632 L -9.2858,0.225586
 L -9.29999,-0 L -9.2858,-0.225586 L -9.24344,-0.447632 L -9.17358,-0.662613 L -9.07735,-0.867142 L -8.95622,-1.058
 L -8.81213,-1.23218 L -8.64735,-1.38692 L -8.46448,-1.51978 L -8.26639,-1.62868 L -8.05623,-1.7119 L -7.83728,-1.76811
 L -7.61302,-1.79645 L -7.38696,-1.79645 L -7.1627,-1.76811 L -6.94376,-1.7119 L -6.7336,-1.62868 L -6.53551,-1.51978
 L -6.35263,-1.38692 L -6.18785,-1.23218 L -6.04376,-1.058 L -5.92264,-0.867142 L -5.8264,-0.662613 L -5.75655,-0.447632
 L -5.71419,-0.225586 L -5.7,-0 L -5.71419,0.225586 L -5.75655,0.447632 L -5.8264,0.662613 L -5.92264,0.867142
 L -6.04376,1.058 L -6.18785,1.23218 L -6.35263,1.38692 L -6.53551,1.51978 L -6.7336,1.62868 L -6.94376,1.7119
 L -7.1627,1.76811 L -7.38696,1.79645 z
M -5.39717,6.80003 L -5.58406,6.77643 L -5.76653,6.72958 L -5.94167,6.66023 L -6.10674,6.56949 L -6.25912,6.45876
 L -6.39644,6.32982 L -6.51653,6.18468 L -6.61745,6.02562 L -6.69766,5.85518 L -6.75587,5.67603 L -6.79117,5.491
 L -6.80299,5.30299 L -6.79117,5.11499 L -6.75587,4.92996 L -6.69766,4.75081 L -6.61745,4.58037 L -6.51653,4.42131
 L -6.39644,4.27617 L -6.25912,4.14722 L -6.10674,4.0365 L -5.94167,3.94576 L -5.76653,3.8764 L -5.58406,3.82956
 L -5.39717,3.80595 L -5.2088,3.80595 L -5.02193,3.82956 L -4.83946,3.8764 L -4.66432,3.94576 L -4.49925,4.0365
 L -4.34686,4.14722 L -4.20953,4.27617 L -4.08946,4.42131 L -3.98853,4.58037 L -3.90833,4.75081 L -3.85011,4.92996
 L -3.81482,5.11499 L -3.80299,5.30299 L -3.81482,5.491 L -3.85011,5.67603 L -3.90833,5.85518 L -3.98853,6.02562
 L -4.08946,6.18468 L -4.20953,6.32982 L -4.34686,6.45876 L -4.49925,6.56949 L -4.66432,6.66023 L -4.83946,6.72958
 L -5.02193,6.77643 L -5.2088,6.80003 z
M 5.2088,6.80003 L 5.02193,6.77643 L 4.83946,6.72958 L 4.66432,6.66023 L 4.49925,6.56949 L 4.34686,6.45876
 L 4.20953,6.32982 L 4.08946,6.18468 L 3.98853,6.02562 L 3.90833,5.85518 L 3.85011,5.67603 L 3.81482,5.491
 L 3.80299,5.30299 L 3.81482,5.11499 L 3.85011,4.92996 L 3.90833,4.75081 L 3.98853,4.58037 L 4.08946,4.42131
 L 4.20953,4.27617 L 4.34686,4.14722 L 4.49925,4.0365 L 4.66432,3.94576 L 4.83946,3.8764 L 5.02193,3.82956
 L 5.2088,3.80595 L 5.39717,3.80595 L 5.58406,3.82956 L 5.76653,3.8764 L 5.94167,3.94576 L 6.10674,4.0365
 L 6.25912,4.14722 L 6.39644,4.27617 L 6.51653,4.42131 L 6.61745,4.58037 L 6.69766,4.75081 L 6.75587,4.92996
 L 6.79117,5.11499 L 6.80299,5.30299 L 6.79117,5.491 L 6.75587,5.67603 L 6.69766,5.85518 L 6.61745,6.02562
 L 6.51653,6.18468 L 6.39644,6.32982 L 6.25912,6.45876 L 6.10674,6.56949 L 5.94167,6.66023 L 5.76653,6.72958
 L 5.58406,6.77643 L 5.39717,6.80003 z
M -1.58675,10.2483 L -3.17349,7.5 L -1.58675,4.75168 L 1.58675,4.75168 L 3.17349,7.5 L 1.58675,10.2483
 z
M 52.3423,12.2786 L 53.8627,11.8882 L 55.3222,11.3103 L 56.6978,10.5541 L 57.9678,9.63141 L 59.1121,8.55682
 L 60.1127,7.34731 L 60.9538,6.02191 L 61.6222,4.60155 L 62.1073,3.10861 L 62.4014,1.56665 L 62.5,-0
 L 62.4014,-1.56665 L 62.1073,-3.10861 L 61.6222,-4.60155 L 60.9538,-6.02191 L 60.1127,-7.34731 L 59.1121,-8.55682
 L 57.9678,-9.63141 L 56.6978,-10.5541 L 55.3222,-11.3103 L 53.8627,-11.8882 L 52.3423,-12.2786 L 50.7849,-12.4753
 L 49.2151,-12.4753 L 47.6577,-12.2786 L 46.1373,-11.8882 L 44.6777,-11.3103 L 43.3022,-10.5541 L 42.0322,-9.63141
 L 40.8879,-8.55682 L 39.8873,-7.34731 L 39.0462,-6.02191 L 38.3778,-4.60155 L 37.8927,-3.10861 L 37.5986,-1.56665
 L 37.5,-0 L 37.5986,1.56665 L 37.8927,3.10861 L 38.3778,4.60155 L 39.0462,6.02191 L 39.8873,7.34731
 L 40.8879,8.55682 L 42.0322,9.63141 L 43.3022,10.5541 L 44.6777,11.3103 L 46.1373,11.8882 L 47.6577,12.2786
 L 49.2151,12.4753 L 50.7849,12.4753 z
M 49.887,-5.70355 L 49.6627,-5.73187 L 49.4438,-5.78809 L 49.2336,-5.87131 L 49.0355,-5.98021 L 48.8526,-6.11307
 L 48.6879,-6.26781 L 48.5438,-6.44199 L 48.4226,-6.63284 L 48.3264,-6.83737 L 48.2565,-7.05235 L 48.2142,-7.2744
 L 48.2,-7.5 L 48.2142,-7.72559 L 48.2565,-7.94763 L 48.3264,-8.16261 L 48.4226,-8.36714 L 48.5438,-8.558
 L 48.6879,-8.73218 L 48.8526,-8.88692 L 49.0355,-9.01978 L 49.2336,-9.12868 L 49.4438,-9.2119 L 49.6627,-9.26811
 L 49.887,-9.29645 L 50.113,-9.29645 L 50.3373,-9.26811 L 50.5562,-9.2119 L 50.7664,-9.12868 L 50.9645,-9.01978
 L 51.1474,-8.88692 L 51.3121,-8.73218 L 51.4562,-8.558 L 51.5773,-8.36714 L 51.6736,-8.16261 L 51.7434,-7.94763
 L 51.7858,-7.72559 L 51.8,-7.5 L 51.7858,-7.2744 L 51.7434,-7.05235 L 51.6736,-6.83737 L 51.5773,-6.63284
 L 51.4562,-6.44199 L 51.3121,-6.26781 L 51.1474,-6.11307 L 50.9645,-5.98021 L 50.7664,-5.87131 L 50.5562,-5.78809
 L 50.3373,-5.73187 L 50.113,-5.70355 z
M 44.6028,-3.80595 L 44.4159,-3.82956 L 44.2335,-3.8764 L 44.0583,-3.94576 L 43.8932,-4.0365 L 43.7409,-4.14722
 L 43.6035,-4.27617 L 43.4835,-4.42131 L 43.3825,-4.58037 L 43.3023,-4.75081 L 43.2441,-4.92996 L 43.2088,-5.11499
 L 43.197,-5.30299 L 43.2088,-5.491 L 43.2441,-5.67603 L 43.3023,-5.85518 L 43.3825,-6.02562 L 43.4835,-6.18468
 L 43.6035,-6.32982 L 43.7409,-6.45876 L 43.8932,-6.56949 L 44.0583,-6.66023 L 44.2335,-6.72958 L 44.4159,-6.77643
 L 44.6028,-6.80003 L 44.7912,-6.80003 L 44.9781,-6.77643 L 45.1605,-6.72958 L 45.3357,-6.66023 L 45.5007,-6.56949
 L 45.6531,-6.45876 L 45.7905,-6.32982 L 45.9105,-6.18468 L 46.0115,-6.02562 L 46.0917,-5.85518 L 46.1499,-5.67603
 L 46.1852,-5.491 L 46.197,-5.30299 L 46.1852,-5.11499 L 46.1499,-4.92996 L 46.0917,-4.75081 L 46.0115,-4.58037
 L 45.9105,-4.42131 L 45.7905,-4.27617 L 45.6531,-4.14722 L 45.5007,-4.0365 L 45.3357,-3.94576 L 45.1605,-3.8764
 L 44.9781,-3.82956 L 44.7912,-3.80595 z
M 55.2088,-3.80595 L 55.0219,-3.82956 L 54.8395,-3.8764 L 54.6643,-3.94576 L 54.4993,-4.0365 L 54.3469,-4.14722
 L 54.2095,-4.27617 L 54.0895,-4.42131 L 53.9885,-4.58037 L 53.9083,-4.75081 L 53.8501,-4.92996 L 53.8148,-5.11499
 L 53.803,-5.30299 L 53.8148,-5.491 L 53.8501,-5.67603 L 53.9083,-5.85518 L 53.9885,-6.02562 L 54.0895,-6.18468
 L 54.2095,-6.32982 L 54.3469,-6.45876 L 54.4993,-6.56949 L 54.6643,-6.66023 L 54.8395,-6.72958 L 55.0219,-6.77643
 L 55.2088,-6.80003 L 55.3972,-6.80003 L 55.5841,-6.77643 L 55.7665,-6.72958 L 55.9417,-6.66023 L 56.1067,-6.56949
 L 56.2591,-6.45876 L 56.3965,-6.32982 L 56.5165,-6.18468 L 56.6174,-6.02562 L 56.6977,-5.85518 L 56.7559,-5.67603
 L 56.7912,-5.491 L 56.803,-5.30299 L 56.7912,-5.11499 L 56.7559,-4.92996 L 56.6977,-4.75081 L 56.6174,-4.58037
 L 56.5165,-4.42131 L 56.3965,-4.27617 L 56.2591,-4.14722 L 56.1067,-4.0365 L 55.9417,-3.94576 L 55.7665,-3.8764
 L 55.5841,-3.82956 L 55.3972,-3.80595 z
M 49.8116,2.99408 L 49.4379,2.94685 L 49.0729,2.85316 L 48.7227,2.71448 L 48.3925,2.53297 L 48.0877,2.31154
 L 47.8131,2.05363 L 47.5729,1.76335 L 47.3711,1.44525 L 47.2107,1.10437 L 47.0942,0.746063 L 47.0237,0.375992
 L 47,-0 L 47.0237,-0.375992 L 47.0942,-0.746063 L 47.2107,-1.10437 L 47.3711,-1.44525 L 47.5729,-1.76335
 L 47.8131,-2.05363 L 48.0877,-2.31154 L 48.3925,-2.53297 L 48.7227,-2.71448 L 49.0729,-2.85316 L 49.4379,-2.94685
 L 49.8116,-2.99408 L 50.1884,-2.99408 L 50.5621,-2.94685 L 50.927,-2.85316 L 51.2773,-2.71448 L 51.6075,-2.53297
 L 51.9123,-2.31154 L 52.1869,-2.05363 L 52.427,-1.76335 L 52.6289,-1.44525 L 52.7893,-1.10437 L 52.9057,-0.746063
 L 52.9763,-0.375992 L 53,-0 L 52.9763,0.375992 L 52.9057,0.746063 L 52.7893,1.10437 L 52.6289,1.44525
 L 52.427,1.76335 L 52.1869,2.05363 L 51.9123,2.31154 L 51.6075,2.53297 L 51.2773,2.71448 L 50.927,2.85316
 L 50.5621,2.94685 L 50.1884,2.99408 z
M 55.9133,2.74832 L 54.3265,-0 L 55.9133,-2.74832 L 59.0867,-2.74832 L 60.6735,-0 L 59.0867,2.74832
 z
M 40.9133,2.74832 L 39.3265,-0 L 40.9133,-2.74832 L 44.0867,-2.74832 L 45.6735,-0 L 44.0867,2.74832
 z
M 55.2088,6.80003 L 55.0219,6.77643 L 54.8395,6.72958 L 54.6643,6.66023 L 54.4993,6.56949 L 54.3469,6.45876
 L 54.2095,6.32982 L 54.0895,6.18468 L 53.9885,6.02562 L 53.9083,5.85518 L 53.8501,5.67603 L 53.8148,5.491
 L 53.803,5.30299 L 53.8148,5.11499 L 53.8501,4.92996 L 53.9083,4.75081 L 53.9885,4.58037 L 54.0895,4.42131
 L 54.2095,4.27617 L 54.3469,4.14722 L 54.4993,4.0365 L 54.6643,3.94576 L 54.8395,3.8764 L 55.0219,3.82956
 L 55.2088,3.80595 L 55.3972,3.80595 L 55.5841,3.82956 L 55.7665,3.8764 L 55.9417,3.94576 L 56.1067,4.0365
 L 56.2591,4.14722 L 56.3965,4.27617 L 56.5165,4.42131 L 56.6174,4.58037 L 56.6977,4.75081 L 56.7559,4.92996
 L 56.7912,5.11499 L 56.803,5.30299 L 56.7912,5.491 L 56.7559,5.67603 L 56.6977,5.85518 L 56.6174,6.02562
 L 56.5165,6.18468 L 56.3965,6.32982 L 56.2591,6.45876 L 56.1067,6.56949 L 55.9417,6.66023 L 55.7665,6.72958
 L 55.5841,6.77643 L 55.3972,6.80003 z
M 44.6028,6.80003 L 44.4159,6.77643 L 44.2335,6.72958 L 44.0583,6.66023 L 43.8932,6.56949 L 43.7409,6.45876
 L 43.6035,6.32982 L 43.4835,6.18468 L 43.3825,6.02562 L 43.3023,5.85518 L 43.2441,5.67603 L 43.2088,5.491
 L 43.197,5.30299 L 43.2088,5.11499 L 43.2441,4.92996 L 43.3023,4.75081 L 43.3825,4.58037 L 43.4835,4.42131
 L 43.6035,4.27617 L 43.7409,4.14722 L 43.8932,4.0365 L 44.0583,3.94576 L 44.2335,3.8764 L 44.4159,3.82956
 L 44.6028,3.80595 L 44.7912,3.80595 L 44.9781,3.82956 L 45.1605,3.8764 L 45.3357,3.94576 L 45.5007,4.0365
 L 45.6531,4.14722 L 45.7905,4.27617 L 45.9105,4.42131 L 46.0115,4.58037 L 46.0917,4.75081 L 46.1499,4.92996
 L 46.1852,5.11499 L 46.197,5.30299 L 46.1852,5.491 L 46.1499,5.67603 L 46.0917,5.85518 L 46.0115,6.02562
 L 45.9105,6.18468 L 45.7905,6.32982 L 45.6531,6.45876 L 45.5007,6.56949 L 45.3357,6.66023 L 45.1605,6.72958
 L 44.9781,6.77643 L 44.7912,6.80003 z
M 49.887,9.29645 L 49.6627,9.26811 L 49.4438,9.2119 L 49.2336,9.12868 L 49.0355,9.01978 L 48.8526,8.88692
 L 48.6879,8.73218 L 48.5438,8.558 L 48.4226,8.36714 L 48.3264,8.16261 L 48.2565,7.94763 L 48.2142,7.72559
 L 48.2,7.5 L 48.2142,7.2744 L 48.2565,7.05235 L 48.3264,6.83737 L 48.4226,6.63284 L 48.5438,6.44199
 L 48.6879,6.26781 L 48.8526,6.11307 L 49.0355,5.98021 L 49.2336,5.87131 L 49.4438,5.78809 L 49.6627,5.73187
 L 49.887,5.70355 L 50.113,5.70355 L 50.3373,5.73187 L 50.5562,5.78809 L 50.7664,5.87131 L 50.9645,5.98021
 L 51.1474,6.11307 L 51.3121,6.26781 L 51.4562,6.44199 L 51.5773,6.63284 L 51.6736,6.83737 L 51.7434,7.05235
 L 51.7858,7.2744 L 51.8,7.5 L 51.7858,7.72559 L 51.7434,7.94763 L 51.6736,8.16261 L 51.5773,8.36714
 L 51.4562,8.558 L 51.3121,8.73218 L 51.1474,8.88692 L 50.9645,9.01978 L 50.7664,9.12868 L 50.5562,9.2119
 L 50.3373,9.26811 L 50.113,9.29645 z
" stroke="black" fill="lightgray" stroke-width="0.5"/>
</svg>
