<?xml version="1.0" standalone="no"?>
<!DOCTYPE svg PUBLIC "-//W3C//DTD SVG 1.1//EN" "http://www.w3.org/Graphics/SVG/1.1/DTD/svg11.dtd">
<svg width="150mm" height="50mm" viewBox="-25 -25 150 50" xmlns="http://www.w3.org/2000/svg" version="1.1">
<title>OpenSCAD Model</title>
<path d="
M 104.685,24.5572 L 107.725,23.7764 L 110.644,22.6207 L 113.396,21.1082 L 115.936,19.2628 L 118.224,17.1137
 L 120.225,14.6946 L 121.908,12.0438 L 123.244,9.20311 L 124.215,6.21724 L 124.803,3.13332 L 125,-0
 L 124.803,-3.13332 L 124.215,-6.21724 L 123.244,-9.20311 L 121.908,-12.0438 L 120.225,-14.6946 L 118.224,-17.1137
 L 115.936,-19.2628 L 113.396,-21.1082 L 110.644,-22.6207 L 107.725,-23.7764 L 104.685,-24.5572 L 101.57,-24.9507
 L 98.4302,-24.9507 L 95.3155,-24.5572 L 92.2746,-23.7764 L 89.3555,-22.6207 L 86.6043,-21.1082 L 84.0644,-19.2628
 L 81.7758,-17.1137 L 79.7746,-14.6946 L 78.0923,-12.0438 L 76.7556,-9.20311 L 75.7854,-6.21724 L 75.1971,-3.13332
 L 75,-0 L 75.1971,3.13332 L 75.7854,6.21724 L 76.7556,9.20311 L 78.0923,12.0438 L 79.7746,14.6946
 L 81.7758,17.1137 L 84.0644,19.2628 L 86.6043,21.1082 L 89.3555,22.6207 L 92.2746,23.7764 L 95.3155,24.5572
 L 98.4302,24.9507 L 101.57,24.9507 z
M 99.887,-18.2036 L 99.6627,-18.2319 L 99.4438,-18.2881 L 99.2336,-18.3713 L 99.0355,-18.4802 L 98.8526,-18.6131
 L 98.6879,-18.7678 L 98.5438,-18.942 L 98.4226,-19.1328 L 98.3264,-19.3374 L 98.2565,-19.5524 L 98.2142,-19.7744
 L 98.2,-20 L 98.2142,-20.2256 L 98.2565,-20.4476 L 98.3264,-20.6626 L 98.4226,-20.8672 L 98.5438,-21.058
 L 98.6879,-21.2322 L 98.8526,-21.3869 L 99.0355,-21.5198 L 99.2336,-21.6287 L 99.4438,-21.7119 L 99.6627,-21.7681
 L 99.887,-21.7964 L 100.113,-21.7964 L 100.337,-21.7681 L 100.556,-21.7119 L 100.766,-21.6287 L 100.964,-21.5198
 L 101.147,-21.3869 L 101.312,-21.2322 L 101.456,-21.058 L 101.577,-20.8672 L 101.674,-20.6626 L 101.743,-20.4476
 L 101.786,-20.2256 L 101.8,-20 L 101.786,-19.7744 L 101.743,-19.5524 L 101.674,-19.3374 L 101.577,-19.1328
 L 101.456,-18.942 L 101.312,-18.7678 L 101.147,-18.6131 L 100.964,-18.4802 L 100.766,-18.3713 L 100.556,-18.2881
 L 100.337,-18.2319 L 100.113,-18.2036 z
M 98.9953,15.9684 L 97.0019,15.7166 L 95.0557,15.2169 L 93.1875,14.4772 L 91.4268,13.5092 L 89.8012,12.3282
 L 88.3365,10.9527 L 87.0557,9.40456 L 85.9791,7.70805 L 85.1236,5.88998 L 84.5027,3.97903 L 84.1262,2.00533
 L 84,-0 L 84.1262,-2.00533 L 84.5027,-3.97903 L 85.1236,-5.88998 L 85.9791,-7.70805 L 87.0557,-9.40456
 L 88.3365,-10.9527 L 89.8012,-12.3282 L 91.4268,-13.5092 L 93.1875,-14.4772 L 95.0557,-15.2169 L 97.0019,-15.7166
 L 98.9953,-15.9684 L 101.005,-15.9684 L 102.998,-15.7166 L 104.944,-15.2169 L 106.812,-14.4772 L 108.573,-13.5092
 L 110.199,-12.3282 L 111.663,-10.9527 L 112.944,-9.40456 L 114.021,-7.70805 L 114.876,-5.88998 L 115.497,-3.97903
 L 115.874,-2.00533 L 116,-0 L 115.874,2.00533 L 115.497,3.97903 L 114.876,5.88998 L 114.021,7.70805
 L 112.944,9.40456 L 111.663,10.9527 L 110.199,12.3282 L 108.573,13.5092 L 106.812,14.4772 L 104.944,15.2169
 L 102.998,15.7166 L 101.005,15.9684 z
M 102.342,12.2786 L 103.863,11.8882 L 105.322,11.3103 L 106.698,10.5541 L 107.968,9.63141 L 109.112,8.55682
 L 110.113,7.34731 L 110.954,6.02191 L 111.622,4.60155 L 112.107,3.10861 L 112.401,1.56665 L 112.5,-0
 L 112.401,-1.56665 L 112.107,-3.10861 L 111.622,-4.60155 L 110.954,-6.02191 L 110.113,-7.34731 L 109.112,-8.55682
 L 107.968,-9.63141 L 106.698,-10.5541 L 105.322,-11.3103 L 103.863,-11.8882 L 102.342,-12.2786 L 100.785,-12.4753
 L 99.2151,-12.4753 L 97.6577,-12.2786 L 96.1373,-11.8882 L 94.6777,-11.3103 L 93.3022,-10.5541 L 92.0322,-9.63141
 L 90.8879,-8.55682 L 89.8873,-7.34731 L 89.0462,-6.02191 L 88.3778,-4.60155 L 87.8927,-3.10861 L 87.5986,-1.56665
 L 87.5,-0 L 87.5986,1.56665 L 87.8927,3.10861 L 88.3778,4.60155 L 89.0462,6.02191 L 89.8873,7.34731
 L 90.8879,8.55682 L 92.0322,9.63141 L 93.3022,10.5541 L 94.6777,11.3103 L 96.1373,11.8882 L 97.6577,12.2786
 L 99.2151,12.4753 L 100.785,12.4753 z
M 79.887,1.79645 L 79.6627,1.76811 L 79.4438,1.7119 L 79.2336,1.62868 L 79.0355,1.51978 L 78.8526,1.38692
 L 78.6879,1.23218 L 78.5438,1.058 L 78.4226,0.867142 L 78.3264,0.662613 L 78.2565,0.447632 L 78.2142,0.225586
 L 78.2,-0 L 78.2142,-0.225586 L 78.2565,-0.447632 L 78.3264,-0.662613 L 78.4226,-0.867142 L 78.5438,-1.058
 L 78.6879,-1.23218 L 78.8526,-1.38692 L 79.0355,-1.51978 L 79.2336,-1.62868 L 79.4438,-1.7119 L 79.6627,-1.76811
 L 79.887,-1.79645 L 80.113,-1.79645 L 80.3373,-1.76811 L 80.5562,-1.7119 L 80.7664,-1.62868 L 80.9645,-1.51978
 L 81.1474,-1.38692 L 81.3121,-1.23218 L 81.4562,-1.058 L 81.5773,-0.867142 L 81.6736,-0.662613 L 81.7434,-0.447632
 L 81.7858,-0.225586 L 81.8,-0 L 81.7858,0.225586 L 81.7434,0.447632 L 81.6736,0.662613 L 81.5773,0.867142
 L 81.4562,1.058 L 81.3121,1.23218 L 81.1474,1.38692 L 80.9645,1.51978 L 80.7664,1.62868 L 80.5562,1.7119
 L 80.3373,1.76811 L 80.113,1.79645 z
M 119.887,1.79645 L 119.663,1.76811 L 119.444,1.7119 L 119.234,1.62868 L 119.036,1.51978 L 118.853,1.38692
 L 118.688,1.23218 L 118.544,1.058 L 118.423,0.867142 L 118.326,0.662613 L 118.257,0.447632 L 118.214,0.225586
 L 118.2,-0 L 118.214,-0.225586 L 118.257,-0.447632 L 118.326,-0.662613 L 118.423,-0.867142 L 118.544,-1.058
 L 118.688,-1.23218 L 118.853,-1.38692 L 119.036,-1.51978 L 119.234,-1.62868 L 119.444,-1.7119 L 119.663,-1.76811
 L 119.887,-1.79645 L 120.113,-1.79645 L 120.337,-1.76811 L 120.556,-1.7119 L 120.766,-1.62868 L 120.964,-1.51978
 L 121.147,-1.38692 L 121.312,-1.23218 L 121.456,-1.058 L 121.577,-0.867142 L 121.674,-0.662613 L 121.743,-0.447632
 L 121.786,-0.225586 L 121.8,-0 L 121.786,0.225586 L 121.743,0.447632 L 121.674,0.662613 L 121.577,0.867142
 L 121.456,1.058 L 121.312,1.23218 L 121.147,1.38692 L 120.964,1.51978 L 120.766,1.62868 L 120.556,1.7119
 L 120.337,1.76811 L 120.113,1.79645 z
M 99.887,21.7964 L 99.6627,21.7681 L 99.4438,21.7119 L 99.2336,21.6287 L 99.0355,21.5198 L 98.8526,21.3869
 L 98.6879,21.2322 L 98.5438,21.058 L 98.4226,20.8672 L 98.3264,20.6626 L 98.2565,20.4476 L 98.2142,20.2256
 L 98.2,20 L 98.2142,19.7744 L 98.2565,19.5524 L 98.3264,19.3374 L 98.4226,19.1328 L 98.5438,18.942
 L 98.6879,18.7678 L 98.8526,18.6131 L 99.0355,18.4802 L 99.2336,18.3713 L 99.4438,18.2881 L 99.6627,18.2319
 L 99.887,18.2036 L 100.113,18.2036 L 100.337,18.2319 L 100.556,18.2881 L 100.766,18.3713 L 100.964,18.4802
 L 101.147,18.6131 L 101.312,18.7678 L 101.456,18.942 L 101.577,19.1328 L 101.674,19.3374 L 101.743,19.5524
 L 101.786,19.7744 L 101.8,20 L 101.786,20.2256 L 101.743,20.4476 L 101.674,20.6626 L 101.577,20.8672
 L 101.456,21.058 L 101.312,21.2322 L 101.147,21.3869 L 100.964,21.5198 L 100.766,21.6287 L 100.556,21.7119
 L 100.337,21.7681 L 100.113,21.7964 z
M 4.68452,24.5572 L 7.72542,23.7764 L 10.6445,22.6207 L 13.3957,21.1082 L 15.9356,19.2628 L 18.2242,17.1137
 L 20.2254,14.6946 L 21.9077,12.0438 L 23.2444,9.20311 L 24.2146,6.21724 L 24.8029,3.13332 L 25,-0
 L 24.8029,-3.13332 L 24.2146,-6.21724 L 23.2444,-9.20311 L 21.9077,-12.0438 L 20.2254,-14.6946 L 18.2242,-17.1137
 L 15.9356,-19.2628 L 13.3957,-21.1082 L 10.6445,-22.6207 L 7.72542,-23.7764 L 4.68452,-24.5572 L 1.56975,-24.9507
 L -1.56975,-24.9507 L -4.68452,-24.5572 L -7.72542,-23.7764 L -10.6445,-22.6207 L -13.3957,-21.1082 L -15.9356,-19.2628
 L -18.2242,-17.1137 L -20.2254,-14.6946 L -21.9077,-12.0438 L -23.2444,-9.20311 L -24.2146,-6.21724 L -24.8029,-3.13332
 L -25,-0 L -24.8029,3.13332 L -24.2146,6.21724 L -23.2444,9.20311 L -21.9077,12.0438 L -20.2254,14.6946
 L -18.2242,17.1137 L -15.9356,19.2628 L -13.3957,21.1082 L -10.6445,22.6207 L -7.72542,23.7764 L -4.68452,24.5572
 L -1.56975,24.9507 L 1.56975,24.9507 z
M -0.113022,-18.2036 L -0.33728,-18.2319 L -0.556229,-18.2881 L -0.766388,-18.3713 L -0.964478,-18.4802 L -1.14735,-18.6131
 L -1.31213,-18.7678 L -1.45622,-18.942 L -1.57735,-19.1328 L -1.67358,-19.3374 L -1.74344,-19.5524 L -1.7858,-19.7744
 L -1.79999,-20 L -1.7858,-20.2256 L -1.74344,-20.4476 L -1.67358,-20.6626 L -1.57735,-20.8672 L -1.45622,-21.058
 L -1.31213,-21.2322 L -1.14735,-21.3869 L -0.964478,-21.5198 L -0.766388,-21.6287 L -0.556229,-21.7119 L -0.33728,-21.7681
 L -0.113022,-21.7964 L 0.113022,-21.7964 L 0.33728,-21.7681 L 0.556229,-21.7119 L 0.766388,-21.6287 L 0.964478,-21.5198
 L 1.14735,-21.3869 L 1.31213,-21.2322 L 1.45622,-21.058 L 1.57735,-20.8672 L 1.67358,-20.6626 L 1.74344,-20.4476
 L 1.7858,-20.2256 L 1.79999,-20 L 1.7858,-19.7744 L 1.74344,-19.5524 L 1.67358,-19.3374 L 1.57735,-19.1328
 L 1.45622,-18.942 L 1.31213,-18.7678 L 1.14735,-18.6131 L 0.964478,-18.4802 L 0.766388,-18.3713 L 0.556229,-18.2881
 L 0.33728,-18.2319 L 0.113022,-18.2036 z
M -15.6502,-14.0589 L -15.8371,-14.0826 L -16.0195,-14.1294 L -16.1947,-14.1987 L -16.3597,-14.2895 L -16.5121,-14.4002
 L -16.6494,-14.5292 L -16.7695,-14.6743 L -16.8705,-14.8334 L -16.9507,-15.0038 L -17.0089,-15.183 L -17.0442,-15.368
 L -17.056,-15.556 L -17.0442,-15.744 L -17.0089,-15.929 L -16.9507,-16.1082 L -16.8705,-16.2786 L -16.7695,-16.4377
 L -16.6494,-16.5828 L -16.5121,-16.7118 L -16.3597,-16.8225 L -16.1947,-16.9132 L -16.0195,-16.9826 L -15.8371,-17.0294
 L -15.6502,-17.053 L -15.4618,-17.053 L -15.2749,-17.0294 L -15.0925,-16.9826 L -14.9173,-16.9132 L -14.7523,-16.8225
 L -14.5999,-16.7118 L -14.4625,-16.5828 L -14.3425,-16.4377 L -14.2415,-16.2786 L -14.1613,-16.1082 L -14.1031,-15.929
 L -14.0678,-15.744 L -14.056,-15.556 L -14.0678,-15.368 L -14.1031,-15.183 L -14.1613,-15.0038 L -14.2415,-14.8334
 L -14.3425,-14.6743 L -14.4625,-14.5292 L -14.5999,-14.4002 L -14.7523,-14.2895 L -14.9173,-14.1987 L -15.0925,-14.1294
 L -15.2749,-14.0826 L -15.4618,-14.0589 z
M 15.4618,-14.0589 L 15.2749,-14.0826 L 15.0925,-14.1294 L 14.9173,-14.1987 L 14.7523,-14.2895 L 14.5999,-14.4002
 L 14.4625,-14.5292 L 14.3425,-14.6743 L 14.2415,-14.8334 L 14.1613,-15.0038 L 14.1031,-15.183 L 14.0678,-15.368
 L 14.056,-15.556 L 14.0678,-15.744 L 14.1031,-15.929 L 14.1613,-16.1082 L 14.2415,-16.2786 L 14.3425,-16.4377
 L 14.4625,-16.5828 L 14.5999,-16.7118 L 14.7523,-16.8225 L 14.9173,-16.9132 L 15.0925,-16.9826 L 15.2749,-17.0294
 L 15.4618,-17.053 L 15.6502,-17.053 L 15.8371,-17.0294 L 16.0195,-16.9826 L 16.1947,-16.9132 L 16.3597,-16.8225
 L 16.5121,-16.7118 L 16.6494,-16.5828 L 16.7695,-16.4377 L 16.8705,-16.2786 L 16.9507,-16.1082 L 17.0089,-15.929
 L 17.0442,-15.744 L 17.056,-15.556 L 17.0442,-15.368 L 17.0089,-15.183 L 16.9507,-15.0038 L 16.8705,-14.8334
 L 16.7695,-14.6743 L 16.6494,-14.5292 L 16.5121,-14.4002 L 16.3597,-14.2895 L 16.1947,-14.1987 L 16.0195,-14.1294
 L 15.8371,-14.0826 L 15.6502,-14.0589 z
M -1.00464,15.9684 L -2.99809,15.7166 L -4.94426,15.2169 L -6.81245,14.4772 L -8.57323,13.5092 L -10.1988,12.3282
 L -11.6635,10.9527 L -12.9443,9.40456 L -14.0209,7.70805 L -14.8764,5.88998 L -15.4973,3.97903 L -15.8738,2.00533
 L -16,-0 L -15.8738,-2.00533 L -15.4973,-3.97903 L -14.8764,-5.88998 L -14.0209,-7.70805 L -12.9443,-9.40456
 L -11.6635,-10.9527 L -10.1988,-12.3282 L -8.57323,-13.5092 L -6.81245,-14.4772 L -4.94426,-15.2169 L -2.99809,-15.7166
 L -1.00464,-15.9684 L 1.00464,-15.9684 L 2.99809,-15.7166 L 4.94426,-15.2169 L 6.81245,-14.4772 L 8.57323,-13.5092
 L 10.1988,-12.3282 L 11.6635,-10.9527 L 12.9443,-9.40456 L 14.0209,-7.70805 L 14.8764,-5.88998 L 15.4973,-3.97903
 L 15.8738,-2.00533 L 16,-0 L 15.8738,2.00533 L 15.4973,3.97903 L 14.8764,5.88998 L 14.0209,7.70805
 L 12.9443,9.40456 L 11.6635,10.9527 L 10.1988,12.3282 L 8.57323,13.5092 L 6.81245,14.4772 L 4.94426,15.2169
 L 2.99809,15.7166 L 1.00464,15.9684 z
M 2.34225,12.2786 L 3.8627,11.8882 L 5.32224,11.3103 L 6.69783,10.5541 L 7.96779,9.63141 L 9.11211,8.55682
 L 10.1127,7.34731 L 10.9538,6.02191 L 11.6222,4.60155 L 12.1073,3.10861 L 12.4014,1.56665 L 12.5,-0
 L 12.4014,-1.56665 L 12.1073,-3.10861 L 11.6222,-4.60155 L 10.9538,-6.02191 L 10.1127,-7.34731 L 9.11211,-8.55682
 L 7.96779,-9.63141 L 6.69783,-10.5541 L 5.32224,-11.3103 L 3.8627,-11.8882 L 2.34225,-12.2786 L 0.784866,-12.4753
 L -0.784866,-12.4753 L -2.34225,-12.2786 L -3.8627,-11.8882 L -5.32224,-11.3103 L -6.69783,-10.5541 L -7.96779,-9.63141
 L -9.11211,-8.55682 L -10.1127,-7.34731 L -10.9538,-6.02191 L -11.6222,-4.60155 L -12.1073,-3.10861 L -12.4014,-1.56665
 L -12.5,-0 L -12.4014,1.56665 L -12.1073,3.10861 L -11.6222,4.60155 L -10.9538,6.02191 L -10.1127,7.34731
 L -9.11211,8.55682 L -7.96779,9.63141 L -6.69783,10.5541 L -5.32224,11.3103 L -3.8627,11.8882 L -2.34225,12.2786
 L -0.784866,12.4753 L 0.784866,12.4753 z
M -20.113,1.79645 L -20.3373,1.76811 L -20.5562,1.7119 L -20.7664,1.62868 L -20.9645,1.51978 L -21.1474,1.38692
 L -21.3121,1.23218 L -21.4562,1.058 L -21.5773,0.867142 L -21.6736,0.662613 L -21.7434,0.447632 L -21.7858,0.225586
 L -21.8,-0 L -21.7858,-0.225586 L -21.7434,-0.447632 L -21.6736,-0.662613 L -21.5773,-0.867142 L -21.4562,-1.058
 L -21.3121,-1.23218 L -21.1474,-1.38692 L -20.9645,-1.51978 L -20.7664,-1.62868 L -20.5562,-1.7119 L -20.3373,-1.76811
 L -20.113,-1.79645 L -19.887,-1.79645 L -19.6627,-1.76811 L -19.4438,-1.7119 L -19.2336,-1.62868 L -19.0355,-1.51978
 L -18.8526,-1.38692 L -18.6879,-1.23218 L -18.5438,-1.058 L -18.4226,-0.867142 L -18.3264,-0.662613 L -18.2565,-0.447632
 L -18.2142,-0.225586 L -18.2,-0 L -18.2142,0.225586 L -18.2565,0.447632 L -18.3264,0.662613 L -18.4226,0.867142
 L -18.5438,1.058 L -18.6879,1.23218 L -18.8526,1.38692 L -19.0355,1.51978 L -19.2336,1.62868 L -19.4438,1.7119
 L -19.6627,1.76811 L -19.887,1.79645 z
M 19.887,1.79645 L 19.6627,1.76811 L 19.4438,1.7119 L 19.2336,1.62868 L 19.0355,1.51978 L 18.8526,1.38692
 L 18.6879,1.23218 L 18.5438,1.058 L 18.4226,0.867142 L 18.3264,0.662613 L 18.2565,0.447632 L 18.2142,0.225586
 L 18.2,-0 L 18.2142,-0.225586 L 18.2565,-0.447632 L 18.3264,-0.662613 L 18.4226,-0.867142 L 18.5438,-1.058
 L 18.6879,-1.23218 L 18.8526,-1.38692 L 19.0355,-1.51978 L 19.2336,-1.62868 L 19.4438,-1.7119 L 19.6627,-1.76811
 L 19.887,-1.79645 L 20.113,-1.79645 L 20.3373,-1.76811 L 20.5562,-1.7119 L 20.7664,-1.62868 L 20.9645,-1.51978
 L 21.1474,-1.38692 L 21.3121,-1.23218 L 21.4562,-1.058 L 21.5773,-0.867142 L 21.6736,-0.662613 L 21.7434,-0.447632
 L 21.7858,-0.225586 L 21.8,-0 L 21.7858,0.225586 L 21.7434,0.447632 L 21.6736,0.662613 L 21.5773,0.867142
 L 21.4562,1.058 L 21.3121,1.23218 L 21.1474,1.38692 L 20.9645,1.51978 L 20.7664,1.62868 L 20.5562,1.7119
 L 20.3373,1.76811 L 20.113,1.79645 z
M 15.4618,17.053 L 15.2749,17.0294 L 15.0925,16.9826 L 14.9173,16.9132 L 14.7523,16.8225 L 14.5999,16.7118
 L 14.4625,16.5828 L 14.3425,16.4377 L 14.2415,16.2786 L 14.1613,16.1082 L 14.1031,15.929 L 14.0678,15.744
 L 14.056,15.556 L 14.0678,15.368 L 14.1031,15.183 L 14.1613,15.0038 L 14.2415,14.8334 L 14.3425,14.6743
 L 14.4625,14.5292 L 14.5999,14.4002 L 14.7523,14.2895 L 14.9173,14.1987 L 15.0925,14.1294 L 15.2749,14.0826
 L 15.4618,14.0589 L 15.6502,14.0589 L 15.8371,14.0826 L 16.0195,14.1294 L 16.1947,14.1987 L 16.3597,14.2895
 L 16.5121,14.4002 L 16.6494,14.5292 L 16.7695,14.6743 L 16.8705,14.8334 L 16.9507,15.0038 L 17.0089,15.183
 L 17.0442,15.368 L 17.056,15.556 L 17.0442,15.744 L 17.0089,15.929 L 16.9507,16.1082 L 16.8705,16.2786
 L 16.7695,16.4377 L 16.6494,16.5828 L 16.5121,16.7118 L 16.3597,16.8225 L 16.1947,16.9132 L 16.0195,16.9826
 L 15.8371,17.0294 L 15.6502,17.053 z
M -15.6502,17.053 L -15.8371,17.0294 L -16.0195,16.9826 L -16.1947,16.9132 L -16.3597,16.8225 L -16.5121,16.7118
 L -16.6494,16.5828 L -16.7695,16.4377 L -16.8705,16.2786 L -16.9507,16.1082 L -17.0089,15.929 L -17.0442,15.744
 L -17.056,15.556 L -17.0442,15.368 L -17.0089,15.183 L -16.9507,15.0038 L -16.8705,14.8334 L -16.7695,14.6743
 L -16.6494,14.5292 L -16.5121,14.4002 L -16.3597,14.2895 L -16.1947,14.1987 L -16.0195,14.1294 L -15.8371,14.0826
 L -15.6502,14.0589 L -15.4618,14.0589 L -15.2749,14.0826 L -15.0925,14.1294 L -14.9173,14.1987 L -14.7523,14.2895
 L -14.5999,14.4002 L -14.4625,14.5292 L -14.3425,14.6743 L -14.2415,14.8334 L -14.1613,15.0038 L -14.1031,15.183
 L -14.0678,15.368 L -14.056,15.556 L -14.0678,15.744 L -14.1031,15.929 L -14.1613,16.1082 L -14.2415,16.2786
 L -14.3425,16.4377 L -14.4625,16.5828 L -14.5999,16.7118 L -14.7523,16.8225 L -14.9173,16.9132 L -15.0925,16.9826
 L -15.2749,17.0294 L -15.4618,17.053 z
M -0.113022,21.7964 L -0.33728,21.7681 L -0.556229,21.7119 L -0.766388,21.6287 L -0.964478,21.5198 L -1.14735,21.3869
 L -1.31213,21.2322 L -1.45622,21.058 L -1.57735,20.8672 L -1.67358,20.6626 L -1.74344,20.4476 L -1.7858,20.2256
 L -1.79999,20 L -1.7858,19.7744 L -1.74344,19.5524 L -1.67358,19.3374 L -1.57735,19.1328 L -1.45622,18.942
 L -1.31213,18.7678 L -1.14735,18.6131 L -0.964478,18.4802 L -0.766388,18.3713 L -0.556229,18.2881 L -0.33728,18.2319
 L -0.113022,18.2036 L 0.113022,18.2036 L 0.33728,18.2319 L 0.556229,18.2881 L 0.766388,18.3713 L 0.964478,18.4802
 L 1.14735,18.6131 L 1.31213,18.7678 L 1.45622,18.942 L 1.57735,19.1328 L 1.67358,19.3374 L 1.74344,19.5524
 L 1.7858,19.7744 L 1.79999,20 L 1.7858,20.2256 L 1.74344,20.4476 L 1.67358,20.6626 L 1.57735,20.8672
 L 1.45622,21.058 L 1.31213,21.2322 L 1.14735,21.3869 L 0.964478,21.5198 L 0.766388,21.6287 L 0.556229,21.7119
 L 0.33728,21.7681 L 0.113022,21.7964 z
" stroke="black" fill="lightgray" stroke-width="0.5"/>
</svg>
