  0
SECTION
  2
BLOCKS
  0
ENDSEC
  0
SECTION
  2
ENTITIES
  0
LINE
  8
0
 10
104.685
 20
-24.5572
 11
107.725
 21
-23.7764
  0
LINE
  8
0
 10
107.725
 20
-23.7764
 11
110.644
 21
-22.6207
  0
LINE
  8
0
 10
110.644
 20
-22.6207
 11
113.396
 21
-21.1082
  0
LINE
  8
0
 10
113.396
 20
-21.1082
 11
115.936
 21
-19.2628
  0
LINE
  8
0
 10
115.936
 20
-19.2628
 11
118.224
 21
-17.1137
  0
LINE
  8
0
 10
118.224
 20
-17.1137
 11
120.225
 21
-14.6946
  0
LINE
  8
0
 10
120.225
 20
-14.6946
 11
121.908
 21
-12.0438
  0
LINE
  8
0
 10
121.908
 20
-12.0438
 11
123.244
 21
-9.20311
  0
LINE
  8
0
 10
123.244
 20
-9.20311
 11
124.215
 21
-6.21724
  0
LINE
  8
0
 10
124.215
 20
-6.21724
 11
124.803
 21
-3.13332
  0
LINE
  8
0
 10
124.803
 20
-3.13332
 11
125
 21
0
  0
LINE
  8
0
 10
125
 20
0
 11
124.803
 21
3.13332
  0
LINE
  8
0
 10
124.803
 20
3.13332
 11
124.215
 21
6.21724
  0
LINE
  8
0
 10
124.215
 20
6.21724
 11
123.244
 21
9.20311
  0
LINE
  8
0
 10
123.244
 20
9.20311
 11
121.908
 21
12.0438
  0
LINE
  8
0
 10
121.908
 20
12.0438
 11
120.225
 21
14.6946
  0
LINE
  8
0
 10
120.225
 20
14.6946
 11
118.224
 21
17.1137
  0
LINE
  8
0
 10
118.224
 20
17.1137
 11
115.936
 21
19.2628
  0
LINE
  8
0
 10
115.936
 20
19.2628
 11
113.396
 21
21.1082
  0
LINE
  8
0
 10
113.396
 20
21.1082
 11
110.644
 21
22.6207
  0
LINE
  8
0
 10
110.644
 20
22.6207
 11
107.725
 21
23.7764
  0
LINE
  8
0
 10
107.725
 20
23.7764
 11
104.685
 21
24.5572
  0
LINE
  8
0
 10
104.685
 20
24.5572
 11
101.57
 21
24.9507
  0
LINE
  8
0
 10
101.57
 20
24.9507
 11
98.4302
 21
24.9507
  0
LINE
  8
0
 10
98.4302
 20
24.9507
 11
95.3155
 21
24.5572
  0
LINE
  8
0
 10
95.3155
 20
24.5572
 11
92.2746
 21
23.7764
  0
LINE
  8
0
 10
92.2746
 20
23.7764
 11
89.3555
 21
22.6207
  0
LINE
  8
0
 10
89.3555
 20
22.6207
 11
86.6043
 21
21.1082
  0
LINE
  8
0
 10
86.6043
 20
21.1082
 11
84.0644
 21
19.2628
  0
LINE
  8
0
 10
84.0644
 20
19.2628
 11
81.7758
 21
17.1137
  0
LINE
  8
0
 10
81.7758
 20
17.1137
 11
79.7746
 21
14.6946
  0
LINE
  8
0
 10
79.7746
 20
14.6946
 11
78.0923
 21
12.0438
  0
LINE
  8
0
 10
78.0923
 20
12.0438
 11
76.7556
 21
9.20311
  0
LINE
  8
0
 10
76.7556
 20
9.20311
 11
75.7854
 21
6.21724
  0
LINE
  8
0
 10
75.7854
 20
6.21724
 11
75.1971
 21
3.13332
  0
LINE
  8
0
 10
75.1971
 20
3.13332
 11
75
 21
0
  0
LINE
  8
0
 10
75
 20
0
 11
75.1971
 21
-3.13332
  0
LINE
  8
0
 10
75.1971
 20
-3.13332
 11
75.7854
 21
-6.21724
  0
LINE
  8
0
 10
75.7854
 20
-6.21724
 11
76.7556
 21
-9.20311
  0
LINE
  8
0
 10
76.7556
 20
-9.20311
 11
78.0923
 21
-12.0438
  0
LINE
  8
0
 10
78.0923
 20
-12.0438
 11
79.7746
 21
-14.6946
  0
LINE
  8
0
 10
79.7746
 20
-14.6946
 11
81.7758
 21
-17.1137
  0
LINE
  8
0
 10
81.7758
 20
-17.1137
 11
84.0644
 21
-19.2628
  0
LINE
  8
0
 10
84.0644
 20
-19.2628
 11
86.6043
 21
-21.1082
  0
LINE
  8
0
 10
86.6043
 20
-21.1082
 11
89.3555
 21
-22.6207
  0
LINE
  8
0
 10
89.3555
 20
-22.6207
 11
92.2746
 21
-23.7764
  0
LINE
  8
0
 10
92.2746
 20
-23.7764
 11
95.3155
 21
-24.5572
  0
LINE
  8
0
 10
95.3155
 20
-24.5572
 11
98.4302
 21
-24.9507
  0
LINE
  8
0
 10
98.4302
 20
-24.9507
 11
101.57
 21
-24.9507
  0
LINE
  8
0
 10
101.57
 20
-24.9507
 11
104.685
 21
-24.5572
  0
LINE
  8
0
 10
99.887
 20
18.2036
 11
99.6627
 21
18.2319
  0
LINE
  8
0
 10
99.6627
 20
18.2319
 11
99.4438
 21
18.2881
  0
LINE
  8
0
 10
99.4438
 20
18.2881
 11
99.2336
 21
18.3713
  0
LINE
  8
0
 10
99.2336
 20
18.3713
 11
99.0355
 21
18.4802
  0
LINE
  8
0
 10
99.0355
 20
18.4802
 11
98.8526
 21
18.6131
  0
LINE
  8
0
 10
98.8526
 20
18.6131
 11
98.6879
 21
18.7678
  0
LINE
  8
0
 10
98.6879
 20
18.7678
 11
98.5438
 21
18.942
  0
LINE
  8
0
 10
98.5438
 20
18.942
 11
98.4226
 21
19.1328
  0
LINE
  8
0
 10
98.4226
 20
19.1328
 11
98.3264
 21
19.3374
  0
LINE
  8
0
 10
98.3264
 20
19.3374
 11
98.2565
 21
19.5524
  0
LINE
  8
0
 10
98.2565
 20
19.5524
 11
98.2142
 21
19.7744
  0
LINE
  8
0
 10
98.2142
 20
19.7744
 11
98.2
 21
20
  0
LINE
  8
0
 10
98.2
 20
20
 11
98.2142
 21
20.2256
  0
LINE
  8
0
 10
98.2142
 20
20.2256
 11
98.2565
 21
20.4476
  0
LINE
  8
0
 10
98.2565
 20
20.4476
 11
98.3264
 21
20.6626
  0
LINE
  8
0
 10
98.3264
 20
20.6626
 11
98.4226
 21
20.8672
  0
LINE
  8
0
 10
98.4226
 20
20.8672
 11
98.5438
 21
21.058
  0
LINE
  8
0
 10
98.5438
 20
21.058
 11
98.6879
 21
21.2322
  0
LINE
  8
0
 10
98.6879
 20
21.2322
 11
98.8526
 21
21.3869
  0
LINE
  8
0
 10
98.8526
 20
21.3869
 11
99.0355
 21
21.5198
  0
LINE
  8
0
 10
99.0355
 20
21.5198
 11
99.2336
 21
21.6287
  0
LINE
  8
0
 10
99.2336
 20
21.6287
 11
99.4438
 21
21.7119
  0
LINE
  8
0
 10
99.4438
 20
21.7119
 11
99.6627
 21
21.7681
  0
LINE
  8
0
 10
99.6627
 20
21.7681
 11
99.887
 21
21.7964
  0
LINE
  8
0
 10
99.887
 20
21.7964
 11
100.113
 21
21.7964
  0
LINE
  8
0
 10
100.113
 20
21.7964
 11
100.337
 21
21.7681
  0
LINE
  8
0
 10
100.337
 20
21.7681
 11
100.556
 21
21.7119
  0
LINE
  8
0
 10
100.556
 20
21.7119
 11
100.766
 21
21.6287
  0
LINE
  8
0
 10
100.766
 20
21.6287
 11
100.964
 21
21.5198
  0
LINE
  8
0
 10
100.964
 20
21.5198
 11
101.147
 21
21.3869
  0
LINE
  8
0
 10
101.147
 20
21.3869
 11
101.312
 21
21.2322
  0
LINE
  8
0
 10
101.312
 20
21.2322
 11
101.456
 21
21.058
  0
LINE
  8
0
 10
101.456
 20
21.058
 11
101.577
 21
20.8672
  0
LINE
  8
0
 10
101.577
 20
20.8672
 11
101.674
 21
20.6626
  0
LINE
  8
0
 10
101.674
 20
20.6626
 11
101.743
 21
20.4476
  0
LINE
  8
0
 10
101.743
 20
20.4476
 11
101.786
 21
20.2256
  0
LINE
  8
0
 10
101.786
 20
20.2256
 11
101.8
 21
20
  0
LINE
  8
0
 10
101.8
 20
20
 11
101.786
 21
19.7744
  0
LINE
  8
0
 10
101.786
 20
19.7744
 11
101.743
 21
19.5524
  0
LINE
  8
0
 10
101.743
 20
19.5524
 11
101.674
 21
19.3374
  0
LINE
  8
0
 10
101.674
 20
19.3374
 11
101.577
 21
19.1328
  0
LINE
  8
0
 10
101.577
 20
19.1328
 11
101.456
 21
18.942
  0
LINE
  8
0
 10
101.456
 20
18.942
 11
101.312
 21
18.7678
  0
LINE
  8
0
 10
101.312
 20
18.7678
 11
101.147
 21
18.6131
  0
LINE
  8
0
 10
101.147
 20
18.6131
 11
100.964
 21
18.4802
  0
LINE
  8
0
 10
100.964
 20
18.4802
 11
100.766
 21
18.3713
  0
LINE
  8
0
 10
100.766
 20
18.3713
 11
100.556
 21
18.2881
  0
LINE
  8
0
 10
100.556
 20
18.2881
 11
100.337
 21
18.2319
  0
LINE
  8
0
 10
100.337
 20
18.2319
 11
100.113
 21
18.2036
  0
LINE
  8
0
 10
100.113
 20
18.2036
 11
99.887
 21
18.2036
  0
LINE
  8
0
 10
98.9953
 20
-15.9684
 11
97.0019
 21
-15.7166
  0
LINE
  8
0
 10
97.0019
 20
-15.7166
 11
95.0557
 21
-15.2169
  0
LINE
  8
0
 10
95.0557
 20
-15.2169
 11
93.1875
 21
-14.4772
  0
LINE
  8
0
 10
93.1875
 20
-14.4772
 11
91.4268
 21
-13.5092
  0
LINE
  8
0
 10
91.4268
 20
-13.5092
 11
89.8012
 21
-12.3282
  0
LINE
  8
0
 10
89.8012
 20
-12.3282
 11
88.3365
 21
-10.9527
  0
LINE
  8
0
 10
88.3365
 20
-10.9527
 11
87.0557
 21
-9.40456
  0
LINE
  8
0
 10
87.0557
 20
-9.40456
 11
85.9791
 21
-7.70805
  0
LINE
  8
0
 10
85.9791
 20
-7.70805
 11
85.1236
 21
-5.88998
  0
LINE
  8
0
 10
85.1236
 20
-5.88998
 11
84.5027
 21
-3.97903
  0
LINE
  8
0
 10
84.5027
 20
-3.97903
 11
84.1262
 21
-2.00533
  0
LINE
  8
0
 10
84.1262
 20
-2.00533
 11
84
 21
0
  0
LINE
  8
0
 10
84
 20
0
 11
84.1262
 21
2.00533
  0
LINE
  8
0
 10
84.1262
 20
2.00533
 11
84.5027
 21
3.97903
  0
LINE
  8
0
 10
84.5027
 20
3.97903
 11
85.1236
 21
5.88998
  0
LINE
  8
0
 10
85.1236
 20
5.88998
 11
85.9791
 21
7.70805
  0
LINE
  8
0
 10
85.9791
 20
7.70805
 11
87.0557
 21
9.40456
  0
LINE
  8
0
 10
87.0557
 20
9.40456
 11
88.3365
 21
10.9527
  0
LINE
  8
0
 10
88.3365
 20
10.9527
 11
89.8012
 21
12.3282
  0
LINE
  8
0
 10
89.8012
 20
12.3282
 11
91.4268
 21
13.5092
  0
LINE
  8
0
 10
91.4268
 20
13.5092
 11
93.1875
 21
14.4772
  0
LINE
  8
0
 10
93.1875
 20
14.4772
 11
95.0557
 21
15.2169
  0
LINE
  8
0
 10
95.0557
 20
15.2169
 11
97.0019
 21
15.7166
  0
LINE
  8
0
 10
97.0019
 20
15.7166
 11
98.9953
 21
15.9684
  0
LINE
  8
0
 10
98.9953
 20
15.9684
 11
101.005
 21
15.9684
  0
LINE
  8
0
 10
101.005
 20
15.9684
 11
102.998
 21
15.7166
  0
LINE
  8
0
 10
102.998
 20
15.7166
 11
104.944
 21
15.2169
  0
LINE
  8
0
 10
104.944
 20
15.2169
 11
106.812
 21
14.4772
  0
LINE
  8
0
 10
106.812
 20
14.4772
 11
108.573
 21
13.5092
  0
LINE
  8
0
 10
108.573
 20
13.5092
 11
110.199
 21
12.3282
  0
LINE
  8
0
 10
110.199
 20
12.3282
 11
111.663
 21
10.9527
  0
LINE
  8
0
 10
111.663
 20
10.9527
 11
112.944
 21
9.40456
  0
LINE
  8
0
 10
112.944
 20
9.40456
 11
114.021
 21
7.70805
  0
LINE
  8
0
 10
114.021
 20
7.70805
 11
114.876
 21
5.88998
  0
LINE
  8
0
 10
114.876
 20
5.88998
 11
115.497
 21
3.97903
  0
LINE
  8
0
 10
115.497
 20
3.97903
 11
115.874
 21
2.00533
  0
LINE
  8
0
 10
115.874
 20
2.00533
 11
116
 21
0
  0
LINE
  8
0
 10
116
 20
0
 11
115.874
 21
-2.00533
  0
LINE
  8
0
 10
115.874
 20
-2.00533
 11
115.497
 21
-3.97903
  0
LINE
  8
0
 10
115.497
 20
-3.97903
 11
114.876
 21
-5.88998
  0
LINE
  8
0
 10
114.876
 20
-5.88998
 11
114.021
 21
-7.70805
  0
LINE
  8
0
 10
114.021
 20
-7.70805
 11
112.944
 21
-9.40456
  0
LINE
  8
0
 10
112.944
 20
-9.40456
 11
111.663
 21
-10.9527
  0
LINE
  8
0
 10
111.663
 20
-10.9527
 11
110.199
 21
-12.3282
  0
LINE
  8
0
 10
110.199
 20
-12.3282
 11
108.573
 21
-13.5092
  0
LINE
  8
0
 10
108.573
 20
-13.5092
 11
106.812
 21
-14.4772
  0
LINE
  8
0
 10
106.812
 20
-14.4772
 11
104.944
 21
-15.2169
  0
LINE
  8
0
 10
104.944
 20
-15.2169
 11
102.998
 21
-15.7166
  0
LINE
  8
0
 10
102.998
 20
-15.7166
 11
101.005
 21
-15.9684
  0
LINE
  8
0
 10
101.005
 20
-15.9684
 11
98.9953
 21
-15.9684
  0
LINE
  8
0
 10
102.342
 20
-12.2786
 11
103.863
 21
-11.8882
  0
LINE
  8
0
 10
103.863
 20
-11.8882
 11
105.322
 21
-11.3103
  0
LINE
  8
0
 10
105.322
 20
-11.3103
 11
106.698
 21
-10.5541
  0
LINE
  8
0
 10
106.698
 20
-10.5541
 11
107.968
 21
-9.63141
  0
LINE
  8
0
 10
107.968
 20
-9.63141
 11
109.112
 21
-8.55682
  0
LINE
  8
0
 10
109.112
 20
-8.55682
 11
110.113
 21
-7.34731
  0
LINE
  8
0
 10
110.113
 20
-7.34731
 11
110.954
 21
-6.02191
  0
LINE
  8
0
 10
110.954
 20
-6.02191
 11
111.622
 21
-4.60155
  0
LINE
  8
0
 10
111.622
 20
-4.60155
 11
112.107
 21
-3.10861
  0
LINE
  8
0
 10
112.107
 20
-3.10861
 11
112.401
 21
-1.56665
  0
LINE
  8
0
 10
112.401
 20
-1.56665
 11
112.5
 21
0
  0
LINE
  8
0
 10
112.5
 20
0
 11
112.401
 21
1.56665
  0
LINE
  8
0
 10
112.401
 20
1.56665
 11
112.107
 21
3.10861
  0
LINE
  8
0
 10
112.107
 20
3.10861
 11
111.622
 21
4.60155
  0
LINE
  8
0
 10
111.622
 20
4.60155
 11
110.954
 21
6.02191
  0
LINE
  8
0
 10
110.954
 20
6.02191
 11
110.113
 21
7.34731
  0
LINE
  8
0
 10
110.113
 20
7.34731
 11
109.112
 21
8.55682
  0
LINE
  8
0
 10
109.112
 20
8.55682
 11
107.968
 21
9.63141
  0
LINE
  8
0
 10
107.968
 20
9.63141
 11
106.698
 21
10.5541
  0
LINE
  8
0
 10
106.698
 20
10.5541
 11
105.322
 21
11.3103
  0
LINE
  8
0
 10
105.322
 20
11.3103
 11
103.863
 21
11.8882
  0
LINE
  8
0
 10
103.863
 20
11.8882
 11
102.342
 21
12.2786
  0
LINE
  8
0
 10
102.342
 20
12.2786
 11
100.785
 21
12.4753
  0
LINE
  8
0
 10
100.785
 20
12.4753
 11
99.2151
 21
12.4753
  0
LINE
  8
0
 10
99.2151
 20
12.4753
 11
97.6577
 21
12.2786
  0
LINE
  8
0
 10
97.6577
 20
12.2786
 11
96.1373
 21
11.8882
  0
LINE
  8
0
 10
96.1373
 20
11.8882
 11
94.6777
 21
11.3103
  0
LINE
  8
0
 10
94.6777
 20
11.3103
 11
93.3022
 21
10.5541
  0
LINE
  8
0
 10
93.3022
 20
10.5541
 11
92.0322
 21
9.63141
  0
LINE
  8
0
 10
92.0322
 20
9.63141
 11
90.8879
 21
8.55682
  0
LINE
  8
0
 10
90.8879
 20
8.55682
 11
89.8873
 21
7.34731
  0
LINE
  8
0
 10
89.8873
 20
7.34731
 11
89.0462
 21
6.02191
  0
LINE
  8
0
 10
89.0462
 20
6.02191
 11
88.3778
 21
4.60155
  0
LINE
  8
0
 10
88.3778
 20
4.60155
 11
87.8927
 21
3.10861
  0
LINE
  8
0
 10
87.8927
 20
3.10861
 11
87.5986
 21
1.56665
  0
LINE
  8
0
 10
87.5986
 20
1.56665
 11
87.5
 21
0
  0
LINE
  8
0
 10
87.5
 20
0
 11
87.5986
 21
-1.56665
  0
LINE
  8
0
 10
87.5986
 20
-1.56665
 11
87.8927
 21
-3.10861
  0
LINE
  8
0
 10
87.8927
 20
-3.10861
 11
88.3778
 21
-4.60155
  0
LINE
  8
0
 10
88.3778
 20
-4.60155
 11
89.0462
 21
-6.02191
  0
LINE
  8
0
 10
89.0462
 20
-6.02191
 11
89.8873
 21
-7.34731
  0
LINE
  8
0
 10
89.8873
 20
-7.34731
 11
90.8879
 21
-8.55682
  0
LINE
  8
0
 10
90.8879
 20
-8.55682
 11
92.0322
 21
-9.63141
  0
LINE
  8
0
 10
92.0322
 20
-9.63141
 11
93.3022
 21
-10.5541
  0
LINE
  8
0
 10
93.3022
 20
-10.5541
 11
94.6777
 21
-11.3103
  0
LINE
  8
0
 10
94.6777
 20
-11.3103
 11
96.1373
 21
-11.8882
  0
LINE
  8
0
 10
96.1373
 20
-11.8882
 11
97.6577
 21
-12.2786
  0
LINE
  8
0
 10
97.6577
 20
-12.2786
 11
99.2151
 21
-12.4753
  0
LINE
  8
0
 10
99.2151
 20
-12.4753
 11
100.785
 21
-12.4753
  0
LINE
  8
0
 10
100.785
 20
-12.4753
 11
102.342
 21
-12.2786
  0
LINE
  8
0
 10
79.887
 20
-1.79645
 11
79.6627
 21
-1.76811
  0
LINE
  8
0
 10
79.6627
 20
-1.76811
 11
79.4438
 21
-1.7119
  0
LINE
  8
0
 10
79.4438
 20
-1.7119
 11
79.2336
 21
-1.62868
  0
LINE
  8
0
 10
79.2336
 20
-1.62868
 11
79.0355
 21
-1.51978
  0
LINE
  8
0
 10
79.0355
 20
-1.51978
 11
78.8526
 21
-1.38692
  0
LINE
  8
0
 10
78.8526
 20
-1.38692
 11
78.6879
 21
-1.23218
  0
LINE
  8
0
 10
78.6879
 20
-1.23218
 11
78.5438
 21
-1.058
  0
LINE
  8
0
 10
78.5438
 20
-1.058
 11
78.4226
 21
-0.867142
  0
LINE
  8
0
 10
78.4226
 20
-0.867142
 11
78.3264
 21
-0.662613
  0
LINE
  8
0
 10
78.3264
 20
-0.662613
 11
78.2565
 21
-0.447632
  0
LINE
  8
0
 10
78.2565
 20
-0.447632
 11
78.2142
 21
-0.225586
  0
LINE
  8
0
 10
78.2142
 20
-0.225586
 11
78.2
 21
0
  0
LINE
  8
0
 10
78.2
 20
0
 11
78.2142
 21
0.225586
  0
LINE
  8
0
 10
78.2142
 20
0.225586
 11
78.2565
 21
0.447632
  0
LINE
  8
0
 10
78.2565
 20
0.447632
 11
78.3264
 21
0.662613
  0
LINE
  8
0
 10
78.3264
 20
0.662613
 11
78.4226
 21
0.867142
  0
LINE
  8
0
 10
78.4226
 20
0.867142
 11
78.5438
 21
1.058
  0
LINE
  8
0
 10
78.5438
 20
1.058
 11
78.6879
 21
1.23218
  0
LINE
  8
0
 10
78.6879
 20
1.23218
 11
78.8526
 21
1.38692
  0
LINE
  8
0
 10
78.8526
 20
1.38692
 11
79.0355
 21
1.51978
  0
LINE
  8
0
 10
79.0355
 20
1.51978
 11
79.2336
 21
1.62868
  0
LINE
  8
0
 10
79.2336
 20
1.62868
 11
79.4438
 21
1.7119
  0
LINE
  8
0
 10
79.4438
 20
1.7119
 11
79.6627
 21
1.76811
  0
LINE
  8
0
 10
79.6627
 20
1.76811
 11
79.887
 21
1.79645
  0
LINE
  8
0
 10
79.887
 20
1.79645
 11
80.113
 21
1.79645
  0
LINE
  8
0
 10
80.113
 20
1.79645
 11
80.3373
 21
1.76811
  0
LINE
  8
0
 10
80.3373
 20
1.76811
 11
80.5562
 21
1.7119
  0
LINE
  8
0
 10
80.5562
 20
1.7119
 11
80.7664
 21
1.62868
  0
LINE
  8
0
 10
80.7664
 20
1.62868
 11
80.9645
 21
1.51978
  0
LINE
  8
0
 10
80.9645
 20
1.51978
 11
81.1474
 21
1.38692
  0
LINE
  8
0
 10
81.1474
 20
1.38692
 11
81.3121
 21
1.23218
  0
LINE
  8
0
 10
81.3121
 20
1.23218
 11
81.4562
 21
1.058
  0
LINE
  8
0
 10
81.4562
 20
1.058
 11
81.5773
 21
0.867142
  0
LINE
  8
0
 10
81.5773
 20
0.867142
 11
81.6736
 21
0.662613
  0
LINE
  8
0
 10
81.6736
 20
0.662613
 11
81.7434
 21
0.447632
  0
LINE
  8
0
 10
81.7434
 20
0.447632
 11
81.7858
 21
0.225586
  0
LINE
  8
0
 10
81.7858
 20
0.225586
 11
81.8
 21
0
  0
LINE
  8
0
 10
81.8
 20
0
 11
81.7858
 21
-0.225586
  0
LINE
  8
0
 10
81.7858
 20
-0.225586
 11
81.7434
 21
-0.447632
  0
LINE
  8
0
 10
81.7434
 20
-0.447632
 11
81.6736
 21
-0.662613
  0
LINE
  8
0
 10
81.6736
 20
-0.662613
 11
81.5773
 21
-0.867142
  0
LINE
  8
0
 10
81.5773
 20
-0.867142
 11
81.4562
 21
-1.058
  0
LINE
  8
0
 10
81.4562
 20
-1.058
 11
81.3121
 21
-1.23218
  0
LINE
  8
0
 10
81.3121
 20
-1.23218
 11
81.1474
 21
-1.38692
  0
LINE
  8
0
 10
81.1474
 20
-1.38692
 11
80.9645
 21
-1.51978
  0
LINE
  8
0
 10
80.9645
 20
-1.51978
 11
80.7664
 21
-1.62868
  0
LINE
  8
0
 10
80.7664
 20
-1.62868
 11
80.5562
 21
-1.7119
  0
LINE
  8
0
 10
80.5562
 20
-1.7119
 11
80.3373
 21
-1.76811
  0
LINE
  8
0
 10
80.3373
 20
-1.76811
 11
80.113
 21
-1.79645
  0
LINE
  8
0
 10
80.113
 20
-1.79645
 11
79.887
 21
-1.79645
  0
LINE
  8
0
 10
119.887
 20
-1.79645
 11
119.663
 21
-1.76811
  0
LINE
  8
0
 10
119.663
 20
-1.76811
 11
119.444
 21
-1.7119
  0
LINE
  8
0
 10
119.444
 20
-1.7119
 11
119.234
 21
-1.62868
  0
LINE
  8
0
 10
119.234
 20
-1.62868
 11
119.036
 21
-1.51978
  0
LINE
  8
0
 10
119.036
 20
-1.51978
 11
118.853
 21
-1.38692
  0
LINE
  8
0
 10
118.853
 20
-1.38692
 11
118.688
 21
-1.23218
  0
LINE
  8
0
 10
118.688
 20
-1.23218
 11
118.544
 21
-1.058
  0
LINE
  8
0
 10
118.544
 20
-1.058
 11
118.423
 21
-0.867142
  0
LINE
  8
0
 10
118.423
 20
-0.867142
 11
118.326
 21
-0.662613
  0
LINE
  8
0
 10
118.326
 20
-0.662613
 11
118.257
 21
-0.447632
  0
LINE
  8
0
 10
118.257
 20
-0.447632
 11
118.214
 21
-0.225586
  0
LINE
  8
0
 10
118.214
 20
-0.225586
 11
118.2
 21
0
  0
LINE
  8
0
 10
118.2
 20
0
 11
118.214
 21
0.225586
  0
LINE
  8
0
 10
118.214
 20
0.225586
 11
118.257
 21
0.447632
  0
LINE
  8
0
 10
118.257
 20
0.447632
 11
118.326
 21
0.662613
  0
LINE
  8
0
 10
118.326
 20
0.662613
 11
118.423
 21
0.867142
  0
LINE
  8
0
 10
118.423
 20
0.867142
 11
118.544
 21
1.058
  0
LINE
  8
0
 10
118.544
 20
1.058
 11
118.688
 21
1.23218
  0
LINE
  8
0
 10
118.688
 20
1.23218
 11
118.853
 21
1.38692
  0
LINE
  8
0
 10
118.853
 20
1.38692
 11
119.036
 21
1.51978
  0
LINE
  8
0
 10
119.036
 20
1.51978
 11
119.234
 21
1.62868
  0
LINE
  8
0
 10
119.234
 20
1.62868
 11
119.444
 21
1.7119
  0
LINE
  8
0
 10
119.444
 20
1.7119
 11
119.663
 21
1.76811
  0
LINE
  8
0
 10
119.663
 20
1.76811
 11
119.887
 21
1.79645
  0
LINE
  8
0
 10
119.887
 20
1.79645
 11
120.113
 21
1.79645
  0
LINE
  8
0
 10
120.113
 20
1.79645
 11
120.337
 21
1.76811
  0
LINE
  8
0
 10
120.337
 20
1.76811
 11
120.556
 21
1.7119
  0
LINE
  8
0
 10
120.556
 20
1.7119
 11
120.766
 21
1.62868
  0
LINE
  8
0
 10
120.766
 20
1.62868
 11
120.964
 21
1.51978
  0
LINE
  8
0
 10
120.964
 20
1.51978
 11
121.147
 21
1.38692
  0
LINE
  8
0
 10
121.147
 20
1.38692
 11
121.312
 21
1.23218
  0
LINE
  8
0
 10
121.312
 20
1.23218
 11
121.456
 21
1.058
  0
LINE
  8
0
 10
121.456
 20
1.058
 11
121.577
 21
0.867142
  0
LINE
  8
0
 10
121.577
 20
0.867142
 11
121.674
 21
0.662613
  0
LINE
  8
0
 10
121.674
 20
0.662613
 11
121.743
 21
0.447632
  0
LINE
  8
0
 10
121.743
 20
0.447632
 11
121.786
 21
0.225586
  0
LINE
  8
0
 10
121.786
 20
0.225586
 11
121.8
 21
0
  0
LINE
  8
0
 10
121.8
 20
0
 11
121.786
 21
-0.225586
  0
LINE
  8
0
 10
121.786
 20
-0.225586
 11
121.743
 21
-0.447632
  0
LINE
  8
0
 10
121.743
 20
-0.447632
 11
121.674
 21
-0.662613
  0
LINE
  8
0
 10
121.674
 20
-0.662613
 11
121.577
 21
-0.867142
  0
LINE
  8
0
 10
121.577
 20
-0.867142
 11
121.456
 21
-1.058
  0
LINE
  8
0
 10
121.456
 20
-1.058
 11
121.312
 21
-1.23218
  0
LINE
  8
0
 10
121.312
 20
-1.23218
 11
121.147
 21
-1.38692
  0
LINE
  8
0
 10
121.147
 20
-1.38692
 11
120.964
 21
-1.51978
  0
LINE
  8
0
 10
120.964
 20
-1.51978
 11
120.766
 21
-1.62868
  0
LINE
  8
0
 10
120.766
 20
-1.62868
 11
120.556
 21
-1.7119
  0
LINE
  8
0
 10
120.556
 20
-1.7119
 11
120.337
 21
-1.76811
  0
LINE
  8
0
 10
120.337
 20
-1.76811
 11
120.113
 21
-1.79645
  0
LINE
  8
0
 10
120.113
 20
-1.79645
 11
119.887
 21
-1.79645
  0
LINE
  8
0
 10
99.887
 20
-21.7964
 11
99.6627
 21
-21.7681
  0
LINE
  8
0
 10
99.6627
 20
-21.7681
 11
99.4438
 21
-21.7119
  0
LINE
  8
0
 10
99.4438
 20
-21.7119
 11
99.2336
 21
-21.6287
  0
LINE
  8
0
 10
99.2336
 20
-21.6287
 11
99.0355
 21
-21.5198
  0
LINE
  8
0
 10
99.0355
 20
-21.5198
 11
98.8526
 21
-21.3869
  0
LINE
  8
0
 10
98.8526
 20
-21.3869
 11
98.6879
 21
-21.2322
  0
LINE
  8
0
 10
98.6879
 20
-21.2322
 11
98.5438
 21
-21.058
  0
LINE
  8
0
 10
98.5438
 20
-21.058
 11
98.4226
 21
-20.8672
  0
LINE
  8
0
 10
98.4226
 20
-20.8672
 11
98.3264
 21
-20.6626
  0
LINE
  8
0
 10
98.3264
 20
-20.6626
 11
98.2565
 21
-20.4476
  0
LINE
  8
0
 10
98.2565
 20
-20.4476
 11
98.2142
 21
-20.2256
  0
LINE
  8
0
 10
98.2142
 20
-20.2256
 11
98.2
 21
-20
  0
LINE
  8
0
 10
98.2
 20
-20
 11
98.2142
 21
-19.7744
  0
LINE
  8
0
 10
98.2142
 20
-19.7744
 11
98.2565
 21
-19.5524
  0
LINE
  8
0
 10
98.2565
 20
-19.5524
 11
98.3264
 21
-19.3374
  0
LINE
  8
0
 10
98.3264
 20
-19.3374
 11
98.4226
 21
-19.1328
  0
LINE
  8
0
 10
98.4226
 20
-19.1328
 11
98.5438
 21
-18.942
  0
LINE
  8
0
 10
98.5438
 20
-18.942
 11
98.6879
 21
-18.7678
  0
LINE
  8
0
 10
98.6879
 20
-18.7678
 11
98.8526
 21
-18.6131
  0
LINE
  8
0
 10
98.8526
 20
-18.6131
 11
99.0355
 21
-18.4802
  0
LINE
  8
0
 10
99.0355
 20
-18.4802
 11
99.2336
 21
-18.3713
  0
LINE
  8
0
 10
99.2336
 20
-18.3713
 11
99.4438
 21
-18.2881
  0
LINE
  8
0
 10
99.4438
 20
-18.2881
 11
99.6627
 21
-18.2319
  0
LINE
  8
0
 10
99.6627
 20
-18.2319
 11
99.887
 21
-18.2036
  0
LINE
  8
0
 10
99.887
 20
-18.2036
 11
100.113
 21
-18.2036
  0
LINE
  8
0
 10
100.113
 20
-18.2036
 11
100.337
 21
-18.2319
  0
LINE
  8
0
 10
100.337
 20
-18.2319
 11
100.556
 21
-18.2881
  0
LINE
  8
0
 10
100.556
 20
-18.2881
 11
100.766
 21
-18.3713
  0
LINE
  8
0
 10
100.766
 20
-18.3713
 11
100.964
 21
-18.4802
  0
LINE
  8
0
 10
100.964
 20
-18.4802
 11
101.147
 21
-18.6131
  0
LINE
  8
0
 10
101.147
 20
-18.6131
 11
101.312
 21
-18.7678
  0
LINE
  8
0
 10
101.312
 20
-18.7678
 11
101.456
 21
-18.942
  0
LINE
  8
0
 10
101.456
 20
-18.942
 11
101.577
 21
-19.1328
  0
LINE
  8
0
 10
101.577
 20
-19.1328
 11
101.674
 21
-19.3374
  0
LINE
  8
0
 10
101.674
 20
-19.3374
 11
101.743
 21
-19.5524
  0
LINE
  8
0
 10
101.743
 20
-19.5524
 11
101.786
 21
-19.7744
  0
LINE
  8
0
 10
101.786
 20
-19.7744
 11
101.8
 21
-20
  0
LINE
  8
0
 10
101.8
 20
-20
 11
101.786
 21
-20.2256
  0
LINE
  8
0
 10
101.786
 20
-20.2256
 11
101.743
 21
-20.4476
  0
LINE
  8
0
 10
101.743
 20
-20.4476
 11
101.674
 21
-20.6626
  0
LINE
  8
0
 10
101.674
 20
-20.6626
 11
101.577
 21
-20.8672
  0
LINE
  8
0
 10
101.577
 20
-20.8672
 11
101.456
 21
-21.058
  0
LINE
  8
0
 10
101.456
 20
-21.058
 11
101.312
 21
-21.2322
  0
LINE
  8
0
 10
101.312
 20
-21.2322
 11
101.147
 21
-21.3869
  0
LINE
  8
0
 10
101.147
 20
-21.3869
 11
100.964
 21
-21.5198
  0
LINE
  8
0
 10
100.964
 20
-21.5198
 11
100.766
 21
-21.6287
  0
LINE
  8
0
 10
100.766
 20
-21.6287
 11
100.556
 21
-21.7119
  0
LINE
  8
0
 10
100.556
 20
-21.7119
 11
100.337
 21
-21.7681
  0
LINE
  8
0
 10
100.337
 20
-21.7681
 11
100.113
 21
-21.7964
  0
LINE
  8
0
 10
100.113
 20
-21.7964
 11
99.887
 21
-21.7964
  0
LINE
  8
0
 10
4.68452
 20
-24.5572
 11
7.72542
 21
-23.7764
  0
LINE
  8
0
 10
7.72542
 20
-23.7764
 11
10.6445
 21
-22.6207
  0
LINE
  8
0
 10
10.6445
 20
-22.6207
 11
13.3957
 21
-21.1082
  0
LINE
  8
0
 10
13.3957
 20
-21.1082
 11
15.9356
 21
-19.2628
  0
LINE
  8
0
 10
15.9356
 20
-19.2628
 11
18.2242
 21
-17.1137
  0
LINE
  8
0
 10
18.2242
 20
-17.1137
 11
20.2254
 21
-14.6946
  0
LINE
  8
0
 10
20.2254
 20
-14.6946
 11
21.9077
 21
-12.0438
  0
LINE
  8
0
 10
21.9077
 20
-12.0438
 11
23.2444
 21
-9.20311
  0
LINE
  8
0
 10
23.2444
 20
-9.20311
 11
24.2146
 21
-6.21724
  0
LINE
  8
0
 10
24.2146
 20
-6.21724
 11
24.8029
 21
-3.13332
  0
LINE
  8
0
 10
24.8029
 20
-3.13332
 11
25
 21
0
  0
LINE
  8
0
 10
25
 20
0
 11
24.8029
 21
3.13332
  0
LINE
  8
0
 10
24.8029
 20
3.13332
 11
24.2146
 21
6.21724
  0
LINE
  8
0
 10
24.2146
 20
6.21724
 11
23.2444
 21
9.20311
  0
LINE
  8
0
 10
23.2444
 20
9.20311
 11
21.9077
 21
12.0438
  0
LINE
  8
0
 10
21.9077
 20
12.0438
 11
20.2254
 21
14.6946
  0
LINE
  8
0
 10
20.2254
 20
14.6946
 11
18.2242
 21
17.1137
  0
LINE
  8
0
 10
18.2242
 20
17.1137
 11
15.9356
 21
19.2628
  0
LINE
  8
0
 10
15.9356
 20
19.2628
 11
13.3957
 21
21.1082
  0
LINE
  8
0
 10
13.3957
 20
21.1082
 11
10.6445
 21
22.6207
  0
LINE
  8
0
 10
10.6445
 20
22.6207
 11
7.72542
 21
23.7764
  0
LINE
  8
0
 10
7.72542
 20
23.7764
 11
4.68452
 21
24.5572
  0
LINE
  8
0
 10
4.68452
 20
24.5572
 11
1.56975
 21
24.9507
  0
LINE
  8
0
 10
1.56975
 20
24.9507
 11
-1.56975
 21
24.9507
  0
LINE
  8
0
 10
-1.56975
 20
24.9507
 11
-4.68452
 21
24.5572
  0
LINE
  8
0
 10
-4.68452
 20
24.5572
 11
-7.72542
 21
23.7764
  0
LINE
  8
0
 10
-7.72542
 20
23.7764
 11
-10.6445
 21
22.6207
  0
LINE
  8
0
 10
-10.6445
 20
22.6207
 11
-13.3957
 21
21.1082
  0
LINE
  8
0
 10
-13.3957
 20
21.1082
 11
-15.9356
 21
19.2628
  0
LINE
  8
0
 10
-15.9356
 20
19.2628
 11
-18.2242
 21
17.1137
  0
LINE
  8
0
 10
-18.2242
 20
17.1137
 11
-20.2254
 21
14.6946
  0
LINE
  8
0
 10
-20.2254
 20
14.6946
 11
-21.9077
 21
12.0438
  0
LINE
  8
0
 10
-21.9077
 20
12.0438
 11
-23.2444
 21
9.20311
  0
LINE
  8
0
 10
-23.2444
 20
9.20311
 11
-24.2146
 21
6.21724
  0
LINE
  8
0
 10
-24.2146
 20
6.21724
 11
-24.8029
 21
3.13332
  0
LINE
  8
0
 10
-24.8029
 20
3.13332
 11
-25
 21
0
  0
LINE
  8
0
 10
-25
 20
0
 11
-24.8029
 21
-3.13332
  0
LINE
  8
0
 10
-24.8029
 20
-3.13332
 11
-24.2146
 21
-6.21724
  0
LINE
  8
0
 10
-24.2146
 20
-6.21724
 11
-23.2444
 21
-9.20311
  0
LINE
  8
0
 10
-23.2444
 20
-9.20311
 11
-21.9077
 21
-12.0438
  0
LINE
  8
0
 10
-21.9077
 20
-12.0438
 11
-20.2254
 21
-14.6946
  0
LINE
  8
0
 10
-20.2254
 20
-14.6946
 11
-18.2242
 21
-17.1137
  0
LINE
  8
0
 10
-18.2242
 20
-17.1137
 11
-15.9356
 21
-19.2628
  0
LINE
  8
0
 10
-15.9356
 20
-19.2628
 11
-13.3957
 21
-21.1082
  0
LINE
  8
0
 10
-13.3957
 20
-21.1082
 11
-10.6445
 21
-22.6207
  0
LINE
  8
0
 10
-10.6445
 20
-22.6207
 11
-7.72542
 21
-23.7764
  0
LINE
  8
0
 10
-7.72542
 20
-23.7764
 11
-4.68452
 21
-24.5572
  0
LINE
  8
0
 10
-4.68452
 20
-24.5572
 11
-1.56975
 21
-24.9507
  0
LINE
  8
0
 10
-1.56975
 20
-24.9507
 11
1.56975
 21
-24.9507
  0
LINE
  8
0
 10
1.56975
 20
-24.9507
 11
4.68452
 21
-24.5572
  0
LINE
  8
0
 10
-0.113022
 20
18.2036
 11
-0.33728
 21
18.2319
  0
LINE
  8
0
 10
-0.33728
 20
18.2319
 11
-0.556229
 21
18.2881
  0
LINE
  8
0
 10
-0.556229
 20
18.2881
 11
-0.766388
 21
18.3713
  0
LINE
  8
0
 10
-0.766388
 20
18.3713
 11
-0.964478
 21
18.4802
  0
LINE
  8
0
 10
-0.964478
 20
18.4802
 11
-1.14735
 21
18.6131
  0
LINE
  8
0
 10
-1.14735
 20
18.6131
 11
-1.31213
 21
18.7678
  0
LINE
  8
0
 10
-1.31213
 20
18.7678
 11
-1.45622
 21
18.942
  0
LINE
  8
0
 10
-1.45622
 20
18.942
 11
-1.57735
 21
19.1328
  0
LINE
  8
0
 10
-1.57735
 20
19.1328
 11
-1.67358
 21
19.3374
  0
LINE
  8
0
 10
-1.67358
 20
19.3374
 11
-1.74344
 21
19.5524
  0
LINE
  8
0
 10
-1.74344
 20
19.5524
 11
-1.7858
 21
19.7744
  0
LINE
  8
0
 10
-1.7858
 20
19.7744
 11
-1.79999
 21
20
  0
LINE
  8
0
 10
-1.79999
 20
20
 11
-1.7858
 21
20.2256
  0
LINE
  8
0
 10
-1.7858
 20
20.2256
 11
-1.74344
 21
20.4476
  0
LINE
  8
0
 10
-1.74344
 20
20.4476
 11
-1.67358
 21
20.6626
  0
LINE
  8
0
 10
-1.67358
 20
20.6626
 11
-1.57735
 21
20.8672
  0
LINE
  8
0
 10
-1.57735
 20
20.8672
 11
-1.45622
 21
21.058
  0
LINE
  8
0
 10
-1.45622
 20
21.058
 11
-1.31213
 21
21.2322
  0
LINE
  8
0
 10
-1.31213
 20
21.2322
 11
-1.14735
 21
21.3869
  0
LINE
  8
0
 10
-1.14735
 20
21.3869
 11
-0.964478
 21
21.5198
  0
LINE
  8
0
 10
-0.964478
 20
21.5198
 11
-0.766388
 21
21.6287
  0
LINE
  8
0
 10
-0.766388
 20
21.6287
 11
-0.556229
 21
21.7119
  0
LINE
  8
0
 10
-0.556229
 20
21.7119
 11
-0.33728
 21
21.7681
  0
LINE
  8
0
 10
-0.33728
 20
21.7681
 11
-0.113022
 21
21.7964
  0
LINE
  8
0
 10
-0.113022
 20
21.7964
 11
0.113022
 21
21.7964
  0
LINE
  8
0
 10
0.113022
 20
21.7964
 11
0.33728
 21
21.7681
  0
LINE
  8
0
 10
0.33728
 20
21.7681
 11
0.556229
 21
21.7119
  0
LINE
  8
0
 10
0.556229
 20
21.7119
 11
0.766388
 21
21.6287
  0
LINE
  8
0
 10
0.766388
 20
21.6287
 11
0.964478
 21
21.5198
  0
LINE
  8
0
 10
0.964478
 20
21.5198
 11
1.14735
 21
21.3869
  0
LINE
  8
0
 10
1.14735
 20
21.3869
 11
1.31213
 21
21.2322
  0
LINE
  8
0
 10
1.31213
 20
21.2322
 11
1.45622
 21
21.058
  0
LINE
  8
0
 10
1.45622
 20
21.058
 11
1.57735
 21
20.8672
  0
LINE
  8
0
 10
1.57735
 20
20.8672
 11
1.67358
 21
20.6626
  0
LINE
  8
0
 10
1.67358
 20
20.6626
 11
1.74344
 21
20.4476
  0
LINE
  8
0
 10
1.74344
 20
20.4476
 11
1.7858
 21
20.2256
  0
LINE
  8
0
 10
1.7858
 20
20.2256
 11
1.79999
 21
20
  0
LINE
  8
0
 10
1.79999
 20
20
 11
1.7858
 21
19.7744
  0
LINE
  8
0
 10
1.7858
 20
19.7744
 11
1.74344
 21
19.5524
  0
LINE
  8
0
 10
1.74344
 20
19.5524
 11
1.67358
 21
19.3374
  0
LINE
  8
0
 10
1.67358
 20
19.3374
 11
1.57735
 21
19.1328
  0
LINE
  8
0
 10
1.57735
 20
19.1328
 11
1.45622
 21
18.942
  0
LINE
  8
0
 10
1.45622
 20
18.942
 11
1.31213
 21
18.7678
  0
LINE
  8
0
 10
1.31213
 20
18.7678
 11
1.14735
 21
18.6131
  0
LINE
  8
0
 10
1.14735
 20
18.6131
 11
0.964478
 21
18.4802
  0
LINE
  8
0
 10
0.964478
 20
18.4802
 11
0.766388
 21
18.3713
  0
LINE
  8
0
 10
0.766388
 20
18.3713
 11
0.556229
 21
18.2881
  0
LINE
  8
0
 10
0.556229
 20
18.2881
 11
0.33728
 21
18.2319
  0
LINE
  8
0
 10
0.33728
 20
18.2319
 11
0.113022
 21
18.2036
  0
LINE
  8
0
 10
0.113022
 20
18.2036
 11
-0.113022
 21
18.2036
  0
LINE
  8
0
 10
-15.6502
 20
14.0589
 11
-15.8371
 21
14.0826
  0
LINE
  8
0
 10
-15.8371
 20
14.0826
 11
-16.0195
 21
14.1294
  0
LINE
  8
0
 10
-16.0195
 20
14.1294
 11
-16.1947
 21
14.1987
  0
LINE
  8
0
 10
-16.1947
 20
14.1987
 11
-16.3597
 21
14.2895
  0
LINE
  8
0
 10
-16.3597
 20
14.2895
 11
-16.5121
 21
14.4002
  0
LINE
  8
0
 10
-16.5121
 20
14.4002
 11
-16.6494
 21
14.5292
  0
LINE
  8
0
 10
-16.6494
 20
14.5292
 11
-16.7695
 21
14.6743
  0
LINE
  8
0
 10
-16.7695
 20
14.6743
 11
-16.8705
 21
14.8334
  0
LINE
  8
0
 10
-16.8705
 20
14.8334
 11
-16.9507
 21
15.0038
  0
LINE
  8
0
 10
-16.9507
 20
15.0038
 11
-17.0089
 21
15.183
  0
LINE
  8
0
 10
-17.0089
 20
15.183
 11
-17.0442
 21
15.368
  0
LINE
  8
0
 10
-17.0442
 20
15.368
 11
-17.056
 21
15.556
  0
LINE
  8
0
 10
-17.056
 20
15.556
 11
-17.0442
 21
15.744
  0
LINE
  8
0
 10
-17.0442
 20
15.744
 11
-17.0089
 21
15.929
  0
LINE
  8
0
 10
-17.0089
 20
15.929
 11
-16.9507
 21
16.1082
  0
LINE
  8
0
 10
-16.9507
 20
16.1082
 11
-16.8705
 21
16.2786
  0
LINE
  8
0
 10
-16.8705
 20
16.2786
 11
-16.7695
 21
16.4377
  0
LINE
  8
0
 10
-16.7695
 20
16.4377
 11
-16.6494
 21
16.5828
  0
LINE
  8
0
 10
-16.6494
 20
16.5828
 11
-16.5121
 21
16.7118
  0
LINE
  8
0
 10
-16.5121
 20
16.7118
 11
-16.3597
 21
16.8225
  0
LINE
  8
0
 10
-16.3597
 20
16.8225
 11
-16.1947
 21
16.9132
  0
LINE
  8
0
 10
-16.1947
 20
16.9132
 11
-16.0195
 21
16.9826
  0
LINE
  8
0
 10
-16.0195
 20
16.9826
 11
-15.8371
 21
17.0294
  0
LINE
  8
0
 10
-15.8371
 20
17.0294
 11
-15.6502
 21
17.053
  0
LINE
  8
0
 10
-15.6502
 20
17.053
 11
-15.4618
 21
17.053
  0
LINE
  8
0
 10
-15.4618
 20
17.053
 11
-15.2749
 21
17.0294
  0
LINE
  8
0
 10
-15.2749
 20
17.0294
 11
-15.0925
 21
16.9826
  0
LINE
  8
0
 10
-15.0925
 20
16.9826
 11
-14.9173
 21
16.9132
  0
LINE
  8
0
 10
-14.9173
 20
16.9132
 11
-14.7523
 21
16.8225
  0
LINE
  8
0
 10
-14.7523
 20
16.8225
 11
-14.5999
 21
16.7118
  0
LINE
  8
0
 10
-14.5999
 20
16.7118
 11
-14.4625
 21
16.5828
  0
LINE
  8
0
 10
-14.4625
 20
16.5828
 11
-14.3425
 21
16.4377
  0
LINE
  8
0
 10
-14.3425
 20
16.4377
 11
-14.2415
 21
16.2786
  0
LINE
  8
0
 10
-14.2415
 20
16.2786
 11
-14.1613
 21
16.1082
  0
LINE
  8
0
 10
-14.1613
 20
16.1082
 11
-14.1031
 21
15.929
  0
LINE
  8
0
 10
-14.1031
 20
15.929
 11
-14.0678
 21
15.744
  0
LINE
  8
0
 10
-14.0678
 20
15.744
 11
-14.056
 21
15.556
  0
LINE
  8
0
 10
-14.056
 20
15.556
 11
-14.0678
 21
15.368
  0
LINE
  8
0
 10
-14.0678
 20
15.368
 11
-14.1031
 21
15.183
  0
LINE
  8
0
 10
-14.1031
 20
15.183
 11
-14.1613
 21
15.0038
  0
LINE
  8
0
 10
-14.1613
 20
15.0038
 11
-14.2415
 21
14.8334
  0
LINE
  8
0
 10
-14.2415
 20
14.8334
 11
-14.3425
 21
14.6743
  0
LINE
  8
0
 10
-14.3425
 20
14.6743
 11
-14.4625
 21
14.5292
  0
LINE
  8
0
 10
-14.4625
 20
14.5292
 11
-14.5999
 21
14.4002
  0
LINE
  8
0
 10
-14.5999
 20
14.4002
 11
-14.7523
 21
14.2895
  0
LINE
  8
0
 10
-14.7523
 20
14.2895
 11
-14.9173
 21
14.1987
  0
LINE
  8
0
 10
-14.9173
 20
14.1987
 11
-15.0925
 21
14.1294
  0
LINE
  8
0
 10
-15.0925
 20
14.1294
 11
-15.2749
 21
14.0826
  0
LINE
  8
0
 10
-15.2749
 20
14.0826
 11
-15.4618
 21
14.0589
  0
LINE
  8
0
 10
-15.4618
 20
14.0589
 11
-15.6502
 21
14.0589
  0
LINE
  8
0
 10
15.4618
 20
14.0589
 11
15.2749
 21
14.0826
  0
LINE
  8
0
 10
15.2749
 20
14.0826
 11
15.0925
 21
14.1294
  0
LINE
  8
0
 10
15.0925
 20
14.1294
 11
14.9173
 21
14.1987
  0
LINE
  8
0
 10
14.9173
 20
14.1987
 11
14.7523
 21
14.2895
  0
LINE
  8
0
 10
14.7523
 20
14.2895
 11
14.5999
 21
14.4002
  0
LINE
  8
0
 10
14.5999
 20
14.4002
 11
14.4625
 21
14.5292
  0
LINE
  8
0
 10
14.4625
 20
14.5292
 11
14.3425
 21
14.6743
  0
LINE
  8
0
 10
14.3425
 20
14.6743
 11
14.2415
 21
14.8334
  0
LINE
  8
0
 10
14.2415
 20
14.8334
 11
14.1613
 21
15.0038
  0
LINE
  8
0
 10
14.1613
 20
15.0038
 11
14.1031
 21
15.183
  0
LINE
  8
0
 10
14.1031
 20
15.183
 11
14.0678
 21
15.368
  0
LINE
  8
0
 10
14.0678
 20
15.368
 11
14.056
 21
15.556
  0
LINE
  8
0
 10
14.056
 20
15.556
 11
14.0678
 21
15.744
  0
LINE
  8
0
 10
14.0678
 20
15.744
 11
14.1031
 21
15.929
  0
LINE
  8
0
 10
14.1031
 20
15.929
 11
14.1613
 21
16.1082
  0
LINE
  8
0
 10
14.1613
 20
16.1082
 11
14.2415
 21
16.2786
  0
LINE
  8
0
 10
14.2415
 20
16.2786
 11
14.3425
 21
16.4377
  0
LINE
  8
0
 10
14.3425
 20
16.4377
 11
14.4625
 21
16.5828
  0
LINE
  8
0
 10
14.4625
 20
16.5828
 11
14.5999
 21
16.7118
  0
LINE
  8
0
 10
14.5999
 20
16.7118
 11
14.7523
 21
16.8225
  0
LINE
  8
0
 10
14.7523
 20
16.8225
 11
14.9173
 21
16.9132
  0
LINE
  8
0
 10
14.9173
 20
16.9132
 11
15.0925
 21
16.9826
  0
LINE
  8
0
 10
15.0925
 20
16.9826
 11
15.2749
 21
17.0294
  0
LINE
  8
0
 10
15.2749
 20
17.0294
 11
15.4618
 21
17.053
  0
LINE
  8
0
 10
15.4618
 20
17.053
 11
15.6502
 21
17.053
  0
LINE
  8
0
 10
15.6502
 20
17.053
 11
15.8371
 21
17.0294
  0
LINE
  8
0
 10
15.8371
 20
17.0294
 11
16.0195
 21
16.9826
  0
LINE
  8
0
 10
16.0195
 20
16.9826
 11
16.1947
 21
16.9132
  0
LINE
  8
0
 10
16.1947
 20
16.9132
 11
16.3597
 21
16.8225
  0
LINE
  8
0
 10
16.3597
 20
16.8225
 11
16.5121
 21
16.7118
  0
LINE
  8
0
 10
16.5121
 20
16.7118
 11
16.6494
 21
16.5828
  0
LINE
  8
0
 10
16.6494
 20
16.5828
 11
16.7695
 21
16.4377
  0
LINE
  8
0
 10
16.7695
 20
16.4377
 11
16.8705
 21
16.2786
  0
LINE
  8
0
 10
16.8705
 20
16.2786
 11
16.9507
 21
16.1082
  0
LINE
  8
0
 10
16.9507
 20
16.1082
 11
17.0089
 21
15.929
  0
LINE
  8
0
 10
17.0089
 20
15.929
 11
17.0442
 21
15.744
  0
LINE
  8
0
 10
17.0442
 20
15.744
 11
17.056
 21
15.556
  0
LINE
  8
0
 10
17.056
 20
15.556
 11
17.0442
 21
15.368
  0
LINE
  8
0
 10
17.0442
 20
15.368
 11
17.0089
 21
15.183
  0
LINE
  8
0
 10
17.0089
 20
15.183
 11
16.9507
 21
15.0038
  0
LINE
  8
0
 10
16.9507
 20
15.0038
 11
16.8705
 21
14.8334
  0
LINE
  8
0
 10
16.8705
 20
14.8334
 11
16.7695
 21
14.6743
  0
LINE
  8
0
 10
16.7695
 20
14.6743
 11
16.6494
 21
14.5292
  0
LINE
  8
0
 10
16.6494
 20
14.5292
 11
16.5121
 21
14.4002
  0
LINE
  8
0
 10
16.5121
 20
14.4002
 11
16.3597
 21
14.2895
  0
LINE
  8
0
 10
16.3597
 20
14.2895
 11
16.1947
 21
14.1987
  0
LINE
  8
0
 10
16.1947
 20
14.1987
 11
16.0195
 21
14.1294
  0
LINE
  8
0
 10
16.0195
 20
14.1294
 11
15.8371
 21
14.0826
  0
LINE
  8
0
 10
15.8371
 20
14.0826
 11
15.6502
 21
14.0589
  0
LINE
  8
0
 10
15.6502
 20
14.0589
 11
15.4618
 21
14.0589
  0
LINE
  8
0
 10
-1.00464
 20
-15.9684
 11
-2.99809
 21
-15.7166
  0
LINE
  8
0
 10
-2.99809
 20
-15.7166
 11
-4.94426
 21
-15.2169
  0
LINE
  8
0
 10
-4.94426
 20
-15.2169
 11
-6.81245
 21
-14.4772
  0
LINE
  8
0
 10
-6.81245
 20
-14.4772
 11
-8.57323
 21
-13.5092
  0
LINE
  8
0
 10
-8.57323
 20
-13.5092
 11
-10.1988
 21
-12.3282
  0
LINE
  8
0
 10
-10.1988
 20
-12.3282
 11
-11.6635
 21
-10.9527
  0
LINE
  8
0
 10
-11.6635
 20
-10.9527
 11
-12.9443
 21
-9.40456
  0
LINE
  8
0
 10
-12.9443
 20
-9.40456
 11
-14.0209
 21
-7.70805
  0
LINE
  8
0
 10
-14.0209
 20
-7.70805
 11
-14.8764
 21
-5.88998
  0
LINE
  8
0
 10
-14.8764
 20
-5.88998
 11
-15.4973
 21
-3.97903
  0
LINE
  8
0
 10
-15.4973
 20
-3.97903
 11
-15.8738
 21
-2.00533
  0
LINE
  8
0
 10
-15.8738
 20
-2.00533
 11
-16
 21
0
  0
LINE
  8
0
 10
-16
 20
0
 11
-15.8738
 21
2.00533
  0
LINE
  8
0
 10
-15.8738
 20
2.00533
 11
-15.4973
 21
3.97903
  0
LINE
  8
0
 10
-15.4973
 20
3.97903
 11
-14.8764
 21
5.88998
  0
LINE
  8
0
 10
-14.8764
 20
5.88998
 11
-14.0209
 21
7.70805
  0
LINE
  8
0
 10
-14.0209
 20
7.70805
 11
-12.9443
 21
9.40456
  0
LINE
  8
0
 10
-12.9443
 20
9.40456
 11
-11.6635
 21
10.9527
  0
LINE
  8
0
 10
-11.6635
 20
10.9527
 11
-10.1988
 21
12.3282
  0
LINE
  8
0
 10
-10.1988
 20
12.3282
 11
-8.57323
 21
13.5092
  0
LINE
  8
0
 10
-8.57323
 20
13.5092
 11
-6.81245
 21
14.4772
  0
LINE
  8
0
 10
-6.81245
 20
14.4772
 11
-4.94426
 21
15.2169
  0
LINE
  8
0
 10
-4.94426
 20
15.2169
 11
-2.99809
 21
15.7166
  0
LINE
  8
0
 10
-2.99809
 20
15.7166
 11
-1.00464
 21
15.9684
  0
LINE
  8
0
 10
-1.00464
 20
15.9684
 11
1.00464
 21
15.9684
  0
LINE
  8
0
 10
1.00464
 20
15.9684
 11
2.99809
 21
15.7166
  0
LINE
  8
0
 10
2.99809
 20
15.7166
 11
4.94426
 21
15.2169
  0
LINE
  8
0
 10
4.94426
 20
15.2169
 11
6.81245
 21
14.4772
  0
LINE
  8
0
 10
6.81245
 20
14.4772
 11
8.57323
 21
13.5092
  0
LINE
  8
0
 10
8.57323
 20
13.5092
 11
10.1988
 21
12.3282
  0
LINE
  8
0
 10
10.1988
 20
12.3282
 11
11.6635
 21
10.9527
  0
LINE
  8
0
 10
11.6635
 20
10.9527
 11
12.9443
 21
9.40456
  0
LINE
  8
0
 10
12.9443
 20
9.40456
 11
14.0209
 21
7.70805
  0
LINE
  8
0
 10
14.0209
 20
7.70805
 11
14.8764
 21
5.88998
  0
LINE
  8
0
 10
14.8764
 20
5.88998
 11
15.4973
 21
3.97903
  0
LINE
  8
0
 10
15.4973
 20
3.97903
 11
15.8738
 21
2.00533
  0
LINE
  8
0
 10
15.8738
 20
2.00533
 11
16
 21
0
  0
LINE
  8
0
 10
16
 20
0
 11
15.8738
 21
-2.00533
  0
LINE
  8
0
 10
15.8738
 20
-2.00533
 11
15.4973
 21
-3.97903
  0
LINE
  8
0
 10
15.4973
 20
-3.97903
 11
14.8764
 21
-5.88998
  0
LINE
  8
0
 10
14.8764
 20
-5.88998
 11
14.0209
 21
-7.70805
  0
LINE
  8
0
 10
14.0209
 20
-7.70805
 11
12.9443
 21
-9.40456
  0
LINE
  8
0
 10
12.9443
 20
-9.40456
 11
11.6635
 21
-10.9527
  0
LINE
  8
0
 10
11.6635
 20
-10.9527
 11
10.1988
 21
-12.3282
  0
LINE
  8
0
 10
10.1988
 20
-12.3282
 11
8.57323
 21
-13.5092
  0
LINE
  8
0
 10
8.57323
 20
-13.5092
 11
6.81245
 21
-14.4772
  0
LINE
  8
0
 10
6.81245
 20
-14.4772
 11
4.94426
 21
-15.2169
  0
LINE
  8
0
 10
4.94426
 20
-15.2169
 11
2.99809
 21
-15.7166
  0
LINE
  8
0
 10
2.99809
 20
-15.7166
 11
1.00464
 21
-15.9684
  0
LINE
  8
0
 10
1.00464
 20
-15.9684
 11
-1.00464
 21
-15.9684
  0
LINE
  8
0
 10
2.34225
 20
-12.2786
 11
3.8627
 21
-11.8882
  0
LINE
  8
0
 10
3.8627
 20
-11.8882
 11
5.32224
 21
-11.3103
  0
LINE
  8
0
 10
5.32224
 20
-11.3103
 11
6.69783
 21
-10.5541
  0
LINE
  8
0
 10
6.69783
 20
-10.5541
 11
7.96779
 21
-9.63141
  0
LINE
  8
0
 10
7.96779
 20
-9.63141
 11
9.11211
 21
-8.55682
  0
LINE
  8
0
 10
9.11211
 20
-8.55682
 11
10.1127
 21
-7.34731
  0
LINE
  8
0
 10
10.1127
 20
-7.34731
 11
10.9538
 21
-6.02191
  0
LINE
  8
0
 10
10.9538
 20
-6.02191
 11
11.6222
 21
-4.60155
  0
LINE
  8
0
 10
11.6222
 20
-4.60155
 11
12.1073
 21
-3.10861
  0
LINE
  8
0
 10
12.1073
 20
-3.10861
 11
12.4014
 21
-1.56665
  0
LINE
  8
0
 10
12.4014
 20
-1.56665
 11
12.5
 21
0
  0
LINE
  8
0
 10
12.5
 20
0
 11
12.4014
 21
1.56665
  0
LINE
  8
0
 10
12.4014
 20
1.56665
 11
12.1073
 21
3.10861
  0
LINE
  8
0
 10
12.1073
 20
3.10861
 11
11.6222
 21
4.60155
  0
LINE
  8
0
 10
11.6222
 20
4.60155
 11
10.9538
 21
6.02191
  0
LINE
  8
0
 10
10.9538
 20
6.02191
 11
10.1127
 21
7.34731
  0
LINE
  8
0
 10
10.1127
 20
7.34731
 11
9.11211
 21
8.55682
  0
LINE
  8
0
 10
9.11211
 20
8.55682
 11
7.96779
 21
9.63141
  0
LINE
  8
0
 10
7.96779
 20
9.63141
 11
6.69783
 21
10.5541
  0
LINE
  8
0
 10
6.69783
 20
10.5541
 11
5.32224
 21
11.3103
  0
LINE
  8
0
 10
5.32224
 20
11.3103
 11
3.8627
 21
11.8882
  0
LINE
  8
0
 10
3.8627
 20
11.8882
 11
2.34225
 21
12.2786
  0
LINE
  8
0
 10
2.34225
 20
12.2786
 11
0.784866
 21
12.4753
  0
LINE
  8
0
 10
0.784866
 20
12.4753
 11
-0.784866
 21
12.4753
  0
LINE
  8
0
 10
-0.784866
 20
12.4753
 11
-2.34225
 21
12.2786
  0
LINE
  8
0
 10
-2.34225
 20
12.2786
 11
-3.8627
 21
11.8882
  0
LINE
  8
0
 10
-3.8627
 20
11.8882
 11
-5.32224
 21
11.3103
  0
LINE
  8
0
 10
-5.32224
 20
11.3103
 11
-6.69783
 21
10.5541
  0
LINE
  8
0
 10
-6.69783
 20
10.5541
 11
-7.96779
 21
9.63141
  0
LINE
  8
0
 10
-7.96779
 20
9.63141
 11
-9.11211
 21
8.55682
  0
LINE
  8
0
 10
-9.11211
 20
8.55682
 11
-10.1127
 21
7.34731
  0
LINE
  8
0
 10
-10.1127
 20
7.34731
 11
-10.9538
 21
6.02191
  0
LINE
  8
0
 10
-10.9538
 20
6.02191
 11
-11.6222
 21
4.60155
  0
LINE
  8
0
 10
-11.6222
 20
4.60155
 11
-12.1073
 21
3.10861
  0
LINE
  8
0
 10
-12.1073
 20
3.10861
 11
-12.4014
 21
1.56665
  0
LINE
  8
0
 10
-12.4014
 20
1.56665
 11
-12.5
 21
0
  0
LINE
  8
0
 10
-12.5
 20
0
 11
-12.4014
 21
-1.56665
  0
LINE
  8
0
 10
-12.4014
 20
-1.56665
 11
-12.1073
 21
-3.10861
  0
LINE
  8
0
 10
-12.1073
 20
-3.10861
 11
-11.6222
 21
-4.60155
  0
LINE
  8
0
 10
-11.6222
 20
-4.60155
 11
-10.9538
 21
-6.02191
  0
LINE
  8
0
 10
-10.9538
 20
-6.02191
 11
-10.1127
 21
-7.34731
  0
LINE
  8
0
 10
-10.1127
 20
-7.34731
 11
-9.11211
 21
-8.55682
  0
LINE
  8
0
 10
-9.11211
 20
-8.55682
 11
-7.96779
 21
-9.63141
  0
LINE
  8
0
 10
-7.96779
 20
-9.63141
 11
-6.69783
 21
-10.5541
  0
LINE
  8
0
 10
-6.69783
 20
-10.5541
 11
-5.32224
 21
-11.3103
  0
LINE
  8
0
 10
-5.32224
 20
-11.3103
 11
-3.8627
 21
-11.8882
  0
LINE
  8
0
 10
-3.8627
 20
-11.8882
 11
-2.34225
 21
-12.2786
  0
LINE
  8
0
 10
-2.34225
 20
-12.2786
 11
-0.784866
 21
-12.4753
  0
LINE
  8
0
 10
-0.784866
 20
-12.4753
 11
0.784866
 21
-12.4753
  0
LINE
  8
0
 10
0.784866
 20
-12.4753
 11
2.34225
 21
-12.2786
  0
LINE
  8
0
 10
-20.113
 20
-1.79645
 11
-20.3373
 21
-1.76811
  0
LINE
  8
0
 10
-20.3373
 20
-1.76811
 11
-20.5562
 21
-1.7119
  0
LINE
  8
0
 10
-20.5562
 20
-1.7119
 11
-20.7664
 21
-1.62868
  0
LINE
  8
0
 10
-20.7664
 20
-1.62868
 11
-20.9645
 21
-1.51978
  0
LINE
  8
0
 10
-20.9645
 20
-1.51978
 11
-21.1474
 21
-1.38692
  0
LINE
  8
0
 10
-21.1474
 20
-1.38692
 11
-21.3121
 21
-1.23218
  0
LINE
  8
0
 10
-21.3121
 20
-1.23218
 11
-21.4562
 21
-1.058
  0
LINE
  8
0
 10
-21.4562
 20
-1.058
 11
-21.5773
 21
-0.867142
  0
LINE
  8
0
 10
-21.5773
 20
-0.867142
 11
-21.6736
 21
-0.662613
  0
LINE
  8
0
 10
-21.6736
 20
-0.662613
 11
-21.7434
 21
-0.447632
  0
LINE
  8
0
 10
-21.7434
 20
-0.447632
 11
-21.7858
 21
-0.225586
  0
LINE
  8
0
 10
-21.7858
 20
-0.225586
 11
-21.8
 21
0
  0
LINE
  8
0
 10
-21.8
 20
0
 11
-21.7858
 21
0.225586
  0
LINE
  8
0
 10
-21.7858
 20
0.225586
 11
-21.7434
 21
0.447632
  0
LINE
  8
0
 10
-21.7434
 20
0.447632
 11
-21.6736
 21
0.662613
  0
LINE
  8
0
 10
-21.6736
 20
0.662613
 11
-21.5773
 21
0.867142
  0
LINE
  8
0
 10
-21.5773
 20
0.867142
 11
-21.4562
 21
1.058
  0
LINE
  8
0
 10
-21.4562
 20
1.058
 11
-21.3121
 21
1.23218
  0
LINE
  8
0
 10
-21.3121
 20
1.23218
 11
-21.1474
 21
1.38692
  0
LINE
  8
0
 10
-21.1474
 20
1.38692
 11
-20.9645
 21
1.51978
  0
LINE
  8
0
 10
-20.9645
 20
1.51978
 11
-20.7664
 21
1.62868
  0
LINE
  8
0
 10
-20.7664
 20
1.62868
 11
-20.5562
 21
1.7119
  0
LINE
  8
0
 10
-20.5562
 20
1.7119
 11
-20.3373
 21
1.76811
  0
LINE
  8
0
 10
-20.3373
 20
1.76811
 11
-20.113
 21
1.79645
  0
LINE
  8
0
 10
-20.113
 20
1.79645
 11
-19.887
 21
1.79645
  0
LINE
  8
0
 10
-19.887
 20
1.79645
 11
-19.6627
 21
1.76811
  0
LINE
  8
0
 10
-19.6627
 20
1.76811
 11
-19.4438
 21
1.7119
  0
LINE
  8
0
 10
-19.4438
 20
1.7119
 11
-19.2336
 21
1.62868
  0
LINE
  8
0
 10
-19.2336
 20
1.62868
 11
-19.0355
 21
1.51978
  0
LINE
  8
0
 10
-19.0355
 20
1.51978
 11
-18.8526
 21
1.38692
  0
LINE
  8
0
 10
-18.8526
 20
1.38692
 11
-18.6879
 21
1.23218
  0
LINE
  8
0
 10
-18.6879
 20
1.23218
 11
-18.5438
 21
1.058
  0
LINE
  8
0
 10
-18.5438
 20
1.058
 11
-18.4226
 21
0.867142
  0
LINE
  8
0
 10
-18.4226
 20
0.867142
 11
-18.3264
 21
0.662613
  0
LINE
  8
0
 10
-18.3264
 20
0.662613
 11
-18.2565
 21
0.447632
  0
LINE
  8
0
 10
-18.2565
 20
0.447632
 11
-18.2142
 21
0.225586
  0
LINE
  8
0
 10
-18.2142
 20
0.225586
 11
-18.2
 21
0
  0
LINE
  8
0
 10
-18.2
 20
0
 11
-18.2142
 21
-0.225586
  0
LINE
  8
0
 10
-18.2142
 20
-0.225586
 11
-18.2565
 21
-0.447632
  0
LINE
  8
0
 10
-18.2565
 20
-0.447632
 11
-18.3264
 21
-0.662613
  0
LINE
  8
0
 10
-18.3264
 20
-0.662613
 11
-18.4226
 21
-0.867142
  0
LINE
  8
0
 10
-18.4226
 20
-0.867142
 11
-18.5438
 21
-1.058
  0
LINE
  8
0
 10
-18.5438
 20
-1.058
 11
-18.6879
 21
-1.23218
  0
LINE
  8
0
 10
-18.6879
 20
-1.23218
 11
-18.8526
 21
-1.38692
  0
LINE
  8
0
 10
-18.8526
 20
-1.38692
 11
-19.0355
 21
-1.51978
  0
LINE
  8
0
 10
-19.0355
 20
-1.51978
 11
-19.2336
 21
-1.62868
  0
LINE
  8
0
 10
-19.2336
 20
-1.62868
 11
-19.4438
 21
-1.7119
  0
LINE
  8
0
 10
-19.4438
 20
-1.7119
 11
-19.6627
 21
-1.76811
  0
LINE
  8
0
 10
-19.6627
 20
-1.76811
 11
-19.887
 21
-1.79645
  0
LINE
  8
0
 10
-19.887
 20
-1.79645
 11
-20.113
 21
-1.79645
  0
LINE
  8
0
 10
19.887
 20
-1.79645
 11
19.6627
 21
-1.76811
  0
LINE
  8
0
 10
19.6627
 20
-1.76811
 11
19.4438
 21
-1.7119
  0
LINE
  8
0
 10
19.4438
 20
-1.7119
 11
19.2336
 21
-1.62868
  0
LINE
  8
0
 10
19.2336
 20
-1.62868
 11
19.0355
 21
-1.51978
  0
LINE
  8
0
 10
19.0355
 20
-1.51978
 11
18.8526
 21
-1.38692
  0
LINE
  8
0
 10
18.8526
 20
-1.38692
 11
18.6879
 21
-1.23218
  0
LINE
  8
0
 10
18.6879
 20
-1.23218
 11
18.5438
 21
-1.058
  0
LINE
  8
0
 10
18.5438
 20
-1.058
 11
18.4226
 21
-0.867142
  0
LINE
  8
0
 10
18.4226
 20
-0.867142
 11
18.3264
 21
-0.662613
  0
LINE
  8
0
 10
18.3264
 20
-0.662613
 11
18.2565
 21
-0.447632
  0
LINE
  8
0
 10
18.2565
 20
-0.447632
 11
18.2142
 21
-0.225586
  0
LINE
  8
0
 10
18.2142
 20
-0.225586
 11
18.2
 21
0
  0
LINE
  8
0
 10
18.2
 20
0
 11
18.2142
 21
0.225586
  0
LINE
  8
0
 10
18.2142
 20
0.225586
 11
18.2565
 21
0.447632
  0
LINE
  8
0
 10
18.2565
 20
0.447632
 11
18.3264
 21
0.662613
  0
LINE
  8
0
 10
18.3264
 20
0.662613
 11
18.4226
 21
0.867142
  0
LINE
  8
0
 10
18.4226
 20
0.867142
 11
18.5438
 21
1.058
  0
LINE
  8
0
 10
18.5438
 20
1.058
 11
18.6879
 21
1.23218
  0
LINE
  8
0
 10
18.6879
 20
1.23218
 11
18.8526
 21
1.38692
  0
LINE
  8
0
 10
18.8526
 20
1.38692
 11
19.0355
 21
1.51978
  0
LINE
  8
0
 10
19.0355
 20
1.51978
 11
19.2336
 21
1.62868
  0
LINE
  8
0
 10
19.2336
 20
1.62868
 11
19.4438
 21
1.7119
  0
LINE
  8
0
 10
19.4438
 20
1.7119
 11
19.6627
 21
1.76811
  0
LINE
  8
0
 10
19.6627
 20
1.76811
 11
19.887
 21
1.79645
  0
LINE
  8
0
 10
19.887
 20
1.79645
 11
20.113
 21
1.79645
  0
LINE
  8
0
 10
20.113
 20
1.79645
 11
20.3373
 21
1.76811
  0
LINE
  8
0
 10
20.3373
 20
1.76811
 11
20.5562
 21
1.7119
  0
LINE
  8
0
 10
20.5562
 20
1.7119
 11
20.7664
 21
1.62868
  0
LINE
  8
0
 10
20.7664
 20
1.62868
 11
20.9645
 21
1.51978
  0
LINE
  8
0
 10
20.9645
 20
1.51978
 11
21.1474
 21
1.38692
  0
LINE
  8
0
 10
21.1474
 20
1.38692
 11
21.3121
 21
1.23218
  0
LINE
  8
0
 10
21.3121
 20
1.23218
 11
21.4562
 21
1.058
  0
LINE
  8
0
 10
21.4562
 20
1.058
 11
21.5773
 21
0.867142
  0
LINE
  8
0
 10
21.5773
 20
0.867142
 11
21.6736
 21
0.662613
  0
LINE
  8
0
 10
21.6736
 20
0.662613
 11
21.7434
 21
0.447632
  0
LINE
  8
0
 10
21.7434
 20
0.447632
 11
21.7858
 21
0.225586
  0
LINE
  8
0
 10
21.7858
 20
0.225586
 11
21.8
 21
0
  0
LINE
  8
0
 10
21.8
 20
0
 11
21.7858
 21
-0.225586
  0
LINE
  8
0
 10
21.7858
 20
-0.225586
 11
21.7434
 21
-0.447632
  0
LINE
  8
0
 10
21.7434
 20
-0.447632
 11
21.6736
 21
-0.662613
  0
LINE
  8
0
 10
21.6736
 20
-0.662613
 11
21.5773
 21
-0.867142
  0
LINE
  8
0
 10
21.5773
 20
-0.867142
 11
21.4562
 21
-1.058
  0
LINE
  8
0
 10
21.4562
 20
-1.058
 11
21.3121
 21
-1.23218
  0
LINE
  8
0
 10
21.3121
 20
-1.23218
 11
21.1474
 21
-1.38692
  0
LINE
  8
0
 10
21.1474
 20
-1.38692
 11
20.9645
 21
-1.51978
  0
LINE
  8
0
 10
20.9645
 20
-1.51978
 11
20.7664
 21
-1.62868
  0
LINE
  8
0
 10
20.7664
 20
-1.62868
 11
20.5562
 21
-1.7119
  0
LINE
  8
0
 10
20.5562
 20
-1.7119
 11
20.3373
 21
-1.76811
  0
LINE
  8
0
 10
20.3373
 20
-1.76811
 11
20.113
 21
-1.79645
  0
LINE
  8
0
 10
20.113
 20
-1.79645
 11
19.887
 21
-1.79645
  0
LINE
  8
0
 10
15.4618
 20
-17.053
 11
15.2749
 21
-17.0294
  0
LINE
  8
0
 10
15.2749
 20
-17.0294
 11
15.0925
 21
-16.9826
  0
LINE
  8
0
 10
15.0925
 20
-16.9826
 11
14.9173
 21
-16.9132
  0
LINE
  8
0
 10
14.9173
 20
-16.9132
 11
14.7523
 21
-16.8225
  0
LINE
  8
0
 10
14.7523
 20
-16.8225
 11
14.5999
 21
-16.7118
  0
LINE
  8
0
 10
14.5999
 20
-16.7118
 11
14.4625
 21
-16.5828
  0
LINE
  8
0
 10
14.4625
 20
-16.5828
 11
14.3425
 21
-16.4377
  0
LINE
  8
0
 10
14.3425
 20
-16.4377
 11
14.2415
 21
-16.2786
  0
LINE
  8
0
 10
14.2415
 20
-16.2786
 11
14.1613
 21
-16.1082
  0
LINE
  8
0
 10
14.1613
 20
-16.1082
 11
14.1031
 21
-15.929
  0
LINE
  8
0
 10
14.1031
 20
-15.929
 11
14.0678
 21
-15.744
  0
LINE
  8
0
 10
14.0678
 20
-15.744
 11
14.056
 21
-15.556
  0
LINE
  8
0
 10
14.056
 20
-15.556
 11
14.0678
 21
-15.368
  0
LINE
  8
0
 10
14.0678
 20
-15.368
 11
14.1031
 21
-15.183
  0
LINE
  8
0
 10
14.1031
 20
-15.183
 11
14.1613
 21
-15.0038
  0
LINE
  8
0
 10
14.1613
 20
-15.0038
 11
14.2415
 21
-14.8334
  0
LINE
  8
0
 10
14.2415
 20
-14.8334
 11
14.3425
 21
-14.6743
  0
LINE
  8
0
 10
14.3425
 20
-14.6743
 11
14.4625
 21
-14.5292
  0
LINE
  8
0
 10
14.4625
 20
-14.5292
 11
14.5999
 21
-14.4002
  0
LINE
  8
0
 10
14.5999
 20
-14.4002
 11
14.7523
 21
-14.2895
  0
LINE
  8
0
 10
14.7523
 20
-14.2895
 11
14.9173
 21
-14.1987
  0
LINE
  8
0
 10
14.9173
 20
-14.1987
 11
15.0925
 21
-14.1294
  0
LINE
  8
0
 10
15.0925
 20
-14.1294
 11
15.2749
 21
-14.0826
  0
LINE
  8
0
 10
15.2749
 20
-14.0826
 11
15.4618
 21
-14.0589
  0
LINE
  8
0
 10
15.4618
 20
-14.0589
 11
15.6502
 21
-14.0589
  0
LINE
  8
0
 10
15.6502
 20
-14.0589
 11
15.8371
 21
-14.0826
  0
LINE
  8
0
 10
15.8371
 20
-14.0826
 11
16.0195
 21
-14.1294
  0
LINE
  8
0
 10
16.0195
 20
-14.1294
 11
16.1947
 21
-14.1987
  0
LINE
  8
0
 10
16.1947
 20
-14.1987
 11
16.3597
 21
-14.2895
  0
LINE
  8
0
 10
16.3597
 20
-14.2895
 11
16.5121
 21
-14.4002
  0
LINE
  8
0
 10
16.5121
 20
-14.4002
 11
16.6494
 21
-14.5292
  0
LINE
  8
0
 10
16.6494
 20
-14.5292
 11
16.7695
 21
-14.6743
  0
LINE
  8
0
 10
16.7695
 20
-14.6743
 11
16.8705
 21
-14.8334
  0
LINE
  8
0
 10
16.8705
 20
-14.8334
 11
16.9507
 21
-15.0038
  0
LINE
  8
0
 10
16.9507
 20
-15.0038
 11
17.0089
 21
-15.183
  0
LINE
  8
0
 10
17.0089
 20
-15.183
 11
17.0442
 21
-15.368
  0
LINE
  8
0
 10
17.0442
 20
-15.368
 11
17.056
 21
-15.556
  0
LINE
  8
0
 10
17.056
 20
-15.556
 11
17.0442
 21
-15.744
  0
LINE
  8
0
 10
17.0442
 20
-15.744
 11
17.0089
 21
-15.929
  0
LINE
  8
0
 10
17.0089
 20
-15.929
 11
16.9507
 21
-16.1082
  0
LINE
  8
0
 10
16.9507
 20
-16.1082
 11
16.8705
 21
-16.2786
  0
LINE
  8
0
 10
16.8705
 20
-16.2786
 11
16.7695
 21
-16.4377
  0
LINE
  8
0
 10
16.7695
 20
-16.4377
 11
16.6494
 21
-16.5828
  0
LINE
  8
0
 10
16.6494
 20
-16.5828
 11
16.5121
 21
-16.7118
  0
LINE
  8
0
 10
16.5121
 20
-16.7118
 11
16.3597
 21
-16.8225
  0
LINE
  8
0
 10
16.3597
 20
-16.8225
 11
16.1947
 21
-16.9132
  0
LINE
  8
0
 10
16.1947
 20
-16.9132
 11
16.0195
 21
-16.9826
  0
LINE
  8
0
 10
16.0195
 20
-16.9826
 11
15.8371
 21
-17.0294
  0
LINE
  8
0
 10
15.8371
 20
-17.0294
 11
15.6502
 21
-17.053
  0
LINE
  8
0
 10
15.6502
 20
-17.053
 11
15.4618
 21
-17.053
  0
LINE
  8
0
 10
-15.6502
 20
-17.053
 11
-15.8371
 21
-17.0294
  0
LINE
  8
0
 10
-15.8371
 20
-17.0294
 11
-16.0195
 21
-16.9826
  0
LINE
  8
0
 10
-16.0195
 20
-16.9826
 11
-16.1947
 21
-16.9132
  0
LINE
  8
0
 10
-16.1947
 20
-16.9132
 11
-16.3597
 21
-16.8225
  0
LINE
  8
0
 10
-16.3597
 20
-16.8225
 11
-16.5121
 21
-16.7118
  0
LINE
  8
0
 10
-16.5121
 20
-16.7118
 11
-16.6494
 21
-16.5828
  0
LINE
  8
0
 10
-16.6494
 20
-16.5828
 11
-16.7695
 21
-16.4377
  0
LINE
  8
0
 10
-16.7695
 20
-16.4377
 11
-16.8705
 21
-16.2786
  0
LINE
  8
0
 10
-16.8705
 20
-16.2786
 11
-16.9507
 21
-16.1082
  0
LINE
  8
0
 10
-16.9507
 20
-16.1082
 11
-17.0089
 21
-15.929
  0
LINE
  8
0
 10
-17.0089
 20
-15.929
 11
-17.0442
 21
-15.744
  0
LINE
  8
0
 10
-17.0442
 20
-15.744
 11
-17.056
 21
-15.556
  0
LINE
  8
0
 10
-17.056
 20
-15.556
 11
-17.0442
 21
-15.368
  0
LINE
  8
0
 10
-17.0442
 20
-15.368
 11
-17.0089
 21
-15.183
  0
LINE
  8
0
 10
-17.0089
 20
-15.183
 11
-16.9507
 21
-15.0038
  0
LINE
  8
0
 10
-16.9507
 20
-15.0038
 11
-16.8705
 21
-14.8334
  0
LINE
  8
0
 10
-16.8705
 20
-14.8334
 11
-16.7695
 21
-14.6743
  0
LINE
  8
0
 10
-16.7695
 20
-14.6743
 11
-16.6494
 21
-14.5292
  0
LINE
  8
0
 10
-16.6494
 20
-14.5292
 11
-16.5121
 21
-14.4002
  0
LINE
  8
0
 10
-16.5121
 20
-14.4002
 11
-16.3597
 21
-14.2895
  0
LINE
  8
0
 10
-16.3597
 20
-14.2895
 11
-16.1947
 21
-14.1987
  0
LINE
  8
0
 10
-16.1947
 20
-14.1987
 11
-16.0195
 21
-14.1294
  0
LINE
  8
0
 10
-16.0195
 20
-14.1294
 11
-15.8371
 21
-14.0826
  0
LINE
  8
0
 10
-15.8371
 20
-14.0826
 11
-15.6502
 21
-14.0589
  0
LINE
  8
0
 10
-15.6502
 20
-14.0589
 11
-15.4618
 21
-14.0589
  0
LINE
  8
0
 10
-15.4618
 20
-14.0589
 11
-15.2749
 21
-14.0826
  0
LINE
  8
0
 10
-15.2749
 20
-14.0826
 11
-15.0925
 21
-14.1294
  0
LINE
  8
0
 10
-15.0925
 20
-14.1294
 11
-14.9173
 21
-14.1987
  0
LINE
  8
0
 10
-14.9173
 20
-14.1987
 11
-14.7523
 21
-14.2895
  0
LINE
  8
0
 10
-14.7523
 20
-14.2895
 11
-14.5999
 21
-14.4002
  0
LINE
  8
0
 10
-14.5999
 20
-14.4002
 11
-14.4625
 21
-14.5292
  0
LINE
  8
0
 10
-14.4625
 20
-14.5292
 11
-14.3425
 21
-14.6743
  0
LINE
  8
0
 10
-14.3425
 20
-14.6743
 11
-14.2415
 21
-14.8334
  0
LINE
  8
0
 10
-14.2415
 20
-14.8334
 11
-14.1613
 21
-15.0038
  0
LINE
  8
0
 10
-14.1613
 20
-15.0038
 11
-14.1031
 21
-15.183
  0
LINE
  8
0
 10
-14.1031
 20
-15.183
 11
-14.0678
 21
-15.368
  0
LINE
  8
0
 10
-14.0678
 20
-15.368
 11
-14.056
 21
-15.556
  0
LINE
  8
0
 10
-14.056
 20
-15.556
 11
-14.0678
 21
-15.744
  0
LINE
  8
0
 10
-14.0678
 20
-15.744
 11
-14.1031
 21
-15.929
  0
LINE
  8
0
 10
-14.1031
 20
-15.929
 11
-14.1613
 21
-16.1082
  0
LINE
  8
0
 10
-14.1613
 20
-16.1082
 11
-14.2415
 21
-16.2786
  0
LINE
  8
0
 10
-14.2415
 20
-16.2786
 11
-14.3425
 21
-16.4377
  0
LINE
  8
0
 10
-14.3425
 20
-16.4377
 11
-14.4625
 21
-16.5828
  0
LINE
  8
0
 10
-14.4625
 20
-16.5828
 11
-14.5999
 21
-16.7118
  0
LINE
  8
0
 10
-14.5999
 20
-16.7118
 11
-14.7523
 21
-16.8225
  0
LINE
  8
0
 10
-14.7523
 20
-16.8225
 11
-14.9173
 21
-16.9132
  0
LINE
  8
0
 10
-14.9173
 20
-16.9132
 11
-15.0925
 21
-16.9826
  0
LINE
  8
0
 10
-15.0925
 20
-16.9826
 11
-15.2749
 21
-17.0294
  0
LINE
  8
0
 10
-15.2749
 20
-17.0294
 11
-15.4618
 21
-17.053
  0
LINE
  8
0
 10
-15.4618
 20
-17.053
 11
-15.6502
 21
-17.053
  0
LINE
  8
0
 10
-0.113022
 20
-21.7964
 11
-0.33728
 21
-21.7681
  0
LINE
  8
0
 10
-0.33728
 20
-21.7681
 11
-0.556229
 21
-21.7119
  0
LINE
  8
0
 10
-0.556229
 20
-21.7119
 11
-0.766388
 21
-21.6287
  0
LINE
  8
0
 10
-0.766388
 20
-21.6287
 11
-0.964478
 21
-21.5198
  0
LINE
  8
0
 10
-0.964478
 20
-21.5198
 11
-1.14735
 21
-21.3869
  0
LINE
  8
0
 10
-1.14735
 20
-21.3869
 11
-1.31213
 21
-21.2322
  0
LINE
  8
0
 10
-1.31213
 20
-21.2322
 11
-1.45622
 21
-21.058
  0
LINE
  8
0
 10
-1.45622
 20
-21.058
 11
-1.57735
 21
-20.8672
  0
LINE
  8
0
 10
-1.57735
 20
-20.8672
 11
-1.67358
 21
-20.6626
  0
LINE
  8
0
 10
-1.67358
 20
-20.6626
 11
-1.74344
 21
-20.4476
  0
LINE
  8
0
 10
-1.74344
 20
-20.4476
 11
-1.7858
 21
-20.2256
  0
LINE
  8
0
 10
-1.7858
 20
-20.2256
 11
-1.79999
 21
-20
  0
LINE
  8
0
 10
-1.79999
 20
-20
 11
-1.7858
 21
-19.7744
  0
LINE
  8
0
 10
-1.7858
 20
-19.7744
 11
-1.74344
 21
-19.5524
  0
LINE
  8
0
 10
-1.74344
 20
-19.5524
 11
-1.67358
 21
-19.3374
  0
LINE
  8
0
 10
-1.67358
 20
-19.3374
 11
-1.57735
 21
-19.1328
  0
LINE
  8
0
 10
-1.57735
 20
-19.1328
 11
-1.45622
 21
-18.942
  0
LINE
  8
0
 10
-1.45622
 20
-18.942
 11
-1.31213
 21
-18.7678
  0
LINE
  8
0
 10
-1.31213
 20
-18.7678
 11
-1.14735
 21
-18.6131
  0
LINE
  8
0
 10
-1.14735
 20
-18.6131
 11
-0.964478
 21
-18.4802
  0
LINE
  8
0
 10
-0.964478
 20
-18.4802
 11
-0.766388
 21
-18.3713
  0
LINE
  8
0
 10
-0.766388
 20
-18.3713
 11
-0.556229
 21
-18.2881
  0
LINE
  8
0
 10
-0.556229
 20
-18.2881
 11
-0.33728
 21
-18.2319
  0
LINE
  8
0
 10
-0.33728
 20
-18.2319
 11
-0.113022
 21
-18.2036
  0
LINE
  8
0
 10
-0.113022
 20
-18.2036
 11
0.113022
 21
-18.2036
  0
LINE
  8
0
 10
0.113022
 20
-18.2036
 11
0.33728
 21
-18.2319
  0
LINE
  8
0
 10
0.33728
 20
-18.2319
 11
0.556229
 21
-18.2881
  0
LINE
  8
0
 10
0.556229
 20
-18.2881
 11
0.766388
 21
-18.3713
  0
LINE
  8
0
 10
0.766388
 20
-18.3713
 11
0.964478
 21
-18.4802
  0
LINE
  8
0
 10
0.964478
 20
-18.4802
 11
1.14735
 21
-18.6131
  0
LINE
  8
0
 10
1.14735
 20
-18.6131
 11
1.31213
 21
-18.7678
  0
LINE
  8
0
 10
1.31213
 20
-18.7678
 11
1.45622
 21
-18.942
  0
LINE
  8
0
 10
1.45622
 20
-18.942
 11
1.57735
 21
-19.1328
  0
LINE
  8
0
 10
1.57735
 20
-19.1328
 11
1.67358
 21
-19.3374
  0
LINE
  8
0
 10
1.67358
 20
-19.3374
 11
1.74344
 21
-19.5524
  0
LINE
  8
0
 10
1.74344
 20
-19.5524
 11
1.7858
 21
-19.7744
  0
LINE
  8
0
 10
1.7858
 20
-19.7744
 11
1.79999
 21
-20
  0
LINE
  8
0
 10
1.79999
 20
-20
 11
1.7858
 21
-20.2256
  0
LINE
  8
0
 10
1.7858
 20
-20.2256
 11
1.74344
 21
-20.4476
  0
LINE
  8
0
 10
1.74344
 20
-20.4476
 11
1.67358
 21
-20.6626
  0
LINE
  8
0
 10
1.67358
 20
-20.6626
 11
1.57735
 21
-20.8672
  0
LINE
  8
0
 10
1.57735
 20
-20.8672
 11
1.45622
 21
-21.058
  0
LINE
  8
0
 10
1.45622
 20
-21.058
 11
1.31213
 21
-21.2322
  0
LINE
  8
0
 10
1.31213
 20
-21.2322
 11
1.14735
 21
-21.3869
  0
LINE
  8
0
 10
1.14735
 20
-21.3869
 11
0.964478
 21
-21.5198
  0
LINE
  8
0
 10
0.964478
 20
-21.5198
 11
0.766388
 21
-21.6287
  0
LINE
  8
0
 10
0.766388
 20
-21.6287
 11
0.556229
 21
-21.7119
  0
LINE
  8
0
 10
0.556229
 20
-21.7119
 11
0.33728
 21
-21.7681
  0
LINE
  8
0
 10
0.33728
 20
-21.7681
 11
0.113022
 21
-21.7964
  0
LINE
  8
0
 10
0.113022
 20
-21.7964
 11
-0.113022
 21
-21.7964
  0
ENDSEC
  0
SECTION
  2
OBJECTS
  0
DICTIONARY
  0
ENDSEC
  0
EOF
