  0
SECTION
  2
BLOCKS
  0
ENDSEC
  0
SECTION
  2
ENTITIES
  0
LINE
  8
0
 10
12.5545
 20
-65.8132
 11
20.7041
 21
-63.7208
  0
LINE
  8
0
 10
20.7041
 20
-63.7208
 11
28.5272
 21
-60.6234
  0
LINE
  8
0
 10
28.5272
 20
-60.6234
 11
35.9004
 21
-56.57
  0
LINE
  8
0
 10
35.9004
 20
-56.57
 11
42.7074
 21
-51.6244
  0
LINE
  8
0
 10
42.7074
 20
-51.6244
 11
48.8409
 21
-45.8647
  0
LINE
  8
0
 10
48.8409
 20
-45.8647
 11
54.2041
 21
-39.3816
  0
LINE
  8
0
 10
54.2041
 20
-39.3816
 11
58.7125
 21
-32.2775
  0
LINE
  8
0
 10
58.7125
 20
-32.2775
 11
62.295
 21
-24.6643
  0
LINE
  8
0
 10
62.295
 20
-24.6643
 11
64.8951
 21
-16.6622
  0
LINE
  8
0
 10
64.8951
 20
-16.6622
 11
66.4717
 21
-8.39732
  0
LINE
  8
0
 10
66.4717
 20
-8.39732
 11
67
 21
0
  0
LINE
  8
0
 10
67
 20
0
 11
66.4717
 21
8.39732
  0
LINE
  8
0
 10
66.4717
 20
8.39732
 11
64.8951
 21
16.6622
  0
LINE
  8
0
 10
64.8951
 20
16.6622
 11
62.295
 21
24.6643
  0
LINE
  8
0
 10
62.295
 20
24.6643
 11
58.7125
 21
32.2775
  0
LINE
  8
0
 10
58.7125
 20
32.2775
 11
54.2041
 21
39.3816
  0
LINE
  8
0
 10
54.2041
 20
39.3816
 11
48.8409
 21
45.8647
  0
LINE
  8
0
 10
48.8409
 20
45.8647
 11
42.7074
 21
51.6244
  0
LINE
  8
0
 10
42.7074
 20
51.6244
 11
35.9004
 21
56.57
  0
LINE
  8
0
 10
35.9004
 20
56.57
 11
28.5272
 21
60.6234
  0
LINE
  8
0
 10
28.5272
 20
60.6234
 11
20.7041
 21
63.7208
  0
LINE
  8
0
 10
20.7041
 20
63.7208
 11
12.5545
 21
65.8132
  0
LINE
  8
0
 10
12.5545
 20
65.8132
 11
4.20695
 21
66.8678
  0
LINE
  8
0
 10
4.20695
 20
66.8678
 11
-4.20695
 21
66.8678
  0
LINE
  8
0
 10
-4.20695
 20
66.8678
 11
-12.5545
 21
65.8132
  0
LINE
  8
0
 10
-12.5545
 20
65.8132
 11
-20.7041
 21
63.7208
  0
LINE
  8
0
 10
-20.7041
 20
63.7208
 11
-28.5272
 21
60.6234
  0
LINE
  8
0
 10
-28.5272
 20
60.6234
 11
-35.9004
 21
56.57
  0
LINE
  8
0
 10
-35.9004
 20
56.57
 11
-42.7074
 21
51.6244
  0
LINE
  8
0
 10
-42.7074
 20
51.6244
 11
-48.8409
 21
45.8647
  0
LINE
  8
0
 10
-48.8409
 20
45.8647
 11
-54.2041
 21
39.3816
  0
LINE
  8
0
 10
-54.2041
 20
39.3816
 11
-58.7125
 21
32.2775
  0
LINE
  8
0
 10
-58.7125
 20
32.2775
 11
-62.295
 21
24.6643
  0
LINE
  8
0
 10
-62.295
 20
24.6643
 11
-64.8951
 21
16.6622
  0
LINE
  8
0
 10
-64.8951
 20
16.6622
 11
-66.4717
 21
8.39732
  0
LINE
  8
0
 10
-66.4717
 20
8.39732
 11
-67
 21
0
  0
LINE
  8
0
 10
-67
 20
0
 11
-66.4717
 21
-8.39732
  0
LINE
  8
0
 10
-66.4717
 20
-8.39732
 11
-64.8951
 21
-16.6622
  0
LINE
  8
0
 10
-64.8951
 20
-16.6622
 11
-62.295
 21
-24.6643
  0
LINE
  8
0
 10
-62.295
 20
-24.6643
 11
-58.7125
 21
-32.2775
  0
LINE
  8
0
 10
-58.7125
 20
-32.2775
 11
-54.2041
 21
-39.3816
  0
LINE
  8
0
 10
-54.2041
 20
-39.3816
 11
-48.8409
 21
-45.8647
  0
LINE
  8
0
 10
-48.8409
 20
-45.8647
 11
-42.7074
 21
-51.6244
  0
LINE
  8
0
 10
-42.7074
 20
-51.6244
 11
-35.9004
 21
-56.57
  0
LINE
  8
0
 10
-35.9004
 20
-56.57
 11
-28.5272
 21
-60.6234
  0
LINE
  8
0
 10
-28.5272
 20
-60.6234
 11
-20.7041
 21
-63.7208
  0
LINE
  8
0
 10
-20.7041
 20
-63.7208
 11
-12.5545
 21
-65.8132
  0
LINE
  8
0
 10
-12.5545
 20
-65.8132
 11
-4.20695
 21
-66.8678
  0
LINE
  8
0
 10
-4.20695
 20
-66.8678
 11
4.20695
 21
-66.8678
  0
LINE
  8
0
 10
4.20695
 20
-66.8678
 11
12.5545
 21
-65.8132
  0
LINE
  8
0
 10
-0.18837
 20
57.0059
 11
-0.562134
 21
57.0531
  0
LINE
  8
0
 10
-0.562134
 20
57.0531
 11
-0.927048
 21
57.1468
  0
LINE
  8
0
 10
-0.927048
 20
57.1468
 11
-1.27733
 21
57.2855
  0
LINE
  8
0
 10
-1.27733
 20
57.2855
 11
-1.60747
 21
57.467
  0
LINE
  8
0
 10
-1.60747
 20
57.467
 11
-1.91226
 21
57.6885
  0
LINE
  8
0
 10
-1.91226
 20
57.6885
 11
-2.1869
 21
57.9464
  0
LINE
  8
0
 10
-2.1869
 20
57.9464
 11
-2.42705
 21
58.2366
  0
LINE
  8
0
 10
-2.42705
 20
58.2366
 11
-2.62891
 21
58.5547
  0
LINE
  8
0
 10
-2.62891
 20
58.5547
 11
-2.78932
 21
58.8956
  0
LINE
  8
0
 10
-2.78932
 20
58.8956
 11
-2.90575
 21
59.2539
  0
LINE
  8
0
 10
-2.90575
 20
59.2539
 11
-2.97633
 21
59.624
  0
LINE
  8
0
 10
-2.97633
 20
59.624
 11
-3
 21
60
  0
LINE
  8
0
 10
-3
 20
60
 11
-2.97633
 21
60.376
  0
LINE
  8
0
 10
-2.97633
 20
60.376
 11
-2.90575
 21
60.7461
  0
LINE
  8
0
 10
-2.90575
 20
60.7461
 11
-2.78932
 21
61.1044
  0
LINE
  8
0
 10
-2.78932
 20
61.1044
 11
-2.62891
 21
61.4453
  0
LINE
  8
0
 10
-2.62891
 20
61.4453
 11
-2.42705
 21
61.7634
  0
LINE
  8
0
 10
-2.42705
 20
61.7634
 11
-2.1869
 21
62.0536
  0
LINE
  8
0
 10
-2.1869
 20
62.0536
 11
-1.91226
 21
62.3115
  0
LINE
  8
0
 10
-1.91226
 20
62.3115
 11
-1.60747
 21
62.533
  0
LINE
  8
0
 10
-1.60747
 20
62.533
 11
-1.27733
 21
62.7145
  0
LINE
  8
0
 10
-1.27733
 20
62.7145
 11
-0.927048
 21
62.8532
  0
LINE
  8
0
 10
-0.927048
 20
62.8532
 11
-0.562134
 21
62.9469
  0
LINE
  8
0
 10
-0.562134
 20
62.9469
 11
-0.18837
 21
62.9941
  0
LINE
  8
0
 10
-0.18837
 20
62.9941
 11
0.18837
 21
62.9941
  0
LINE
  8
0
 10
0.18837
 20
62.9941
 11
0.562134
 21
62.9469
  0
LINE
  8
0
 10
0.562134
 20
62.9469
 11
0.927048
 21
62.8532
  0
LINE
  8
0
 10
0.927048
 20
62.8532
 11
1.27733
 21
62.7145
  0
LINE
  8
0
 10
1.27733
 20
62.7145
 11
1.60747
 21
62.533
  0
LINE
  8
0
 10
1.60747
 20
62.533
 11
1.91226
 21
62.3115
  0
LINE
  8
0
 10
1.91226
 20
62.3115
 11
2.1869
 21
62.0536
  0
LINE
  8
0
 10
2.1869
 20
62.0536
 11
2.42705
 21
61.7634
  0
LINE
  8
0
 10
2.42705
 20
61.7634
 11
2.62891
 21
61.4453
  0
LINE
  8
0
 10
2.62891
 20
61.4453
 11
2.78932
 21
61.1044
  0
LINE
  8
0
 10
2.78932
 20
61.1044
 11
2.90575
 21
60.7461
  0
LINE
  8
0
 10
2.90575
 20
60.7461
 11
2.97633
 21
60.376
  0
LINE
  8
0
 10
2.97633
 20
60.376
 11
3
 21
60
  0
LINE
  8
0
 10
3
 20
60
 11
2.97633
 21
59.624
  0
LINE
  8
0
 10
2.97633
 20
59.624
 11
2.90575
 21
59.2539
  0
LINE
  8
0
 10
2.90575
 20
59.2539
 11
2.78932
 21
58.8956
  0
LINE
  8
0
 10
2.78932
 20
58.8956
 11
2.62891
 21
58.5547
  0
LINE
  8
0
 10
2.62891
 20
58.5547
 11
2.42705
 21
58.2366
  0
LINE
  8
0
 10
2.42705
 20
58.2366
 11
2.1869
 21
57.9464
  0
LINE
  8
0
 10
2.1869
 20
57.9464
 11
1.91226
 21
57.6885
  0
LINE
  8
0
 10
1.91226
 20
57.6885
 11
1.60747
 21
57.467
  0
LINE
  8
0
 10
1.60747
 20
57.467
 11
1.27733
 21
57.2855
  0
LINE
  8
0
 10
1.27733
 20
57.2855
 11
0.927048
 21
57.1468
  0
LINE
  8
0
 10
0.927048
 20
57.1468
 11
0.562134
 21
57.0531
  0
LINE
  8
0
 10
0.562134
 20
57.0531
 11
0.18837
 21
57.0059
  0
LINE
  8
0
 10
0.18837
 20
57.0059
 11
-0.18837
 21
57.0059
  0
LINE
  8
0
 10
-2.72083
 20
46.9417
 11
-3.09459
 21
46.989
  0
LINE
  8
0
 10
-3.09459
 20
46.989
 11
-3.4595
 21
47.0827
  0
LINE
  8
0
 10
-3.4595
 20
47.0827
 11
-3.80978
 21
47.2213
  0
LINE
  8
0
 10
-3.80978
 20
47.2213
 11
-4.13994
 21
47.4028
  0
LINE
  8
0
 10
-4.13994
 20
47.4028
 11
-4.44472
 21
47.6243
  0
LINE
  8
0
 10
-4.44472
 20
47.6243
 11
-4.71936
 21
47.8822
  0
LINE
  8
0
 10
-4.71936
 20
47.8822
 11
-4.9595
 21
48.1725
  0
LINE
  8
0
 10
-4.9595
 20
48.1725
 11
-5.16138
 21
48.4906
  0
LINE
  8
0
 10
-5.16138
 20
48.4906
 11
-5.32178
 21
48.8315
  0
LINE
  8
0
 10
-5.32178
 20
48.8315
 11
-5.4382
 21
49.1897
  0
LINE
  8
0
 10
-5.4382
 20
49.1897
 11
-5.50879
 21
49.5598
  0
LINE
  8
0
 10
-5.50879
 20
49.5598
 11
-5.53246
 21
49.9358
  0
LINE
  8
0
 10
-5.53246
 20
49.9358
 11
-5.50879
 21
50.3118
  0
LINE
  8
0
 10
-5.50879
 20
50.3118
 11
-5.4382
 21
50.6819
  0
LINE
  8
0
 10
-5.4382
 20
50.6819
 11
-5.32178
 21
51.0402
  0
LINE
  8
0
 10
-5.32178
 20
51.0402
 11
-5.16138
 21
51.3811
  0
LINE
  8
0
 10
-5.16138
 20
51.3811
 11
-4.9595
 21
51.6992
  0
LINE
  8
0
 10
-4.9595
 20
51.6992
 11
-4.71936
 21
51.9895
  0
LINE
  8
0
 10
-4.71936
 20
51.9895
 11
-4.44472
 21
52.2474
  0
LINE
  8
0
 10
-4.44472
 20
52.2474
 11
-4.13994
 21
52.4688
  0
LINE
  8
0
 10
-4.13994
 20
52.4688
 11
-3.80978
 21
52.6503
  0
LINE
  8
0
 10
-3.80978
 20
52.6503
 11
-3.4595
 21
52.789
  0
LINE
  8
0
 10
-3.4595
 20
52.789
 11
-3.09459
 21
52.8827
  0
LINE
  8
0
 10
-3.09459
 20
52.8827
 11
-2.72083
 21
52.9299
  0
LINE
  8
0
 10
-2.72083
 20
52.9299
 11
-2.34409
 21
52.9299
  0
LINE
  8
0
 10
-2.34409
 20
52.9299
 11
-1.97031
 21
52.8827
  0
LINE
  8
0
 10
-1.97031
 20
52.8827
 11
-1.60539
 21
52.789
  0
LINE
  8
0
 10
-1.60539
 20
52.789
 11
-1.25511
 21
52.6503
  0
LINE
  8
0
 10
-1.25511
 20
52.6503
 11
-0.924973
 21
52.4688
  0
LINE
  8
0
 10
-0.924973
 20
52.4688
 11
-0.620178
 21
52.2474
  0
LINE
  8
0
 10
-0.620178
 20
52.2474
 11
-0.345551
 21
51.9895
  0
LINE
  8
0
 10
-0.345551
 20
51.9895
 11
-0.105392
 21
51.6992
  0
LINE
  8
0
 10
-0.105392
 20
51.6992
 11
0.0964508
 21
51.3811
  0
LINE
  8
0
 10
0.0964508
 20
51.3811
 11
0.256866
 21
51.0402
  0
LINE
  8
0
 10
0.256866
 20
51.0402
 11
0.373291
 21
50.6819
  0
LINE
  8
0
 10
0.373291
 20
50.6819
 11
0.443878
 21
50.3118
  0
LINE
  8
0
 10
0.443878
 20
50.3118
 11
0.467529
 21
49.9358
  0
LINE
  8
0
 10
0.467529
 20
49.9358
 11
0.443878
 21
49.5598
  0
LINE
  8
0
 10
0.443878
 20
49.5598
 11
0.373291
 21
49.1897
  0
LINE
  8
0
 10
0.373291
 20
49.1897
 11
0.256866
 21
48.8315
  0
LINE
  8
0
 10
0.256866
 20
48.8315
 11
0.0964508
 21
48.4906
  0
LINE
  8
0
 10
0.0964508
 20
48.4906
 11
-0.105392
 21
48.1725
  0
LINE
  8
0
 10
-0.105392
 20
48.1725
 11
-0.345551
 21
47.8822
  0
LINE
  8
0
 10
-0.345551
 20
47.8822
 11
-0.620178
 21
47.6243
  0
LINE
  8
0
 10
-0.620178
 20
47.6243
 11
-0.924973
 21
47.4028
  0
LINE
  8
0
 10
-0.924973
 20
47.4028
 11
-1.25511
 21
47.2213
  0
LINE
  8
0
 10
-1.25511
 20
47.2213
 11
-1.60539
 21
47.0827
  0
LINE
  8
0
 10
-1.60539
 20
47.0827
 11
-1.97031
 21
46.989
  0
LINE
  8
0
 10
-1.97031
 20
46.989
 11
-2.34409
 21
46.9417
  0
LINE
  8
0
 10
-2.34409
 20
46.9417
 11
-2.72083
 21
46.9417
  0
LINE
  8
0
 10
7.38301
 20
46.4293
 11
7.00923
 21
46.4765
  0
LINE
  8
0
 10
7.00923
 20
46.4765
 11
6.64433
 21
46.5702
  0
LINE
  8
0
 10
6.64433
 20
46.5702
 11
6.29404
 21
46.7089
  0
LINE
  8
0
 10
6.29404
 20
46.7089
 11
5.9639
 21
46.8904
  0
LINE
  8
0
 10
5.9639
 20
46.8904
 11
5.6591
 21
47.1119
  0
LINE
  8
0
 10
5.6591
 20
47.1119
 11
5.38448
 21
47.3698
  0
LINE
  8
0
 10
5.38448
 20
47.3698
 11
5.14433
 21
47.66
  0
LINE
  8
0
 10
5.14433
 20
47.66
 11
4.94246
 21
47.9781
  0
LINE
  8
0
 10
4.94246
 20
47.9781
 11
4.78206
 21
48.319
  0
LINE
  8
0
 10
4.78206
 20
48.319
 11
4.66563
 21
48.6773
  0
LINE
  8
0
 10
4.66563
 20
48.6773
 11
4.59503
 21
49.0474
  0
LINE
  8
0
 10
4.59503
 20
49.0474
 11
4.57138
 21
49.4234
  0
LINE
  8
0
 10
4.57138
 20
49.4234
 11
4.59503
 21
49.7994
  0
LINE
  8
0
 10
4.59503
 20
49.7994
 11
4.66563
 21
50.1695
  0
LINE
  8
0
 10
4.66563
 20
50.1695
 11
4.78206
 21
50.5278
  0
LINE
  8
0
 10
4.78206
 20
50.5278
 11
4.94246
 21
50.8687
  0
LINE
  8
0
 10
4.94246
 20
50.8687
 11
5.14433
 21
51.1868
  0
LINE
  8
0
 10
5.14433
 20
51.1868
 11
5.38448
 21
51.4771
  0
LINE
  8
0
 10
5.38448
 20
51.4771
 11
5.6591
 21
51.735
  0
LINE
  8
0
 10
5.6591
 20
51.735
 11
5.9639
 21
51.9564
  0
LINE
  8
0
 10
5.9639
 20
51.9564
 11
6.29404
 21
52.1379
  0
LINE
  8
0
 10
6.29404
 20
52.1379
 11
6.64433
 21
52.2766
  0
LINE
  8
0
 10
6.64433
 20
52.2766
 11
7.00923
 21
52.3703
  0
LINE
  8
0
 10
7.00923
 20
52.3703
 11
7.38301
 21
52.4175
  0
LINE
  8
0
 10
7.38301
 20
52.4175
 11
7.75975
 21
52.4175
  0
LINE
  8
0
 10
7.75975
 20
52.4175
 11
8.13353
 21
52.3703
  0
LINE
  8
0
 10
8.13353
 20
52.3703
 11
8.49843
 21
52.2766
  0
LINE
  8
0
 10
8.49843
 20
52.2766
 11
8.84872
 21
52.1379
  0
LINE
  8
0
 10
8.84872
 20
52.1379
 11
9.17886
 21
51.9564
  0
LINE
  8
0
 10
9.17886
 20
51.9564
 11
9.48366
 21
51.735
  0
LINE
  8
0
 10
9.48366
 20
51.735
 11
9.75829
 21
51.4771
  0
LINE
  8
0
 10
9.75829
 20
51.4771
 11
9.99843
 21
51.1868
  0
LINE
  8
0
 10
9.99843
 20
51.1868
 11
10.2003
 21
50.8687
  0
LINE
  8
0
 10
10.2003
 20
50.8687
 11
10.3607
 21
50.5278
  0
LINE
  8
0
 10
10.3607
 20
50.5278
 11
10.4771
 21
50.1695
  0
LINE
  8
0
 10
10.4771
 20
50.1695
 11
10.5477
 21
49.7994
  0
LINE
  8
0
 10
10.5477
 20
49.7994
 11
10.5714
 21
49.4234
  0
LINE
  8
0
 10
10.5714
 20
49.4234
 11
10.5477
 21
49.0474
  0
LINE
  8
0
 10
10.5477
 20
49.0474
 11
10.4771
 21
48.6773
  0
LINE
  8
0
 10
10.4771
 20
48.6773
 11
10.3607
 21
48.319
  0
LINE
  8
0
 10
10.3607
 20
48.319
 11
10.2003
 21
47.9781
  0
LINE
  8
0
 10
10.2003
 20
47.9781
 11
9.99843
 21
47.66
  0
LINE
  8
0
 10
9.99843
 20
47.66
 11
9.75829
 21
47.3698
  0
LINE
  8
0
 10
9.75829
 20
47.3698
 11
9.48366
 21
47.1119
  0
LINE
  8
0
 10
9.48366
 20
47.1119
 11
9.17886
 21
46.8904
  0
LINE
  8
0
 10
9.17886
 20
46.8904
 11
8.84872
 21
46.7089
  0
LINE
  8
0
 10
8.84872
 20
46.7089
 11
8.49843
 21
46.5702
  0
LINE
  8
0
 10
8.49843
 20
46.5702
 11
8.13353
 21
46.4765
  0
LINE
  8
0
 10
8.13353
 20
46.4765
 11
7.75975
 21
46.4293
  0
LINE
  8
0
 10
7.75975
 20
46.4293
 11
7.38301
 21
46.4293
  0
LINE
  8
0
 10
-12.721
 20
45.4098
 11
-13.0948
 21
45.457
  0
LINE
  8
0
 10
-13.0948
 20
45.457
 11
-13.4597
 21
45.5507
  0
LINE
  8
0
 10
-13.4597
 20
45.5507
 11
-13.81
 21
45.6894
  0
LINE
  8
0
 10
-13.81
 20
45.6894
 11
-14.1401
 21
45.8709
  0
LINE
  8
0
 10
-14.1401
 20
45.8709
 11
-14.4449
 21
46.0923
  0
LINE
  8
0
 10
-14.4449
 20
46.0923
 11
-14.7195
 21
46.3502
  0
LINE
  8
0
 10
-14.7195
 20
46.3502
 11
-14.9597
 21
46.6405
  0
LINE
  8
0
 10
-14.9597
 20
46.6405
 11
-15.1615
 21
46.9586
  0
LINE
  8
0
 10
-15.1615
 20
46.9586
 11
-15.3219
 21
47.2995
  0
LINE
  8
0
 10
-15.3219
 20
47.2995
 11
-15.4384
 21
47.6578
  0
LINE
  8
0
 10
-15.4384
 20
47.6578
 11
-15.509
 21
48.0278
  0
LINE
  8
0
 10
-15.509
 20
48.0278
 11
-15.5326
 21
48.4039
  0
LINE
  8
0
 10
-15.5326
 20
48.4039
 11
-15.509
 21
48.7798
  0
LINE
  8
0
 10
-15.509
 20
48.7798
 11
-15.4384
 21
49.1499
  0
LINE
  8
0
 10
-15.4384
 20
49.1499
 11
-15.3219
 21
49.5082
  0
LINE
  8
0
 10
-15.3219
 20
49.5082
 11
-15.1615
 21
49.8491
  0
LINE
  8
0
 10
-15.1615
 20
49.8491
 11
-14.9597
 21
50.1672
  0
LINE
  8
0
 10
-14.9597
 20
50.1672
 11
-14.7195
 21
50.4575
  0
LINE
  8
0
 10
-14.7195
 20
50.4575
 11
-14.4449
 21
50.7154
  0
LINE
  8
0
 10
-14.4449
 20
50.7154
 11
-14.1401
 21
50.9368
  0
LINE
  8
0
 10
-14.1401
 20
50.9368
 11
-13.81
 21
51.1183
  0
LINE
  8
0
 10
-13.81
 20
51.1183
 11
-13.4597
 21
51.257
  0
LINE
  8
0
 10
-13.4597
 20
51.257
 11
-13.0948
 21
51.3507
  0
LINE
  8
0
 10
-13.0948
 20
51.3507
 11
-12.721
 21
51.3979
  0
LINE
  8
0
 10
-12.721
 20
51.3979
 11
-12.3443
 21
51.3979
  0
LINE
  8
0
 10
-12.3443
 20
51.3979
 11
-11.9705
 21
51.3507
  0
LINE
  8
0
 10
-11.9705
 20
51.3507
 11
-11.6056
 21
51.257
  0
LINE
  8
0
 10
-11.6056
 20
51.257
 11
-11.2553
 21
51.1183
  0
LINE
  8
0
 10
-11.2553
 20
51.1183
 11
-10.9251
 21
50.9368
  0
LINE
  8
0
 10
-10.9251
 20
50.9368
 11
-10.6203
 21
50.7154
  0
LINE
  8
0
 10
-10.6203
 20
50.7154
 11
-10.3457
 21
50.4575
  0
LINE
  8
0
 10
-10.3457
 20
50.4575
 11
-10.1056
 21
50.1672
  0
LINE
  8
0
 10
-10.1056
 20
50.1672
 11
-9.9037
 21
49.8491
  0
LINE
  8
0
 10
-9.9037
 20
49.8491
 11
-9.74329
 21
49.5082
  0
LINE
  8
0
 10
-9.74329
 20
49.5082
 11
-9.62688
 21
49.1499
  0
LINE
  8
0
 10
-9.62688
 20
49.1499
 11
-9.55627
 21
48.7798
  0
LINE
  8
0
 10
-9.55627
 20
48.7798
 11
-9.53262
 21
48.4039
  0
LINE
  8
0
 10
-9.53262
 20
48.4039
 11
-9.55627
 21
48.0278
  0
LINE
  8
0
 10
-9.55627
 20
48.0278
 11
-9.62688
 21
47.6578
  0
LINE
  8
0
 10
-9.62688
 20
47.6578
 11
-9.74329
 21
47.2995
  0
LINE
  8
0
 10
-9.74329
 20
47.2995
 11
-9.9037
 21
46.9586
  0
LINE
  8
0
 10
-9.9037
 20
46.9586
 11
-10.1056
 21
46.6405
  0
LINE
  8
0
 10
-10.1056
 20
46.6405
 11
-10.3457
 21
46.3502
  0
LINE
  8
0
 10
-10.3457
 20
46.3502
 11
-10.6203
 21
46.0923
  0
LINE
  8
0
 10
-10.6203
 20
46.0923
 11
-10.9251
 21
45.8709
  0
LINE
  8
0
 10
-10.9251
 20
45.8709
 11
-11.2553
 21
45.6894
  0
LINE
  8
0
 10
-11.2553
 20
45.6894
 11
-11.6056
 21
45.5507
  0
LINE
  8
0
 10
-11.6056
 20
45.5507
 11
-11.9705
 21
45.457
  0
LINE
  8
0
 10
-11.9705
 20
45.457
 11
-12.3443
 21
45.4098
  0
LINE
  8
0
 10
-12.3443
 20
45.4098
 11
-12.721
 21
45.4098
  0
LINE
  8
0
 10
17.1769
 20
43.8935
 11
16.8031
 21
43.9407
  0
LINE
  8
0
 10
16.8031
 20
43.9407
 11
16.4382
 21
44.0344
  0
LINE
  8
0
 10
16.4382
 20
44.0344
 11
16.0879
 21
44.1731
  0
LINE
  8
0
 10
16.0879
 20
44.1731
 11
15.7578
 21
44.3546
  0
LINE
  8
0
 10
15.7578
 20
44.3546
 11
15.453
 21
44.5761
  0
LINE
  8
0
 10
15.453
 20
44.5761
 11
15.1783
 21
44.834
  0
LINE
  8
0
 10
15.1783
 20
44.834
 11
14.9382
 21
45.1243
  0
LINE
  8
0
 10
14.9382
 20
45.1243
 11
14.7363
 21
45.4423
  0
LINE
  8
0
 10
14.7363
 20
45.4423
 11
14.5759
 21
45.7832
  0
LINE
  8
0
 10
14.5759
 20
45.7832
 11
14.4595
 21
46.1415
  0
LINE
  8
0
 10
14.4595
 20
46.1415
 11
14.3889
 21
46.5116
  0
LINE
  8
0
 10
14.3889
 20
46.5116
 11
14.3652
 21
46.8876
  0
LINE
  8
0
 10
14.3652
 20
46.8876
 11
14.3889
 21
47.2636
  0
LINE
  8
0
 10
14.3889
 20
47.2636
 11
14.4595
 21
47.6337
  0
LINE
  8
0
 10
14.4595
 20
47.6337
 11
14.5759
 21
47.992
  0
LINE
  8
0
 10
14.5759
 20
47.992
 11
14.7363
 21
48.3329
  0
LINE
  8
0
 10
14.7363
 20
48.3329
 11
14.9382
 21
48.651
  0
LINE
  8
0
 10
14.9382
 20
48.651
 11
15.1783
 21
48.9412
  0
LINE
  8
0
 10
15.1783
 20
48.9412
 11
15.453
 21
49.1991
  0
LINE
  8
0
 10
15.453
 20
49.1991
 11
15.7578
 21
49.4206
  0
LINE
  8
0
 10
15.7578
 20
49.4206
 11
16.0879
 21
49.6021
  0
LINE
  8
0
 10
16.0879
 20
49.6021
 11
16.4382
 21
49.7408
  0
LINE
  8
0
 10
16.4382
 20
49.7408
 11
16.8031
 21
49.8345
  0
LINE
  8
0
 10
16.8031
 20
49.8345
 11
17.1769
 21
49.8817
  0
LINE
  8
0
 10
17.1769
 20
49.8817
 11
17.5536
 21
49.8817
  0
LINE
  8
0
 10
17.5536
 20
49.8817
 11
17.9274
 21
49.8345
  0
LINE
  8
0
 10
17.9274
 20
49.8345
 11
18.2923
 21
49.7408
  0
LINE
  8
0
 10
18.2923
 20
49.7408
 11
18.6426
 21
49.6021
  0
LINE
  8
0
 10
18.6426
 20
49.6021
 11
18.9727
 21
49.4206
  0
LINE
  8
0
 10
18.9727
 20
49.4206
 11
19.2775
 21
49.1991
  0
LINE
  8
0
 10
19.2775
 20
49.1991
 11
19.5522
 21
48.9412
  0
LINE
  8
0
 10
19.5522
 20
48.9412
 11
19.7923
 21
48.651
  0
LINE
  8
0
 10
19.7923
 20
48.651
 11
19.9942
 21
48.3329
  0
LINE
  8
0
 10
19.9942
 20
48.3329
 11
20.1546
 21
47.992
  0
LINE
  8
0
 10
20.1546
 20
47.992
 11
20.271
 21
47.6337
  0
LINE
  8
0
 10
20.271
 20
47.6337
 11
20.3416
 21
47.2636
  0
LINE
  8
0
 10
20.3416
 20
47.2636
 11
20.3652
 21
46.8876
  0
LINE
  8
0
 10
20.3652
 20
46.8876
 11
20.3416
 21
46.5116
  0
LINE
  8
0
 10
20.3416
 20
46.5116
 11
20.271
 21
46.1415
  0
LINE
  8
0
 10
20.271
 20
46.1415
 11
20.1546
 21
45.7832
  0
LINE
  8
0
 10
20.1546
 20
45.7832
 11
19.9942
 21
45.4423
  0
LINE
  8
0
 10
19.9942
 20
45.4423
 11
19.7923
 21
45.1243
  0
LINE
  8
0
 10
19.7923
 20
45.1243
 11
19.5522
 21
44.834
  0
LINE
  8
0
 10
19.5522
 20
44.834
 11
19.2775
 21
44.5761
  0
LINE
  8
0
 10
19.2775
 20
44.5761
 11
18.9727
 21
44.3546
  0
LINE
  8
0
 10
18.9727
 20
44.3546
 11
18.6426
 21
44.1731
  0
LINE
  8
0
 10
18.6426
 20
44.1731
 11
18.2923
 21
44.0344
  0
LINE
  8
0
 10
18.2923
 20
44.0344
 11
17.9274
 21
43.9407
  0
LINE
  8
0
 10
17.9274
 20
43.9407
 11
17.5536
 21
43.8935
  0
LINE
  8
0
 10
17.5536
 20
43.8935
 11
17.1769
 21
43.8935
  0
LINE
  8
0
 10
-22.2081
 20
41.8961
 11
-22.5818
 21
41.9434
  0
LINE
  8
0
 10
-22.5818
 20
41.9434
 11
-22.9467
 21
42.037
  0
LINE
  8
0
 10
-22.9467
 20
42.037
 11
-23.297
 21
42.1757
  0
LINE
  8
0
 10
-23.297
 20
42.1757
 11
-23.6272
 21
42.3572
  0
LINE
  8
0
 10
-23.6272
 20
42.3572
 11
-23.932
 21
42.5787
  0
LINE
  8
0
 10
-23.932
 20
42.5787
 11
-24.2066
 21
42.8366
  0
LINE
  8
0
 10
-24.2066
 20
42.8366
 11
-24.4467
 21
43.1269
  0
LINE
  8
0
 10
-24.4467
 20
43.1269
 11
-24.6486
 21
43.445
  0
LINE
  8
0
 10
-24.6486
 20
43.445
 11
-24.809
 21
43.7858
  0
LINE
  8
0
 10
-24.809
 20
43.7858
 11
-24.9254
 21
44.1441
  0
LINE
  8
0
 10
-24.9254
 20
44.1441
 11
-24.996
 21
44.5142
  0
LINE
  8
0
 10
-24.996
 20
44.5142
 11
-25.0197
 21
44.8902
  0
LINE
  8
0
 10
-25.0197
 20
44.8902
 11
-24.996
 21
45.2662
  0
LINE
  8
0
 10
-24.996
 20
45.2662
 11
-24.9254
 21
45.6363
  0
LINE
  8
0
 10
-24.9254
 20
45.6363
 11
-24.809
 21
45.9946
  0
LINE
  8
0
 10
-24.809
 20
45.9946
 11
-24.6486
 21
46.3355
  0
LINE
  8
0
 10
-24.6486
 20
46.3355
 11
-24.4467
 21
46.6536
  0
LINE
  8
0
 10
-24.4467
 20
46.6536
 11
-24.2066
 21
46.9439
  0
LINE
  8
0
 10
-24.2066
 20
46.9439
 11
-23.932
 21
47.2018
  0
LINE
  8
0
 10
-23.932
 20
47.2018
 11
-23.6272
 21
47.4232
  0
LINE
  8
0
 10
-23.6272
 20
47.4232
 11
-23.297
 21
47.6047
  0
LINE
  8
0
 10
-23.297
 20
47.6047
 11
-22.9467
 21
47.7434
  0
LINE
  8
0
 10
-22.9467
 20
47.7434
 11
-22.5818
 21
47.8371
  0
LINE
  8
0
 10
-22.5818
 20
47.8371
 11
-22.2081
 21
47.8843
  0
LINE
  8
0
 10
-22.2081
 20
47.8843
 11
-21.8313
 21
47.8843
  0
LINE
  8
0
 10
-21.8313
 20
47.8843
 11
-21.4576
 21
47.8371
  0
LINE
  8
0
 10
-21.4576
 20
47.8371
 11
-21.0927
 21
47.7434
  0
LINE
  8
0
 10
-21.0927
 20
47.7434
 11
-20.7424
 21
47.6047
  0
LINE
  8
0
 10
-20.7424
 20
47.6047
 11
-20.4122
 21
47.4232
  0
LINE
  8
0
 10
-20.4122
 20
47.4232
 11
-20.1074
 21
47.2018
  0
LINE
  8
0
 10
-20.1074
 20
47.2018
 11
-19.8328
 21
46.9439
  0
LINE
  8
0
 10
-19.8328
 20
46.9439
 11
-19.5927
 21
46.6536
  0
LINE
  8
0
 10
-19.5927
 20
46.6536
 11
-19.3908
 21
46.3355
  0
LINE
  8
0
 10
-19.3908
 20
46.3355
 11
-19.2304
 21
45.9946
  0
LINE
  8
0
 10
-19.2304
 20
45.9946
 11
-19.114
 21
45.6363
  0
LINE
  8
0
 10
-19.114
 20
45.6363
 11
-19.0434
 21
45.2662
  0
LINE
  8
0
 10
-19.0434
 20
45.2662
 11
-19.0197
 21
44.8902
  0
LINE
  8
0
 10
-19.0197
 20
44.8902
 11
-19.0434
 21
44.5142
  0
LINE
  8
0
 10
-19.0434
 20
44.5142
 11
-19.114
 21
44.1441
  0
LINE
  8
0
 10
-19.114
 20
44.1441
 11
-19.2304
 21
43.7858
  0
LINE
  8
0
 10
-19.2304
 20
43.7858
 11
-19.3908
 21
43.445
  0
LINE
  8
0
 10
-19.3908
 20
43.445
 11
-19.5927
 21
43.1269
  0
LINE
  8
0
 10
-19.5927
 20
43.1269
 11
-19.8328
 21
42.8366
  0
LINE
  8
0
 10
-19.8328
 20
42.8366
 11
-20.1074
 21
42.5787
  0
LINE
  8
0
 10
-20.1074
 20
42.5787
 11
-20.4122
 21
42.3572
  0
LINE
  8
0
 10
-20.4122
 20
42.3572
 11
-20.7424
 21
42.1757
  0
LINE
  8
0
 10
-20.7424
 20
42.1757
 11
-21.0927
 21
42.037
  0
LINE
  8
0
 10
-21.0927
 20
42.037
 11
-21.4576
 21
41.9434
  0
LINE
  8
0
 10
-21.4576
 20
41.9434
 11
-21.8313
 21
41.8961
  0
LINE
  8
0
 10
-21.8313
 20
41.8961
 11
-22.2081
 21
41.8961
  0
LINE
  8
0
 10
26.2598
 20
39.4381
 11
25.886
 21
39.4854
  0
LINE
  8
0
 10
25.886
 20
39.4854
 11
25.5211
 21
39.579
  0
LINE
  8
0
 10
25.5211
 20
39.579
 11
25.1709
 21
39.7177
  0
LINE
  8
0
 10
25.1709
 20
39.7177
 11
24.8407
 21
39.8992
  0
LINE
  8
0
 10
24.8407
 20
39.8992
 11
24.5359
 21
40.1207
  0
LINE
  8
0
 10
24.5359
 20
40.1207
 11
24.2613
 21
40.3786
  0
LINE
  8
0
 10
24.2613
 20
40.3786
 11
24.0211
 21
40.6689
  0
LINE
  8
0
 10
24.0211
 20
40.6689
 11
23.8193
 21
40.987
  0
LINE
  8
0
 10
23.8193
 20
40.987
 11
23.6589
 21
41.3278
  0
LINE
  8
0
 10
23.6589
 20
41.3278
 11
23.5424
 21
41.6861
  0
LINE
  8
0
 10
23.5424
 20
41.6861
 11
23.4718
 21
42.0562
  0
LINE
  8
0
 10
23.4718
 20
42.0562
 11
23.4482
 21
42.4322
  0
LINE
  8
0
 10
23.4482
 20
42.4322
 11
23.4718
 21
42.8082
  0
LINE
  8
0
 10
23.4718
 20
42.8082
 11
23.5424
 21
43.1783
  0
LINE
  8
0
 10
23.5424
 20
43.1783
 11
23.6589
 21
43.5366
  0
LINE
  8
0
 10
23.6589
 20
43.5366
 11
23.8193
 21
43.8775
  0
LINE
  8
0
 10
23.8193
 20
43.8775
 11
24.0211
 21
44.1956
  0
LINE
  8
0
 10
24.0211
 20
44.1956
 11
24.2613
 21
44.4859
  0
LINE
  8
0
 10
24.2613
 20
44.4859
 11
24.5359
 21
44.7437
  0
LINE
  8
0
 10
24.5359
 20
44.7437
 11
24.8407
 21
44.9652
  0
LINE
  8
0
 10
24.8407
 20
44.9652
 11
25.1709
 21
45.1467
  0
LINE
  8
0
 10
25.1709
 20
45.1467
 11
25.5211
 21
45.2854
  0
LINE
  8
0
 10
25.5211
 20
45.2854
 11
25.886
 21
45.3791
  0
LINE
  8
0
 10
25.886
 20
45.3791
 11
26.2598
 21
45.4263
  0
LINE
  8
0
 10
26.2598
 20
45.4263
 11
26.6366
 21
45.4263
  0
LINE
  8
0
 10
26.6366
 20
45.4263
 11
27.0103
 21
45.3791
  0
LINE
  8
0
 10
27.0103
 20
45.3791
 11
27.3752
 21
45.2854
  0
LINE
  8
0
 10
27.3752
 20
45.2854
 11
27.7255
 21
45.1467
  0
LINE
  8
0
 10
27.7255
 20
45.1467
 11
28.0557
 21
44.9652
  0
LINE
  8
0
 10
28.0557
 20
44.9652
 11
28.3605
 21
44.7437
  0
LINE
  8
0
 10
28.3605
 20
44.7437
 11
28.6351
 21
44.4859
  0
LINE
  8
0
 10
28.6351
 20
44.4859
 11
28.8752
 21
44.1956
  0
LINE
  8
0
 10
28.8752
 20
44.1956
 11
29.0771
 21
43.8775
  0
LINE
  8
0
 10
29.0771
 20
43.8775
 11
29.2375
 21
43.5366
  0
LINE
  8
0
 10
29.2375
 20
43.5366
 11
29.3539
 21
43.1783
  0
LINE
  8
0
 10
29.3539
 20
43.1783
 11
29.4245
 21
42.8082
  0
LINE
  8
0
 10
29.4245
 20
42.8082
 11
29.4482
 21
42.4322
  0
LINE
  8
0
 10
29.4482
 20
42.4322
 11
29.4245
 21
42.0562
  0
LINE
  8
0
 10
29.4245
 20
42.0562
 11
29.3539
 21
41.6861
  0
LINE
  8
0
 10
29.3539
 20
41.6861
 11
29.2375
 21
41.3278
  0
LINE
  8
0
 10
29.2375
 20
41.3278
 11
29.0771
 21
40.987
  0
LINE
  8
0
 10
29.0771
 20
40.987
 11
28.8752
 21
40.6689
  0
LINE
  8
0
 10
28.8752
 20
40.6689
 11
28.6351
 21
40.3786
  0
LINE
  8
0
 10
28.6351
 20
40.3786
 11
28.3605
 21
40.1207
  0
LINE
  8
0
 10
28.3605
 20
40.1207
 11
28.0557
 21
39.8992
  0
LINE
  8
0
 10
28.0557
 20
39.8992
 11
27.7255
 21
39.7177
  0
LINE
  8
0
 10
27.7255
 20
39.7177
 11
27.3752
 21
39.579
  0
LINE
  8
0
 10
27.3752
 20
39.579
 11
27.0103
 21
39.4854
  0
LINE
  8
0
 10
27.0103
 20
39.4854
 11
26.6366
 21
39.4381
  0
LINE
  8
0
 10
26.6366
 20
39.4381
 11
26.2598
 21
39.4381
  0
LINE
  8
0
 10
-30.7937
 20
36.5447
 11
-31.1674
 21
36.5919
  0
LINE
  8
0
 10
-31.1674
 20
36.5919
 11
-31.5323
 21
36.6856
  0
LINE
  8
0
 10
-31.5323
 20
36.6856
 11
-31.8826
 21
36.8243
  0
LINE
  8
0
 10
-31.8826
 20
36.8243
 11
-32.2128
 21
37.0058
  0
LINE
  8
0
 10
-32.2128
 20
37.0058
 11
-32.5176
 21
37.2272
  0
LINE
  8
0
 10
-32.5176
 20
37.2272
 11
-32.7922
 21
37.4851
  0
LINE
  8
0
 10
-32.7922
 20
37.4851
 11
-33.0323
 21
37.7754
  0
LINE
  8
0
 10
-33.0323
 20
37.7754
 11
-33.2342
 21
38.0935
  0
LINE
  8
0
 10
-33.2342
 20
38.0935
 11
-33.3946
 21
38.4344
  0
LINE
  8
0
 10
-33.3946
 20
38.4344
 11
-33.511
 21
38.7927
  0
LINE
  8
0
 10
-33.511
 20
38.7927
 11
-33.5816
 21
39.1628
  0
LINE
  8
0
 10
-33.5816
 20
39.1628
 11
-33.6053
 21
39.5388
  0
LINE
  8
0
 10
-33.6053
 20
39.5388
 11
-33.5816
 21
39.9148
  0
LINE
  8
0
 10
-33.5816
 20
39.9148
 11
-33.511
 21
40.2849
  0
LINE
  8
0
 10
-33.511
 20
40.2849
 11
-33.3946
 21
40.6432
  0
LINE
  8
0
 10
-33.3946
 20
40.6432
 11
-33.2342
 21
40.984
  0
LINE
  8
0
 10
-33.2342
 20
40.984
 11
-33.0323
 21
41.3021
  0
LINE
  8
0
 10
-33.0323
 20
41.3021
 11
-32.7922
 21
41.5924
  0
LINE
  8
0
 10
-32.7922
 20
41.5924
 11
-32.5176
 21
41.8503
  0
LINE
  8
0
 10
-32.5176
 20
41.8503
 11
-32.2128
 21
42.0718
  0
LINE
  8
0
 10
-32.2128
 20
42.0718
 11
-31.8826
 21
42.2533
  0
LINE
  8
0
 10
-31.8826
 20
42.2533
 11
-31.5323
 21
42.392
  0
LINE
  8
0
 10
-31.5323
 20
42.392
 11
-31.1674
 21
42.4856
  0
LINE
  8
0
 10
-31.1674
 20
42.4856
 11
-30.7937
 21
42.5329
  0
LINE
  8
0
 10
-30.7937
 20
42.5329
 11
-30.4169
 21
42.5329
  0
LINE
  8
0
 10
-30.4169
 20
42.5329
 11
-30.0432
 21
42.4856
  0
LINE
  8
0
 10
-30.0432
 20
42.4856
 11
-29.6782
 21
42.392
  0
LINE
  8
0
 10
-29.6782
 20
42.392
 11
-29.328
 21
42.2533
  0
LINE
  8
0
 10
-29.328
 20
42.2533
 11
-28.9978
 21
42.0718
  0
LINE
  8
0
 10
-28.9978
 20
42.0718
 11
-28.693
 21
41.8503
  0
LINE
  8
0
 10
-28.693
 20
41.8503
 11
-28.4184
 21
41.5924
  0
LINE
  8
0
 10
-28.4184
 20
41.5924
 11
-28.1782
 21
41.3021
  0
LINE
  8
0
 10
-28.1782
 20
41.3021
 11
-27.9764
 21
40.984
  0
LINE
  8
0
 10
-27.9764
 20
40.984
 11
-27.816
 21
40.6432
  0
LINE
  8
0
 10
-27.816
 20
40.6432
 11
-27.6995
 21
40.2849
  0
LINE
  8
0
 10
-27.6995
 20
40.2849
 11
-27.629
 21
39.9148
  0
LINE
  8
0
 10
-27.629
 20
39.9148
 11
-27.6053
 21
39.5388
  0
LINE
  8
0
 10
-27.6053
 20
39.5388
 11
-27.629
 21
39.1628
  0
LINE
  8
0
 10
-27.629
 20
39.1628
 11
-27.6995
 21
38.7927
  0
LINE
  8
0
 10
-27.6995
 20
38.7927
 11
-27.816
 21
38.4344
  0
LINE
  8
0
 10
-27.816
 20
38.4344
 11
-27.9764
 21
38.0935
  0
LINE
  8
0
 10
-27.9764
 20
38.0935
 11
-28.1782
 21
37.7754
  0
LINE
  8
0
 10
-28.1782
 20
37.7754
 11
-28.4184
 21
37.4851
  0
LINE
  8
0
 10
-28.4184
 20
37.4851
 11
-28.693
 21
37.2272
  0
LINE
  8
0
 10
-28.693
 20
37.2272
 11
-28.9978
 21
37.0058
  0
LINE
  8
0
 10
-28.9978
 20
37.0058
 11
-29.328
 21
36.8243
  0
LINE
  8
0
 10
-29.328
 20
36.8243
 11
-29.6782
 21
36.6856
  0
LINE
  8
0
 10
-29.6782
 20
36.6856
 11
-30.0432
 21
36.5919
  0
LINE
  8
0
 10
-30.0432
 20
36.5919
 11
-30.4169
 21
36.5447
  0
LINE
  8
0
 10
-30.4169
 20
36.5447
 11
-30.7937
 21
36.5447
  0
LINE
  8
0
 10
34.26
 20
33.2456
 11
33.8862
 21
33.2928
  0
LINE
  8
0
 10
33.8862
 20
33.2928
 11
33.5213
 21
33.3865
  0
LINE
  8
0
 10
33.5213
 20
33.3865
 11
33.171
 21
33.5251
  0
LINE
  8
0
 10
33.171
 20
33.5251
 11
32.8409
 21
33.7066
  0
LINE
  8
0
 10
32.8409
 20
33.7066
 11
32.5361
 21
33.9281
  0
LINE
  8
0
 10
32.5361
 20
33.9281
 11
32.2614
 21
34.186
  0
LINE
  8
0
 10
32.2614
 20
34.186
 11
32.0213
 21
34.4763
  0
LINE
  8
0
 10
32.0213
 20
34.4763
 11
31.8194
 21
34.7944
  0
LINE
  8
0
 10
31.8194
 20
34.7944
 11
31.659
 21
35.1353
  0
LINE
  8
0
 10
31.659
 20
35.1353
 11
31.5426
 21
35.4936
  0
LINE
  8
0
 10
31.5426
 20
35.4936
 11
31.472
 21
35.8636
  0
LINE
  8
0
 10
31.472
 20
35.8636
 11
31.4483
 21
36.2396
  0
LINE
  8
0
 10
31.4483
 20
36.2396
 11
31.472
 21
36.6156
  0
LINE
  8
0
 10
31.472
 20
36.6156
 11
31.5426
 21
36.9857
  0
LINE
  8
0
 10
31.5426
 20
36.9857
 11
31.659
 21
37.344
  0
LINE
  8
0
 10
31.659
 20
37.344
 11
31.8194
 21
37.6849
  0
LINE
  8
0
 10
31.8194
 20
37.6849
 11
32.0213
 21
38.003
  0
LINE
  8
0
 10
32.0213
 20
38.003
 11
32.2614
 21
38.2933
  0
LINE
  8
0
 10
32.2614
 20
38.2933
 11
32.5361
 21
38.5512
  0
LINE
  8
0
 10
32.5361
 20
38.5512
 11
32.8409
 21
38.7726
  0
LINE
  8
0
 10
32.8409
 20
38.7726
 11
33.171
 21
38.9541
  0
LINE
  8
0
 10
33.171
 20
38.9541
 11
33.5213
 21
39.0928
  0
LINE
  8
0
 10
33.5213
 20
39.0928
 11
33.8862
 21
39.1865
  0
LINE
  8
0
 10
33.8862
 20
39.1865
 11
34.26
 21
39.2337
  0
LINE
  8
0
 10
34.26
 20
39.2337
 11
34.6367
 21
39.2337
  0
LINE
  8
0
 10
34.6367
 20
39.2337
 11
35.0105
 21
39.1865
  0
LINE
  8
0
 10
35.0105
 20
39.1865
 11
35.3754
 21
39.0928
  0
LINE
  8
0
 10
35.3754
 20
39.0928
 11
35.7257
 21
38.9541
  0
LINE
  8
0
 10
35.7257
 20
38.9541
 11
36.0558
 21
38.7726
  0
LINE
  8
0
 10
36.0558
 20
38.7726
 11
36.3606
 21
38.5512
  0
LINE
  8
0
 10
36.3606
 20
38.5512
 11
36.6352
 21
38.2933
  0
LINE
  8
0
 10
36.6352
 20
38.2933
 11
36.8754
 21
38.003
  0
LINE
  8
0
 10
36.8754
 20
38.003
 11
37.0773
 21
37.6849
  0
LINE
  8
0
 10
37.0773
 20
37.6849
 11
37.2377
 21
37.344
  0
LINE
  8
0
 10
37.2377
 20
37.344
 11
37.3541
 21
36.9857
  0
LINE
  8
0
 10
37.3541
 20
36.9857
 11
37.4247
 21
36.6156
  0
LINE
  8
0
 10
37.4247
 20
36.6156
 11
37.4483
 21
36.2396
  0
LINE
  8
0
 10
37.4483
 20
36.2396
 11
37.4247
 21
35.8636
  0
LINE
  8
0
 10
37.4247
 20
35.8636
 11
37.3541
 21
35.4936
  0
LINE
  8
0
 10
37.3541
 20
35.4936
 11
37.2377
 21
35.1353
  0
LINE
  8
0
 10
37.2377
 20
35.1353
 11
37.0773
 21
34.7944
  0
LINE
  8
0
 10
37.0773
 20
34.7944
 11
36.8754
 21
34.4763
  0
LINE
  8
0
 10
36.8754
 20
34.4763
 11
36.6352
 21
34.186
  0
LINE
  8
0
 10
36.6352
 20
34.186
 11
36.3606
 21
33.9281
  0
LINE
  8
0
 10
36.3606
 20
33.9281
 11
36.0558
 21
33.7066
  0
LINE
  8
0
 10
36.0558
 20
33.7066
 11
35.7257
 21
33.5251
  0
LINE
  8
0
 10
35.7257
 20
33.5251
 11
35.3754
 21
33.3865
  0
LINE
  8
0
 10
35.3754
 20
33.3865
 11
35.0105
 21
33.2928
  0
LINE
  8
0
 10
35.0105
 20
33.2928
 11
34.6367
 21
33.2456
  0
LINE
  8
0
 10
34.6367
 20
33.2456
 11
34.26
 21
33.2456
  0
LINE
  8
0
 10
-38.1263
 20
29.5745
 11
-38.5
 21
29.6217
  0
LINE
  8
0
 10
-38.5
 20
29.6217
 11
-38.8649
 21
29.7155
  0
LINE
  8
0
 10
-38.8649
 20
29.7155
 11
-39.2152
 21
29.8541
  0
LINE
  8
0
 10
-39.2152
 20
29.8541
 11
-39.5454
 21
30.0356
  0
LINE
  8
0
 10
-39.5454
 20
30.0356
 11
-39.8502
 21
30.2571
  0
LINE
  8
0
 10
-39.8502
 20
30.2571
 11
-40.1248
 21
30.515
  0
LINE
  8
0
 10
-40.1248
 20
30.515
 11
-40.3649
 21
30.8053
  0
LINE
  8
0
 10
-40.3649
 20
30.8053
 11
-40.5668
 21
31.1234
  0
LINE
  8
0
 10
-40.5668
 20
31.1234
 11
-40.7272
 21
31.4642
  0
LINE
  8
0
 10
-40.7272
 20
31.4642
 11
-40.8436
 21
31.8225
  0
LINE
  8
0
 10
-40.8436
 20
31.8225
 11
-40.9142
 21
32.1926
  0
LINE
  8
0
 10
-40.9142
 20
32.1926
 11
-40.9379
 21
32.5686
  0
LINE
  8
0
 10
-40.9379
 20
32.5686
 11
-40.9142
 21
32.9446
  0
LINE
  8
0
 10
-40.9142
 20
32.9446
 11
-40.8436
 21
33.3147
  0
LINE
  8
0
 10
-40.8436
 20
33.3147
 11
-40.7272
 21
33.673
  0
LINE
  8
0
 10
-40.7272
 20
33.673
 11
-40.5668
 21
34.0139
  0
LINE
  8
0
 10
-40.5668
 20
34.0139
 11
-40.3649
 21
34.332
  0
LINE
  8
0
 10
-40.3649
 20
34.332
 11
-40.1248
 21
34.6223
  0
LINE
  8
0
 10
-40.1248
 20
34.6223
 11
-39.8502
 21
34.8802
  0
LINE
  8
0
 10
-39.8502
 20
34.8802
 11
-39.5454
 21
35.1016
  0
LINE
  8
0
 10
-39.5454
 20
35.1016
 11
-39.2152
 21
35.2831
  0
LINE
  8
0
 10
-39.2152
 20
35.2831
 11
-38.8649
 21
35.4218
  0
LINE
  8
0
 10
-38.8649
 20
35.4218
 11
-38.5
 21
35.5155
  0
LINE
  8
0
 10
-38.5
 20
35.5155
 11
-38.1263
 21
35.5627
  0
LINE
  8
0
 10
-38.1263
 20
35.5627
 11
-37.7495
 21
35.5627
  0
LINE
  8
0
 10
-37.7495
 20
35.5627
 11
-37.3758
 21
35.5155
  0
LINE
  8
0
 10
-37.3758
 20
35.5155
 11
-37.0108
 21
35.4218
  0
LINE
  8
0
 10
-37.0108
 20
35.4218
 11
-36.6606
 21
35.2831
  0
LINE
  8
0
 10
-36.6606
 20
35.2831
 11
-36.3304
 21
35.1016
  0
LINE
  8
0
 10
-36.3304
 20
35.1016
 11
-36.0256
 21
34.8802
  0
LINE
  8
0
 10
-36.0256
 20
34.8802
 11
-35.751
 21
34.6223
  0
LINE
  8
0
 10
-35.751
 20
34.6223
 11
-35.5108
 21
34.332
  0
LINE
  8
0
 10
-35.5108
 20
34.332
 11
-35.309
 21
34.0139
  0
LINE
  8
0
 10
-35.309
 20
34.0139
 11
-35.1486
 21
33.673
  0
LINE
  8
0
 10
-35.1486
 20
33.673
 11
-35.0322
 21
33.3147
  0
LINE
  8
0
 10
-35.0322
 20
33.3147
 11
-34.9616
 21
32.9446
  0
LINE
  8
0
 10
-34.9616
 20
32.9446
 11
-34.9379
 21
32.5686
  0
LINE
  8
0
 10
-34.9379
 20
32.5686
 11
-34.9616
 21
32.1926
  0
LINE
  8
0
 10
-34.9616
 20
32.1926
 11
-35.0322
 21
31.8225
  0
LINE
  8
0
 10
-35.0322
 20
31.8225
 11
-35.1486
 21
31.4642
  0
LINE
  8
0
 10
-35.1486
 20
31.4642
 11
-35.309
 21
31.1234
  0
LINE
  8
0
 10
-35.309
 20
31.1234
 11
-35.5108
 21
30.8053
  0
LINE
  8
0
 10
-35.5108
 20
30.8053
 11
-35.751
 21
30.515
  0
LINE
  8
0
 10
-35.751
 20
30.515
 11
-36.0256
 21
30.2571
  0
LINE
  8
0
 10
-36.0256
 20
30.2571
 11
-36.3304
 21
30.0356
  0
LINE
  8
0
 10
-36.3304
 20
30.0356
 11
-36.6606
 21
29.8541
  0
LINE
  8
0
 10
-36.6606
 20
29.8541
 11
-37.0108
 21
29.7155
  0
LINE
  8
0
 10
-37.0108
 20
29.7155
 11
-37.3758
 21
29.6217
  0
LINE
  8
0
 10
-37.3758
 20
29.6217
 11
-37.7495
 21
29.5745
  0
LINE
  8
0
 10
-37.7495
 20
29.5745
 11
-38.1263
 21
29.5745
  0
LINE
  8
0
 10
-2.04068
 20
-32.4359
 11
-6.08989
 21
-31.9243
  0
LINE
  8
0
 10
-6.08989
 20
-31.9243
 11
-10.043
 21
-30.9093
  0
LINE
  8
0
 10
-10.043
 20
-30.9093
 11
-13.8378
 21
-29.4069
  0
LINE
  8
0
 10
-13.8378
 20
-29.4069
 11
-17.4144
 21
-27.4406
  0
LINE
  8
0
 10
-17.4144
 20
-27.4406
 11
-20.7163
 21
-25.0417
  0
LINE
  8
0
 10
-20.7163
 20
-25.0417
 11
-23.6915
 21
-22.2478
  0
LINE
  8
0
 10
-23.6915
 20
-22.2478
 11
-26.293
 21
-19.103
  0
LINE
  8
0
 10
-26.293
 20
-19.103
 11
-28.48
 21
-15.657
  0
LINE
  8
0
 10
-28.48
 20
-15.657
 11
-30.2177
 21
-11.964
  0
LINE
  8
0
 10
-30.2177
 20
-11.964
 11
-31.4789
 21
-8.08241
  0
LINE
  8
0
 10
-31.4789
 20
-8.08241
 11
-32.2437
 21
-4.07332
  0
LINE
  8
0
 10
-32.2437
 20
-4.07332
 11
-32.5
 21
0
  0
LINE
  8
0
 10
-32.5
 20
0
 11
-32.2437
 21
4.07332
  0
LINE
  8
0
 10
-32.2437
 20
4.07332
 11
-31.4789
 21
8.08241
  0
LINE
  8
0
 10
-31.4789
 20
8.08241
 11
-30.2177
 21
11.964
  0
LINE
  8
0
 10
-30.2177
 20
11.964
 11
-28.48
 21
15.657
  0
LINE
  8
0
 10
-28.48
 20
15.657
 11
-26.293
 21
19.103
  0
LINE
  8
0
 10
-26.293
 20
19.103
 11
-23.6915
 21
22.2478
  0
LINE
  8
0
 10
-23.6915
 20
22.2478
 11
-20.7163
 21
25.0417
  0
LINE
  8
0
 10
-20.7163
 20
25.0417
 11
-17.4144
 21
27.4406
  0
LINE
  8
0
 10
-17.4144
 20
27.4406
 11
-13.8378
 21
29.4069
  0
LINE
  8
0
 10
-13.8378
 20
29.4069
 11
-10.043
 21
30.9093
  0
LINE
  8
0
 10
-10.043
 20
30.9093
 11
-6.08989
 21
31.9243
  0
LINE
  8
0
 10
-6.08989
 20
31.9243
 11
-2.04068
 21
32.4359
  0
LINE
  8
0
 10
-2.04068
 20
32.4359
 11
2.04068
 21
32.4359
  0
LINE
  8
0
 10
2.04068
 20
32.4359
 11
6.08989
 21
31.9243
  0
LINE
  8
0
 10
6.08989
 20
31.9243
 11
10.043
 21
30.9093
  0
LINE
  8
0
 10
10.043
 20
30.9093
 11
13.8378
 21
29.4069
  0
LINE
  8
0
 10
13.8378
 20
29.4069
 11
17.4144
 21
27.4406
  0
LINE
  8
0
 10
17.4144
 20
27.4406
 11
20.7163
 21
25.0417
  0
LINE
  8
0
 10
20.7163
 20
25.0417
 11
23.6915
 21
22.2478
  0
LINE
  8
0
 10
23.6915
 20
22.2478
 11
26.293
 21
19.103
  0
LINE
  8
0
 10
26.293
 20
19.103
 11
28.48
 21
15.657
  0
LINE
  8
0
 10
28.48
 20
15.657
 11
30.2177
 21
11.964
  0
LINE
  8
0
 10
30.2177
 20
11.964
 11
31.4789
 21
8.08241
  0
LINE
  8
0
 10
31.4789
 20
8.08241
 11
32.2437
 21
4.07332
  0
LINE
  8
0
 10
32.2437
 20
4.07332
 11
32.5
 21
0
  0
LINE
  8
0
 10
32.5
 20
0
 11
32.2437
 21
-4.07332
  0
LINE
  8
0
 10
32.2437
 20
-4.07332
 11
31.4789
 21
-8.08241
  0
LINE
  8
0
 10
31.4789
 20
-8.08241
 11
30.2177
 21
-11.964
  0
LINE
  8
0
 10
30.2177
 20
-11.964
 11
28.48
 21
-15.657
  0
LINE
  8
0
 10
28.48
 20
-15.657
 11
26.293
 21
-19.103
  0
LINE
  8
0
 10
26.293
 20
-19.103
 11
23.6915
 21
-22.2478
  0
LINE
  8
0
 10
23.6915
 20
-22.2478
 11
20.7163
 21
-25.0417
  0
LINE
  8
0
 10
20.7163
 20
-25.0417
 11
17.4144
 21
-27.4406
  0
LINE
  8
0
 10
17.4144
 20
-27.4406
 11
13.8378
 21
-29.4069
  0
LINE
  8
0
 10
13.8378
 20
-29.4069
 11
10.043
 21
-30.9093
  0
LINE
  8
0
 10
10.043
 20
-30.9093
 11
6.08989
 21
-31.9243
  0
LINE
  8
0
 10
6.08989
 20
-31.9243
 11
2.04068
 21
-32.4359
  0
LINE
  8
0
 10
2.04068
 20
-32.4359
 11
-2.04068
 21
-32.4359
  0
LINE
  8
0
 10
-0.562134
 20
-24.9469
 11
-0.927048
 21
-24.8532
  0
LINE
  8
0
 10
-0.927048
 20
-24.8532
 11
-1.27733
 21
-24.7145
  0
LINE
  8
0
 10
-1.27733
 20
-24.7145
 11
-1.60747
 21
-24.533
  0
LINE
  8
0
 10
-1.60747
 20
-24.533
 11
-1.91226
 21
-24.3115
  0
LINE
  8
0
 10
-1.91226
 20
-24.3115
 11
-2.1869
 21
-24.0536
  0
LINE
  8
0
 10
-2.1869
 20
-24.0536
 11
-2.42705
 21
-23.7634
  0
LINE
  8
0
 10
-2.42705
 20
-23.7634
 11
-2.62891
 21
-23.4453
  0
LINE
  8
0
 10
-2.62891
 20
-23.4453
 11
-2.78932
 21
-23.1044
  0
LINE
  8
0
 10
-2.78932
 20
-23.1044
 11
-2.90575
 21
-22.7461
  0
LINE
  8
0
 10
-2.90575
 20
-22.7461
 11
-2.97633
 21
-22.376
  0
LINE
  8
0
 10
-2.97633
 20
-22.376
 11
-3
 21
-22
  0
LINE
  8
0
 10
-3
 20
-22
 11
-2.97633
 21
-21.624
  0
LINE
  8
0
 10
-2.97633
 20
-21.624
 11
-2.90575
 21
-21.2539
  0
LINE
  8
0
 10
-2.90575
 20
-21.2539
 11
-2.78932
 21
-20.8956
  0
LINE
  8
0
 10
-2.78932
 20
-20.8956
 11
-2.62891
 21
-20.5547
  0
LINE
  8
0
 10
-2.62891
 20
-20.5547
 11
-2.42705
 21
-20.2366
  0
LINE
  8
0
 10
-2.42705
 20
-20.2366
 11
-2.1869
 21
-19.9464
  0
LINE
  8
0
 10
-2.1869
 20
-19.9464
 11
-1.91226
 21
-19.6884
  0
LINE
  8
0
 10
-1.91226
 20
-19.6884
 11
-1.60747
 21
-19.467
  0
LINE
  8
0
 10
-1.60747
 20
-19.467
 11
-1.27733
 21
-19.2855
  0
LINE
  8
0
 10
-1.27733
 20
-19.2855
 11
-0.927048
 21
-19.1468
  0
LINE
  8
0
 10
-0.927048
 20
-19.1468
 11
-0.562134
 21
-19.0531
  0
LINE
  8
0
 10
-0.562134
 20
-19.0531
 11
-0.18837
 21
-19.0059
  0
LINE
  8
0
 10
-0.18837
 20
-19.0059
 11
0.18837
 21
-19.0059
  0
LINE
  8
0
 10
0.18837
 20
-19.0059
 11
0.562134
 21
-19.0531
  0
LINE
  8
0
 10
0.562134
 20
-19.0531
 11
0.927048
 21
-19.1468
  0
LINE
  8
0
 10
0.927048
 20
-19.1468
 11
1.27733
 21
-19.2855
  0
LINE
  8
0
 10
1.27733
 20
-19.2855
 11
1.60747
 21
-19.467
  0
LINE
  8
0
 10
1.60747
 20
-19.467
 11
1.91226
 21
-19.6884
  0
LINE
  8
0
 10
1.91226
 20
-19.6884
 11
2.1869
 21
-19.9464
  0
LINE
  8
0
 10
2.1869
 20
-19.9464
 11
2.42705
 21
-20.2366
  0
LINE
  8
0
 10
2.42705
 20
-20.2366
 11
2.62891
 21
-20.5547
  0
LINE
  8
0
 10
2.62891
 20
-20.5547
 11
2.78932
 21
-20.8956
  0
LINE
  8
0
 10
2.78932
 20
-20.8956
 11
2.90575
 21
-21.2539
  0
LINE
  8
0
 10
2.90575
 20
-21.2539
 11
2.97633
 21
-21.624
  0
LINE
  8
0
 10
2.97633
 20
-21.624
 11
3
 21
-22
  0
LINE
  8
0
 10
3
 20
-22
 11
2.97633
 21
-22.376
  0
LINE
  8
0
 10
2.97633
 20
-22.376
 11
2.90575
 21
-22.7461
  0
LINE
  8
0
 10
2.90575
 20
-22.7461
 11
2.78932
 21
-23.1044
  0
LINE
  8
0
 10
2.78932
 20
-23.1044
 11
2.62891
 21
-23.4453
  0
LINE
  8
0
 10
2.62891
 20
-23.4453
 11
2.42705
 21
-23.7634
  0
LINE
  8
0
 10
2.42705
 20
-23.7634
 11
2.1869
 21
-24.0536
  0
LINE
  8
0
 10
2.1869
 20
-24.0536
 11
1.91226
 21
-24.3115
  0
LINE
  8
0
 10
1.91226
 20
-24.3115
 11
1.60747
 21
-24.533
  0
LINE
  8
0
 10
1.60747
 20
-24.533
 11
1.27733
 21
-24.7145
  0
LINE
  8
0
 10
1.27733
 20
-24.7145
 11
0.927048
 21
-24.8532
  0
LINE
  8
0
 10
0.927048
 20
-24.8532
 11
0.562134
 21
-24.9469
  0
LINE
  8
0
 10
0.562134
 20
-24.9469
 11
0.532013
 21
-24.9507
  0
LINE
  8
0
 10
0.532013
 20
-24.9507
 11
1.56975
 21
-24.9507
  0
LINE
  8
0
 10
1.56975
 20
-24.9507
 11
4.68452
 21
-24.5572
  0
LINE
  8
0
 10
4.68452
 20
-24.5572
 11
7.72542
 21
-23.7764
  0
LINE
  8
0
 10
7.72542
 20
-23.7764
 11
10.6445
 21
-22.6207
  0
LINE
  8
0
 10
10.6445
 20
-22.6207
 11
13.3957
 21
-21.1082
  0
LINE
  8
0
 10
13.3957
 20
-21.1082
 11
15.9356
 21
-19.2628
  0
LINE
  8
0
 10
15.9356
 20
-19.2628
 11
18.2242
 21
-17.1137
  0
LINE
  8
0
 10
18.2242
 20
-17.1137
 11
20.2254
 21
-14.6946
  0
LINE
  8
0
 10
20.2254
 20
-14.6946
 11
21.9077
 21
-12.0438
  0
LINE
  8
0
 10
21.9077
 20
-12.0438
 11
23.2444
 21
-9.20311
  0
LINE
  8
0
 10
23.2444
 20
-9.20311
 11
24.2146
 21
-6.21724
  0
LINE
  8
0
 10
24.2146
 20
-6.21724
 11
24.8029
 21
-3.13332
  0
LINE
  8
0
 10
24.8029
 20
-3.13332
 11
25
 21
0
  0
LINE
  8
0
 10
25
 20
0
 11
24.8029
 21
3.13332
  0
LINE
  8
0
 10
24.8029
 20
3.13332
 11
24.2146
 21
6.21724
  0
LINE
  8
0
 10
24.2146
 20
6.21724
 11
23.2444
 21
9.20311
  0
LINE
  8
0
 10
23.2444
 20
9.20311
 11
21.9077
 21
12.0438
  0
LINE
  8
0
 10
21.9077
 20
12.0438
 11
20.2254
 21
14.6946
  0
LINE
  8
0
 10
20.2254
 20
14.6946
 11
18.2242
 21
17.1137
  0
LINE
  8
0
 10
18.2242
 20
17.1137
 11
15.9356
 21
19.2628
  0
LINE
  8
0
 10
15.9356
 20
19.2628
 11
13.3957
 21
21.1082
  0
LINE
  8
0
 10
13.3957
 20
21.1082
 11
10.6445
 21
22.6207
  0
LINE
  8
0
 10
10.6445
 20
22.6207
 11
7.72542
 21
23.7764
  0
LINE
  8
0
 10
7.72542
 20
23.7764
 11
4.68452
 21
24.5572
  0
LINE
  8
0
 10
4.68452
 20
24.5572
 11
1.56975
 21
24.9507
  0
LINE
  8
0
 10
1.56975
 20
24.9507
 11
0.532013
 21
24.9507
  0
LINE
  8
0
 10
0.532013
 20
24.9507
 11
0.562134
 21
24.9469
  0
LINE
  8
0
 10
0.562134
 20
24.9469
 11
0.927048
 21
24.8532
  0
LINE
  8
0
 10
0.927048
 20
24.8532
 11
1.27733
 21
24.7145
  0
LINE
  8
0
 10
1.27733
 20
24.7145
 11
1.60747
 21
24.533
  0
LINE
  8
0
 10
1.60747
 20
24.533
 11
1.91226
 21
24.3115
  0
LINE
  8
0
 10
1.91226
 20
24.3115
 11
2.1869
 21
24.0536
  0
LINE
  8
0
 10
2.1869
 20
24.0536
 11
2.42705
 21
23.7634
  0
LINE
  8
0
 10
2.42705
 20
23.7634
 11
2.62891
 21
23.4453
  0
LINE
  8
0
 10
2.62891
 20
23.4453
 11
2.78932
 21
23.1044
  0
LINE
  8
0
 10
2.78932
 20
23.1044
 11
2.90575
 21
22.7461
  0
LINE
  8
0
 10
2.90575
 20
22.7461
 11
2.97633
 21
22.376
  0
LINE
  8
0
 10
2.97633
 20
22.376
 11
3
 21
22
  0
LINE
  8
0
 10
3
 20
22
 11
2.97633
 21
21.624
  0
LINE
  8
0
 10
2.97633
 20
21.624
 11
2.90575
 21
21.2539
  0
LINE
  8
0
 10
2.90575
 20
21.2539
 11
2.78932
 21
20.8956
  0
LINE
  8
0
 10
2.78932
 20
20.8956
 11
2.62891
 21
20.5547
  0
LINE
  8
0
 10
2.62891
 20
20.5547
 11
2.42705
 21
20.2366
  0
LINE
  8
0
 10
2.42705
 20
20.2366
 11
2.1869
 21
19.9464
  0
LINE
  8
0
 10
2.1869
 20
19.9464
 11
1.91226
 21
19.6884
  0
LINE
  8
0
 10
1.91226
 20
19.6884
 11
1.60747
 21
19.467
  0
LINE
  8
0
 10
1.60747
 20
19.467
 11
1.27733
 21
19.2855
  0
LINE
  8
0
 10
1.27733
 20
19.2855
 11
0.927048
 21
19.1468
  0
LINE
  8
0
 10
0.927048
 20
19.1468
 11
0.562134
 21
19.0531
  0
LINE
  8
0
 10
0.562134
 20
19.0531
 11
0.18837
 21
19.0059
  0
LINE
  8
0
 10
0.18837
 20
19.0059
 11
-0.18837
 21
19.0059
  0
LINE
  8
0
 10
-0.18837
 20
19.0059
 11
-0.562134
 21
19.0531
  0
LINE
  8
0
 10
-0.562134
 20
19.0531
 11
-0.927048
 21
19.1468
  0
LINE
  8
0
 10
-0.927048
 20
19.1468
 11
-1.27733
 21
19.2855
  0
LINE
  8
0
 10
-1.27733
 20
19.2855
 11
-1.60747
 21
19.467
  0
LINE
  8
0
 10
-1.60747
 20
19.467
 11
-1.91226
 21
19.6884
  0
LINE
  8
0
 10
-1.91226
 20
19.6884
 11
-2.1869
 21
19.9464
  0
LINE
  8
0
 10
-2.1869
 20
19.9464
 11
-2.42705
 21
20.2366
  0
LINE
  8
0
 10
-2.42705
 20
20.2366
 11
-2.62891
 21
20.5547
  0
LINE
  8
0
 10
-2.62891
 20
20.5547
 11
-2.78932
 21
20.8956
  0
LINE
  8
0
 10
-2.78932
 20
20.8956
 11
-2.90575
 21
21.2539
  0
LINE
  8
0
 10
-2.90575
 20
21.2539
 11
-2.97633
 21
21.624
  0
LINE
  8
0
 10
-2.97633
 20
21.624
 11
-3
 21
22
  0
LINE
  8
0
 10
-3
 20
22
 11
-2.97633
 21
22.376
  0
LINE
  8
0
 10
-2.97633
 20
22.376
 11
-2.90575
 21
22.7461
  0
LINE
  8
0
 10
-2.90575
 20
22.7461
 11
-2.78932
 21
23.1044
  0
LINE
  8
0
 10
-2.78932
 20
23.1044
 11
-2.62891
 21
23.4453
  0
LINE
  8
0
 10
-2.62891
 20
23.4453
 11
-2.42705
 21
23.7634
  0
LINE
  8
0
 10
-2.42705
 20
23.7634
 11
-2.1869
 21
24.0536
  0
LINE
  8
0
 10
-2.1869
 20
24.0536
 11
-1.91226
 21
24.3115
  0
LINE
  8
0
 10
-1.91226
 20
24.3115
 11
-1.60747
 21
24.533
  0
LINE
  8
0
 10
-1.60747
 20
24.533
 11
-1.27733
 21
24.7145
  0
LINE
  8
0
 10
-1.27733
 20
24.7145
 11
-0.927048
 21
24.8532
  0
LINE
  8
0
 10
-0.927048
 20
24.8532
 11
-0.562134
 21
24.9469
  0
LINE
  8
0
 10
-0.562134
 20
24.9469
 11
-0.532013
 21
24.9507
  0
LINE
  8
0
 10
-0.532013
 20
24.9507
 11
-1.56975
 21
24.9507
  0
LINE
  8
0
 10
-1.56975
 20
24.9507
 11
-4.68452
 21
24.5572
  0
LINE
  8
0
 10
-4.68452
 20
24.5572
 11
-7.72542
 21
23.7764
  0
LINE
  8
0
 10
-7.72542
 20
23.7764
 11
-10.6445
 21
22.6207
  0
LINE
  8
0
 10
-10.6445
 20
22.6207
 11
-13.3957
 21
21.1082
  0
LINE
  8
0
 10
-13.3957
 20
21.1082
 11
-15.9356
 21
19.2628
  0
LINE
  8
0
 10
-15.9356
 20
19.2628
 11
-18.2242
 21
17.1137
  0
LINE
  8
0
 10
-18.2242
 20
17.1137
 11
-20.2254
 21
14.6946
  0
LINE
  8
0
 10
-20.2254
 20
14.6946
 11
-21.9077
 21
12.0438
  0
LINE
  8
0
 10
-21.9077
 20
12.0438
 11
-23.2444
 21
9.20311
  0
LINE
  8
0
 10
-23.2444
 20
9.20311
 11
-24.2146
 21
6.21724
  0
LINE
  8
0
 10
-24.2146
 20
6.21724
 11
-24.8029
 21
3.13332
  0
LINE
  8
0
 10
-24.8029
 20
3.13332
 11
-25
 21
0
  0
LINE
  8
0
 10
-25
 20
0
 11
-24.8029
 21
-3.13332
  0
LINE
  8
0
 10
-24.8029
 20
-3.13332
 11
-24.2146
 21
-6.21724
  0
LINE
  8
0
 10
-24.2146
 20
-6.21724
 11
-23.2444
 21
-9.20311
  0
LINE
  8
0
 10
-23.2444
 20
-9.20311
 11
-21.9077
 21
-12.0438
  0
LINE
  8
0
 10
-21.9077
 20
-12.0438
 11
-20.2254
 21
-14.6946
  0
LINE
  8
0
 10
-20.2254
 20
-14.6946
 11
-18.2242
 21
-17.1137
  0
LINE
  8
0
 10
-18.2242
 20
-17.1137
 11
-15.9356
 21
-19.2628
  0
LINE
  8
0
 10
-15.9356
 20
-19.2628
 11
-13.3957
 21
-21.1082
  0
LINE
  8
0
 10
-13.3957
 20
-21.1082
 11
-10.6445
 21
-22.6207
  0
LINE
  8
0
 10
-10.6445
 20
-22.6207
 11
-7.72542
 21
-23.7764
  0
LINE
  8
0
 10
-7.72542
 20
-23.7764
 11
-4.68452
 21
-24.5572
  0
LINE
  8
0
 10
-4.68452
 20
-24.5572
 11
-1.56975
 21
-24.9507
  0
LINE
  8
0
 10
-1.56975
 20
-24.9507
 11
-0.532013
 21
-24.9507
  0
LINE
  8
0
 10
-0.532013
 20
-24.9507
 11
-0.562134
 21
-24.9469
  0
LINE
  8
0
 10
13.4133
 20
12.2517
 11
11.8265
 21
15
  0
LINE
  8
0
 10
11.8265
 20
15
 11
13.4133
 21
17.7483
  0
LINE
  8
0
 10
13.4133
 20
17.7483
 11
16.5867
 21
17.7483
  0
LINE
  8
0
 10
16.5867
 20
17.7483
 11
18.1735
 21
15
  0
LINE
  8
0
 10
18.1735
 20
15
 11
16.5867
 21
12.2517
  0
LINE
  8
0
 10
16.5867
 20
12.2517
 11
13.4133
 21
12.2517
  0
LINE
  8
0
 10
-15.113
 20
13.2036
 11
-15.3373
 21
13.2319
  0
LINE
  8
0
 10
-15.3373
 20
13.2319
 11
-15.5562
 21
13.2881
  0
LINE
  8
0
 10
-15.5562
 20
13.2881
 11
-15.7664
 21
13.3713
  0
LINE
  8
0
 10
-15.7664
 20
13.3713
 11
-15.9645
 21
13.4802
  0
LINE
  8
0
 10
-15.9645
 20
13.4802
 11
-16.1474
 21
13.6131
  0
LINE
  8
0
 10
-16.1474
 20
13.6131
 11
-16.3121
 21
13.7678
  0
LINE
  8
0
 10
-16.3121
 20
13.7678
 11
-16.4562
 21
13.942
  0
LINE
  8
0
 10
-16.4562
 20
13.942
 11
-16.5773
 21
14.1328
  0
LINE
  8
0
 10
-16.5773
 20
14.1328
 11
-16.6736
 21
14.3374
  0
LINE
  8
0
 10
-16.6736
 20
14.3374
 11
-16.7434
 21
14.5524
  0
LINE
  8
0
 10
-16.7434
 20
14.5524
 11
-16.7858
 21
14.7744
  0
LINE
  8
0
 10
-16.7858
 20
14.7744
 11
-16.8
 21
15
  0
LINE
  8
0
 10
-16.8
 20
15
 11
-16.7858
 21
15.2256
  0
LINE
  8
0
 10
-16.7858
 20
15.2256
 11
-16.7434
 21
15.4476
  0
LINE
  8
0
 10
-16.7434
 20
15.4476
 11
-16.6736
 21
15.6626
  0
LINE
  8
0
 10
-16.6736
 20
15.6626
 11
-16.5773
 21
15.8671
  0
LINE
  8
0
 10
-16.5773
 20
15.8671
 11
-16.4562
 21
16.058
  0
LINE
  8
0
 10
-16.4562
 20
16.058
 11
-16.3121
 21
16.2322
  0
LINE
  8
0
 10
-16.3121
 20
16.2322
 11
-16.1474
 21
16.3869
  0
LINE
  8
0
 10
-16.1474
 20
16.3869
 11
-15.9645
 21
16.5198
  0
LINE
  8
0
 10
-15.9645
 20
16.5198
 11
-15.7664
 21
16.6287
  0
LINE
  8
0
 10
-15.7664
 20
16.6287
 11
-15.5562
 21
16.7119
  0
LINE
  8
0
 10
-15.5562
 20
16.7119
 11
-15.3373
 21
16.7681
  0
LINE
  8
0
 10
-15.3373
 20
16.7681
 11
-15.113
 21
16.7964
  0
LINE
  8
0
 10
-15.113
 20
16.7964
 11
-14.887
 21
16.7964
  0
LINE
  8
0
 10
-14.887
 20
16.7964
 11
-14.6627
 21
16.7681
  0
LINE
  8
0
 10
-14.6627
 20
16.7681
 11
-14.4438
 21
16.7119
  0
LINE
  8
0
 10
-14.4438
 20
16.7119
 11
-14.2336
 21
16.6287
  0
LINE
  8
0
 10
-14.2336
 20
16.6287
 11
-14.0355
 21
16.5198
  0
LINE
  8
0
 10
-14.0355
 20
16.5198
 11
-13.8526
 21
16.3869
  0
LINE
  8
0
 10
-13.8526
 20
16.3869
 11
-13.6879
 21
16.2322
  0
LINE
  8
0
 10
-13.6879
 20
16.2322
 11
-13.5438
 21
16.058
  0
LINE
  8
0
 10
-13.5438
 20
16.058
 11
-13.4226
 21
15.8671
  0
LINE
  8
0
 10
-13.4226
 20
15.8671
 11
-13.3264
 21
15.6626
  0
LINE
  8
0
 10
-13.3264
 20
15.6626
 11
-13.2565
 21
15.4476
  0
LINE
  8
0
 10
-13.2565
 20
15.4476
 11
-13.2142
 21
15.2256
  0
LINE
  8
0
 10
-13.2142
 20
15.2256
 11
-13.2
 21
15
  0
LINE
  8
0
 10
-13.2
 20
15
 11
-13.2142
 21
14.7744
  0
LINE
  8
0
 10
-13.2142
 20
14.7744
 11
-13.2565
 21
14.5524
  0
LINE
  8
0
 10
-13.2565
 20
14.5524
 11
-13.3264
 21
14.3374
  0
LINE
  8
0
 10
-13.3264
 20
14.3374
 11
-13.4226
 21
14.1328
  0
LINE
  8
0
 10
-13.4226
 20
14.1328
 11
-13.5438
 21
13.942
  0
LINE
  8
0
 10
-13.5438
 20
13.942
 11
-13.6879
 21
13.7678
  0
LINE
  8
0
 10
-13.6879
 20
13.7678
 11
-13.8526
 21
13.6131
  0
LINE
  8
0
 10
-13.8526
 20
13.6131
 11
-14.0355
 21
13.4802
  0
LINE
  8
0
 10
-14.0355
 20
13.4802
 11
-14.2336
 21
13.3713
  0
LINE
  8
0
 10
-14.2336
 20
13.3713
 11
-14.4438
 21
13.2881
  0
LINE
  8
0
 10
-14.4438
 20
13.2881
 11
-14.6627
 21
13.2319
  0
LINE
  8
0
 10
-14.6627
 20
13.2319
 11
-14.887
 21
13.2036
  0
LINE
  8
0
 10
-14.887
 20
13.2036
 11
-15.113
 21
13.2036
  0
LINE
  8
0
 10
-1.00464
 20
-15.9684
 11
-2.99809
 21
-15.7166
  0
LINE
  8
0
 10
-2.99809
 20
-15.7166
 11
-4.94426
 21
-15.2169
  0
LINE
  8
0
 10
-4.94426
 20
-15.2169
 11
-6.81245
 21
-14.4772
  0
LINE
  8
0
 10
-6.81245
 20
-14.4772
 11
-8.57323
 21
-13.5092
  0
LINE
  8
0
 10
-8.57323
 20
-13.5092
 11
-10.1988
 21
-12.3282
  0
LINE
  8
0
 10
-10.1988
 20
-12.3282
 11
-11.6635
 21
-10.9527
  0
LINE
  8
0
 10
-11.6635
 20
-10.9527
 11
-12.9443
 21
-9.40456
  0
LINE
  8
0
 10
-12.9443
 20
-9.40456
 11
-14.0209
 21
-7.70805
  0
LINE
  8
0
 10
-14.0209
 20
-7.70805
 11
-14.8764
 21
-5.88998
  0
LINE
  8
0
 10
-14.8764
 20
-5.88998
 11
-15.4973
 21
-3.97903
  0
LINE
  8
0
 10
-15.4973
 20
-3.97903
 11
-15.8738
 21
-2.00533
  0
LINE
  8
0
 10
-15.8738
 20
-2.00533
 11
-16
 21
0
  0
LINE
  8
0
 10
-16
 20
0
 11
-15.8738
 21
2.00533
  0
LINE
  8
0
 10
-15.8738
 20
2.00533
 11
-15.4973
 21
3.97903
  0
LINE
  8
0
 10
-15.4973
 20
3.97903
 11
-14.8764
 21
5.88998
  0
LINE
  8
0
 10
-14.8764
 20
5.88998
 11
-14.0209
 21
7.70805
  0
LINE
  8
0
 10
-14.0209
 20
7.70805
 11
-12.9443
 21
9.40456
  0
LINE
  8
0
 10
-12.9443
 20
9.40456
 11
-11.6635
 21
10.9527
  0
LINE
  8
0
 10
-11.6635
 20
10.9527
 11
-10.1988
 21
12.3282
  0
LINE
  8
0
 10
-10.1988
 20
12.3282
 11
-8.57323
 21
13.5092
  0
LINE
  8
0
 10
-8.57323
 20
13.5092
 11
-6.81245
 21
14.4772
  0
LINE
  8
0
 10
-6.81245
 20
14.4772
 11
-4.94426
 21
15.2169
  0
LINE
  8
0
 10
-4.94426
 20
15.2169
 11
-2.99809
 21
15.7166
  0
LINE
  8
0
 10
-2.99809
 20
15.7166
 11
-1.00464
 21
15.9684
  0
LINE
  8
0
 10
-1.00464
 20
15.9684
 11
1.00464
 21
15.9684
  0
LINE
  8
0
 10
1.00464
 20
15.9684
 11
2.99809
 21
15.7166
  0
LINE
  8
0
 10
2.99809
 20
15.7166
 11
4.94426
 21
15.2169
  0
LINE
  8
0
 10
4.94426
 20
15.2169
 11
6.81245
 21
14.4772
  0
LINE
  8
0
 10
6.81245
 20
14.4772
 11
8.57323
 21
13.5092
  0
LINE
  8
0
 10
8.57323
 20
13.5092
 11
10.1988
 21
12.3282
  0
LINE
  8
0
 10
10.1988
 20
12.3282
 11
11.6635
 21
10.9527
  0
LINE
  8
0
 10
11.6635
 20
10.9527
 11
12.9443
 21
9.40456
  0
LINE
  8
0
 10
12.9443
 20
9.40456
 11
14.0209
 21
7.70805
  0
LINE
  8
0
 10
14.0209
 20
7.70805
 11
14.8764
 21
5.88998
  0
LINE
  8
0
 10
14.8764
 20
5.88998
 11
15.4973
 21
3.97903
  0
LINE
  8
0
 10
15.4973
 20
3.97903
 11
15.8738
 21
2.00533
  0
LINE
  8
0
 10
15.8738
 20
2.00533
 11
16
 21
0
  0
LINE
  8
0
 10
16
 20
0
 11
15.8738
 21
-2.00533
  0
LINE
  8
0
 10
15.8738
 20
-2.00533
 11
15.4973
 21
-3.97903
  0
LINE
  8
0
 10
15.4973
 20
-3.97903
 11
14.8764
 21
-5.88998
  0
LINE
  8
0
 10
14.8764
 20
-5.88998
 11
14.0209
 21
-7.70805
  0
LINE
  8
0
 10
14.0209
 20
-7.70805
 11
12.9443
 21
-9.40456
  0
LINE
  8
0
 10
12.9443
 20
-9.40456
 11
11.6635
 21
-10.9527
  0
LINE
  8
0
 10
11.6635
 20
-10.9527
 11
10.1988
 21
-12.3282
  0
LINE
  8
0
 10
10.1988
 20
-12.3282
 11
8.57323
 21
-13.5092
  0
LINE
  8
0
 10
8.57323
 20
-13.5092
 11
6.81245
 21
-14.4772
  0
LINE
  8
0
 10
6.81245
 20
-14.4772
 11
4.94426
 21
-15.2169
  0
LINE
  8
0
 10
4.94426
 20
-15.2169
 11
2.99809
 21
-15.7166
  0
LINE
  8
0
 10
2.99809
 20
-15.7166
 11
1.00464
 21
-15.9684
  0
LINE
  8
0
 10
1.00464
 20
-15.9684
 11
-1.00464
 21
-15.9684
  0
LINE
  8
0
 10
2.34225
 20
-12.2786
 11
3.8627
 21
-11.8882
  0
LINE
  8
0
 10
3.8627
 20
-11.8882
 11
5.32224
 21
-11.3103
  0
LINE
  8
0
 10
5.32224
 20
-11.3103
 11
6.69783
 21
-10.5541
  0
LINE
  8
0
 10
6.69783
 20
-10.5541
 11
7.96779
 21
-9.63141
  0
LINE
  8
0
 10
7.96779
 20
-9.63141
 11
9.11211
 21
-8.55682
  0
LINE
  8
0
 10
9.11211
 20
-8.55682
 11
10.1127
 21
-7.34731
  0
LINE
  8
0
 10
10.1127
 20
-7.34731
 11
10.9538
 21
-6.02191
  0
LINE
  8
0
 10
10.9538
 20
-6.02191
 11
11.6222
 21
-4.60155
  0
LINE
  8
0
 10
11.6222
 20
-4.60155
 11
12.1073
 21
-3.10861
  0
LINE
  8
0
 10
12.1073
 20
-3.10861
 11
12.4014
 21
-1.56665
  0
LINE
  8
0
 10
12.4014
 20
-1.56665
 11
12.5
 21
0
  0
LINE
  8
0
 10
12.5
 20
0
 11
12.4014
 21
1.56665
  0
LINE
  8
0
 10
12.4014
 20
1.56665
 11
12.1073
 21
3.10861
  0
LINE
  8
0
 10
12.1073
 20
3.10861
 11
11.6222
 21
4.60155
  0
LINE
  8
0
 10
11.6222
 20
4.60155
 11
10.9538
 21
6.02191
  0
LINE
  8
0
 10
10.9538
 20
6.02191
 11
10.1127
 21
7.34731
  0
LINE
  8
0
 10
10.1127
 20
7.34731
 11
9.11211
 21
8.55682
  0
LINE
  8
0
 10
9.11211
 20
8.55682
 11
7.96779
 21
9.63141
  0
LINE
  8
0
 10
7.96779
 20
9.63141
 11
6.69783
 21
10.5541
  0
LINE
  8
0
 10
6.69783
 20
10.5541
 11
5.32224
 21
11.3103
  0
LINE
  8
0
 10
5.32224
 20
11.3103
 11
3.8627
 21
11.8882
  0
LINE
  8
0
 10
3.8627
 20
11.8882
 11
2.34225
 21
12.2786
  0
LINE
  8
0
 10
2.34225
 20
12.2786
 11
0.784866
 21
12.4753
  0
LINE
  8
0
 10
0.784866
 20
12.4753
 11
-0.784866
 21
12.4753
  0
LINE
  8
0
 10
-0.784866
 20
12.4753
 11
-2.34225
 21
12.2786
  0
LINE
  8
0
 10
-2.34225
 20
12.2786
 11
-3.8627
 21
11.8882
  0
LINE
  8
0
 10
-3.8627
 20
11.8882
 11
-5.32224
 21
11.3103
  0
LINE
  8
0
 10
-5.32224
 20
11.3103
 11
-6.69783
 21
10.5541
  0
LINE
  8
0
 10
-6.69783
 20
10.5541
 11
-7.96779
 21
9.63141
  0
LINE
  8
0
 10
-7.96779
 20
9.63141
 11
-9.11211
 21
8.55682
  0
LINE
  8
0
 10
-9.11211
 20
8.55682
 11
-10.1127
 21
7.34731
  0
LINE
  8
0
 10
-10.1127
 20
7.34731
 11
-10.9538
 21
6.02191
  0
LINE
  8
0
 10
-10.9538
 20
6.02191
 11
-11.6222
 21
4.60155
  0
LINE
  8
0
 10
-11.6222
 20
4.60155
 11
-12.1073
 21
3.10861
  0
LINE
  8
0
 10
-12.1073
 20
3.10861
 11
-12.4014
 21
1.56665
  0
LINE
  8
0
 10
-12.4014
 20
1.56665
 11
-12.5
 21
0
  0
LINE
  8
0
 10
-12.5
 20
0
 11
-12.4014
 21
-1.56665
  0
LINE
  8
0
 10
-12.4014
 20
-1.56665
 11
-12.1073
 21
-3.10861
  0
LINE
  8
0
 10
-12.1073
 20
-3.10861
 11
-11.6222
 21
-4.60155
  0
LINE
  8
0
 10
-11.6222
 20
-4.60155
 11
-10.9538
 21
-6.02191
  0
LINE
  8
0
 10
-10.9538
 20
-6.02191
 11
-10.1127
 21
-7.34731
  0
LINE
  8
0
 10
-10.1127
 20
-7.34731
 11
-9.11211
 21
-8.55682
  0
LINE
  8
0
 10
-9.11211
 20
-8.55682
 11
-7.96779
 21
-9.63141
  0
LINE
  8
0
 10
-7.96779
 20
-9.63141
 11
-6.69783
 21
-10.5541
  0
LINE
  8
0
 10
-6.69783
 20
-10.5541
 11
-5.32224
 21
-11.3103
  0
LINE
  8
0
 10
-5.32224
 20
-11.3103
 11
-3.8627
 21
-11.8882
  0
LINE
  8
0
 10
-3.8627
 20
-11.8882
 11
-2.34225
 21
-12.2786
  0
LINE
  8
0
 10
-2.34225
 20
-12.2786
 11
-0.784866
 21
-12.4753
  0
LINE
  8
0
 10
-0.784866
 20
-12.4753
 11
0.784866
 21
-12.4753
  0
LINE
  8
0
 10
0.784866
 20
-12.4753
 11
2.34225
 21
-12.2786
  0
LINE
  8
0
 10
-22.1884
 20
-2.99408
 11
-22.5621
 21
-2.94685
  0
LINE
  8
0
 10
-22.5621
 20
-2.94685
 11
-22.927
 21
-2.85316
  0
LINE
  8
0
 10
-22.927
 20
-2.85316
 11
-23.2773
 21
-2.71448
  0
LINE
  8
0
 10
-23.2773
 20
-2.71448
 11
-23.6075
 21
-2.53297
  0
LINE
  8
0
 10
-23.6075
 20
-2.53297
 11
-23.9123
 21
-2.31154
  0
LINE
  8
0
 10
-23.9123
 20
-2.31154
 11
-24.1869
 21
-2.05363
  0
LINE
  8
0
 10
-24.1869
 20
-2.05363
 11
-24.427
 21
-1.76335
  0
LINE
  8
0
 10
-24.427
 20
-1.76335
 11
-24.6289
 21
-1.44525
  0
LINE
  8
0
 10
-24.6289
 20
-1.44525
 11
-24.7893
 21
-1.10437
  0
LINE
  8
0
 10
-24.7893
 20
-1.10437
 11
-24.9057
 21
-0.746063
  0
LINE
  8
0
 10
-24.9057
 20
-0.746063
 11
-24.9763
 21
-0.375992
  0
LINE
  8
0
 10
-24.9763
 20
-0.375992
 11
-25
 21
0
  0
LINE
  8
0
 10
-25
 20
0
 11
-24.9763
 21
0.375992
  0
LINE
  8
0
 10
-24.9763
 20
0.375992
 11
-24.9057
 21
0.746063
  0
LINE
  8
0
 10
-24.9057
 20
0.746063
 11
-24.7893
 21
1.10437
  0
LINE
  8
0
 10
-24.7893
 20
1.10437
 11
-24.6289
 21
1.44525
  0
LINE
  8
0
 10
-24.6289
 20
1.44525
 11
-24.427
 21
1.76335
  0
LINE
  8
0
 10
-24.427
 20
1.76335
 11
-24.1869
 21
2.05363
  0
LINE
  8
0
 10
-24.1869
 20
2.05363
 11
-23.9123
 21
2.31154
  0
LINE
  8
0
 10
-23.9123
 20
2.31154
 11
-23.6075
 21
2.53297
  0
LINE
  8
0
 10
-23.6075
 20
2.53297
 11
-23.2773
 21
2.71448
  0
LINE
  8
0
 10
-23.2773
 20
2.71448
 11
-22.927
 21
2.85316
  0
LINE
  8
0
 10
-22.927
 20
2.85316
 11
-22.5621
 21
2.94685
  0
LINE
  8
0
 10
-22.5621
 20
2.94685
 11
-22.1884
 21
2.99408
  0
LINE
  8
0
 10
-22.1884
 20
2.99408
 11
-21.8116
 21
2.99408
  0
LINE
  8
0
 10
-21.8116
 20
2.99408
 11
-21.4379
 21
2.94685
  0
LINE
  8
0
 10
-21.4379
 20
2.94685
 11
-21.0729
 21
2.85316
  0
LINE
  8
0
 10
-21.0729
 20
2.85316
 11
-20.7227
 21
2.71448
  0
LINE
  8
0
 10
-20.7227
 20
2.71448
 11
-20.3925
 21
2.53297
  0
LINE
  8
0
 10
-20.3925
 20
2.53297
 11
-20.0877
 21
2.31154
  0
LINE
  8
0
 10
-20.0877
 20
2.31154
 11
-19.8131
 21
2.05363
  0
LINE
  8
0
 10
-19.8131
 20
2.05363
 11
-19.5729
 21
1.76335
  0
LINE
  8
0
 10
-19.5729
 20
1.76335
 11
-19.3711
 21
1.44525
  0
LINE
  8
0
 10
-19.3711
 20
1.44525
 11
-19.2107
 21
1.10437
  0
LINE
  8
0
 10
-19.2107
 20
1.10437
 11
-19.0942
 21
0.746063
  0
LINE
  8
0
 10
-19.0942
 20
0.746063
 11
-19.0237
 21
0.375992
  0
LINE
  8
0
 10
-19.0237
 20
0.375992
 11
-19
 21
0
  0
LINE
  8
0
 10
-19
 20
0
 11
-19.0237
 21
-0.375992
  0
LINE
  8
0
 10
-19.0237
 20
-0.375992
 11
-19.0942
 21
-0.746063
  0
LINE
  8
0
 10
-19.0942
 20
-0.746063
 11
-19.2107
 21
-1.10437
  0
LINE
  8
0
 10
-19.2107
 20
-1.10437
 11
-19.3711
 21
-1.44525
  0
LINE
  8
0
 10
-19.3711
 20
-1.44525
 11
-19.5729
 21
-1.76335
  0
LINE
  8
0
 10
-19.5729
 20
-1.76335
 11
-19.8131
 21
-2.05363
  0
LINE
  8
0
 10
-19.8131
 20
-2.05363
 11
-20.0877
 21
-2.31154
  0
LINE
  8
0
 10
-20.0877
 20
-2.31154
 11
-20.3925
 21
-2.53297
  0
LINE
  8
0
 10
-20.3925
 20
-2.53297
 11
-20.7227
 21
-2.71448
  0
LINE
  8
0
 10
-20.7227
 20
-2.71448
 11
-21.0729
 21
-2.85316
  0
LINE
  8
0
 10
-21.0729
 20
-2.85316
 11
-21.4379
 21
-2.94685
  0
LINE
  8
0
 10
-21.4379
 20
-2.94685
 11
-21.8116
 21
-2.99408
  0
LINE
  8
0
 10
-21.8116
 20
-2.99408
 11
-22.1884
 21
-2.99408
  0
LINE
  8
0
 10
21.8116
 20
-2.99408
 11
21.4379
 21
-2.94685
  0
LINE
  8
0
 10
21.4379
 20
-2.94685
 11
21.0729
 21
-2.85316
  0
LINE
  8
0
 10
21.0729
 20
-2.85316
 11
20.7227
 21
-2.71448
  0
LINE
  8
0
 10
20.7227
 20
-2.71448
 11
20.3925
 21
-2.53297
  0
LINE
  8
0
 10
20.3925
 20
-2.53297
 11
20.0877
 21
-2.31154
  0
LINE
  8
0
 10
20.0877
 20
-2.31154
 11
19.8131
 21
-2.05363
  0
LINE
  8
0
 10
19.8131
 20
-2.05363
 11
19.5729
 21
-1.76335
  0
LINE
  8
0
 10
19.5729
 20
-1.76335
 11
19.3711
 21
-1.44525
  0
LINE
  8
0
 10
19.3711
 20
-1.44525
 11
19.2107
 21
-1.10437
  0
LINE
  8
0
 10
19.2107
 20
-1.10437
 11
19.0942
 21
-0.746063
  0
LINE
  8
0
 10
19.0942
 20
-0.746063
 11
19.0237
 21
-0.375992
  0
LINE
  8
0
 10
19.0237
 20
-0.375992
 11
19
 21
0
  0
LINE
  8
0
 10
19
 20
0
 11
19.0237
 21
0.375992
  0
LINE
  8
0
 10
19.0237
 20
0.375992
 11
19.0942
 21
0.746063
  0
LINE
  8
0
 10
19.0942
 20
0.746063
 11
19.2107
 21
1.10437
  0
LINE
  8
0
 10
19.2107
 20
1.10437
 11
19.3711
 21
1.44525
  0
LINE
  8
0
 10
19.3711
 20
1.44525
 11
19.5729
 21
1.76335
  0
LINE
  8
0
 10
19.5729
 20
1.76335
 11
19.8131
 21
2.05363
  0
LINE
  8
0
 10
19.8131
 20
2.05363
 11
20.0877
 21
2.31154
  0
LINE
  8
0
 10
20.0877
 20
2.31154
 11
20.3925
 21
2.53297
  0
LINE
  8
0
 10
20.3925
 20
2.53297
 11
20.7227
 21
2.71448
  0
LINE
  8
0
 10
20.7227
 20
2.71448
 11
21.0729
 21
2.85316
  0
LINE
  8
0
 10
21.0729
 20
2.85316
 11
21.4379
 21
2.94685
  0
LINE
  8
0
 10
21.4379
 20
2.94685
 11
21.8116
 21
2.99408
  0
LINE
  8
0
 10
21.8116
 20
2.99408
 11
22.1884
 21
2.99408
  0
LINE
  8
0
 10
22.1884
 20
2.99408
 11
22.5621
 21
2.94685
  0
LINE
  8
0
 10
22.5621
 20
2.94685
 11
22.927
 21
2.85316
  0
LINE
  8
0
 10
22.927
 20
2.85316
 11
23.2773
 21
2.71448
  0
LINE
  8
0
 10
23.2773
 20
2.71448
 11
23.6075
 21
2.53297
  0
LINE
  8
0
 10
23.6075
 20
2.53297
 11
23.9123
 21
2.31154
  0
LINE
  8
0
 10
23.9123
 20
2.31154
 11
24.1869
 21
2.05363
  0
LINE
  8
0
 10
24.1869
 20
2.05363
 11
24.427
 21
1.76335
  0
LINE
  8
0
 10
24.427
 20
1.76335
 11
24.6289
 21
1.44525
  0
LINE
  8
0
 10
24.6289
 20
1.44525
 11
24.7893
 21
1.10437
  0
LINE
  8
0
 10
24.7893
 20
1.10437
 11
24.9057
 21
0.746063
  0
LINE
  8
0
 10
24.9057
 20
0.746063
 11
24.9763
 21
0.375992
  0
LINE
  8
0
 10
24.9763
 20
0.375992
 11
25
 21
0
  0
LINE
  8
0
 10
25
 20
0
 11
24.9763
 21
-0.375992
  0
LINE
  8
0
 10
24.9763
 20
-0.375992
 11
24.9057
 21
-0.746063
  0
LINE
  8
0
 10
24.9057
 20
-0.746063
 11
24.7893
 21
-1.10437
  0
LINE
  8
0
 10
24.7893
 20
-1.10437
 11
24.6289
 21
-1.44525
  0
LINE
  8
0
 10
24.6289
 20
-1.44525
 11
24.427
 21
-1.76335
  0
LINE
  8
0
 10
24.427
 20
-1.76335
 11
24.1869
 21
-2.05363
  0
LINE
  8
0
 10
24.1869
 20
-2.05363
 11
23.9123
 21
-2.31154
  0
LINE
  8
0
 10
23.9123
 20
-2.31154
 11
23.6075
 21
-2.53297
  0
LINE
  8
0
 10
23.6075
 20
-2.53297
 11
23.2773
 21
-2.71448
  0
LINE
  8
0
 10
23.2773
 20
-2.71448
 11
22.927
 21
-2.85316
  0
LINE
  8
0
 10
22.927
 20
-2.85316
 11
22.5621
 21
-2.94685
  0
LINE
  8
0
 10
22.5621
 20
-2.94685
 11
22.1884
 21
-2.99408
  0
LINE
  8
0
 10
22.1884
 20
-2.99408
 11
21.8116
 21
-2.99408
  0
LINE
  8
0
 10
-16.5867
 20
-17.7483
 11
-18.1735
 21
-15
  0
LINE
  8
0
 10
-18.1735
 20
-15
 11
-16.5867
 21
-12.2517
  0
LINE
  8
0
 10
-16.5867
 20
-12.2517
 11
-13.4133
 21
-12.2517
  0
LINE
  8
0
 10
-13.4133
 20
-12.2517
 11
-11.8265
 21
-15
  0
LINE
  8
0
 10
-11.8265
 20
-15
 11
-13.4133
 21
-17.7483
  0
LINE
  8
0
 10
-13.4133
 20
-17.7483
 11
-16.5867
 21
-17.7483
  0
LINE
  8
0
 10
14.887
 20
-16.7964
 11
14.6627
 21
-16.7681
  0
LINE
  8
0
 10
14.6627
 20
-16.7681
 11
14.4438
 21
-16.7119
  0
LINE
  8
0
 10
14.4438
 20
-16.7119
 11
14.2336
 21
-16.6287
  0
LINE
  8
0
 10
14.2336
 20
-16.6287
 11
14.0355
 21
-16.5198
  0
LINE
  8
0
 10
14.0355
 20
-16.5198
 11
13.8526
 21
-16.3869
  0
LINE
  8
0
 10
13.8526
 20
-16.3869
 11
13.6879
 21
-16.2322
  0
LINE
  8
0
 10
13.6879
 20
-16.2322
 11
13.5438
 21
-16.058
  0
LINE
  8
0
 10
13.5438
 20
-16.058
 11
13.4226
 21
-15.8671
  0
LINE
  8
0
 10
13.4226
 20
-15.8671
 11
13.3264
 21
-15.6626
  0
LINE
  8
0
 10
13.3264
 20
-15.6626
 11
13.2565
 21
-15.4476
  0
LINE
  8
0
 10
13.2565
 20
-15.4476
 11
13.2142
 21
-15.2256
  0
LINE
  8
0
 10
13.2142
 20
-15.2256
 11
13.2
 21
-15
  0
LINE
  8
0
 10
13.2
 20
-15
 11
13.2142
 21
-14.7744
  0
LINE
  8
0
 10
13.2142
 20
-14.7744
 11
13.2565
 21
-14.5524
  0
LINE
  8
0
 10
13.2565
 20
-14.5524
 11
13.3264
 21
-14.3374
  0
LINE
  8
0
 10
13.3264
 20
-14.3374
 11
13.4226
 21
-14.1328
  0
LINE
  8
0
 10
13.4226
 20
-14.1328
 11
13.5438
 21
-13.942
  0
LINE
  8
0
 10
13.5438
 20
-13.942
 11
13.6879
 21
-13.7678
  0
LINE
  8
0
 10
13.6879
 20
-13.7678
 11
13.8526
 21
-13.6131
  0
LINE
  8
0
 10
13.8526
 20
-13.6131
 11
14.0355
 21
-13.4802
  0
LINE
  8
0
 10
14.0355
 20
-13.4802
 11
14.2336
 21
-13.3713
  0
LINE
  8
0
 10
14.2336
 20
-13.3713
 11
14.4438
 21
-13.2881
  0
LINE
  8
0
 10
14.4438
 20
-13.2881
 11
14.6627
 21
-13.2319
  0
LINE
  8
0
 10
14.6627
 20
-13.2319
 11
14.887
 21
-13.2036
  0
LINE
  8
0
 10
14.887
 20
-13.2036
 11
15.113
 21
-13.2036
  0
LINE
  8
0
 10
15.113
 20
-13.2036
 11
15.3373
 21
-13.2319
  0
LINE
  8
0
 10
15.3373
 20
-13.2319
 11
15.5562
 21
-13.2881
  0
LINE
  8
0
 10
15.5562
 20
-13.2881
 11
15.7664
 21
-13.3713
  0
LINE
  8
0
 10
15.7664
 20
-13.3713
 11
15.9645
 21
-13.4802
  0
LINE
  8
0
 10
15.9645
 20
-13.4802
 11
16.1474
 21
-13.6131
  0
LINE
  8
0
 10
16.1474
 20
-13.6131
 11
16.3121
 21
-13.7678
  0
LINE
  8
0
 10
16.3121
 20
-13.7678
 11
16.4562
 21
-13.942
  0
LINE
  8
0
 10
16.4562
 20
-13.942
 11
16.5773
 21
-14.1328
  0
LINE
  8
0
 10
16.5773
 20
-14.1328
 11
16.6736
 21
-14.3374
  0
LINE
  8
0
 10
16.6736
 20
-14.3374
 11
16.7434
 21
-14.5524
  0
LINE
  8
0
 10
16.7434
 20
-14.5524
 11
16.7858
 21
-14.7744
  0
LINE
  8
0
 10
16.7858
 20
-14.7744
 11
16.8
 21
-15
  0
LINE
  8
0
 10
16.8
 20
-15
 11
16.7858
 21
-15.2256
  0
LINE
  8
0
 10
16.7858
 20
-15.2256
 11
16.7434
 21
-15.4476
  0
LINE
  8
0
 10
16.7434
 20
-15.4476
 11
16.6736
 21
-15.6626
  0
LINE
  8
0
 10
16.6736
 20
-15.6626
 11
16.5773
 21
-15.8671
  0
LINE
  8
0
 10
16.5773
 20
-15.8671
 11
16.4562
 21
-16.058
  0
LINE
  8
0
 10
16.4562
 20
-16.058
 11
16.3121
 21
-16.2322
  0
LINE
  8
0
 10
16.3121
 20
-16.2322
 11
16.1474
 21
-16.3869
  0
LINE
  8
0
 10
16.1474
 20
-16.3869
 11
15.9645
 21
-16.5198
  0
LINE
  8
0
 10
15.9645
 20
-16.5198
 11
15.7664
 21
-16.6287
  0
LINE
  8
0
 10
15.7664
 20
-16.6287
 11
15.5562
 21
-16.7119
  0
LINE
  8
0
 10
15.5562
 20
-16.7119
 11
15.3373
 21
-16.7681
  0
LINE
  8
0
 10
15.3373
 20
-16.7681
 11
15.113
 21
-16.7964
  0
LINE
  8
0
 10
15.113
 20
-16.7964
 11
14.887
 21
-16.7964
  0
LINE
  8
0
 10
40.8498
 20
25.5693
 11
40.476
 21
25.6165
  0
LINE
  8
0
 10
40.476
 20
25.6165
 11
40.1111
 21
25.7102
  0
LINE
  8
0
 10
40.1111
 20
25.7102
 11
39.7608
 21
25.8489
  0
LINE
  8
0
 10
39.7608
 20
25.8489
 11
39.4307
 21
26.0304
  0
LINE
  8
0
 10
39.4307
 20
26.0304
 11
39.1259
 21
26.2519
  0
LINE
  8
0
 10
39.1259
 20
26.2519
 11
38.8513
 21
26.5098
  0
LINE
  8
0
 10
38.8513
 20
26.5098
 11
38.6111
 21
26.8
  0
LINE
  8
0
 10
38.6111
 20
26.8
 11
38.4092
 21
27.1181
  0
LINE
  8
0
 10
38.4092
 20
27.1181
 11
38.2488
 21
27.459
  0
LINE
  8
0
 10
38.2488
 20
27.459
 11
38.1324
 21
27.8173
  0
LINE
  8
0
 10
38.1324
 20
27.8173
 11
38.0618
 21
28.1874
  0
LINE
  8
0
 10
38.0618
 20
28.1874
 11
38.0382
 21
28.5634
  0
LINE
  8
0
 10
38.0382
 20
28.5634
 11
38.0618
 21
28.9394
  0
LINE
  8
0
 10
38.0618
 20
28.9394
 11
38.1324
 21
29.3095
  0
LINE
  8
0
 10
38.1324
 20
29.3095
 11
38.2488
 21
29.6678
  0
LINE
  8
0
 10
38.2488
 20
29.6678
 11
38.4092
 21
30.0087
  0
LINE
  8
0
 10
38.4092
 20
30.0087
 11
38.6111
 21
30.3268
  0
LINE
  8
0
 10
38.6111
 20
30.3268
 11
38.8513
 21
30.6171
  0
LINE
  8
0
 10
38.8513
 20
30.6171
 11
39.1259
 21
30.8749
  0
LINE
  8
0
 10
39.1259
 20
30.8749
 11
39.4307
 21
31.0964
  0
LINE
  8
0
 10
39.4307
 20
31.0964
 11
39.7608
 21
31.2779
  0
LINE
  8
0
 10
39.7608
 20
31.2779
 11
40.1111
 21
31.4166
  0
LINE
  8
0
 10
40.1111
 20
31.4166
 11
40.476
 21
31.5103
  0
LINE
  8
0
 10
40.476
 20
31.5103
 11
40.8498
 21
31.5575
  0
LINE
  8
0
 10
40.8498
 20
31.5575
 11
41.2265
 21
31.5575
  0
LINE
  8
0
 10
41.2265
 20
31.5575
 11
41.6003
 21
31.5103
  0
LINE
  8
0
 10
41.6003
 20
31.5103
 11
41.9652
 21
31.4166
  0
LINE
  8
0
 10
41.9652
 20
31.4166
 11
42.3155
 21
31.2779
  0
LINE
  8
0
 10
42.3155
 20
31.2779
 11
42.6456
 21
31.0964
  0
LINE
  8
0
 10
42.6456
 20
31.0964
 11
42.9504
 21
30.8749
  0
LINE
  8
0
 10
42.9504
 20
30.8749
 11
43.2251
 21
30.6171
  0
LINE
  8
0
 10
43.2251
 20
30.6171
 11
43.4652
 21
30.3268
  0
LINE
  8
0
 10
43.4652
 20
30.3268
 11
43.6671
 21
30.0087
  0
LINE
  8
0
 10
43.6671
 20
30.0087
 11
43.8275
 21
29.6678
  0
LINE
  8
0
 10
43.8275
 20
29.6678
 11
43.9439
 21
29.3095
  0
LINE
  8
0
 10
43.9439
 20
29.3095
 11
44.0145
 21
28.9394
  0
LINE
  8
0
 10
44.0145
 20
28.9394
 11
44.0382
 21
28.5634
  0
LINE
  8
0
 10
44.0382
 20
28.5634
 11
44.0145
 21
28.1874
  0
LINE
  8
0
 10
44.0145
 20
28.1874
 11
43.9439
 21
27.8173
  0
LINE
  8
0
 10
43.9439
 20
27.8173
 11
43.8275
 21
27.459
  0
LINE
  8
0
 10
43.8275
 20
27.459
 11
43.6671
 21
27.1181
  0
LINE
  8
0
 10
43.6671
 20
27.1181
 11
43.4652
 21
26.8
  0
LINE
  8
0
 10
43.4652
 20
26.8
 11
43.2251
 21
26.5098
  0
LINE
  8
0
 10
43.2251
 20
26.5098
 11
42.9504
 21
26.2519
  0
LINE
  8
0
 10
42.9504
 20
26.2519
 11
42.6456
 21
26.0304
  0
LINE
  8
0
 10
42.6456
 20
26.0304
 11
42.3155
 21
25.8489
  0
LINE
  8
0
 10
42.3155
 20
25.8489
 11
41.9652
 21
25.7102
  0
LINE
  8
0
 10
41.9652
 20
25.7102
 11
41.6003
 21
25.6165
  0
LINE
  8
0
 10
41.6003
 20
25.6165
 11
41.2265
 21
25.5693
  0
LINE
  8
0
 10
41.2265
 20
25.5693
 11
40.8498
 21
25.5693
  0
LINE
  8
0
 10
-43.9057
 20
21.271
 11
-44.2795
 21
21.3182
  0
LINE
  8
0
 10
-44.2795
 20
21.3182
 11
-44.6444
 21
21.4119
  0
LINE
  8
0
 10
-44.6444
 20
21.4119
 11
-44.9947
 21
21.5506
  0
LINE
  8
0
 10
-44.9947
 20
21.5506
 11
-45.3248
 21
21.7321
  0
LINE
  8
0
 10
-45.3248
 20
21.7321
 11
-45.6296
 21
21.9536
  0
LINE
  8
0
 10
-45.6296
 20
21.9536
 11
-45.9042
 21
22.2115
  0
LINE
  8
0
 10
-45.9042
 20
22.2115
 11
-46.1444
 21
22.5017
  0
LINE
  8
0
 10
-46.1444
 20
22.5017
 11
-46.3463
 21
22.8198
  0
LINE
  8
0
 10
-46.3463
 20
22.8198
 11
-46.5067
 21
23.1607
  0
LINE
  8
0
 10
-46.5067
 20
23.1607
 11
-46.6231
 21
23.519
  0
LINE
  8
0
 10
-46.6231
 20
23.519
 11
-46.6937
 21
23.8891
  0
LINE
  8
0
 10
-46.6937
 20
23.8891
 11
-46.7173
 21
24.2651
  0
LINE
  8
0
 10
-46.7173
 20
24.2651
 11
-46.6937
 21
24.6411
  0
LINE
  8
0
 10
-46.6937
 20
24.6411
 11
-46.6231
 21
25.0112
  0
LINE
  8
0
 10
-46.6231
 20
25.0112
 11
-46.5067
 21
25.3695
  0
LINE
  8
0
 10
-46.5067
 20
25.3695
 11
-46.3463
 21
25.7104
  0
LINE
  8
0
 10
-46.3463
 20
25.7104
 11
-46.1444
 21
26.0284
  0
LINE
  8
0
 10
-46.1444
 20
26.0284
 11
-45.9042
 21
26.3187
  0
LINE
  8
0
 10
-45.9042
 20
26.3187
 11
-45.6296
 21
26.5766
  0
LINE
  8
0
 10
-45.6296
 20
26.5766
 11
-45.3248
 21
26.7981
  0
LINE
  8
0
 10
-45.3248
 20
26.7981
 11
-44.9947
 21
26.9796
  0
LINE
  8
0
 10
-44.9947
 20
26.9796
 11
-44.6444
 21
27.1183
  0
LINE
  8
0
 10
-44.6444
 20
27.1183
 11
-44.2795
 21
27.212
  0
LINE
  8
0
 10
-44.2795
 20
27.212
 11
-43.9057
 21
27.2592
  0
LINE
  8
0
 10
-43.9057
 20
27.2592
 11
-43.5289
 21
27.2592
  0
LINE
  8
0
 10
-43.5289
 20
27.2592
 11
-43.1552
 21
27.212
  0
LINE
  8
0
 10
-43.1552
 20
27.212
 11
-42.7903
 21
27.1183
  0
LINE
  8
0
 10
-42.7903
 20
27.1183
 11
-42.44
 21
26.9796
  0
LINE
  8
0
 10
-42.44
 20
26.9796
 11
-42.1098
 21
26.7981
  0
LINE
  8
0
 10
-42.1098
 20
26.7981
 11
-41.8051
 21
26.5766
  0
LINE
  8
0
 10
-41.8051
 20
26.5766
 11
-41.5304
 21
26.3187
  0
LINE
  8
0
 10
-41.5304
 20
26.3187
 11
-41.2903
 21
26.0284
  0
LINE
  8
0
 10
-41.2903
 20
26.0284
 11
-41.0884
 21
25.7104
  0
LINE
  8
0
 10
-41.0884
 20
25.7104
 11
-40.928
 21
25.3695
  0
LINE
  8
0
 10
-40.928
 20
25.3695
 11
-40.8116
 21
25.0112
  0
LINE
  8
0
 10
-40.8116
 20
25.0112
 11
-40.741
 21
24.6411
  0
LINE
  8
0
 10
-40.741
 20
24.6411
 11
-40.7173
 21
24.2651
  0
LINE
  8
0
 10
-40.7173
 20
24.2651
 11
-40.741
 21
23.8891
  0
LINE
  8
0
 10
-40.741
 20
23.8891
 11
-40.8116
 21
23.519
  0
LINE
  8
0
 10
-40.8116
 20
23.519
 11
-40.928
 21
23.1607
  0
LINE
  8
0
 10
-40.928
 20
23.1607
 11
-41.0884
 21
22.8198
  0
LINE
  8
0
 10
-41.0884
 20
22.8198
 11
-41.2903
 21
22.5017
  0
LINE
  8
0
 10
-41.2903
 20
22.5017
 11
-41.5304
 21
22.2115
  0
LINE
  8
0
 10
-41.5304
 20
22.2115
 11
-41.8051
 21
21.9536
  0
LINE
  8
0
 10
-41.8051
 20
21.9536
 11
-42.1098
 21
21.7321
  0
LINE
  8
0
 10
-42.1098
 20
21.7321
 11
-42.44
 21
21.5506
  0
LINE
  8
0
 10
-42.44
 20
21.5506
 11
-42.7903
 21
21.4119
  0
LINE
  8
0
 10
-42.7903
 20
21.4119
 11
-43.1552
 21
21.3182
  0
LINE
  8
0
 10
-43.1552
 20
21.3182
 11
-43.5289
 21
21.271
  0
LINE
  8
0
 10
-43.5289
 20
21.271
 11
-43.9057
 21
21.271
  0
LINE
  8
0
 10
45.7595
 20
16.7237
 11
45.3857
 21
16.7709
  0
LINE
  8
0
 10
45.3857
 20
16.7709
 11
45.0208
 21
16.8646
  0
LINE
  8
0
 10
45.0208
 20
16.8646
 11
44.6705
 21
17.0033
  0
LINE
  8
0
 10
44.6705
 20
17.0033
 11
44.3404
 21
17.1848
  0
LINE
  8
0
 10
44.3404
 20
17.1848
 11
44.0356
 21
17.4062
  0
LINE
  8
0
 10
44.0356
 20
17.4062
 11
43.761
 21
17.6641
  0
LINE
  8
0
 10
43.761
 20
17.6641
 11
43.5208
 21
17.9544
  0
LINE
  8
0
 10
43.5208
 20
17.9544
 11
43.319
 21
18.2725
  0
LINE
  8
0
 10
43.319
 20
18.2725
 11
43.1586
 21
18.6134
  0
LINE
  8
0
 10
43.1586
 20
18.6134
 11
43.0421
 21
18.9717
  0
LINE
  8
0
 10
43.0421
 20
18.9717
 11
42.9715
 21
19.3418
  0
LINE
  8
0
 10
42.9715
 20
19.3418
 11
42.9479
 21
19.7178
  0
LINE
  8
0
 10
42.9479
 20
19.7178
 11
42.9715
 21
20.0938
  0
LINE
  8
0
 10
42.9715
 20
20.0938
 11
43.0421
 21
20.4639
  0
LINE
  8
0
 10
43.0421
 20
20.4639
 11
43.1586
 21
20.8222
  0
LINE
  8
0
 10
43.1586
 20
20.8222
 11
43.319
 21
21.163
  0
LINE
  8
0
 10
43.319
 20
21.163
 11
43.5208
 21
21.4811
  0
LINE
  8
0
 10
43.5208
 20
21.4811
 11
43.761
 21
21.7714
  0
LINE
  8
0
 10
43.761
 20
21.7714
 11
44.0356
 21
22.0293
  0
LINE
  8
0
 10
44.0356
 20
22.0293
 11
44.3404
 21
22.2508
  0
LINE
  8
0
 10
44.3404
 20
22.2508
 11
44.6705
 21
22.4323
  0
LINE
  8
0
 10
44.6705
 20
22.4323
 11
45.0208
 21
22.571
  0
LINE
  8
0
 10
45.0208
 20
22.571
 11
45.3857
 21
22.6646
  0
LINE
  8
0
 10
45.3857
 20
22.6646
 11
45.7595
 21
22.7119
  0
LINE
  8
0
 10
45.7595
 20
22.7119
 11
46.1363
 21
22.7119
  0
LINE
  8
0
 10
46.1363
 20
22.7119
 11
46.51
 21
22.6646
  0
LINE
  8
0
 10
46.51
 20
22.6646
 11
46.8749
 21
22.571
  0
LINE
  8
0
 10
46.8749
 20
22.571
 11
47.2252
 21
22.4323
  0
LINE
  8
0
 10
47.2252
 20
22.4323
 11
47.5554
 21
22.2508
  0
LINE
  8
0
 10
47.5554
 20
22.2508
 11
47.8602
 21
22.0293
  0
LINE
  8
0
 10
47.8602
 20
22.0293
 11
48.1348
 21
21.7714
  0
LINE
  8
0
 10
48.1348
 20
21.7714
 11
48.3749
 21
21.4811
  0
LINE
  8
0
 10
48.3749
 20
21.4811
 11
48.5768
 21
21.163
  0
LINE
  8
0
 10
48.5768
 20
21.163
 11
48.7372
 21
20.8222
  0
LINE
  8
0
 10
48.7372
 20
20.8222
 11
48.8536
 21
20.4639
  0
LINE
  8
0
 10
48.8536
 20
20.4639
 11
48.9242
 21
20.0938
  0
LINE
  8
0
 10
48.9242
 20
20.0938
 11
48.9479
 21
19.7178
  0
LINE
  8
0
 10
48.9479
 20
19.7178
 11
48.9242
 21
19.3418
  0
LINE
  8
0
 10
48.9242
 20
19.3418
 11
48.8536
 21
18.9717
  0
LINE
  8
0
 10
48.8536
 20
18.9717
 11
48.7372
 21
18.6134
  0
LINE
  8
0
 10
48.7372
 20
18.6134
 11
48.5768
 21
18.2725
  0
LINE
  8
0
 10
48.5768
 20
18.2725
 11
48.3749
 21
17.9544
  0
LINE
  8
0
 10
48.3749
 20
17.9544
 11
48.1348
 21
17.6641
  0
LINE
  8
0
 10
48.1348
 20
17.6641
 11
47.8602
 21
17.4062
  0
LINE
  8
0
 10
47.8602
 20
17.4062
 11
47.5554
 21
17.1848
  0
LINE
  8
0
 10
47.5554
 20
17.1848
 11
47.2252
 21
17.0033
  0
LINE
  8
0
 10
47.2252
 20
17.0033
 11
46.8749
 21
16.8646
  0
LINE
  8
0
 10
46.8749
 20
16.8646
 11
46.51
 21
16.7709
  0
LINE
  8
0
 10
46.51
 20
16.7709
 11
46.1363
 21
16.7237
  0
LINE
  8
0
 10
46.1363
 20
16.7237
 11
45.7595
 21
16.7237
  0
LINE
  8
0
 10
-47.8953
 20
11.9741
 11
-48.2691
 21
12.0213
  0
LINE
  8
0
 10
-48.2691
 20
12.0213
 11
-48.634
 21
12.115
  0
LINE
  8
0
 10
-48.634
 20
12.115
 11
-48.9843
 21
12.2537
  0
LINE
  8
0
 10
-48.9843
 20
12.2537
 11
-49.3144
 21
12.4352
  0
LINE
  8
0
 10
-49.3144
 20
12.4352
 11
-49.6192
 21
12.6566
  0
LINE
  8
0
 10
-49.6192
 20
12.6566
 11
-49.8939
 21
12.9145
  0
LINE
  8
0
 10
-49.8939
 20
12.9145
 11
-50.134
 21
13.2048
  0
LINE
  8
0
 10
-50.134
 20
13.2048
 11
-50.3359
 21
13.5229
  0
LINE
  8
0
 10
-50.3359
 20
13.5229
 11
-50.4963
 21
13.8638
  0
LINE
  8
0
 10
-50.4963
 20
13.8638
 11
-50.6127
 21
14.2221
  0
LINE
  8
0
 10
-50.6127
 20
14.2221
 11
-50.6833
 21
14.5921
  0
LINE
  8
0
 10
-50.6833
 20
14.5921
 11
-50.707
 21
14.9682
  0
LINE
  8
0
 10
-50.707
 20
14.9682
 11
-50.6833
 21
15.3441
  0
LINE
  8
0
 10
-50.6833
 20
15.3441
 11
-50.6127
 21
15.7142
  0
LINE
  8
0
 10
-50.6127
 20
15.7142
 11
-50.4963
 21
16.0725
  0
LINE
  8
0
 10
-50.4963
 20
16.0725
 11
-50.3359
 21
16.4134
  0
LINE
  8
0
 10
-50.3359
 20
16.4134
 11
-50.134
 21
16.7315
  0
LINE
  8
0
 10
-50.134
 20
16.7315
 11
-49.8939
 21
17.0218
  0
LINE
  8
0
 10
-49.8939
 20
17.0218
 11
-49.6192
 21
17.2797
  0
LINE
  8
0
 10
-49.6192
 20
17.2797
 11
-49.3144
 21
17.5011
  0
LINE
  8
0
 10
-49.3144
 20
17.5011
 11
-48.9843
 21
17.6826
  0
LINE
  8
0
 10
-48.9843
 20
17.6826
 11
-48.634
 21
17.8213
  0
LINE
  8
0
 10
-48.634
 20
17.8213
 11
-48.2691
 21
17.915
  0
LINE
  8
0
 10
-48.2691
 20
17.915
 11
-47.8953
 21
17.9622
  0
LINE
  8
0
 10
-47.8953
 20
17.9622
 11
-47.5186
 21
17.9622
  0
LINE
  8
0
 10
-47.5186
 20
17.9622
 11
-47.1448
 21
17.915
  0
LINE
  8
0
 10
-47.1448
 20
17.915
 11
-46.7799
 21
17.8213
  0
LINE
  8
0
 10
-46.7799
 20
17.8213
 11
-46.4296
 21
17.6826
  0
LINE
  8
0
 10
-46.4296
 20
17.6826
 11
-46.0995
 21
17.5011
  0
LINE
  8
0
 10
-46.0995
 20
17.5011
 11
-45.7947
 21
17.2797
  0
LINE
  8
0
 10
-45.7947
 20
17.2797
 11
-45.5201
 21
17.0218
  0
LINE
  8
0
 10
-45.5201
 20
17.0218
 11
-45.2799
 21
16.7315
  0
LINE
  8
0
 10
-45.2799
 20
16.7315
 11
-45.078
 21
16.4134
  0
LINE
  8
0
 10
-45.078
 20
16.4134
 11
-44.9176
 21
16.0725
  0
LINE
  8
0
 10
-44.9176
 20
16.0725
 11
-44.8012
 21
15.7142
  0
LINE
  8
0
 10
-44.8012
 20
15.7142
 11
-44.7306
 21
15.3441
  0
LINE
  8
0
 10
-44.7306
 20
15.3441
 11
-44.707
 21
14.9682
  0
LINE
  8
0
 10
-44.707
 20
14.9682
 11
-44.7306
 21
14.5921
  0
LINE
  8
0
 10
-44.7306
 20
14.5921
 11
-44.8012
 21
14.2221
  0
LINE
  8
0
 10
-44.8012
 20
14.2221
 11
-44.9176
 21
13.8638
  0
LINE
  8
0
 10
-44.9176
 20
13.8638
 11
-45.078
 21
13.5229
  0
LINE
  8
0
 10
-45.078
 20
13.5229
 11
-45.2799
 21
13.2048
  0
LINE
  8
0
 10
-45.2799
 20
13.2048
 11
-45.5201
 21
12.9145
  0
LINE
  8
0
 10
-45.5201
 20
12.9145
 11
-45.7947
 21
12.6566
  0
LINE
  8
0
 10
-45.7947
 20
12.6566
 11
-46.0995
 21
12.4352
  0
LINE
  8
0
 10
-46.0995
 20
12.4352
 11
-46.4296
 21
12.2537
  0
LINE
  8
0
 10
-46.4296
 20
12.2537
 11
-46.7799
 21
12.115
  0
LINE
  8
0
 10
-46.7799
 20
12.115
 11
-47.1448
 21
12.0213
  0
LINE
  8
0
 10
-47.1448
 20
12.0213
 11
-47.5186
 21
11.9741
  0
LINE
  8
0
 10
-47.5186
 20
11.9741
 11
-47.8953
 21
11.9741
  0
LINE
  8
0
 10
48.7881
 20
7.07083
 11
48.4144
 21
7.11806
  0
LINE
  8
0
 10
48.4144
 20
7.11806
 11
48.0494
 21
7.21175
  0
LINE
  8
0
 10
48.0494
 20
7.21175
 11
47.6992
 21
7.35043
  0
LINE
  8
0
 10
47.6992
 20
7.35043
 11
47.369
 21
7.53194
  0
LINE
  8
0
 10
47.369
 20
7.53194
 11
47.0642
 21
7.75337
  0
LINE
  8
0
 10
47.0642
 20
7.75337
 11
46.7896
 21
8.01128
  0
LINE
  8
0
 10
46.7896
 20
8.01128
 11
46.5494
 21
8.30156
  0
LINE
  8
0
 10
46.5494
 20
8.30156
 11
46.3476
 21
8.61966
  0
LINE
  8
0
 10
46.3476
 20
8.61966
 11
46.1872
 21
8.96054
  0
LINE
  8
0
 10
46.1872
 20
8.96054
 11
46.0707
 21
9.31885
  0
LINE
  8
0
 10
46.0707
 20
9.31885
 11
46.0002
 21
9.68892
  0
LINE
  8
0
 10
46.0002
 20
9.68892
 11
45.9765
 21
10.0649
  0
LINE
  8
0
 10
45.9765
 20
10.0649
 11
46.0002
 21
10.4409
  0
LINE
  8
0
 10
46.0002
 20
10.4409
 11
46.0707
 21
10.811
  0
LINE
  8
0
 10
46.0707
 20
10.811
 11
46.1872
 21
11.1693
  0
LINE
  8
0
 10
46.1872
 20
11.1693
 11
46.3476
 21
11.5102
  0
LINE
  8
0
 10
46.3476
 20
11.5102
 11
46.5494
 21
11.8283
  0
LINE
  8
0
 10
46.5494
 20
11.8283
 11
46.7896
 21
12.1186
  0
LINE
  8
0
 10
46.7896
 20
12.1186
 11
47.0642
 21
12.3765
  0
LINE
  8
0
 10
47.0642
 20
12.3765
 11
47.369
 21
12.5979
  0
LINE
  8
0
 10
47.369
 20
12.5979
 11
47.6992
 21
12.7794
  0
LINE
  8
0
 10
47.6992
 20
12.7794
 11
48.0494
 21
12.9181
  0
LINE
  8
0
 10
48.0494
 20
12.9181
 11
48.4144
 21
13.0118
  0
LINE
  8
0
 10
48.4144
 20
13.0118
 11
48.7881
 21
13.059
  0
LINE
  8
0
 10
48.7881
 20
13.059
 11
49.1649
 21
13.059
  0
LINE
  8
0
 10
49.1649
 20
13.059
 11
49.5386
 21
13.0118
  0
LINE
  8
0
 10
49.5386
 20
13.0118
 11
49.9035
 21
12.9181
  0
LINE
  8
0
 10
49.9035
 20
12.9181
 11
50.2538
 21
12.7794
  0
LINE
  8
0
 10
50.2538
 20
12.7794
 11
50.584
 21
12.5979
  0
LINE
  8
0
 10
50.584
 20
12.5979
 11
50.8888
 21
12.3765
  0
LINE
  8
0
 10
50.8888
 20
12.3765
 11
51.1634
 21
12.1186
  0
LINE
  8
0
 10
51.1634
 20
12.1186
 11
51.4035
 21
11.8283
  0
LINE
  8
0
 10
51.4035
 20
11.8283
 11
51.6054
 21
11.5102
  0
LINE
  8
0
 10
51.6054
 20
11.5102
 11
51.7658
 21
11.1693
  0
LINE
  8
0
 10
51.7658
 20
11.1693
 11
51.8822
 21
10.811
  0
LINE
  8
0
 10
51.8822
 20
10.811
 11
51.9528
 21
10.4409
  0
LINE
  8
0
 10
51.9528
 20
10.4409
 11
51.9765
 21
10.0649
  0
LINE
  8
0
 10
51.9765
 20
10.0649
 11
51.9528
 21
9.68892
  0
LINE
  8
0
 10
51.9528
 20
9.68892
 11
51.8822
 21
9.31885
  0
LINE
  8
0
 10
51.8822
 20
9.31885
 11
51.7658
 21
8.96054
  0
LINE
  8
0
 10
51.7658
 20
8.96054
 11
51.6054
 21
8.61966
  0
LINE
  8
0
 10
51.6054
 20
8.61966
 11
51.4035
 21
8.30156
  0
LINE
  8
0
 10
51.4035
 20
8.30156
 11
51.1634
 21
8.01128
  0
LINE
  8
0
 10
51.1634
 20
8.01128
 11
50.8888
 21
7.75337
  0
LINE
  8
0
 10
50.8888
 20
7.75337
 11
50.584
 21
7.53194
  0
LINE
  8
0
 10
50.584
 20
7.53194
 11
50.2538
 21
7.35043
  0
LINE
  8
0
 10
50.2538
 20
7.35043
 11
49.9035
 21
7.21175
  0
LINE
  8
0
 10
49.9035
 20
7.21175
 11
49.5386
 21
7.11806
  0
LINE
  8
0
 10
49.5386
 20
7.11806
 11
49.1649
 21
7.07083
  0
LINE
  8
0
 10
49.1649
 20
7.07083
 11
48.7881
 21
7.07083
  0
LINE
  8
0
 10
-49.9318
 20
2.06433
 11
-50.3056
 21
2.11154
  0
LINE
  8
0
 10
-50.3056
 20
2.11154
 11
-50.6705
 21
2.20525
  0
LINE
  8
0
 10
-50.6705
 20
2.20525
 11
-51.0208
 21
2.34393
  0
LINE
  8
0
 10
-51.0208
 20
2.34393
 11
-51.3509
 21
2.52542
  0
LINE
  8
0
 10
-51.3509
 20
2.52542
 11
-51.6557
 21
2.74687
  0
LINE
  8
0
 10
-51.6557
 20
2.74687
 11
-51.9304
 21
3.00476
  0
LINE
  8
0
 10
-51.9304
 20
3.00476
 11
-52.1705
 21
3.29506
  0
LINE
  8
0
 10
-52.1705
 20
3.29506
 11
-52.3724
 21
3.61314
  0
LINE
  8
0
 10
-52.3724
 20
3.61314
 11
-52.5328
 21
3.95404
  0
LINE
  8
0
 10
-52.5328
 20
3.95404
 11
-52.6492
 21
4.31233
  0
LINE
  8
0
 10
-52.6492
 20
4.31233
 11
-52.7198
 21
4.6824
  0
LINE
  8
0
 10
-52.7198
 20
4.6824
 11
-52.7435
 21
5.05841
  0
LINE
  8
0
 10
-52.7435
 20
5.05841
 11
-52.7198
 21
5.4344
  0
LINE
  8
0
 10
-52.7198
 20
5.4344
 11
-52.6492
 21
5.80447
  0
LINE
  8
0
 10
-52.6492
 20
5.80447
 11
-52.5328
 21
6.16278
  0
LINE
  8
0
 10
-52.5328
 20
6.16278
 11
-52.3724
 21
6.50366
  0
LINE
  8
0
 10
-52.3724
 20
6.50366
 11
-52.1705
 21
6.82176
  0
LINE
  8
0
 10
-52.1705
 20
6.82176
 11
-51.9304
 21
7.11205
  0
LINE
  8
0
 10
-51.9304
 20
7.11205
 11
-51.6557
 21
7.36995
  0
LINE
  8
0
 10
-51.6557
 20
7.36995
 11
-51.3509
 21
7.59138
  0
LINE
  8
0
 10
-51.3509
 20
7.59138
 11
-51.0208
 21
7.77289
  0
LINE
  8
0
 10
-51.0208
 20
7.77289
 11
-50.6705
 21
7.91158
  0
LINE
  8
0
 10
-50.6705
 20
7.91158
 11
-50.3056
 21
8.00526
  0
LINE
  8
0
 10
-50.3056
 20
8.00526
 11
-49.9318
 21
8.05249
  0
LINE
  8
0
 10
-49.9318
 20
8.05249
 11
-49.5551
 21
8.05249
  0
LINE
  8
0
 10
-49.5551
 20
8.05249
 11
-49.1813
 21
8.00526
  0
LINE
  8
0
 10
-49.1813
 20
8.00526
 11
-48.8164
 21
7.91158
  0
LINE
  8
0
 10
-48.8164
 20
7.91158
 11
-48.4661
 21
7.77289
  0
LINE
  8
0
 10
-48.4661
 20
7.77289
 11
-48.136
 21
7.59138
  0
LINE
  8
0
 10
-48.136
 20
7.59138
 11
-47.8312
 21
7.36995
  0
LINE
  8
0
 10
-47.8312
 20
7.36995
 11
-47.5565
 21
7.11205
  0
LINE
  8
0
 10
-47.5565
 20
7.11205
 11
-47.3164
 21
6.82176
  0
LINE
  8
0
 10
-47.3164
 20
6.82176
 11
-47.1145
 21
6.50366
  0
LINE
  8
0
 10
-47.1145
 20
6.50366
 11
-46.9541
 21
6.16278
  0
LINE
  8
0
 10
-46.9541
 20
6.16278
 11
-46.8377
 21
5.80447
  0
LINE
  8
0
 10
-46.8377
 20
5.80447
 11
-46.7671
 21
5.4344
  0
LINE
  8
0
 10
-46.7671
 20
5.4344
 11
-46.7435
 21
5.05841
  0
LINE
  8
0
 10
-46.7435
 20
5.05841
 11
-46.7671
 21
4.6824
  0
LINE
  8
0
 10
-46.7671
 20
4.6824
 11
-46.8377
 21
4.31233
  0
LINE
  8
0
 10
-46.8377
 20
4.31233
 11
-46.9541
 21
3.95404
  0
LINE
  8
0
 10
-46.9541
 20
3.95404
 11
-47.1145
 21
3.61314
  0
LINE
  8
0
 10
-47.1145
 20
3.61314
 11
-47.3164
 21
3.29506
  0
LINE
  8
0
 10
-47.3164
 20
3.29506
 11
-47.5565
 21
3.00476
  0
LINE
  8
0
 10
-47.5565
 20
3.00476
 11
-47.8312
 21
2.74687
  0
LINE
  8
0
 10
-47.8312
 20
2.74687
 11
-48.136
 21
2.52542
  0
LINE
  8
0
 10
-48.136
 20
2.52542
 11
-48.4661
 21
2.34393
  0
LINE
  8
0
 10
-48.4661
 20
2.34393
 11
-48.8164
 21
2.20525
  0
LINE
  8
0
 10
-48.8164
 20
2.20525
 11
-49.1813
 21
2.11154
  0
LINE
  8
0
 10
-49.1813
 20
2.11154
 11
-49.5551
 21
2.06433
  0
LINE
  8
0
 10
-49.5551
 20
2.06433
 11
-49.9318
 21
2.06433
  0
LINE
  8
0
 10
49.8116
 20
-2.99408
 11
49.4379
 21
-2.94685
  0
LINE
  8
0
 10
49.4379
 20
-2.94685
 11
49.0729
 21
-2.85316
  0
LINE
  8
0
 10
49.0729
 20
-2.85316
 11
48.7227
 21
-2.71448
  0
LINE
  8
0
 10
48.7227
 20
-2.71448
 11
48.3925
 21
-2.53297
  0
LINE
  8
0
 10
48.3925
 20
-2.53297
 11
48.0877
 21
-2.31154
  0
LINE
  8
0
 10
48.0877
 20
-2.31154
 11
47.8131
 21
-2.05363
  0
LINE
  8
0
 10
47.8131
 20
-2.05363
 11
47.5729
 21
-1.76335
  0
LINE
  8
0
 10
47.5729
 20
-1.76335
 11
47.3711
 21
-1.44525
  0
LINE
  8
0
 10
47.3711
 20
-1.44525
 11
47.2107
 21
-1.10437
  0
LINE
  8
0
 10
47.2107
 20
-1.10437
 11
47.0942
 21
-0.746063
  0
LINE
  8
0
 10
47.0942
 20
-0.746063
 11
47.0237
 21
-0.375992
  0
LINE
  8
0
 10
47.0237
 20
-0.375992
 11
47
 21
0
  0
LINE
  8
0
 10
47
 20
0
 11
47.0237
 21
0.375992
  0
LINE
  8
0
 10
47.0237
 20
0.375992
 11
47.0942
 21
0.746063
  0
LINE
  8
0
 10
47.0942
 20
0.746063
 11
47.2107
 21
1.10437
  0
LINE
  8
0
 10
47.2107
 20
1.10437
 11
47.3711
 21
1.44525
  0
LINE
  8
0
 10
47.3711
 20
1.44525
 11
47.5729
 21
1.76335
  0
LINE
  8
0
 10
47.5729
 20
1.76335
 11
47.8131
 21
2.05363
  0
LINE
  8
0
 10
47.8131
 20
2.05363
 11
48.0877
 21
2.31154
  0
LINE
  8
0
 10
48.0877
 20
2.31154
 11
48.3925
 21
2.53297
  0
LINE
  8
0
 10
48.3925
 20
2.53297
 11
48.7227
 21
2.71448
  0
LINE
  8
0
 10
48.7227
 20
2.71448
 11
49.0729
 21
2.85316
  0
LINE
  8
0
 10
49.0729
 20
2.85316
 11
49.4379
 21
2.94685
  0
LINE
  8
0
 10
49.4379
 20
2.94685
 11
49.8116
 21
2.99408
  0
LINE
  8
0
 10
49.8116
 20
2.99408
 11
50.1884
 21
2.99408
  0
LINE
  8
0
 10
50.1884
 20
2.99408
 11
50.5621
 21
2.94685
  0
LINE
  8
0
 10
50.5621
 20
2.94685
 11
50.927
 21
2.85316
  0
LINE
  8
0
 10
50.927
 20
2.85316
 11
51.2773
 21
2.71448
  0
LINE
  8
0
 10
51.2773
 20
2.71448
 11
51.6075
 21
2.53297
  0
LINE
  8
0
 10
51.6075
 20
2.53297
 11
51.9123
 21
2.31154
  0
LINE
  8
0
 10
51.9123
 20
2.31154
 11
52.1869
 21
2.05363
  0
LINE
  8
0
 10
52.1869
 20
2.05363
 11
52.427
 21
1.76335
  0
LINE
  8
0
 10
52.427
 20
1.76335
 11
52.6289
 21
1.44525
  0
LINE
  8
0
 10
52.6289
 20
1.44525
 11
52.7893
 21
1.10437
  0
LINE
  8
0
 10
52.7893
 20
1.10437
 11
52.9057
 21
0.746063
  0
LINE
  8
0
 10
52.9057
 20
0.746063
 11
52.9763
 21
0.375992
  0
LINE
  8
0
 10
52.9763
 20
0.375992
 11
53
 21
0
  0
LINE
  8
0
 10
53
 20
0
 11
52.9763
 21
-0.375992
  0
LINE
  8
0
 10
52.9763
 20
-0.375992
 11
52.9057
 21
-0.746063
  0
LINE
  8
0
 10
52.9057
 20
-0.746063
 11
52.7893
 21
-1.10437
  0
LINE
  8
0
 10
52.7893
 20
-1.10437
 11
52.6289
 21
-1.44525
  0
LINE
  8
0
 10
52.6289
 20
-1.44525
 11
52.427
 21
-1.76335
  0
LINE
  8
0
 10
52.427
 20
-1.76335
 11
52.1869
 21
-2.05363
  0
LINE
  8
0
 10
52.1869
 20
-2.05363
 11
51.9123
 21
-2.31154
  0
LINE
  8
0
 10
51.9123
 20
-2.31154
 11
51.6075
 21
-2.53297
  0
LINE
  8
0
 10
51.6075
 20
-2.53297
 11
51.2773
 21
-2.71448
  0
LINE
  8
0
 10
51.2773
 20
-2.71448
 11
50.927
 21
-2.85316
  0
LINE
  8
0
 10
50.927
 20
-2.85316
 11
50.5621
 21
-2.94685
  0
LINE
  8
0
 10
50.5621
 20
-2.94685
 11
50.1884
 21
-2.99408
  0
LINE
  8
0
 10
50.1884
 20
-2.99408
 11
49.8116
 21
-2.99408
  0
LINE
  8
0
 10
-60.1884
 20
-2.99408
 11
-60.5621
 21
-2.94685
  0
LINE
  8
0
 10
-60.5621
 20
-2.94685
 11
-60.927
 21
-2.85316
  0
LINE
  8
0
 10
-60.927
 20
-2.85316
 11
-61.2773
 21
-2.71448
  0
LINE
  8
0
 10
-61.2773
 20
-2.71448
 11
-61.6075
 21
-2.53297
  0
LINE
  8
0
 10
-61.6075
 20
-2.53297
 11
-61.9123
 21
-2.31154
  0
LINE
  8
0
 10
-61.9123
 20
-2.31154
 11
-62.1869
 21
-2.05363
  0
LINE
  8
0
 10
-62.1869
 20
-2.05363
 11
-62.427
 21
-1.76335
  0
LINE
  8
0
 10
-62.427
 20
-1.76335
 11
-62.6289
 21
-1.44525
  0
LINE
  8
0
 10
-62.6289
 20
-1.44525
 11
-62.7893
 21
-1.10437
  0
LINE
  8
0
 10
-62.7893
 20
-1.10437
 11
-62.9057
 21
-0.746063
  0
LINE
  8
0
 10
-62.9057
 20
-0.746063
 11
-62.9763
 21
-0.375992
  0
LINE
  8
0
 10
-62.9763
 20
-0.375992
 11
-63
 21
0
  0
LINE
  8
0
 10
-63
 20
0
 11
-62.9763
 21
0.375992
  0
LINE
  8
0
 10
-62.9763
 20
0.375992
 11
-62.9057
 21
0.746063
  0
LINE
  8
0
 10
-62.9057
 20
0.746063
 11
-62.7893
 21
1.10437
  0
LINE
  8
0
 10
-62.7893
 20
1.10437
 11
-62.6289
 21
1.44525
  0
LINE
  8
0
 10
-62.6289
 20
1.44525
 11
-62.427
 21
1.76335
  0
LINE
  8
0
 10
-62.427
 20
1.76335
 11
-62.1869
 21
2.05363
  0
LINE
  8
0
 10
-62.1869
 20
2.05363
 11
-61.9123
 21
2.31154
  0
LINE
  8
0
 10
-61.9123
 20
2.31154
 11
-61.6075
 21
2.53297
  0
LINE
  8
0
 10
-61.6075
 20
2.53297
 11
-61.2773
 21
2.71448
  0
LINE
  8
0
 10
-61.2773
 20
2.71448
 11
-60.927
 21
2.85316
  0
LINE
  8
0
 10
-60.927
 20
2.85316
 11
-60.5621
 21
2.94685
  0
LINE
  8
0
 10
-60.5621
 20
2.94685
 11
-60.1884
 21
2.99408
  0
LINE
  8
0
 10
-60.1884
 20
2.99408
 11
-59.8116
 21
2.99408
  0
LINE
  8
0
 10
-59.8116
 20
2.99408
 11
-59.4379
 21
2.94685
  0
LINE
  8
0
 10
-59.4379
 20
2.94685
 11
-59.0729
 21
2.85316
  0
LINE
  8
0
 10
-59.0729
 20
2.85316
 11
-58.7227
 21
2.71448
  0
LINE
  8
0
 10
-58.7227
 20
2.71448
 11
-58.3925
 21
2.53297
  0
LINE
  8
0
 10
-58.3925
 20
2.53297
 11
-58.0877
 21
2.31154
  0
LINE
  8
0
 10
-58.0877
 20
2.31154
 11
-57.8131
 21
2.05363
  0
LINE
  8
0
 10
-57.8131
 20
2.05363
 11
-57.5729
 21
1.76335
  0
LINE
  8
0
 10
-57.5729
 20
1.76335
 11
-57.3711
 21
1.44525
  0
LINE
  8
0
 10
-57.3711
 20
1.44525
 11
-57.2107
 21
1.10437
  0
LINE
  8
0
 10
-57.2107
 20
1.10437
 11
-57.0942
 21
0.746063
  0
LINE
  8
0
 10
-57.0942
 20
0.746063
 11
-57.0237
 21
0.375992
  0
LINE
  8
0
 10
-57.0237
 20
0.375992
 11
-57
 21
0
  0
LINE
  8
0
 10
-57
 20
0
 11
-57.0237
 21
-0.375992
  0
LINE
  8
0
 10
-57.0237
 20
-0.375992
 11
-57.0942
 21
-0.746063
  0
LINE
  8
0
 10
-57.0942
 20
-0.746063
 11
-57.2107
 21
-1.10437
  0
LINE
  8
0
 10
-57.2107
 20
-1.10437
 11
-57.3711
 21
-1.44525
  0
LINE
  8
0
 10
-57.3711
 20
-1.44525
 11
-57.5729
 21
-1.76335
  0
LINE
  8
0
 10
-57.5729
 20
-1.76335
 11
-57.8131
 21
-2.05363
  0
LINE
  8
0
 10
-57.8131
 20
-2.05363
 11
-58.0877
 21
-2.31154
  0
LINE
  8
0
 10
-58.0877
 20
-2.31154
 11
-58.3925
 21
-2.53297
  0
LINE
  8
0
 10
-58.3925
 20
-2.53297
 11
-58.7227
 21
-2.71448
  0
LINE
  8
0
 10
-58.7227
 20
-2.71448
 11
-59.0729
 21
-2.85316
  0
LINE
  8
0
 10
-59.0729
 20
-2.85316
 11
-59.4379
 21
-2.94685
  0
LINE
  8
0
 10
-59.4379
 20
-2.94685
 11
-59.8116
 21
-2.99408
  0
LINE
  8
0
 10
-59.8116
 20
-2.99408
 11
-60.1884
 21
-2.99408
  0
LINE
  8
0
 10
59.8116
 20
-2.99408
 11
59.4379
 21
-2.94685
  0
LINE
  8
0
 10
59.4379
 20
-2.94685
 11
59.0729
 21
-2.85316
  0
LINE
  8
0
 10
59.0729
 20
-2.85316
 11
58.7227
 21
-2.71448
  0
LINE
  8
0
 10
58.7227
 20
-2.71448
 11
58.3925
 21
-2.53297
  0
LINE
  8
0
 10
58.3925
 20
-2.53297
 11
58.0877
 21
-2.31154
  0
LINE
  8
0
 10
58.0877
 20
-2.31154
 11
57.8131
 21
-2.05363
  0
LINE
  8
0
 10
57.8131
 20
-2.05363
 11
57.5729
 21
-1.76335
  0
LINE
  8
0
 10
57.5729
 20
-1.76335
 11
57.3711
 21
-1.44525
  0
LINE
  8
0
 10
57.3711
 20
-1.44525
 11
57.2107
 21
-1.10437
  0
LINE
  8
0
 10
57.2107
 20
-1.10437
 11
57.0942
 21
-0.746063
  0
LINE
  8
0
 10
57.0942
 20
-0.746063
 11
57.0237
 21
-0.375992
  0
LINE
  8
0
 10
57.0237
 20
-0.375992
 11
57
 21
0
  0
LINE
  8
0
 10
57
 20
0
 11
57.0237
 21
0.375992
  0
LINE
  8
0
 10
57.0237
 20
0.375992
 11
57.0942
 21
0.746063
  0
LINE
  8
0
 10
57.0942
 20
0.746063
 11
57.2107
 21
1.10437
  0
LINE
  8
0
 10
57.2107
 20
1.10437
 11
57.3711
 21
1.44525
  0
LINE
  8
0
 10
57.3711
 20
1.44525
 11
57.5729
 21
1.76335
  0
LINE
  8
0
 10
57.5729
 20
1.76335
 11
57.8131
 21
2.05363
  0
LINE
  8
0
 10
57.8131
 20
2.05363
 11
58.0877
 21
2.31154
  0
LINE
  8
0
 10
58.0877
 20
2.31154
 11
58.3925
 21
2.53297
  0
LINE
  8
0
 10
58.3925
 20
2.53297
 11
58.7227
 21
2.71448
  0
LINE
  8
0
 10
58.7227
 20
2.71448
 11
59.0729
 21
2.85316
  0
LINE
  8
0
 10
59.0729
 20
2.85316
 11
59.4379
 21
2.94685
  0
LINE
  8
0
 10
59.4379
 20
2.94685
 11
59.8116
 21
2.99408
  0
LINE
  8
0
 10
59.8116
 20
2.99408
 11
60.1884
 21
2.99408
  0
LINE
  8
0
 10
60.1884
 20
2.99408
 11
60.5621
 21
2.94685
  0
LINE
  8
0
 10
60.5621
 20
2.94685
 11
60.927
 21
2.85316
  0
LINE
  8
0
 10
60.927
 20
2.85316
 11
61.2773
 21
2.71448
  0
LINE
  8
0
 10
61.2773
 20
2.71448
 11
61.6075
 21
2.53297
  0
LINE
  8
0
 10
61.6075
 20
2.53297
 11
61.9123
 21
2.31154
  0
LINE
  8
0
 10
61.9123
 20
2.31154
 11
62.1869
 21
2.05363
  0
LINE
  8
0
 10
62.1869
 20
2.05363
 11
62.427
 21
1.76335
  0
LINE
  8
0
 10
62.427
 20
1.76335
 11
62.6289
 21
1.44525
  0
LINE
  8
0
 10
62.6289
 20
1.44525
 11
62.7893
 21
1.10437
  0
LINE
  8
0
 10
62.7893
 20
1.10437
 11
62.9057
 21
0.746063
  0
LINE
  8
0
 10
62.9057
 20
0.746063
 11
62.9763
 21
0.375992
  0
LINE
  8
0
 10
62.9763
 20
0.375992
 11
63
 21
0
  0
LINE
  8
0
 10
63
 20
0
 11
62.9763
 21
-0.375992
  0
LINE
  8
0
 10
62.9763
 20
-0.375992
 11
62.9057
 21
-0.746063
  0
LINE
  8
0
 10
62.9057
 20
-0.746063
 11
62.7893
 21
-1.10437
  0
LINE
  8
0
 10
62.7893
 20
-1.10437
 11
62.6289
 21
-1.44525
  0
LINE
  8
0
 10
62.6289
 20
-1.44525
 11
62.427
 21
-1.76335
  0
LINE
  8
0
 10
62.427
 20
-1.76335
 11
62.1869
 21
-2.05363
  0
LINE
  8
0
 10
62.1869
 20
-2.05363
 11
61.9123
 21
-2.31154
  0
LINE
  8
0
 10
61.9123
 20
-2.31154
 11
61.6075
 21
-2.53297
  0
LINE
  8
0
 10
61.6075
 20
-2.53297
 11
61.2773
 21
-2.71448
  0
LINE
  8
0
 10
61.2773
 20
-2.71448
 11
60.927
 21
-2.85316
  0
LINE
  8
0
 10
60.927
 20
-2.85316
 11
60.5621
 21
-2.94685
  0
LINE
  8
0
 10
60.5621
 20
-2.94685
 11
60.1884
 21
-2.99408
  0
LINE
  8
0
 10
60.1884
 20
-2.99408
 11
59.8116
 21
-2.99408
  0
LINE
  8
0
 10
-49.9318
 20
-8.05249
 11
-50.3056
 21
-8.00526
  0
LINE
  8
0
 10
-50.3056
 20
-8.00526
 11
-50.6705
 21
-7.91158
  0
LINE
  8
0
 10
-50.6705
 20
-7.91158
 11
-51.0208
 21
-7.77289
  0
LINE
  8
0
 10
-51.0208
 20
-7.77289
 11
-51.3509
 21
-7.59138
  0
LINE
  8
0
 10
-51.3509
 20
-7.59138
 11
-51.6557
 21
-7.36995
  0
LINE
  8
0
 10
-51.6557
 20
-7.36995
 11
-51.9304
 21
-7.11205
  0
LINE
  8
0
 10
-51.9304
 20
-7.11205
 11
-52.1705
 21
-6.82176
  0
LINE
  8
0
 10
-52.1705
 20
-6.82176
 11
-52.3724
 21
-6.50366
  0
LINE
  8
0
 10
-52.3724
 20
-6.50366
 11
-52.5328
 21
-6.16278
  0
LINE
  8
0
 10
-52.5328
 20
-6.16278
 11
-52.6492
 21
-5.80447
  0
LINE
  8
0
 10
-52.6492
 20
-5.80447
 11
-52.7198
 21
-5.4344
  0
LINE
  8
0
 10
-52.7198
 20
-5.4344
 11
-52.7435
 21
-5.05841
  0
LINE
  8
0
 10
-52.7435
 20
-5.05841
 11
-52.7198
 21
-4.6824
  0
LINE
  8
0
 10
-52.7198
 20
-4.6824
 11
-52.6492
 21
-4.31233
  0
LINE
  8
0
 10
-52.6492
 20
-4.31233
 11
-52.5328
 21
-3.95404
  0
LINE
  8
0
 10
-52.5328
 20
-3.95404
 11
-52.3724
 21
-3.61314
  0
LINE
  8
0
 10
-52.3724
 20
-3.61314
 11
-52.1705
 21
-3.29506
  0
LINE
  8
0
 10
-52.1705
 20
-3.29506
 11
-51.9304
 21
-3.00476
  0
LINE
  8
0
 10
-51.9304
 20
-3.00476
 11
-51.6557
 21
-2.74687
  0
LINE
  8
0
 10
-51.6557
 20
-2.74687
 11
-51.3509
 21
-2.52542
  0
LINE
  8
0
 10
-51.3509
 20
-2.52542
 11
-51.0208
 21
-2.34393
  0
LINE
  8
0
 10
-51.0208
 20
-2.34393
 11
-50.6705
 21
-2.20525
  0
LINE
  8
0
 10
-50.6705
 20
-2.20525
 11
-50.3056
 21
-2.11154
  0
LINE
  8
0
 10
-50.3056
 20
-2.11154
 11
-49.9318
 21
-2.06433
  0
LINE
  8
0
 10
-49.9318
 20
-2.06433
 11
-49.5551
 21
-2.06433
  0
LINE
  8
0
 10
-49.5551
 20
-2.06433
 11
-49.1813
 21
-2.11154
  0
LINE
  8
0
 10
-49.1813
 20
-2.11154
 11
-48.8164
 21
-2.20525
  0
LINE
  8
0
 10
-48.8164
 20
-2.20525
 11
-48.4661
 21
-2.34393
  0
LINE
  8
0
 10
-48.4661
 20
-2.34393
 11
-48.136
 21
-2.52542
  0
LINE
  8
0
 10
-48.136
 20
-2.52542
 11
-47.8312
 21
-2.74687
  0
LINE
  8
0
 10
-47.8312
 20
-2.74687
 11
-47.5565
 21
-3.00476
  0
LINE
  8
0
 10
-47.5565
 20
-3.00476
 11
-47.3164
 21
-3.29506
  0
LINE
  8
0
 10
-47.3164
 20
-3.29506
 11
-47.1145
 21
-3.61314
  0
LINE
  8
0
 10
-47.1145
 20
-3.61314
 11
-46.9541
 21
-3.95404
  0
LINE
  8
0
 10
-46.9541
 20
-3.95404
 11
-46.8377
 21
-4.31233
  0
LINE
  8
0
 10
-46.8377
 20
-4.31233
 11
-46.7671
 21
-4.6824
  0
LINE
  8
0
 10
-46.7671
 20
-4.6824
 11
-46.7435
 21
-5.05841
  0
LINE
  8
0
 10
-46.7435
 20
-5.05841
 11
-46.7671
 21
-5.4344
  0
LINE
  8
0
 10
-46.7671
 20
-5.4344
 11
-46.8377
 21
-5.80447
  0
LINE
  8
0
 10
-46.8377
 20
-5.80447
 11
-46.9541
 21
-6.16278
  0
LINE
  8
0
 10
-46.9541
 20
-6.16278
 11
-47.1145
 21
-6.50366
  0
LINE
  8
0
 10
-47.1145
 20
-6.50366
 11
-47.3164
 21
-6.82176
  0
LINE
  8
0
 10
-47.3164
 20
-6.82176
 11
-47.5565
 21
-7.11205
  0
LINE
  8
0
 10
-47.5565
 20
-7.11205
 11
-47.8312
 21
-7.36995
  0
LINE
  8
0
 10
-47.8312
 20
-7.36995
 11
-48.136
 21
-7.59138
  0
LINE
  8
0
 10
-48.136
 20
-7.59138
 11
-48.4661
 21
-7.77289
  0
LINE
  8
0
 10
-48.4661
 20
-7.77289
 11
-48.8164
 21
-7.91158
  0
LINE
  8
0
 10
-48.8164
 20
-7.91158
 11
-49.1813
 21
-8.00526
  0
LINE
  8
0
 10
-49.1813
 20
-8.00526
 11
-49.5551
 21
-8.05249
  0
LINE
  8
0
 10
-49.5551
 20
-8.05249
 11
-49.9318
 21
-8.05249
  0
LINE
  8
0
 10
48.7881
 20
-13.059
 11
48.4144
 21
-13.0118
  0
LINE
  8
0
 10
48.4144
 20
-13.0118
 11
48.0494
 21
-12.9181
  0
LINE
  8
0
 10
48.0494
 20
-12.9181
 11
47.6992
 21
-12.7794
  0
LINE
  8
0
 10
47.6992
 20
-12.7794
 11
47.369
 21
-12.5979
  0
LINE
  8
0
 10
47.369
 20
-12.5979
 11
47.0642
 21
-12.3765
  0
LINE
  8
0
 10
47.0642
 20
-12.3765
 11
46.7896
 21
-12.1186
  0
LINE
  8
0
 10
46.7896
 20
-12.1186
 11
46.5494
 21
-11.8283
  0
LINE
  8
0
 10
46.5494
 20
-11.8283
 11
46.3476
 21
-11.5102
  0
LINE
  8
0
 10
46.3476
 20
-11.5102
 11
46.1872
 21
-11.1693
  0
LINE
  8
0
 10
46.1872
 20
-11.1693
 11
46.0707
 21
-10.811
  0
LINE
  8
0
 10
46.0707
 20
-10.811
 11
46.0002
 21
-10.4409
  0
LINE
  8
0
 10
46.0002
 20
-10.4409
 11
45.9765
 21
-10.0649
  0
LINE
  8
0
 10
45.9765
 20
-10.0649
 11
46.0002
 21
-9.68892
  0
LINE
  8
0
 10
46.0002
 20
-9.68892
 11
46.0707
 21
-9.31885
  0
LINE
  8
0
 10
46.0707
 20
-9.31885
 11
46.1872
 21
-8.96054
  0
LINE
  8
0
 10
46.1872
 20
-8.96054
 11
46.3476
 21
-8.61966
  0
LINE
  8
0
 10
46.3476
 20
-8.61966
 11
46.5494
 21
-8.30156
  0
LINE
  8
0
 10
46.5494
 20
-8.30156
 11
46.7896
 21
-8.01128
  0
LINE
  8
0
 10
46.7896
 20
-8.01128
 11
47.0642
 21
-7.75337
  0
LINE
  8
0
 10
47.0642
 20
-7.75337
 11
47.369
 21
-7.53194
  0
LINE
  8
0
 10
47.369
 20
-7.53194
 11
47.6992
 21
-7.35043
  0
LINE
  8
0
 10
47.6992
 20
-7.35043
 11
48.0494
 21
-7.21175
  0
LINE
  8
0
 10
48.0494
 20
-7.21175
 11
48.4144
 21
-7.11806
  0
LINE
  8
0
 10
48.4144
 20
-7.11806
 11
48.7881
 21
-7.07083
  0
LINE
  8
0
 10
48.7881
 20
-7.07083
 11
49.1649
 21
-7.07083
  0
LINE
  8
0
 10
49.1649
 20
-7.07083
 11
49.5386
 21
-7.11806
  0
LINE
  8
0
 10
49.5386
 20
-7.11806
 11
49.9035
 21
-7.21175
  0
LINE
  8
0
 10
49.9035
 20
-7.21175
 11
50.2538
 21
-7.35043
  0
LINE
  8
0
 10
50.2538
 20
-7.35043
 11
50.584
 21
-7.53194
  0
LINE
  8
0
 10
50.584
 20
-7.53194
 11
50.8888
 21
-7.75337
  0
LINE
  8
0
 10
50.8888
 20
-7.75337
 11
51.1634
 21
-8.01128
  0
LINE
  8
0
 10
51.1634
 20
-8.01128
 11
51.4035
 21
-8.30156
  0
LINE
  8
0
 10
51.4035
 20
-8.30156
 11
51.6054
 21
-8.61966
  0
LINE
  8
0
 10
51.6054
 20
-8.61966
 11
51.7658
 21
-8.96054
  0
LINE
  8
0
 10
51.7658
 20
-8.96054
 11
51.8822
 21
-9.31885
  0
LINE
  8
0
 10
51.8822
 20
-9.31885
 11
51.9528
 21
-9.68892
  0
LINE
  8
0
 10
51.9528
 20
-9.68892
 11
51.9765
 21
-10.0649
  0
LINE
  8
0
 10
51.9765
 20
-10.0649
 11
51.9528
 21
-10.4409
  0
LINE
  8
0
 10
51.9528
 20
-10.4409
 11
51.8822
 21
-10.811
  0
LINE
  8
0
 10
51.8822
 20
-10.811
 11
51.7658
 21
-11.1693
  0
LINE
  8
0
 10
51.7658
 20
-11.1693
 11
51.6054
 21
-11.5102
  0
LINE
  8
0
 10
51.6054
 20
-11.5102
 11
51.4035
 21
-11.8283
  0
LINE
  8
0
 10
51.4035
 20
-11.8283
 11
51.1634
 21
-12.1186
  0
LINE
  8
0
 10
51.1634
 20
-12.1186
 11
50.8888
 21
-12.3765
  0
LINE
  8
0
 10
50.8888
 20
-12.3765
 11
50.584
 21
-12.5979
  0
LINE
  8
0
 10
50.584
 20
-12.5979
 11
50.2538
 21
-12.7794
  0
LINE
  8
0
 10
50.2538
 20
-12.7794
 11
49.9035
 21
-12.9181
  0
LINE
  8
0
 10
49.9035
 20
-12.9181
 11
49.5386
 21
-13.0118
  0
LINE
  8
0
 10
49.5386
 20
-13.0118
 11
49.1649
 21
-13.059
  0
LINE
  8
0
 10
49.1649
 20
-13.059
 11
48.7881
 21
-13.059
  0
LINE
  8
0
 10
-47.8953
 20
-17.9622
 11
-48.2691
 21
-17.915
  0
LINE
  8
0
 10
-48.2691
 20
-17.915
 11
-48.634
 21
-17.8213
  0
LINE
  8
0
 10
-48.634
 20
-17.8213
 11
-48.9843
 21
-17.6826
  0
LINE
  8
0
 10
-48.9843
 20
-17.6826
 11
-49.3144
 21
-17.5011
  0
LINE
  8
0
 10
-49.3144
 20
-17.5011
 11
-49.6192
 21
-17.2797
  0
LINE
  8
0
 10
-49.6192
 20
-17.2797
 11
-49.8939
 21
-17.0218
  0
LINE
  8
0
 10
-49.8939
 20
-17.0218
 11
-50.134
 21
-16.7315
  0
LINE
  8
0
 10
-50.134
 20
-16.7315
 11
-50.3359
 21
-16.4134
  0
LINE
  8
0
 10
-50.3359
 20
-16.4134
 11
-50.4963
 21
-16.0725
  0
LINE
  8
0
 10
-50.4963
 20
-16.0725
 11
-50.6127
 21
-15.7142
  0
LINE
  8
0
 10
-50.6127
 20
-15.7142
 11
-50.6833
 21
-15.3441
  0
LINE
  8
0
 10
-50.6833
 20
-15.3441
 11
-50.707
 21
-14.9682
  0
LINE
  8
0
 10
-50.707
 20
-14.9682
 11
-50.6833
 21
-14.5921
  0
LINE
  8
0
 10
-50.6833
 20
-14.5921
 11
-50.6127
 21
-14.2221
  0
LINE
  8
0
 10
-50.6127
 20
-14.2221
 11
-50.4963
 21
-13.8638
  0
LINE
  8
0
 10
-50.4963
 20
-13.8638
 11
-50.3359
 21
-13.5229
  0
LINE
  8
0
 10
-50.3359
 20
-13.5229
 11
-50.134
 21
-13.2048
  0
LINE
  8
0
 10
-50.134
 20
-13.2048
 11
-49.8939
 21
-12.9145
  0
LINE
  8
0
 10
-49.8939
 20
-12.9145
 11
-49.6192
 21
-12.6566
  0
LINE
  8
0
 10
-49.6192
 20
-12.6566
 11
-49.3144
 21
-12.4352
  0
LINE
  8
0
 10
-49.3144
 20
-12.4352
 11
-48.9843
 21
-12.2537
  0
LINE
  8
0
 10
-48.9843
 20
-12.2537
 11
-48.634
 21
-12.115
  0
LINE
  8
0
 10
-48.634
 20
-12.115
 11
-48.2691
 21
-12.0213
  0
LINE
  8
0
 10
-48.2691
 20
-12.0213
 11
-47.8953
 21
-11.9741
  0
LINE
  8
0
 10
-47.8953
 20
-11.9741
 11
-47.5186
 21
-11.9741
  0
LINE
  8
0
 10
-47.5186
 20
-11.9741
 11
-47.1448
 21
-12.0213
  0
LINE
  8
0
 10
-47.1448
 20
-12.0213
 11
-46.7799
 21
-12.115
  0
LINE
  8
0
 10
-46.7799
 20
-12.115
 11
-46.4296
 21
-12.2537
  0
LINE
  8
0
 10
-46.4296
 20
-12.2537
 11
-46.0995
 21
-12.4352
  0
LINE
  8
0
 10
-46.0995
 20
-12.4352
 11
-45.7947
 21
-12.6566
  0
LINE
  8
0
 10
-45.7947
 20
-12.6566
 11
-45.5201
 21
-12.9145
  0
LINE
  8
0
 10
-45.5201
 20
-12.9145
 11
-45.2799
 21
-13.2048
  0
LINE
  8
0
 10
-45.2799
 20
-13.2048
 11
-45.078
 21
-13.5229
  0
LINE
  8
0
 10
-45.078
 20
-13.5229
 11
-44.9176
 21
-13.8638
  0
LINE
  8
0
 10
-44.9176
 20
-13.8638
 11
-44.8012
 21
-14.2221
  0
LINE
  8
0
 10
-44.8012
 20
-14.2221
 11
-44.7306
 21
-14.5921
  0
LINE
  8
0
 10
-44.7306
 20
-14.5921
 11
-44.707
 21
-14.9682
  0
LINE
  8
0
 10
-44.707
 20
-14.9682
 11
-44.7306
 21
-15.3441
  0
LINE
  8
0
 10
-44.7306
 20
-15.3441
 11
-44.8012
 21
-15.7142
  0
LINE
  8
0
 10
-44.8012
 20
-15.7142
 11
-44.9176
 21
-16.0725
  0
LINE
  8
0
 10
-44.9176
 20
-16.0725
 11
-45.078
 21
-16.4134
  0
LINE
  8
0
 10
-45.078
 20
-16.4134
 11
-45.2799
 21
-16.7315
  0
LINE
  8
0
 10
-45.2799
 20
-16.7315
 11
-45.5201
 21
-17.0218
  0
LINE
  8
0
 10
-45.5201
 20
-17.0218
 11
-45.7947
 21
-17.2797
  0
LINE
  8
0
 10
-45.7947
 20
-17.2797
 11
-46.0995
 21
-17.5011
  0
LINE
  8
0
 10
-46.0995
 20
-17.5011
 11
-46.4296
 21
-17.6826
  0
LINE
  8
0
 10
-46.4296
 20
-17.6826
 11
-46.7799
 21
-17.8213
  0
LINE
  8
0
 10
-46.7799
 20
-17.8213
 11
-47.1448
 21
-17.915
  0
LINE
  8
0
 10
-47.1448
 20
-17.915
 11
-47.5186
 21
-17.9622
  0
LINE
  8
0
 10
-47.5186
 20
-17.9622
 11
-47.8953
 21
-17.9622
  0
LINE
  8
0
 10
45.7595
 20
-22.7119
 11
45.3857
 21
-22.6646
  0
LINE
  8
0
 10
45.3857
 20
-22.6646
 11
45.0208
 21
-22.571
  0
LINE
  8
0
 10
45.0208
 20
-22.571
 11
44.6705
 21
-22.4323
  0
LINE
  8
0
 10
44.6705
 20
-22.4323
 11
44.3404
 21
-22.2508
  0
LINE
  8
0
 10
44.3404
 20
-22.2508
 11
44.0356
 21
-22.0293
  0
LINE
  8
0
 10
44.0356
 20
-22.0293
 11
43.761
 21
-21.7714
  0
LINE
  8
0
 10
43.761
 20
-21.7714
 11
43.5208
 21
-21.4811
  0
LINE
  8
0
 10
43.5208
 20
-21.4811
 11
43.319
 21
-21.163
  0
LINE
  8
0
 10
43.319
 20
-21.163
 11
43.1586
 21
-20.8222
  0
LINE
  8
0
 10
43.1586
 20
-20.8222
 11
43.0421
 21
-20.4639
  0
LINE
  8
0
 10
43.0421
 20
-20.4639
 11
42.9715
 21
-20.0938
  0
LINE
  8
0
 10
42.9715
 20
-20.0938
 11
42.9479
 21
-19.7178
  0
LINE
  8
0
 10
42.9479
 20
-19.7178
 11
42.9715
 21
-19.3418
  0
LINE
  8
0
 10
42.9715
 20
-19.3418
 11
43.0421
 21
-18.9717
  0
LINE
  8
0
 10
43.0421
 20
-18.9717
 11
43.1586
 21
-18.6134
  0
LINE
  8
0
 10
43.1586
 20
-18.6134
 11
43.319
 21
-18.2725
  0
LINE
  8
0
 10
43.319
 20
-18.2725
 11
43.5208
 21
-17.9544
  0
LINE
  8
0
 10
43.5208
 20
-17.9544
 11
43.761
 21
-17.6641
  0
LINE
  8
0
 10
43.761
 20
-17.6641
 11
44.0356
 21
-17.4062
  0
LINE
  8
0
 10
44.0356
 20
-17.4062
 11
44.3404
 21
-17.1848
  0
LINE
  8
0
 10
44.3404
 20
-17.1848
 11
44.6705
 21
-17.0033
  0
LINE
  8
0
 10
44.6705
 20
-17.0033
 11
45.0208
 21
-16.8646
  0
LINE
  8
0
 10
45.0208
 20
-16.8646
 11
45.3857
 21
-16.7709
  0
LINE
  8
0
 10
45.3857
 20
-16.7709
 11
45.7595
 21
-16.7237
  0
LINE
  8
0
 10
45.7595
 20
-16.7237
 11
46.1363
 21
-16.7237
  0
LINE
  8
0
 10
46.1363
 20
-16.7237
 11
46.51
 21
-16.7709
  0
LINE
  8
0
 10
46.51
 20
-16.7709
 11
46.8749
 21
-16.8646
  0
LINE
  8
0
 10
46.8749
 20
-16.8646
 11
47.2252
 21
-17.0033
  0
LINE
  8
0
 10
47.2252
 20
-17.0033
 11
47.5554
 21
-17.1848
  0
LINE
  8
0
 10
47.5554
 20
-17.1848
 11
47.8602
 21
-17.4062
  0
LINE
  8
0
 10
47.8602
 20
-17.4062
 11
48.1348
 21
-17.6641
  0
LINE
  8
0
 10
48.1348
 20
-17.6641
 11
48.3749
 21
-17.9544
  0
LINE
  8
0
 10
48.3749
 20
-17.9544
 11
48.5768
 21
-18.2725
  0
LINE
  8
0
 10
48.5768
 20
-18.2725
 11
48.7372
 21
-18.6134
  0
LINE
  8
0
 10
48.7372
 20
-18.6134
 11
48.8536
 21
-18.9717
  0
LINE
  8
0
 10
48.8536
 20
-18.9717
 11
48.9242
 21
-19.3418
  0
LINE
  8
0
 10
48.9242
 20
-19.3418
 11
48.9479
 21
-19.7178
  0
LINE
  8
0
 10
48.9479
 20
-19.7178
 11
48.9242
 21
-20.0938
  0
LINE
  8
0
 10
48.9242
 20
-20.0938
 11
48.8536
 21
-20.4639
  0
LINE
  8
0
 10
48.8536
 20
-20.4639
 11
48.7372
 21
-20.8222
  0
LINE
  8
0
 10
48.7372
 20
-20.8222
 11
48.5768
 21
-21.163
  0
LINE
  8
0
 10
48.5768
 20
-21.163
 11
48.3749
 21
-21.4811
  0
LINE
  8
0
 10
48.3749
 20
-21.4811
 11
48.1348
 21
-21.7714
  0
LINE
  8
0
 10
48.1348
 20
-21.7714
 11
47.8602
 21
-22.0293
  0
LINE
  8
0
 10
47.8602
 20
-22.0293
 11
47.5554
 21
-22.2508
  0
LINE
  8
0
 10
47.5554
 20
-22.2508
 11
47.2252
 21
-22.4323
  0
LINE
  8
0
 10
47.2252
 20
-22.4323
 11
46.8749
 21
-22.571
  0
LINE
  8
0
 10
46.8749
 20
-22.571
 11
46.51
 21
-22.6646
  0
LINE
  8
0
 10
46.51
 20
-22.6646
 11
46.1363
 21
-22.7119
  0
LINE
  8
0
 10
46.1363
 20
-22.7119
 11
45.7595
 21
-22.7119
  0
LINE
  8
0
 10
-43.9057
 20
-27.2592
 11
-44.2795
 21
-27.212
  0
LINE
  8
0
 10
-44.2795
 20
-27.212
 11
-44.6444
 21
-27.1183
  0
LINE
  8
0
 10
-44.6444
 20
-27.1183
 11
-44.9947
 21
-26.9796
  0
LINE
  8
0
 10
-44.9947
 20
-26.9796
 11
-45.3248
 21
-26.7981
  0
LINE
  8
0
 10
-45.3248
 20
-26.7981
 11
-45.6296
 21
-26.5766
  0
LINE
  8
0
 10
-45.6296
 20
-26.5766
 11
-45.9042
 21
-26.3187
  0
LINE
  8
0
 10
-45.9042
 20
-26.3187
 11
-46.1444
 21
-26.0284
  0
LINE
  8
0
 10
-46.1444
 20
-26.0284
 11
-46.3463
 21
-25.7104
  0
LINE
  8
0
 10
-46.3463
 20
-25.7104
 11
-46.5067
 21
-25.3695
  0
LINE
  8
0
 10
-46.5067
 20
-25.3695
 11
-46.6231
 21
-25.0112
  0
LINE
  8
0
 10
-46.6231
 20
-25.0112
 11
-46.6937
 21
-24.6411
  0
LINE
  8
0
 10
-46.6937
 20
-24.6411
 11
-46.7173
 21
-24.2651
  0
LINE
  8
0
 10
-46.7173
 20
-24.2651
 11
-46.6937
 21
-23.8891
  0
LINE
  8
0
 10
-46.6937
 20
-23.8891
 11
-46.6231
 21
-23.519
  0
LINE
  8
0
 10
-46.6231
 20
-23.519
 11
-46.5067
 21
-23.1607
  0
LINE
  8
0
 10
-46.5067
 20
-23.1607
 11
-46.3463
 21
-22.8198
  0
LINE
  8
0
 10
-46.3463
 20
-22.8198
 11
-46.1444
 21
-22.5017
  0
LINE
  8
0
 10
-46.1444
 20
-22.5017
 11
-45.9042
 21
-22.2115
  0
LINE
  8
0
 10
-45.9042
 20
-22.2115
 11
-45.6296
 21
-21.9536
  0
LINE
  8
0
 10
-45.6296
 20
-21.9536
 11
-45.3248
 21
-21.7321
  0
LINE
  8
0
 10
-45.3248
 20
-21.7321
 11
-44.9947
 21
-21.5506
  0
LINE
  8
0
 10
-44.9947
 20
-21.5506
 11
-44.6444
 21
-21.4119
  0
LINE
  8
0
 10
-44.6444
 20
-21.4119
 11
-44.2795
 21
-21.3182
  0
LINE
  8
0
 10
-44.2795
 20
-21.3182
 11
-43.9057
 21
-21.271
  0
LINE
  8
0
 10
-43.9057
 20
-21.271
 11
-43.5289
 21
-21.271
  0
LINE
  8
0
 10
-43.5289
 20
-21.271
 11
-43.1552
 21
-21.3182
  0
LINE
  8
0
 10
-43.1552
 20
-21.3182
 11
-42.7903
 21
-21.4119
  0
LINE
  8
0
 10
-42.7903
 20
-21.4119
 11
-42.44
 21
-21.5506
  0
LINE
  8
0
 10
-42.44
 20
-21.5506
 11
-42.1098
 21
-21.7321
  0
LINE
  8
0
 10
-42.1098
 20
-21.7321
 11
-41.8051
 21
-21.9536
  0
LINE
  8
0
 10
-41.8051
 20
-21.9536
 11
-41.5304
 21
-22.2115
  0
LINE
  8
0
 10
-41.5304
 20
-22.2115
 11
-41.2903
 21
-22.5017
  0
LINE
  8
0
 10
-41.2903
 20
-22.5017
 11
-41.0884
 21
-22.8198
  0
LINE
  8
0
 10
-41.0884
 20
-22.8198
 11
-40.928
 21
-23.1607
  0
LINE
  8
0
 10
-40.928
 20
-23.1607
 11
-40.8116
 21
-23.519
  0
LINE
  8
0
 10
-40.8116
 20
-23.519
 11
-40.741
 21
-23.8891
  0
LINE
  8
0
 10
-40.741
 20
-23.8891
 11
-40.7173
 21
-24.2651
  0
LINE
  8
0
 10
-40.7173
 20
-24.2651
 11
-40.741
 21
-24.6411
  0
LINE
  8
0
 10
-40.741
 20
-24.6411
 11
-40.8116
 21
-25.0112
  0
LINE
  8
0
 10
-40.8116
 20
-25.0112
 11
-40.928
 21
-25.3695
  0
LINE
  8
0
 10
-40.928
 20
-25.3695
 11
-41.0884
 21
-25.7104
  0
LINE
  8
0
 10
-41.0884
 20
-25.7104
 11
-41.2903
 21
-26.0284
  0
LINE
  8
0
 10
-41.2903
 20
-26.0284
 11
-41.5304
 21
-26.3187
  0
LINE
  8
0
 10
-41.5304
 20
-26.3187
 11
-41.8051
 21
-26.5766
  0
LINE
  8
0
 10
-41.8051
 20
-26.5766
 11
-42.1098
 21
-26.7981
  0
LINE
  8
0
 10
-42.1098
 20
-26.7981
 11
-42.44
 21
-26.9796
  0
LINE
  8
0
 10
-42.44
 20
-26.9796
 11
-42.7903
 21
-27.1183
  0
LINE
  8
0
 10
-42.7903
 20
-27.1183
 11
-43.1552
 21
-27.212
  0
LINE
  8
0
 10
-43.1552
 20
-27.212
 11
-43.5289
 21
-27.2592
  0
LINE
  8
0
 10
-43.5289
 20
-27.2592
 11
-43.9057
 21
-27.2592
  0
LINE
  8
0
 10
40.8498
 20
-31.5575
 11
40.476
 21
-31.5103
  0
LINE
  8
0
 10
40.476
 20
-31.5103
 11
40.1111
 21
-31.4166
  0
LINE
  8
0
 10
40.1111
 20
-31.4166
 11
39.7608
 21
-31.2779
  0
LINE
  8
0
 10
39.7608
 20
-31.2779
 11
39.4307
 21
-31.0964
  0
LINE
  8
0
 10
39.4307
 20
-31.0964
 11
39.1259
 21
-30.8749
  0
LINE
  8
0
 10
39.1259
 20
-30.8749
 11
38.8513
 21
-30.6171
  0
LINE
  8
0
 10
38.8513
 20
-30.6171
 11
38.6111
 21
-30.3268
  0
LINE
  8
0
 10
38.6111
 20
-30.3268
 11
38.4092
 21
-30.0087
  0
LINE
  8
0
 10
38.4092
 20
-30.0087
 11
38.2488
 21
-29.6678
  0
LINE
  8
0
 10
38.2488
 20
-29.6678
 11
38.1324
 21
-29.3095
  0
LINE
  8
0
 10
38.1324
 20
-29.3095
 11
38.0618
 21
-28.9394
  0
LINE
  8
0
 10
38.0618
 20
-28.9394
 11
38.0382
 21
-28.5634
  0
LINE
  8
0
 10
38.0382
 20
-28.5634
 11
38.0618
 21
-28.1874
  0
LINE
  8
0
 10
38.0618
 20
-28.1874
 11
38.1324
 21
-27.8173
  0
LINE
  8
0
 10
38.1324
 20
-27.8173
 11
38.2488
 21
-27.459
  0
LINE
  8
0
 10
38.2488
 20
-27.459
 11
38.4092
 21
-27.1181
  0
LINE
  8
0
 10
38.4092
 20
-27.1181
 11
38.6111
 21
-26.8
  0
LINE
  8
0
 10
38.6111
 20
-26.8
 11
38.8513
 21
-26.5098
  0
LINE
  8
0
 10
38.8513
 20
-26.5098
 11
39.1259
 21
-26.2519
  0
LINE
  8
0
 10
39.1259
 20
-26.2519
 11
39.4307
 21
-26.0304
  0
LINE
  8
0
 10
39.4307
 20
-26.0304
 11
39.7608
 21
-25.8489
  0
LINE
  8
0
 10
39.7608
 20
-25.8489
 11
40.1111
 21
-25.7102
  0
LINE
  8
0
 10
40.1111
 20
-25.7102
 11
40.476
 21
-25.6165
  0
LINE
  8
0
 10
40.476
 20
-25.6165
 11
40.8498
 21
-25.5693
  0
LINE
  8
0
 10
40.8498
 20
-25.5693
 11
41.2265
 21
-25.5693
  0
LINE
  8
0
 10
41.2265
 20
-25.5693
 11
41.6003
 21
-25.6165
  0
LINE
  8
0
 10
41.6003
 20
-25.6165
 11
41.9652
 21
-25.7102
  0
LINE
  8
0
 10
41.9652
 20
-25.7102
 11
42.3155
 21
-25.8489
  0
LINE
  8
0
 10
42.3155
 20
-25.8489
 11
42.6456
 21
-26.0304
  0
LINE
  8
0
 10
42.6456
 20
-26.0304
 11
42.9504
 21
-26.2519
  0
LINE
  8
0
 10
42.9504
 20
-26.2519
 11
43.2251
 21
-26.5098
  0
LINE
  8
0
 10
43.2251
 20
-26.5098
 11
43.4652
 21
-26.8
  0
LINE
  8
0
 10
43.4652
 20
-26.8
 11
43.6671
 21
-27.1181
  0
LINE
  8
0
 10
43.6671
 20
-27.1181
 11
43.8275
 21
-27.459
  0
LINE
  8
0
 10
43.8275
 20
-27.459
 11
43.9439
 21
-27.8173
  0
LINE
  8
0
 10
43.9439
 20
-27.8173
 11
44.0145
 21
-28.1874
  0
LINE
  8
0
 10
44.0145
 20
-28.1874
 11
44.0382
 21
-28.5634
  0
LINE
  8
0
 10
44.0382
 20
-28.5634
 11
44.0145
 21
-28.9394
  0
LINE
  8
0
 10
44.0145
 20
-28.9394
 11
43.9439
 21
-29.3095
  0
LINE
  8
0
 10
43.9439
 20
-29.3095
 11
43.8275
 21
-29.6678
  0
LINE
  8
0
 10
43.8275
 20
-29.6678
 11
43.6671
 21
-30.0087
  0
LINE
  8
0
 10
43.6671
 20
-30.0087
 11
43.4652
 21
-30.3268
  0
LINE
  8
0
 10
43.4652
 20
-30.3268
 11
43.2251
 21
-30.6171
  0
LINE
  8
0
 10
43.2251
 20
-30.6171
 11
42.9504
 21
-30.8749
  0
LINE
  8
0
 10
42.9504
 20
-30.8749
 11
42.6456
 21
-31.0964
  0
LINE
  8
0
 10
42.6456
 20
-31.0964
 11
42.3155
 21
-31.2779
  0
LINE
  8
0
 10
42.3155
 20
-31.2779
 11
41.9652
 21
-31.4166
  0
LINE
  8
0
 10
41.9652
 20
-31.4166
 11
41.6003
 21
-31.5103
  0
LINE
  8
0
 10
41.6003
 20
-31.5103
 11
41.2265
 21
-31.5575
  0
LINE
  8
0
 10
41.2265
 20
-31.5575
 11
40.8498
 21
-31.5575
  0
LINE
  8
0
 10
-38.1263
 20
-35.5627
 11
-38.5
 21
-35.5155
  0
LINE
  8
0
 10
-38.5
 20
-35.5155
 11
-38.8649
 21
-35.4218
  0
LINE
  8
0
 10
-38.8649
 20
-35.4218
 11
-39.2152
 21
-35.2831
  0
LINE
  8
0
 10
-39.2152
 20
-35.2831
 11
-39.5454
 21
-35.1016
  0
LINE
  8
0
 10
-39.5454
 20
-35.1016
 11
-39.8502
 21
-34.8802
  0
LINE
  8
0
 10
-39.8502
 20
-34.8802
 11
-40.1248
 21
-34.6223
  0
LINE
  8
0
 10
-40.1248
 20
-34.6223
 11
-40.3649
 21
-34.332
  0
LINE
  8
0
 10
-40.3649
 20
-34.332
 11
-40.5668
 21
-34.0139
  0
LINE
  8
0
 10
-40.5668
 20
-34.0139
 11
-40.7272
 21
-33.673
  0
LINE
  8
0
 10
-40.7272
 20
-33.673
 11
-40.8436
 21
-33.3147
  0
LINE
  8
0
 10
-40.8436
 20
-33.3147
 11
-40.9142
 21
-32.9446
  0
LINE
  8
0
 10
-40.9142
 20
-32.9446
 11
-40.9379
 21
-32.5686
  0
LINE
  8
0
 10
-40.9379
 20
-32.5686
 11
-40.9142
 21
-32.1926
  0
LINE
  8
0
 10
-40.9142
 20
-32.1926
 11
-40.8436
 21
-31.8225
  0
LINE
  8
0
 10
-40.8436
 20
-31.8225
 11
-40.7272
 21
-31.4642
  0
LINE
  8
0
 10
-40.7272
 20
-31.4642
 11
-40.5668
 21
-31.1234
  0
LINE
  8
0
 10
-40.5668
 20
-31.1234
 11
-40.3649
 21
-30.8053
  0
LINE
  8
0
 10
-40.3649
 20
-30.8053
 11
-40.1248
 21
-30.515
  0
LINE
  8
0
 10
-40.1248
 20
-30.515
 11
-39.8502
 21
-30.2571
  0
LINE
  8
0
 10
-39.8502
 20
-30.2571
 11
-39.5454
 21
-30.0356
  0
LINE
  8
0
 10
-39.5454
 20
-30.0356
 11
-39.2152
 21
-29.8541
  0
LINE
  8
0
 10
-39.2152
 20
-29.8541
 11
-38.8649
 21
-29.7155
  0
LINE
  8
0
 10
-38.8649
 20
-29.7155
 11
-38.5
 21
-29.6217
  0
LINE
  8
0
 10
-38.5
 20
-29.6217
 11
-38.1263
 21
-29.5745
  0
LINE
  8
0
 10
-38.1263
 20
-29.5745
 11
-37.7495
 21
-29.5745
  0
LINE
  8
0
 10
-37.7495
 20
-29.5745
 11
-37.3758
 21
-29.6217
  0
LINE
  8
0
 10
-37.3758
 20
-29.6217
 11
-37.0108
 21
-29.7155
  0
LINE
  8
0
 10
-37.0108
 20
-29.7155
 11
-36.6606
 21
-29.8541
  0
LINE
  8
0
 10
-36.6606
 20
-29.8541
 11
-36.3304
 21
-30.0356
  0
LINE
  8
0
 10
-36.3304
 20
-30.0356
 11
-36.0256
 21
-30.2571
  0
LINE
  8
0
 10
-36.0256
 20
-30.2571
 11
-35.751
 21
-30.515
  0
LINE
  8
0
 10
-35.751
 20
-30.515
 11
-35.5108
 21
-30.8053
  0
LINE
  8
0
 10
-35.5108
 20
-30.8053
 11
-35.309
 21
-31.1234
  0
LINE
  8
0
 10
-35.309
 20
-31.1234
 11
-35.1486
 21
-31.4642
  0
LINE
  8
0
 10
-35.1486
 20
-31.4642
 11
-35.0322
 21
-31.8225
  0
LINE
  8
0
 10
-35.0322
 20
-31.8225
 11
-34.9616
 21
-32.1926
  0
LINE
  8
0
 10
-34.9616
 20
-32.1926
 11
-34.9379
 21
-32.5686
  0
LINE
  8
0
 10
-34.9379
 20
-32.5686
 11
-34.9616
 21
-32.9446
  0
LINE
  8
0
 10
-34.9616
 20
-32.9446
 11
-35.0322
 21
-33.3147
  0
LINE
  8
0
 10
-35.0322
 20
-33.3147
 11
-35.1486
 21
-33.673
  0
LINE
  8
0
 10
-35.1486
 20
-33.673
 11
-35.309
 21
-34.0139
  0
LINE
  8
0
 10
-35.309
 20
-34.0139
 11
-35.5108
 21
-34.332
  0
LINE
  8
0
 10
-35.5108
 20
-34.332
 11
-35.751
 21
-34.6223
  0
LINE
  8
0
 10
-35.751
 20
-34.6223
 11
-36.0256
 21
-34.8802
  0
LINE
  8
0
 10
-36.0256
 20
-34.8802
 11
-36.3304
 21
-35.1016
  0
LINE
  8
0
 10
-36.3304
 20
-35.1016
 11
-36.6606
 21
-35.2831
  0
LINE
  8
0
 10
-36.6606
 20
-35.2831
 11
-37.0108
 21
-35.4218
  0
LINE
  8
0
 10
-37.0108
 20
-35.4218
 11
-37.3758
 21
-35.5155
  0
LINE
  8
0
 10
-37.3758
 20
-35.5155
 11
-37.7495
 21
-35.5627
  0
LINE
  8
0
 10
-37.7495
 20
-35.5627
 11
-38.1263
 21
-35.5627
  0
LINE
  8
0
 10
34.26
 20
-39.2337
 11
33.8862
 21
-39.1865
  0
LINE
  8
0
 10
33.8862
 20
-39.1865
 11
33.5213
 21
-39.0928
  0
LINE
  8
0
 10
33.5213
 20
-39.0928
 11
33.171
 21
-38.9541
  0
LINE
  8
0
 10
33.171
 20
-38.9541
 11
32.8409
 21
-38.7726
  0
LINE
  8
0
 10
32.8409
 20
-38.7726
 11
32.5361
 21
-38.5512
  0
LINE
  8
0
 10
32.5361
 20
-38.5512
 11
32.2614
 21
-38.2933
  0
LINE
  8
0
 10
32.2614
 20
-38.2933
 11
32.0213
 21
-38.003
  0
LINE
  8
0
 10
32.0213
 20
-38.003
 11
31.8194
 21
-37.6849
  0
LINE
  8
0
 10
31.8194
 20
-37.6849
 11
31.659
 21
-37.344
  0
LINE
  8
0
 10
31.659
 20
-37.344
 11
31.5426
 21
-36.9857
  0
LINE
  8
0
 10
31.5426
 20
-36.9857
 11
31.472
 21
-36.6156
  0
LINE
  8
0
 10
31.472
 20
-36.6156
 11
31.4483
 21
-36.2396
  0
LINE
  8
0
 10
31.4483
 20
-36.2396
 11
31.472
 21
-35.8636
  0
LINE
  8
0
 10
31.472
 20
-35.8636
 11
31.5426
 21
-35.4936
  0
LINE
  8
0
 10
31.5426
 20
-35.4936
 11
31.659
 21
-35.1353
  0
LINE
  8
0
 10
31.659
 20
-35.1353
 11
31.8194
 21
-34.7944
  0
LINE
  8
0
 10
31.8194
 20
-34.7944
 11
32.0213
 21
-34.4763
  0
LINE
  8
0
 10
32.0213
 20
-34.4763
 11
32.2614
 21
-34.186
  0
LINE
  8
0
 10
32.2614
 20
-34.186
 11
32.5361
 21
-33.9281
  0
LINE
  8
0
 10
32.5361
 20
-33.9281
 11
32.8409
 21
-33.7066
  0
LINE
  8
0
 10
32.8409
 20
-33.7066
 11
33.171
 21
-33.5251
  0
LINE
  8
0
 10
33.171
 20
-33.5251
 11
33.5213
 21
-33.3865
  0
LINE
  8
0
 10
33.5213
 20
-33.3865
 11
33.8862
 21
-33.2928
  0
LINE
  8
0
 10
33.8862
 20
-33.2928
 11
34.26
 21
-33.2456
  0
LINE
  8
0
 10
34.26
 20
-33.2456
 11
34.6367
 21
-33.2456
  0
LINE
  8
0
 10
34.6367
 20
-33.2456
 11
35.0105
 21
-33.2928
  0
LINE
  8
0
 10
35.0105
 20
-33.2928
 11
35.3754
 21
-33.3865
  0
LINE
  8
0
 10
35.3754
 20
-33.3865
 11
35.7257
 21
-33.5251
  0
LINE
  8
0
 10
35.7257
 20
-33.5251
 11
36.0558
 21
-33.7066
  0
LINE
  8
0
 10
36.0558
 20
-33.7066
 11
36.3606
 21
-33.9281
  0
LINE
  8
0
 10
36.3606
 20
-33.9281
 11
36.6352
 21
-34.186
  0
LINE
  8
0
 10
36.6352
 20
-34.186
 11
36.8754
 21
-34.4763
  0
LINE
  8
0
 10
36.8754
 20
-34.4763
 11
37.0773
 21
-34.7944
  0
LINE
  8
0
 10
37.0773
 20
-34.7944
 11
37.2377
 21
-35.1353
  0
LINE
  8
0
 10
37.2377
 20
-35.1353
 11
37.3541
 21
-35.4936
  0
LINE
  8
0
 10
37.3541
 20
-35.4936
 11
37.4247
 21
-35.8636
  0
LINE
  8
0
 10
37.4247
 20
-35.8636
 11
37.4483
 21
-36.2396
  0
LINE
  8
0
 10
37.4483
 20
-36.2396
 11
37.4247
 21
-36.6156
  0
LINE
  8
0
 10
37.4247
 20
-36.6156
 11
37.3541
 21
-36.9857
  0
LINE
  8
0
 10
37.3541
 20
-36.9857
 11
37.2377
 21
-37.344
  0
LINE
  8
0
 10
37.2377
 20
-37.344
 11
37.0773
 21
-37.6849
  0
LINE
  8
0
 10
37.0773
 20
-37.6849
 11
36.8754
 21
-38.003
  0
LINE
  8
0
 10
36.8754
 20
-38.003
 11
36.6352
 21
-38.2933
  0
LINE
  8
0
 10
36.6352
 20
-38.2933
 11
36.3606
 21
-38.5512
  0
LINE
  8
0
 10
36.3606
 20
-38.5512
 11
36.0558
 21
-38.7726
  0
LINE
  8
0
 10
36.0558
 20
-38.7726
 11
35.7257
 21
-38.9541
  0
LINE
  8
0
 10
35.7257
 20
-38.9541
 11
35.3754
 21
-39.0928
  0
LINE
  8
0
 10
35.3754
 20
-39.0928
 11
35.0105
 21
-39.1865
  0
LINE
  8
0
 10
35.0105
 20
-39.1865
 11
34.6367
 21
-39.2337
  0
LINE
  8
0
 10
34.6367
 20
-39.2337
 11
34.26
 21
-39.2337
  0
LINE
  8
0
 10
-30.7937
 20
-42.5329
 11
-31.1674
 21
-42.4856
  0
LINE
  8
0
 10
-31.1674
 20
-42.4856
 11
-31.5323
 21
-42.392
  0
LINE
  8
0
 10
-31.5323
 20
-42.392
 11
-31.8826
 21
-42.2533
  0
LINE
  8
0
 10
-31.8826
 20
-42.2533
 11
-32.2128
 21
-42.0718
  0
LINE
  8
0
 10
-32.2128
 20
-42.0718
 11
-32.5176
 21
-41.8503
  0
LINE
  8
0
 10
-32.5176
 20
-41.8503
 11
-32.7922
 21
-41.5924
  0
LINE
  8
0
 10
-32.7922
 20
-41.5924
 11
-33.0323
 21
-41.3021
  0
LINE
  8
0
 10
-33.0323
 20
-41.3021
 11
-33.2342
 21
-40.984
  0
LINE
  8
0
 10
-33.2342
 20
-40.984
 11
-33.3946
 21
-40.6432
  0
LINE
  8
0
 10
-33.3946
 20
-40.6432
 11
-33.511
 21
-40.2849
  0
LINE
  8
0
 10
-33.511
 20
-40.2849
 11
-33.5816
 21
-39.9148
  0
LINE
  8
0
 10
-33.5816
 20
-39.9148
 11
-33.6053
 21
-39.5388
  0
LINE
  8
0
 10
-33.6053
 20
-39.5388
 11
-33.5816
 21
-39.1628
  0
LINE
  8
0
 10
-33.5816
 20
-39.1628
 11
-33.511
 21
-38.7927
  0
LINE
  8
0
 10
-33.511
 20
-38.7927
 11
-33.3946
 21
-38.4344
  0
LINE
  8
0
 10
-33.3946
 20
-38.4344
 11
-33.2342
 21
-38.0935
  0
LINE
  8
0
 10
-33.2342
 20
-38.0935
 11
-33.0323
 21
-37.7754
  0
LINE
  8
0
 10
-33.0323
 20
-37.7754
 11
-32.7922
 21
-37.4851
  0
LINE
  8
0
 10
-32.7922
 20
-37.4851
 11
-32.5176
 21
-37.2272
  0
LINE
  8
0
 10
-32.5176
 20
-37.2272
 11
-32.2128
 21
-37.0058
  0
LINE
  8
0
 10
-32.2128
 20
-37.0058
 11
-31.8826
 21
-36.8243
  0
LINE
  8
0
 10
-31.8826
 20
-36.8243
 11
-31.5323
 21
-36.6856
  0
LINE
  8
0
 10
-31.5323
 20
-36.6856
 11
-31.1674
 21
-36.5919
  0
LINE
  8
0
 10
-31.1674
 20
-36.5919
 11
-30.7937
 21
-36.5447
  0
LINE
  8
0
 10
-30.7937
 20
-36.5447
 11
-30.4169
 21
-36.5447
  0
LINE
  8
0
 10
-30.4169
 20
-36.5447
 11
-30.0432
 21
-36.5919
  0
LINE
  8
0
 10
-30.0432
 20
-36.5919
 11
-29.6782
 21
-36.6856
  0
LINE
  8
0
 10
-29.6782
 20
-36.6856
 11
-29.328
 21
-36.8243
  0
LINE
  8
0
 10
-29.328
 20
-36.8243
 11
-28.9978
 21
-37.0058
  0
LINE
  8
0
 10
-28.9978
 20
-37.0058
 11
-28.693
 21
-37.2272
  0
LINE
  8
0
 10
-28.693
 20
-37.2272
 11
-28.4184
 21
-37.4851
  0
LINE
  8
0
 10
-28.4184
 20
-37.4851
 11
-28.1782
 21
-37.7754
  0
LINE
  8
0
 10
-28.1782
 20
-37.7754
 11
-27.9764
 21
-38.0935
  0
LINE
  8
0
 10
-27.9764
 20
-38.0935
 11
-27.816
 21
-38.4344
  0
LINE
  8
0
 10
-27.816
 20
-38.4344
 11
-27.6995
 21
-38.7927
  0
LINE
  8
0
 10
-27.6995
 20
-38.7927
 11
-27.629
 21
-39.1628
  0
LINE
  8
0
 10
-27.629
 20
-39.1628
 11
-27.6053
 21
-39.5388
  0
LINE
  8
0
 10
-27.6053
 20
-39.5388
 11
-27.629
 21
-39.9148
  0
LINE
  8
0
 10
-27.629
 20
-39.9148
 11
-27.6995
 21
-40.2849
  0
LINE
  8
0
 10
-27.6995
 20
-40.2849
 11
-27.816
 21
-40.6432
  0
LINE
  8
0
 10
-27.816
 20
-40.6432
 11
-27.9764
 21
-40.984
  0
LINE
  8
0
 10
-27.9764
 20
-40.984
 11
-28.1782
 21
-41.3021
  0
LINE
  8
0
 10
-28.1782
 20
-41.3021
 11
-28.4184
 21
-41.5924
  0
LINE
  8
0
 10
-28.4184
 20
-41.5924
 11
-28.693
 21
-41.8503
  0
LINE
  8
0
 10
-28.693
 20
-41.8503
 11
-28.9978
 21
-42.0718
  0
LINE
  8
0
 10
-28.9978
 20
-42.0718
 11
-29.328
 21
-42.2533
  0
LINE
  8
0
 10
-29.328
 20
-42.2533
 11
-29.6782
 21
-42.392
  0
LINE
  8
0
 10
-29.6782
 20
-42.392
 11
-30.0432
 21
-42.4856
  0
LINE
  8
0
 10
-30.0432
 20
-42.4856
 11
-30.4169
 21
-42.5329
  0
LINE
  8
0
 10
-30.4169
 20
-42.5329
 11
-30.7937
 21
-42.5329
  0
LINE
  8
0
 10
26.2598
 20
-45.4263
 11
25.886
 21
-45.3791
  0
LINE
  8
0
 10
25.886
 20
-45.3791
 11
25.5211
 21
-45.2854
  0
LINE
  8
0
 10
25.5211
 20
-45.2854
 11
25.1709
 21
-45.1467
  0
LINE
  8
0
 10
25.1709
 20
-45.1467
 11
24.8407
 21
-44.9652
  0
LINE
  8
0
 10
24.8407
 20
-44.9652
 11
24.5359
 21
-44.7437
  0
LINE
  8
0
 10
24.5359
 20
-44.7437
 11
24.2613
 21
-44.4859
  0
LINE
  8
0
 10
24.2613
 20
-44.4859
 11
24.0211
 21
-44.1956
  0
LINE
  8
0
 10
24.0211
 20
-44.1956
 11
23.8193
 21
-43.8775
  0
LINE
  8
0
 10
23.8193
 20
-43.8775
 11
23.6589
 21
-43.5366
  0
LINE
  8
0
 10
23.6589
 20
-43.5366
 11
23.5424
 21
-43.1783
  0
LINE
  8
0
 10
23.5424
 20
-43.1783
 11
23.4718
 21
-42.8082
  0
LINE
  8
0
 10
23.4718
 20
-42.8082
 11
23.4482
 21
-42.4322
  0
LINE
  8
0
 10
23.4482
 20
-42.4322
 11
23.4718
 21
-42.0562
  0
LINE
  8
0
 10
23.4718
 20
-42.0562
 11
23.5424
 21
-41.6861
  0
LINE
  8
0
 10
23.5424
 20
-41.6861
 11
23.6589
 21
-41.3278
  0
LINE
  8
0
 10
23.6589
 20
-41.3278
 11
23.8193
 21
-40.987
  0
LINE
  8
0
 10
23.8193
 20
-40.987
 11
24.0211
 21
-40.6689
  0
LINE
  8
0
 10
24.0211
 20
-40.6689
 11
24.2613
 21
-40.3786
  0
LINE
  8
0
 10
24.2613
 20
-40.3786
 11
24.5359
 21
-40.1207
  0
LINE
  8
0
 10
24.5359
 20
-40.1207
 11
24.8407
 21
-39.8992
  0
LINE
  8
0
 10
24.8407
 20
-39.8992
 11
25.1709
 21
-39.7177
  0
LINE
  8
0
 10
25.1709
 20
-39.7177
 11
25.5211
 21
-39.579
  0
LINE
  8
0
 10
25.5211
 20
-39.579
 11
25.886
 21
-39.4854
  0
LINE
  8
0
 10
25.886
 20
-39.4854
 11
26.2598
 21
-39.4381
  0
LINE
  8
0
 10
26.2598
 20
-39.4381
 11
26.6366
 21
-39.4381
  0
LINE
  8
0
 10
26.6366
 20
-39.4381
 11
27.0103
 21
-39.4854
  0
LINE
  8
0
 10
27.0103
 20
-39.4854
 11
27.3752
 21
-39.579
  0
LINE
  8
0
 10
27.3752
 20
-39.579
 11
27.7255
 21
-39.7177
  0
LINE
  8
0
 10
27.7255
 20
-39.7177
 11
28.0557
 21
-39.8992
  0
LINE
  8
0
 10
28.0557
 20
-39.8992
 11
28.3605
 21
-40.1207
  0
LINE
  8
0
 10
28.3605
 20
-40.1207
 11
28.6351
 21
-40.3786
  0
LINE
  8
0
 10
28.6351
 20
-40.3786
 11
28.8752
 21
-40.6689
  0
LINE
  8
0
 10
28.8752
 20
-40.6689
 11
29.0771
 21
-40.987
  0
LINE
  8
0
 10
29.0771
 20
-40.987
 11
29.2375
 21
-41.3278
  0
LINE
  8
0
 10
29.2375
 20
-41.3278
 11
29.3539
 21
-41.6861
  0
LINE
  8
0
 10
29.3539
 20
-41.6861
 11
29.4245
 21
-42.0562
  0
LINE
  8
0
 10
29.4245
 20
-42.0562
 11
29.4482
 21
-42.4322
  0
LINE
  8
0
 10
29.4482
 20
-42.4322
 11
29.4245
 21
-42.8082
  0
LINE
  8
0
 10
29.4245
 20
-42.8082
 11
29.3539
 21
-43.1783
  0
LINE
  8
0
 10
29.3539
 20
-43.1783
 11
29.2375
 21
-43.5366
  0
LINE
  8
0
 10
29.2375
 20
-43.5366
 11
29.0771
 21
-43.8775
  0
LINE
  8
0
 10
29.0771
 20
-43.8775
 11
28.8752
 21
-44.1956
  0
LINE
  8
0
 10
28.8752
 20
-44.1956
 11
28.6351
 21
-44.4859
  0
LINE
  8
0
 10
28.6351
 20
-44.4859
 11
28.3605
 21
-44.7437
  0
LINE
  8
0
 10
28.3605
 20
-44.7437
 11
28.0557
 21
-44.9652
  0
LINE
  8
0
 10
28.0557
 20
-44.9652
 11
27.7255
 21
-45.1467
  0
LINE
  8
0
 10
27.7255
 20
-45.1467
 11
27.3752
 21
-45.2854
  0
LINE
  8
0
 10
27.3752
 20
-45.2854
 11
27.0103
 21
-45.3791
  0
LINE
  8
0
 10
27.0103
 20
-45.3791
 11
26.6366
 21
-45.4263
  0
LINE
  8
0
 10
26.6366
 20
-45.4263
 11
26.2598
 21
-45.4263
  0
LINE
  8
0
 10
-22.2081
 20
-47.8843
 11
-22.5818
 21
-47.8371
  0
LINE
  8
0
 10
-22.5818
 20
-47.8371
 11
-22.9467
 21
-47.7434
  0
LINE
  8
0
 10
-22.9467
 20
-47.7434
 11
-23.297
 21
-47.6047
  0
LINE
  8
0
 10
-23.297
 20
-47.6047
 11
-23.6272
 21
-47.4232
  0
LINE
  8
0
 10
-23.6272
 20
-47.4232
 11
-23.932
 21
-47.2018
  0
LINE
  8
0
 10
-23.932
 20
-47.2018
 11
-24.2066
 21
-46.9439
  0
LINE
  8
0
 10
-24.2066
 20
-46.9439
 11
-24.4467
 21
-46.6536
  0
LINE
  8
0
 10
-24.4467
 20
-46.6536
 11
-24.6486
 21
-46.3355
  0
LINE
  8
0
 10
-24.6486
 20
-46.3355
 11
-24.809
 21
-45.9946
  0
LINE
  8
0
 10
-24.809
 20
-45.9946
 11
-24.9254
 21
-45.6363
  0
LINE
  8
0
 10
-24.9254
 20
-45.6363
 11
-24.996
 21
-45.2662
  0
LINE
  8
0
 10
-24.996
 20
-45.2662
 11
-25.0197
 21
-44.8902
  0
LINE
  8
0
 10
-25.0197
 20
-44.8902
 11
-24.996
 21
-44.5142
  0
LINE
  8
0
 10
-24.996
 20
-44.5142
 11
-24.9254
 21
-44.1441
  0
LINE
  8
0
 10
-24.9254
 20
-44.1441
 11
-24.809
 21
-43.7858
  0
LINE
  8
0
 10
-24.809
 20
-43.7858
 11
-24.6486
 21
-43.445
  0
LINE
  8
0
 10
-24.6486
 20
-43.445
 11
-24.4467
 21
-43.1269
  0
LINE
  8
0
 10
-24.4467
 20
-43.1269
 11
-24.2066
 21
-42.8366
  0
LINE
  8
0
 10
-24.2066
 20
-42.8366
 11
-23.932
 21
-42.5787
  0
LINE
  8
0
 10
-23.932
 20
-42.5787
 11
-23.6272
 21
-42.3572
  0
LINE
  8
0
 10
-23.6272
 20
-42.3572
 11
-23.297
 21
-42.1757
  0
LINE
  8
0
 10
-23.297
 20
-42.1757
 11
-22.9467
 21
-42.037
  0
LINE
  8
0
 10
-22.9467
 20
-42.037
 11
-22.5818
 21
-41.9434
  0
LINE
  8
0
 10
-22.5818
 20
-41.9434
 11
-22.2081
 21
-41.8961
  0
LINE
  8
0
 10
-22.2081
 20
-41.8961
 11
-21.8313
 21
-41.8961
  0
LINE
  8
0
 10
-21.8313
 20
-41.8961
 11
-21.4576
 21
-41.9434
  0
LINE
  8
0
 10
-21.4576
 20
-41.9434
 11
-21.0927
 21
-42.037
  0
LINE
  8
0
 10
-21.0927
 20
-42.037
 11
-20.7424
 21
-42.1757
  0
LINE
  8
0
 10
-20.7424
 20
-42.1757
 11
-20.4122
 21
-42.3572
  0
LINE
  8
0
 10
-20.4122
 20
-42.3572
 11
-20.1074
 21
-42.5787
  0
LINE
  8
0
 10
-20.1074
 20
-42.5787
 11
-19.8328
 21
-42.8366
  0
LINE
  8
0
 10
-19.8328
 20
-42.8366
 11
-19.5927
 21
-43.1269
  0
LINE
  8
0
 10
-19.5927
 20
-43.1269
 11
-19.3908
 21
-43.445
  0
LINE
  8
0
 10
-19.3908
 20
-43.445
 11
-19.2304
 21
-43.7858
  0
LINE
  8
0
 10
-19.2304
 20
-43.7858
 11
-19.114
 21
-44.1441
  0
LINE
  8
0
 10
-19.114
 20
-44.1441
 11
-19.0434
 21
-44.5142
  0
LINE
  8
0
 10
-19.0434
 20
-44.5142
 11
-19.0197
 21
-44.8902
  0
LINE
  8
0
 10
-19.0197
 20
-44.8902
 11
-19.0434
 21
-45.2662
  0
LINE
  8
0
 10
-19.0434
 20
-45.2662
 11
-19.114
 21
-45.6363
  0
LINE
  8
0
 10
-19.114
 20
-45.6363
 11
-19.2304
 21
-45.9946
  0
LINE
  8
0
 10
-19.2304
 20
-45.9946
 11
-19.3908
 21
-46.3355
  0
LINE
  8
0
 10
-19.3908
 20
-46.3355
 11
-19.5927
 21
-46.6536
  0
LINE
  8
0
 10
-19.5927
 20
-46.6536
 11
-19.8328
 21
-46.9439
  0
LINE
  8
0
 10
-19.8328
 20
-46.9439
 11
-20.1074
 21
-47.2018
  0
LINE
  8
0
 10
-20.1074
 20
-47.2018
 11
-20.4122
 21
-47.4232
  0
LINE
  8
0
 10
-20.4122
 20
-47.4232
 11
-20.7424
 21
-47.6047
  0
LINE
  8
0
 10
-20.7424
 20
-47.6047
 11
-21.0927
 21
-47.7434
  0
LINE
  8
0
 10
-21.0927
 20
-47.7434
 11
-21.4576
 21
-47.8371
  0
LINE
  8
0
 10
-21.4576
 20
-47.8371
 11
-21.8313
 21
-47.8843
  0
LINE
  8
0
 10
-21.8313
 20
-47.8843
 11
-22.2081
 21
-47.8843
  0
LINE
  8
0
 10
17.1769
 20
-49.8817
 11
16.8031
 21
-49.8345
  0
LINE
  8
0
 10
16.8031
 20
-49.8345
 11
16.4382
 21
-49.7408
  0
LINE
  8
0
 10
16.4382
 20
-49.7408
 11
16.0879
 21
-49.6021
  0
LINE
  8
0
 10
16.0879
 20
-49.6021
 11
15.7578
 21
-49.4206
  0
LINE
  8
0
 10
15.7578
 20
-49.4206
 11
15.453
 21
-49.1991
  0
LINE
  8
0
 10
15.453
 20
-49.1991
 11
15.1783
 21
-48.9412
  0
LINE
  8
0
 10
15.1783
 20
-48.9412
 11
14.9382
 21
-48.651
  0
LINE
  8
0
 10
14.9382
 20
-48.651
 11
14.7363
 21
-48.3329
  0
LINE
  8
0
 10
14.7363
 20
-48.3329
 11
14.5759
 21
-47.992
  0
LINE
  8
0
 10
14.5759
 20
-47.992
 11
14.4595
 21
-47.6337
  0
LINE
  8
0
 10
14.4595
 20
-47.6337
 11
14.3889
 21
-47.2636
  0
LINE
  8
0
 10
14.3889
 20
-47.2636
 11
14.3652
 21
-46.8876
  0
LINE
  8
0
 10
14.3652
 20
-46.8876
 11
14.3889
 21
-46.5116
  0
LINE
  8
0
 10
14.3889
 20
-46.5116
 11
14.4595
 21
-46.1415
  0
LINE
  8
0
 10
14.4595
 20
-46.1415
 11
14.5759
 21
-45.7832
  0
LINE
  8
0
 10
14.5759
 20
-45.7832
 11
14.7363
 21
-45.4423
  0
LINE
  8
0
 10
14.7363
 20
-45.4423
 11
14.9382
 21
-45.1243
  0
LINE
  8
0
 10
14.9382
 20
-45.1243
 11
15.1783
 21
-44.834
  0
LINE
  8
0
 10
15.1783
 20
-44.834
 11
15.453
 21
-44.5761
  0
LINE
  8
0
 10
15.453
 20
-44.5761
 11
15.7578
 21
-44.3546
  0
LINE
  8
0
 10
15.7578
 20
-44.3546
 11
16.0879
 21
-44.1731
  0
LINE
  8
0
 10
16.0879
 20
-44.1731
 11
16.4382
 21
-44.0344
  0
LINE
  8
0
 10
16.4382
 20
-44.0344
 11
16.8031
 21
-43.9407
  0
LINE
  8
0
 10
16.8031
 20
-43.9407
 11
17.1769
 21
-43.8935
  0
LINE
  8
0
 10
17.1769
 20
-43.8935
 11
17.5536
 21
-43.8935
  0
LINE
  8
0
 10
17.5536
 20
-43.8935
 11
17.9274
 21
-43.9407
  0
LINE
  8
0
 10
17.9274
 20
-43.9407
 11
18.2923
 21
-44.0344
  0
LINE
  8
0
 10
18.2923
 20
-44.0344
 11
18.6426
 21
-44.1731
  0
LINE
  8
0
 10
18.6426
 20
-44.1731
 11
18.9727
 21
-44.3546
  0
LINE
  8
0
 10
18.9727
 20
-44.3546
 11
19.2775
 21
-44.5761
  0
LINE
  8
0
 10
19.2775
 20
-44.5761
 11
19.5522
 21
-44.834
  0
LINE
  8
0
 10
19.5522
 20
-44.834
 11
19.7923
 21
-45.1243
  0
LINE
  8
0
 10
19.7923
 20
-45.1243
 11
19.9942
 21
-45.4423
  0
LINE
  8
0
 10
19.9942
 20
-45.4423
 11
20.1546
 21
-45.7832
  0
LINE
  8
0
 10
20.1546
 20
-45.7832
 11
20.271
 21
-46.1415
  0
LINE
  8
0
 10
20.271
 20
-46.1415
 11
20.3416
 21
-46.5116
  0
LINE
  8
0
 10
20.3416
 20
-46.5116
 11
20.3652
 21
-46.8876
  0
LINE
  8
0
 10
20.3652
 20
-46.8876
 11
20.3416
 21
-47.2636
  0
LINE
  8
0
 10
20.3416
 20
-47.2636
 11
20.271
 21
-47.6337
  0
LINE
  8
0
 10
20.271
 20
-47.6337
 11
20.1546
 21
-47.992
  0
LINE
  8
0
 10
20.1546
 20
-47.992
 11
19.9942
 21
-48.3329
  0
LINE
  8
0
 10
19.9942
 20
-48.3329
 11
19.7923
 21
-48.651
  0
LINE
  8
0
 10
19.7923
 20
-48.651
 11
19.5522
 21
-48.9412
  0
LINE
  8
0
 10
19.5522
 20
-48.9412
 11
19.2775
 21
-49.1991
  0
LINE
  8
0
 10
19.2775
 20
-49.1991
 11
18.9727
 21
-49.4206
  0
LINE
  8
0
 10
18.9727
 20
-49.4206
 11
18.6426
 21
-49.6021
  0
LINE
  8
0
 10
18.6426
 20
-49.6021
 11
18.2923
 21
-49.7408
  0
LINE
  8
0
 10
18.2923
 20
-49.7408
 11
17.9274
 21
-49.8345
  0
LINE
  8
0
 10
17.9274
 20
-49.8345
 11
17.5536
 21
-49.8817
  0
LINE
  8
0
 10
17.5536
 20
-49.8817
 11
17.1769
 21
-49.8817
  0
LINE
  8
0
 10
-12.721
 20
-51.3979
 11
-13.0948
 21
-51.3507
  0
LINE
  8
0
 10
-13.0948
 20
-51.3507
 11
-13.4597
 21
-51.257
  0
LINE
  8
0
 10
-13.4597
 20
-51.257
 11
-13.81
 21
-51.1183
  0
LINE
  8
0
 10
-13.81
 20
-51.1183
 11
-14.1401
 21
-50.9368
  0
LINE
  8
0
 10
-14.1401
 20
-50.9368
 11
-14.4449
 21
-50.7154
  0
LINE
  8
0
 10
-14.4449
 20
-50.7154
 11
-14.7195
 21
-50.4575
  0
LINE
  8
0
 10
-14.7195
 20
-50.4575
 11
-14.9597
 21
-50.1672
  0
LINE
  8
0
 10
-14.9597
 20
-50.1672
 11
-15.1615
 21
-49.8491
  0
LINE
  8
0
 10
-15.1615
 20
-49.8491
 11
-15.3219
 21
-49.5082
  0
LINE
  8
0
 10
-15.3219
 20
-49.5082
 11
-15.4384
 21
-49.1499
  0
LINE
  8
0
 10
-15.4384
 20
-49.1499
 11
-15.509
 21
-48.7798
  0
LINE
  8
0
 10
-15.509
 20
-48.7798
 11
-15.5326
 21
-48.4039
  0
LINE
  8
0
 10
-15.5326
 20
-48.4039
 11
-15.509
 21
-48.0278
  0
LINE
  8
0
 10
-15.509
 20
-48.0278
 11
-15.4384
 21
-47.6578
  0
LINE
  8
0
 10
-15.4384
 20
-47.6578
 11
-15.3219
 21
-47.2995
  0
LINE
  8
0
 10
-15.3219
 20
-47.2995
 11
-15.1615
 21
-46.9586
  0
LINE
  8
0
 10
-15.1615
 20
-46.9586
 11
-14.9597
 21
-46.6405
  0
LINE
  8
0
 10
-14.9597
 20
-46.6405
 11
-14.7195
 21
-46.3502
  0
LINE
  8
0
 10
-14.7195
 20
-46.3502
 11
-14.4449
 21
-46.0923
  0
LINE
  8
0
 10
-14.4449
 20
-46.0923
 11
-14.1401
 21
-45.8709
  0
LINE
  8
0
 10
-14.1401
 20
-45.8709
 11
-13.81
 21
-45.6894
  0
LINE
  8
0
 10
-13.81
 20
-45.6894
 11
-13.4597
 21
-45.5507
  0
LINE
  8
0
 10
-13.4597
 20
-45.5507
 11
-13.0948
 21
-45.457
  0
LINE
  8
0
 10
-13.0948
 20
-45.457
 11
-12.721
 21
-45.4098
  0
LINE
  8
0
 10
-12.721
 20
-45.4098
 11
-12.3443
 21
-45.4098
  0
LINE
  8
0
 10
-12.3443
 20
-45.4098
 11
-11.9705
 21
-45.457
  0
LINE
  8
0
 10
-11.9705
 20
-45.457
 11
-11.6056
 21
-45.5507
  0
LINE
  8
0
 10
-11.6056
 20
-45.5507
 11
-11.2553
 21
-45.6894
  0
LINE
  8
0
 10
-11.2553
 20
-45.6894
 11
-10.9251
 21
-45.8709
  0
LINE
  8
0
 10
-10.9251
 20
-45.8709
 11
-10.6203
 21
-46.0923
  0
LINE
  8
0
 10
-10.6203
 20
-46.0923
 11
-10.3457
 21
-46.3502
  0
LINE
  8
0
 10
-10.3457
 20
-46.3502
 11
-10.1056
 21
-46.6405
  0
LINE
  8
0
 10
-10.1056
 20
-46.6405
 11
-9.9037
 21
-46.9586
  0
LINE
  8
0
 10
-9.9037
 20
-46.9586
 11
-9.74329
 21
-47.2995
  0
LINE
  8
0
 10
-9.74329
 20
-47.2995
 11
-9.62688
 21
-47.6578
  0
LINE
  8
0
 10
-9.62688
 20
-47.6578
 11
-9.55627
 21
-48.0278
  0
LINE
  8
0
 10
-9.55627
 20
-48.0278
 11
-9.53262
 21
-48.4039
  0
LINE
  8
0
 10
-9.53262
 20
-48.4039
 11
-9.55627
 21
-48.7798
  0
LINE
  8
0
 10
-9.55627
 20
-48.7798
 11
-9.62688
 21
-49.1499
  0
LINE
  8
0
 10
-9.62688
 20
-49.1499
 11
-9.74329
 21
-49.5082
  0
LINE
  8
0
 10
-9.74329
 20
-49.5082
 11
-9.9037
 21
-49.8491
  0
LINE
  8
0
 10
-9.9037
 20
-49.8491
 11
-10.1056
 21
-50.1672
  0
LINE
  8
0
 10
-10.1056
 20
-50.1672
 11
-10.3457
 21
-50.4575
  0
LINE
  8
0
 10
-10.3457
 20
-50.4575
 11
-10.6203
 21
-50.7154
  0
LINE
  8
0
 10
-10.6203
 20
-50.7154
 11
-10.9251
 21
-50.9368
  0
LINE
  8
0
 10
-10.9251
 20
-50.9368
 11
-11.2553
 21
-51.1183
  0
LINE
  8
0
 10
-11.2553
 20
-51.1183
 11
-11.6056
 21
-51.257
  0
LINE
  8
0
 10
-11.6056
 20
-51.257
 11
-11.9705
 21
-51.3507
  0
LINE
  8
0
 10
-11.9705
 20
-51.3507
 11
-12.3443
 21
-51.3979
  0
LINE
  8
0
 10
-12.3443
 20
-51.3979
 11
-12.721
 21
-51.3979
  0
LINE
  8
0
 10
7.38301
 20
-52.4175
 11
7.00923
 21
-52.3703
  0
LINE
  8
0
 10
7.00923
 20
-52.3703
 11
6.64433
 21
-52.2766
  0
LINE
  8
0
 10
6.64433
 20
-52.2766
 11
6.29404
 21
-52.1379
  0
LINE
  8
0
 10
6.29404
 20
-52.1379
 11
5.9639
 21
-51.9564
  0
LINE
  8
0
 10
5.9639
 20
-51.9564
 11
5.6591
 21
-51.735
  0
LINE
  8
0
 10
5.6591
 20
-51.735
 11
5.38448
 21
-51.4771
  0
LINE
  8
0
 10
5.38448
 20
-51.4771
 11
5.14433
 21
-51.1868
  0
LINE
  8
0
 10
5.14433
 20
-51.1868
 11
4.94246
 21
-50.8687
  0
LINE
  8
0
 10
4.94246
 20
-50.8687
 11
4.78206
 21
-50.5278
  0
LINE
  8
0
 10
4.78206
 20
-50.5278
 11
4.66563
 21
-50.1695
  0
LINE
  8
0
 10
4.66563
 20
-50.1695
 11
4.59503
 21
-49.7994
  0
LINE
  8
0
 10
4.59503
 20
-49.7994
 11
4.57138
 21
-49.4234
  0
LINE
  8
0
 10
4.57138
 20
-49.4234
 11
4.59503
 21
-49.0474
  0
LINE
  8
0
 10
4.59503
 20
-49.0474
 11
4.66563
 21
-48.6773
  0
LINE
  8
0
 10
4.66563
 20
-48.6773
 11
4.78206
 21
-48.319
  0
LINE
  8
0
 10
4.78206
 20
-48.319
 11
4.94246
 21
-47.9781
  0
LINE
  8
0
 10
4.94246
 20
-47.9781
 11
5.14433
 21
-47.66
  0
LINE
  8
0
 10
5.14433
 20
-47.66
 11
5.38448
 21
-47.3698
  0
LINE
  8
0
 10
5.38448
 20
-47.3698
 11
5.6591
 21
-47.1119
  0
LINE
  8
0
 10
5.6591
 20
-47.1119
 11
5.9639
 21
-46.8904
  0
LINE
  8
0
 10
5.9639
 20
-46.8904
 11
6.29404
 21
-46.7089
  0
LINE
  8
0
 10
6.29404
 20
-46.7089
 11
6.64433
 21
-46.5702
  0
LINE
  8
0
 10
6.64433
 20
-46.5702
 11
7.00923
 21
-46.4765
  0
LINE
  8
0
 10
7.00923
 20
-46.4765
 11
7.38301
 21
-46.4293
  0
LINE
  8
0
 10
7.38301
 20
-46.4293
 11
7.75975
 21
-46.4293
  0
LINE
  8
0
 10
7.75975
 20
-46.4293
 11
8.13353
 21
-46.4765
  0
LINE
  8
0
 10
8.13353
 20
-46.4765
 11
8.49843
 21
-46.5702
  0
LINE
  8
0
 10
8.49843
 20
-46.5702
 11
8.84872
 21
-46.7089
  0
LINE
  8
0
 10
8.84872
 20
-46.7089
 11
9.17886
 21
-46.8904
  0
LINE
  8
0
 10
9.17886
 20
-46.8904
 11
9.48366
 21
-47.1119
  0
LINE
  8
0
 10
9.48366
 20
-47.1119
 11
9.75829
 21
-47.3698
  0
LINE
  8
0
 10
9.75829
 20
-47.3698
 11
9.99843
 21
-47.66
  0
LINE
  8
0
 10
9.99843
 20
-47.66
 11
10.2003
 21
-47.9781
  0
LINE
  8
0
 10
10.2003
 20
-47.9781
 11
10.3607
 21
-48.319
  0
LINE
  8
0
 10
10.3607
 20
-48.319
 11
10.4771
 21
-48.6773
  0
LINE
  8
0
 10
10.4771
 20
-48.6773
 11
10.5477
 21
-49.0474
  0
LINE
  8
0
 10
10.5477
 20
-49.0474
 11
10.5714
 21
-49.4234
  0
LINE
  8
0
 10
10.5714
 20
-49.4234
 11
10.5477
 21
-49.7994
  0
LINE
  8
0
 10
10.5477
 20
-49.7994
 11
10.4771
 21
-50.1695
  0
LINE
  8
0
 10
10.4771
 20
-50.1695
 11
10.3607
 21
-50.5278
  0
LINE
  8
0
 10
10.3607
 20
-50.5278
 11
10.2003
 21
-50.8687
  0
LINE
  8
0
 10
10.2003
 20
-50.8687
 11
9.99843
 21
-51.1868
  0
LINE
  8
0
 10
9.99843
 20
-51.1868
 11
9.75829
 21
-51.4771
  0
LINE
  8
0
 10
9.75829
 20
-51.4771
 11
9.48366
 21
-51.735
  0
LINE
  8
0
 10
9.48366
 20
-51.735
 11
9.17886
 21
-51.9564
  0
LINE
  8
0
 10
9.17886
 20
-51.9564
 11
8.84872
 21
-52.1379
  0
LINE
  8
0
 10
8.84872
 20
-52.1379
 11
8.49843
 21
-52.2766
  0
LINE
  8
0
 10
8.49843
 20
-52.2766
 11
8.13353
 21
-52.3703
  0
LINE
  8
0
 10
8.13353
 20
-52.3703
 11
7.75975
 21
-52.4175
  0
LINE
  8
0
 10
7.75975
 20
-52.4175
 11
7.38301
 21
-52.4175
  0
LINE
  8
0
 10
-2.72083
 20
-52.9299
 11
-3.09459
 21
-52.8827
  0
LINE
  8
0
 10
-3.09459
 20
-52.8827
 11
-3.4595
 21
-52.789
  0
LINE
  8
0
 10
-3.4595
 20
-52.789
 11
-3.80978
 21
-52.6503
  0
LINE
  8
0
 10
-3.80978
 20
-52.6503
 11
-4.13994
 21
-52.4688
  0
LINE
  8
0
 10
-4.13994
 20
-52.4688
 11
-4.44472
 21
-52.2474
  0
LINE
  8
0
 10
-4.44472
 20
-52.2474
 11
-4.71936
 21
-51.9895
  0
LINE
  8
0
 10
-4.71936
 20
-51.9895
 11
-4.9595
 21
-51.6992
  0
LINE
  8
0
 10
-4.9595
 20
-51.6992
 11
-5.16138
 21
-51.3811
  0
LINE
  8
0
 10
-5.16138
 20
-51.3811
 11
-5.32178
 21
-51.0402
  0
LINE
  8
0
 10
-5.32178
 20
-51.0402
 11
-5.4382
 21
-50.6819
  0
LINE
  8
0
 10
-5.4382
 20
-50.6819
 11
-5.50879
 21
-50.3118
  0
LINE
  8
0
 10
-5.50879
 20
-50.3118
 11
-5.53246
 21
-49.9358
  0
LINE
  8
0
 10
-5.53246
 20
-49.9358
 11
-5.50879
 21
-49.5598
  0
LINE
  8
0
 10
-5.50879
 20
-49.5598
 11
-5.4382
 21
-49.1897
  0
LINE
  8
0
 10
-5.4382
 20
-49.1897
 11
-5.32178
 21
-48.8315
  0
LINE
  8
0
 10
-5.32178
 20
-48.8315
 11
-5.16138
 21
-48.4906
  0
LINE
  8
0
 10
-5.16138
 20
-48.4906
 11
-4.9595
 21
-48.1725
  0
LINE
  8
0
 10
-4.9595
 20
-48.1725
 11
-4.71936
 21
-47.8822
  0
LINE
  8
0
 10
-4.71936
 20
-47.8822
 11
-4.44472
 21
-47.6243
  0
LINE
  8
0
 10
-4.44472
 20
-47.6243
 11
-4.13994
 21
-47.4028
  0
LINE
  8
0
 10
-4.13994
 20
-47.4028
 11
-3.80978
 21
-47.2213
  0
LINE
  8
0
 10
-3.80978
 20
-47.2213
 11
-3.4595
 21
-47.0827
  0
LINE
  8
0
 10
-3.4595
 20
-47.0827
 11
-3.09459
 21
-46.989
  0
LINE
  8
0
 10
-3.09459
 20
-46.989
 11
-2.72083
 21
-46.9417
  0
LINE
  8
0
 10
-2.72083
 20
-46.9417
 11
-2.34409
 21
-46.9417
  0
LINE
  8
0
 10
-2.34409
 20
-46.9417
 11
-1.97031
 21
-46.989
  0
LINE
  8
0
 10
-1.97031
 20
-46.989
 11
-1.60539
 21
-47.0827
  0
LINE
  8
0
 10
-1.60539
 20
-47.0827
 11
-1.25511
 21
-47.2213
  0
LINE
  8
0
 10
-1.25511
 20
-47.2213
 11
-0.924973
 21
-47.4028
  0
LINE
  8
0
 10
-0.924973
 20
-47.4028
 11
-0.620178
 21
-47.6243
  0
LINE
  8
0
 10
-0.620178
 20
-47.6243
 11
-0.345551
 21
-47.8822
  0
LINE
  8
0
 10
-0.345551
 20
-47.8822
 11
-0.105392
 21
-48.1725
  0
LINE
  8
0
 10
-0.105392
 20
-48.1725
 11
0.0964508
 21
-48.4906
  0
LINE
  8
0
 10
0.0964508
 20
-48.4906
 11
0.256866
 21
-48.8315
  0
LINE
  8
0
 10
0.256866
 20
-48.8315
 11
0.373291
 21
-49.1897
  0
LINE
  8
0
 10
0.373291
 20
-49.1897
 11
0.443878
 21
-49.5598
  0
LINE
  8
0
 10
0.443878
 20
-49.5598
 11
0.467529
 21
-49.9358
  0
LINE
  8
0
 10
0.467529
 20
-49.9358
 11
0.443878
 21
-50.3118
  0
LINE
  8
0
 10
0.443878
 20
-50.3118
 11
0.373291
 21
-50.6819
  0
LINE
  8
0
 10
0.373291
 20
-50.6819
 11
0.256866
 21
-51.0402
  0
LINE
  8
0
 10
0.256866
 20
-51.0402
 11
0.0964508
 21
-51.3811
  0
LINE
  8
0
 10
0.0964508
 20
-51.3811
 11
-0.105392
 21
-51.6992
  0
LINE
  8
0
 10
-0.105392
 20
-51.6992
 11
-0.345551
 21
-51.9895
  0
LINE
  8
0
 10
-0.345551
 20
-51.9895
 11
-0.620178
 21
-52.2474
  0
LINE
  8
0
 10
-0.620178
 20
-52.2474
 11
-0.924973
 21
-52.4688
  0
LINE
  8
0
 10
-0.924973
 20
-52.4688
 11
-1.25511
 21
-52.6503
  0
LINE
  8
0
 10
-1.25511
 20
-52.6503
 11
-1.60539
 21
-52.789
  0
LINE
  8
0
 10
-1.60539
 20
-52.789
 11
-1.97031
 21
-52.8827
  0
LINE
  8
0
 10
-1.97031
 20
-52.8827
 11
-2.34409
 21
-52.9299
  0
LINE
  8
0
 10
-2.34409
 20
-52.9299
 11
-2.72083
 21
-52.9299
  0
LINE
  8
0
 10
-0.18837
 20
-62.9941
 11
-0.562134
 21
-62.9469
  0
LINE
  8
0
 10
-0.562134
 20
-62.9469
 11
-0.927048
 21
-62.8532
  0
LINE
  8
0
 10
-0.927048
 20
-62.8532
 11
-1.27733
 21
-62.7145
  0
LINE
  8
0
 10
-1.27733
 20
-62.7145
 11
-1.60747
 21
-62.533
  0
LINE
  8
0
 10
-1.60747
 20
-62.533
 11
-1.91226
 21
-62.3115
  0
LINE
  8
0
 10
-1.91226
 20
-62.3115
 11
-2.1869
 21
-62.0536
  0
LINE
  8
0
 10
-2.1869
 20
-62.0536
 11
-2.42705
 21
-61.7634
  0
LINE
  8
0
 10
-2.42705
 20
-61.7634
 11
-2.62891
 21
-61.4453
  0
LINE
  8
0
 10
-2.62891
 20
-61.4453
 11
-2.78932
 21
-61.1044
  0
LINE
  8
0
 10
-2.78932
 20
-61.1044
 11
-2.90575
 21
-60.7461
  0
LINE
  8
0
 10
-2.90575
 20
-60.7461
 11
-2.97633
 21
-60.376
  0
LINE
  8
0
 10
-2.97633
 20
-60.376
 11
-3
 21
-60
  0
LINE
  8
0
 10
-3
 20
-60
 11
-2.97633
 21
-59.624
  0
LINE
  8
0
 10
-2.97633
 20
-59.624
 11
-2.90575
 21
-59.2539
  0
LINE
  8
0
 10
-2.90575
 20
-59.2539
 11
-2.78932
 21
-58.8956
  0
LINE
  8
0
 10
-2.78932
 20
-58.8956
 11
-2.62891
 21
-58.5547
  0
LINE
  8
0
 10
-2.62891
 20
-58.5547
 11
-2.42705
 21
-58.2366
  0
LINE
  8
0
 10
-2.42705
 20
-58.2366
 11
-2.1869
 21
-57.9464
  0
LINE
  8
0
 10
-2.1869
 20
-57.9464
 11
-1.91226
 21
-57.6885
  0
LINE
  8
0
 10
-1.91226
 20
-57.6885
 11
-1.60747
 21
-57.467
  0
LINE
  8
0
 10
-1.60747
 20
-57.467
 11
-1.27733
 21
-57.2855
  0
LINE
  8
0
 10
-1.27733
 20
-57.2855
 11
-0.927048
 21
-57.1468
  0
LINE
  8
0
 10
-0.927048
 20
-57.1468
 11
-0.562134
 21
-57.0531
  0
LINE
  8
0
 10
-0.562134
 20
-57.0531
 11
-0.18837
 21
-57.0059
  0
LINE
  8
0
 10
-0.18837
 20
-57.0059
 11
0.18837
 21
-57.0059
  0
LINE
  8
0
 10
0.18837
 20
-57.0059
 11
0.562134
 21
-57.0531
  0
LINE
  8
0
 10
0.562134
 20
-57.0531
 11
0.927048
 21
-57.1468
  0
LINE
  8
0
 10
0.927048
 20
-57.1468
 11
1.27733
 21
-57.2855
  0
LINE
  8
0
 10
1.27733
 20
-57.2855
 11
1.60747
 21
-57.467
  0
LINE
  8
0
 10
1.60747
 20
-57.467
 11
1.91226
 21
-57.6885
  0
LINE
  8
0
 10
1.91226
 20
-57.6885
 11
2.1869
 21
-57.9464
  0
LINE
  8
0
 10
2.1869
 20
-57.9464
 11
2.42705
 21
-58.2366
  0
LINE
  8
0
 10
2.42705
 20
-58.2366
 11
2.62891
 21
-58.5547
  0
LINE
  8
0
 10
2.62891
 20
-58.5547
 11
2.78932
 21
-58.8956
  0
LINE
  8
0
 10
2.78932
 20
-58.8956
 11
2.90575
 21
-59.2539
  0
LINE
  8
0
 10
2.90575
 20
-59.2539
 11
2.97633
 21
-59.624
  0
LINE
  8
0
 10
2.97633
 20
-59.624
 11
3
 21
-60
  0
LINE
  8
0
 10
3
 20
-60
 11
2.97633
 21
-60.376
  0
LINE
  8
0
 10
2.97633
 20
-60.376
 11
2.90575
 21
-60.7461
  0
LINE
  8
0
 10
2.90575
 20
-60.7461
 11
2.78932
 21
-61.1044
  0
LINE
  8
0
 10
2.78932
 20
-61.1044
 11
2.62891
 21
-61.4453
  0
LINE
  8
0
 10
2.62891
 20
-61.4453
 11
2.42705
 21
-61.7634
  0
LINE
  8
0
 10
2.42705
 20
-61.7634
 11
2.1869
 21
-62.0536
  0
LINE
  8
0
 10
2.1869
 20
-62.0536
 11
1.91226
 21
-62.3115
  0
LINE
  8
0
 10
1.91226
 20
-62.3115
 11
1.60747
 21
-62.533
  0
LINE
  8
0
 10
1.60747
 20
-62.533
 11
1.27733
 21
-62.7145
  0
LINE
  8
0
 10
1.27733
 20
-62.7145
 11
0.927048
 21
-62.8532
  0
LINE
  8
0
 10
0.927048
 20
-62.8532
 11
0.562134
 21
-62.9469
  0
LINE
  8
0
 10
0.562134
 20
-62.9469
 11
0.18837
 21
-62.9941
  0
LINE
  8
0
 10
0.18837
 20
-62.9941
 11
-0.18837
 21
-62.9941
  0
ENDSEC
  0
SECTION
  2
OBJECTS
  0
DICTIONARY
  0
ENDSEC
  0
EOF
