<?xml version="1.0" standalone="no"?>
<!DOCTYPE svg PUBLIC "-//W3C//DTD SVG 1.1//EN" "http://www.w3.org/Graphics/SVG/1.1/DTD/svg11.dtd">
<svg width="134mm" height="134mm" viewBox="-67 -67 134 134" xmlns="http://www.w3.org/2000/svg" version="1.1">
<title>OpenSCAD Model</title>
<path d="
M 12.5545,65.8132 L 20.7041,63.7208 L 28.5272,60.6234 L 35.9004,56.57 L 42.7074,51.6244 L 48.8409,45.8647
 L 54.2041,39.3816 L 58.7125,32.2775 L 62.295,24.6643 L 64.8951,16.6622 L 66.4717,8.39732 L 67,-0
 L 66.4717,-8.39732 L 64.8951,-16.6622 L 62.295,-24.6643 L 58.7125,-32.2775 L 54.2041,-39.3816 L 48.8409,-45.8647
 L 42.7074,-51.6244 L 35.9004,-56.57 L 28.5272,-60.6234 L 20.7041,-63.7208 L 12.5545,-65.8132 L 4.20695,-66.8678
 L -4.20695,-66.8678 L -12.5545,-65.8132 L -20.7041,-63.7208 L -28.5272,-60.6234 L -35.9004,-56.57 L -42.7074,-51.6244
 L -48.8409,-45.8647 L -54.2041,-39.3816 L -58.7125,-32.2775 L -62.295,-24.6643 L -64.8951,-16.6622 L -66.4717,-8.39732
 L -67,-0 L -66.4717,8.39732 L -64.8951,16.6622 L -62.295,24.6643 L -58.7125,32.2775 L -54.2041,39.3816
 L -48.8409,45.8647 L -42.7074,51.6244 L -35.9004,56.57 L -28.5272,60.6234 L -20.7041,63.7208 L -12.5545,65.8132
 L -4.20695,66.8678 L 4.20695,66.8678 z
M -0.18837,-57.0059 L -0.562134,-57.0531 L -0.927048,-57.1468 L -1.27733,-57.2855 L -1.60747,-57.467 L -1.91226,-57.6885
 L -2.1869,-57.9464 L -2.42705,-58.2366 L -2.62891,-58.5547 L -2.78932,-58.8956 L -2.90575,-59.2539 L -2.97633,-59.624
 L -3,-60 L -2.97633,-60.376 L -2.90575,-60.7461 L -2.78932,-61.1044 L -2.62891,-61.4453 L -2.42705,-61.7634
 L -2.1869,-62.0536 L -1.91226,-62.3115 L -1.60747,-62.533 L -1.27733,-62.7145 L -0.927048,-62.8532 L -0.562134,-62.9469
 L -0.18837,-62.9941 L 0.18837,-62.9941 L 0.562134,-62.9469 L 0.927048,-62.8532 L 1.27733,-62.7145 L 1.60747,-62.533
 L 1.91226,-62.3115 L 2.1869,-62.0536 L 2.42705,-61.7634 L 2.62891,-61.4453 L 2.78932,-61.1044 L 2.90575,-60.7461
 L 2.97633,-60.376 L 3,-60 L 2.97633,-59.624 L 2.90575,-59.2539 L 2.78932,-58.8956 L 2.62891,-58.5547
 L 2.42705,-58.2366 L 2.1869,-57.9464 L 1.91226,-57.6885 L 1.60747,-57.467 L 1.27733,-57.2855 L 0.927048,-57.1468
 L 0.562134,-57.0531 L 0.18837,-57.0059 z
M -2.72083,-46.9417 L -3.09459,-46.989 L -3.4595,-47.0827 L -3.80978,-47.2213 L -4.13994,-47.4028 L -4.44472,-47.6243
 L -4.71936,-47.8822 L -4.9595,-48.1725 L -5.16138,-48.4906 L -5.32178,-48.8315 L -5.4382,-49.1897 L -5.50879,-49.5598
 L -5.53246,-49.9358 L -5.50879,-50.3118 L -5.4382,-50.6819 L -5.32178,-51.0402 L -5.16138,-51.3811 L -4.9595,-51.6992
 L -4.71936,-51.9895 L -4.44472,-52.2474 L -4.13994,-52.4688 L -3.80978,-52.6503 L -3.4595,-52.789 L -3.09459,-52.8827
 L -2.72083,-52.9299 L -2.34409,-52.9299 L -1.97031,-52.8827 L -1.60539,-52.789 L -1.25511,-52.6503 L -0.924973,-52.4688
 L -0.620178,-52.2474 L -0.345551,-51.9895 L -0.105392,-51.6992 L 0.0964508,-51.3811 L 0.256866,-51.0402 L 0.373291,-50.6819
 L 0.443878,-50.3118 L 0.467529,-49.9358 L 0.443878,-49.5598 L 0.373291,-49.1897 L 0.256866,-48.8315 L 0.0964508,-48.4906
 L -0.105392,-48.1725 L -0.345551,-47.8822 L -0.620178,-47.6243 L -0.924973,-47.4028 L -1.25511,-47.2213 L -1.60539,-47.0827
 L -1.97031,-46.989 L -2.34409,-46.9417 z
M 7.38301,-46.4293 L 7.00923,-46.4765 L 6.64433,-46.5702 L 6.29404,-46.7089 L 5.9639,-46.8904 L 5.6591,-47.1119
 L 5.38448,-47.3698 L 5.14433,-47.66 L 4.94246,-47.9781 L 4.78206,-48.319 L 4.66563,-48.6773 L 4.59503,-49.0474
 L 4.57138,-49.4234 L 4.59503,-49.7994 L 4.66563,-50.1695 L 4.78206,-50.5278 L 4.94246,-50.8687 L 5.14433,-51.1868
 L 5.38448,-51.4771 L 5.6591,-51.735 L 5.9639,-51.9564 L 6.29404,-52.1379 L 6.64433,-52.2766 L 7.00923,-52.3703
 L 7.38301,-52.4175 L 7.75975,-52.4175 L 8.13353,-52.3703 L 8.49843,-52.2766 L 8.84872,-52.1379 L 9.17886,-51.9564
 L 9.48366,-51.735 L 9.75829,-51.4771 L 9.99843,-51.1868 L 10.2003,-50.8687 L 10.3607,-50.5278 L 10.4771,-50.1695
 L 10.5477,-49.7994 L 10.5714,-49.4234 L 10.5477,-49.0474 L 10.4771,-48.6773 L 10.3607,-48.319 L 10.2003,-47.9781
 L 9.99843,-47.66 L 9.75829,-47.3698 L 9.48366,-47.1119 L 9.17886,-46.8904 L 8.84872,-46.7089 L 8.49843,-46.5702
 L 8.13353,-46.4765 L 7.75975,-46.4293 z
M -12.721,-45.4098 L -13.0948,-45.457 L -13.4597,-45.5507 L -13.81,-45.6894 L -14.1401,-45.8709 L -14.4449,-46.0923
 L -14.7195,-46.3502 L -14.9597,-46.6405 L -15.1615,-46.9586 L -15.3219,-47.2995 L -15.4384,-47.6578 L -15.509,-48.0278
 L -15.5326,-48.4039 L -15.509,-48.7798 L -15.4384,-49.1499 L -15.3219,-49.5082 L -15.1615,-49.8491 L -14.9597,-50.1672
 L -14.7195,-50.4575 L -14.4449,-50.7154 L -14.1401,-50.9368 L -13.81,-51.1183 L -13.4597,-51.257 L -13.0948,-51.3507
 L -12.721,-51.3979 L -12.3443,-51.3979 L -11.9705,-51.3507 L -11.6056,-51.257 L -11.2553,-51.1183 L -10.9251,-50.9368
 L -10.6203,-50.7154 L -10.3457,-50.4575 L -10.1056,-50.1672 L -9.9037,-49.8491 L -9.74329,-49.5082 L -9.62688,-49.1499
 L -9.55627,-48.7798 L -9.53262,-48.4039 L -9.55627,-48.0278 L -9.62688,-47.6578 L -9.74329,-47.2995 L -9.9037,-46.9586
 L -10.1056,-46.6405 L -10.3457,-46.3502 L -10.6203,-46.0923 L -10.9251,-45.8709 L -11.2553,-45.6894 L -11.6056,-45.5507
 L -11.9705,-45.457 L -12.3443,-45.4098 z
M 17.1769,-43.8935 L 16.8031,-43.9407 L 16.4382,-44.0344 L 16.0879,-44.1731 L 15.7578,-44.3546 L 15.453,-44.5761
 L 15.1783,-44.834 L 14.9382,-45.1243 L 14.7363,-45.4423 L 14.5759,-45.7832 L 14.4595,-46.1415 L 14.3889,-46.5116
 L 14.3652,-46.8876 L 14.3889,-47.2636 L 14.4595,-47.6337 L 14.5759,-47.992 L 14.7363,-48.3329 L 14.9382,-48.651
 L 15.1783,-48.9412 L 15.453,-49.1991 L 15.7578,-49.4206 L 16.0879,-49.6021 L 16.4382,-49.7408 L 16.8031,-49.8345
 L 17.1769,-49.8817 L 17.5536,-49.8817 L 17.9274,-49.8345 L 18.2923,-49.7408 L 18.6426,-49.6021 L 18.9727,-49.4206
 L 19.2775,-49.1991 L 19.5522,-48.9412 L 19.7923,-48.651 L 19.9942,-48.3329 L 20.1546,-47.992 L 20.271,-47.6337
 L 20.3416,-47.2636 L 20.3652,-46.8876 L 20.3416,-46.5116 L 20.271,-46.1415 L 20.1546,-45.7832 L 19.9942,-45.4423
 L 19.7923,-45.1243 L 19.5522,-44.834 L 19.2775,-44.5761 L 18.9727,-44.3546 L 18.6426,-44.1731 L 18.2923,-44.0344
 L 17.9274,-43.9407 L 17.5536,-43.8935 z
M -22.2081,-41.8961 L -22.5818,-41.9434 L -22.9467,-42.037 L -23.297,-42.1757 L -23.6272,-42.3572 L -23.932,-42.5787
 L -24.2066,-42.8366 L -24.4467,-43.1269 L -24.6486,-43.445 L -24.809,-43.7858 L -24.9254,-44.1441 L -24.996,-44.5142
 L -25.0197,-44.8902 L -24.996,-45.2662 L -24.9254,-45.6363 L -24.809,-45.9946 L -24.6486,-46.3355 L -24.4467,-46.6536
 L -24.2066,-46.9439 L -23.932,-47.2018 L -23.6272,-47.4232 L -23.297,-47.6047 L -22.9467,-47.7434 L -22.5818,-47.8371
 L -22.2081,-47.8843 L -21.8313,-47.8843 L -21.4576,-47.8371 L -21.0927,-47.7434 L -20.7424,-47.6047 L -20.4122,-47.4232
 L -20.1074,-47.2018 L -19.8328,-46.9439 L -19.5927,-46.6536 L -19.3908,-46.3355 L -19.2304,-45.9946 L -19.114,-45.6363
 L -19.0434,-45.2662 L -19.0197,-44.8902 L -19.0434,-44.5142 L -19.114,-44.1441 L -19.2304,-43.7858 L -19.3908,-43.445
 L -19.5927,-43.1269 L -19.8328,-42.8366 L -20.1074,-42.5787 L -20.4122,-42.3572 L -20.7424,-42.1757 L -21.0927,-42.037
 L -21.4576,-41.9434 L -21.8313,-41.8961 z
M 26.2598,-39.4381 L 25.886,-39.4854 L 25.5211,-39.579 L 25.1709,-39.7177 L 24.8407,-39.8992 L 24.5359,-40.1207
 L 24.2613,-40.3786 L 24.0211,-40.6689 L 23.8193,-40.987 L 23.6589,-41.3278 L 23.5424,-41.6861 L 23.4718,-42.0562
 L 23.4482,-42.4322 L 23.4718,-42.8082 L 23.5424,-43.1783 L 23.6589,-43.5366 L 23.8193,-43.8775 L 24.0211,-44.1956
 L 24.2613,-44.4859 L 24.5359,-44.7437 L 24.8407,-44.9652 L 25.1709,-45.1467 L 25.5211,-45.2854 L 25.886,-45.3791
 L 26.2598,-45.4263 L 26.6366,-45.4263 L 27.0103,-45.3791 L 27.3752,-45.2854 L 27.7255,-45.1467 L 28.0557,-44.9652
 L 28.3605,-44.7437 L 28.6351,-44.4859 L 28.8752,-44.1956 L 29.0771,-43.8775 L 29.2375,-43.5366 L 29.3539,-43.1783
 L 29.4245,-42.8082 L 29.4482,-42.4322 L 29.4245,-42.0562 L 29.3539,-41.6861 L 29.2375,-41.3278 L 29.0771,-40.987
 L 28.8752,-40.6689 L 28.6351,-40.3786 L 28.3605,-40.1207 L 28.0557,-39.8992 L 27.7255,-39.7177 L 27.3752,-39.579
 L 27.0103,-39.4854 L 26.6366,-39.4381 z
M -30.7937,-36.5447 L -31.1674,-36.5919 L -31.5323,-36.6856 L -31.8826,-36.8243 L -32.2128,-37.0058 L -32.5176,-37.2272
 L -32.7922,-37.4851 L -33.0323,-37.7754 L -33.2342,-38.0935 L -33.3946,-38.4344 L -33.511,-38.7927 L -33.5816,-39.1628
 L -33.6053,-39.5388 L -33.5816,-39.9148 L -33.511,-40.2849 L -33.3946,-40.6432 L -33.2342,-40.984 L -33.0323,-41.3021
 L -32.7922,-41.5924 L -32.5176,-41.8503 L -32.2128,-42.0718 L -31.8826,-42.2533 L -31.5323,-42.392 L -31.1674,-42.4856
 L -30.7937,-42.5329 L -30.4169,-42.5329 L -30.0432,-42.4856 L -29.6782,-42.392 L -29.328,-42.2533 L -28.9978,-42.0718
 L -28.693,-41.8503 L -28.4184,-41.5924 L -28.1782,-41.3021 L -27.9764,-40.984 L -27.816,-40.6432 L -27.6995,-40.2849
 L -27.629,-39.9148 L -27.6053,-39.5388 L -27.629,-39.1628 L -27.6995,-38.7927 L -27.816,-38.4344 L -27.9764,-38.0935
 L -28.1782,-37.7754 L -28.4184,-37.4851 L -28.693,-37.2272 L -28.9978,-37.0058 L -29.328,-36.8243 L -29.6782,-36.6856
 L -30.0432,-36.5919 L -30.4169,-36.5447 z
M 34.26,-33.2456 L 33.8862,-33.2928 L 33.5213,-33.3865 L 33.171,-33.5251 L 32.8409,-33.7066 L 32.5361,-33.9281
 L 32.2614,-34.186 L 32.0213,-34.4763 L 31.8194,-34.7944 L 31.659,-35.1353 L 31.5426,-35.4936 L 31.472,-35.8636
 L 31.4483,-36.2396 L 31.472,-36.6156 L 31.5426,-36.9857 L 31.659,-37.344 L 31.8194,-37.6849 L 32.0213,-38.003
 L 32.2614,-38.2933 L 32.5361,-38.5512 L 32.8409,-38.7726 L 33.171,-38.9541 L 33.5213,-39.0928 L 33.8862,-39.1865
 L 34.26,-39.2337 L 34.6367,-39.2337 L 35.0105,-39.1865 L 35.3754,-39.0928 L 35.7257,-38.9541 L 36.0558,-38.7726
 L 36.3606,-38.5512 L 36.6352,-38.2933 L 36.8754,-38.003 L 37.0773,-37.6849 L 37.2377,-37.344 L 37.3541,-36.9857
 L 37.4247,-36.6156 L 37.4483,-36.2396 L 37.4247,-35.8636 L 37.3541,-35.4936 L 37.2377,-35.1353 L 37.0773,-34.7944
 L 36.8754,-34.4763 L 36.6352,-34.186 L 36.3606,-33.9281 L 36.0558,-33.7066 L 35.7257,-33.5251 L 35.3754,-33.3865
 L 35.0105,-33.2928 L 34.6367,-33.2456 z
M -38.1263,-29.5745 L -38.5,-29.6217 L -38.8649,-29.7155 L -39.2152,-29.8541 L -39.5454,-30.0356 L -39.8502,-30.2571
 L -40.1248,-30.515 L -40.3649,-30.8053 L -40.5668,-31.1234 L -40.7272,-31.4642 L -40.8436,-31.8225 L -40.9142,-32.1926
 L -40.9379,-32.5686 L -40.9142,-32.9446 L -40.8436,-33.3147 L -40.7272,-33.673 L -40.5668,-34.0139 L -40.3649,-34.332
 L -40.1248,-34.6223 L -39.8502,-34.8802 L -39.5454,-35.1016 L -39.2152,-35.2831 L -38.8649,-35.4218 L -38.5,-35.5155
 L -38.1263,-35.5627 L -37.7495,-35.5627 L -37.3758,-35.5155 L -37.0108,-35.4218 L -36.6606,-35.2831 L -36.3304,-35.1016
 L -36.0256,-34.8802 L -35.751,-34.6223 L -35.5108,-34.332 L -35.309,-34.0139 L -35.1486,-33.673 L -35.0322,-33.3147
 L -34.9616,-32.9446 L -34.9379,-32.5686 L -34.9616,-32.1926 L -35.0322,-31.8225 L -35.1486,-31.4642 L -35.309,-31.1234
 L -35.5108,-30.8053 L -35.751,-30.515 L -36.0256,-30.2571 L -36.3304,-30.0356 L -36.6606,-29.8541 L -37.0108,-29.7155
 L -37.3758,-29.6217 L -37.7495,-29.5745 z
M -2.04068,32.4359 L -6.08989,31.9243 L -10.043,30.9093 L -13.8378,29.4069 L -17.4144,27.4406 L -20.7163,25.0417
 L -23.6915,22.2478 L -26.293,19.103 L -28.48,15.657 L -30.2177,11.964 L -31.4789,8.08241 L -32.2437,4.07332
 L -32.5,-0 L -32.2437,-4.07332 L -31.4789,-8.08241 L -30.2177,-11.964 L -28.48,-15.657 L -26.293,-19.103
 L -23.6915,-22.2478 L -20.7163,-25.0417 L -17.4144,-27.4406 L -13.8378,-29.4069 L -10.043,-30.9093 L -6.08989,-31.9243
 L -2.04068,-32.4359 L 2.04068,-32.4359 L 6.08989,-31.9243 L 10.043,-30.9093 L 13.8378,-29.4069 L 17.4144,-27.4406
 L 20.7163,-25.0417 L 23.6915,-22.2478 L 26.293,-19.103 L 28.48,-15.657 L 30.2177,-11.964 L 31.4789,-8.08241
 L 32.2437,-4.07332 L 32.5,-0 L 32.2437,4.07332 L 31.4789,8.08241 L 30.2177,11.964 L 28.48,15.657
 L 26.293,19.103 L 23.6915,22.2478 L 20.7163,25.0417 L 17.4144,27.4406 L 13.8378,29.4069 L 10.043,30.9093
 L 6.08989,31.9243 L 2.04068,32.4359 z
M -0.562134,24.9469 L -0.927048,24.8532 L -1.27733,24.7145 L -1.60747,24.533 L -1.91226,24.3115 L -2.1869,24.0536
 L -2.42705,23.7634 L -2.62891,23.4453 L -2.78932,23.1044 L -2.90575,22.7461 L -2.97633,22.376 L -3,22
 L -2.97633,21.624 L -2.90575,21.2539 L -2.78932,20.8956 L -2.62891,20.5547 L -2.42705,20.2366 L -2.1869,19.9464
 L -1.91226,19.6884 L -1.60747,19.467 L -1.27733,19.2855 L -0.927048,19.1468 L -0.562134,19.0531 L -0.18837,19.0059
 L 0.18837,19.0059 L 0.562134,19.0531 L 0.927048,19.1468 L 1.27733,19.2855 L 1.60747,19.467 L 1.91226,19.6884
 L 2.1869,19.9464 L 2.42705,20.2366 L 2.62891,20.5547 L 2.78932,20.8956 L 2.90575,21.2539 L 2.97633,21.624
 L 3,22 L 2.97633,22.376 L 2.90575,22.7461 L 2.78932,23.1044 L 2.62891,23.4453 L 2.42705,23.7634
 L 2.1869,24.0536 L 1.91226,24.3115 L 1.60747,24.533 L 1.27733,24.7145 L 0.927048,24.8532 L 0.562134,24.9469
 L 0.532013,24.9507 L 1.56975,24.9507 L 4.68452,24.5572 L 7.72542,23.7764 L 10.6445,22.6207 L 13.3957,21.1082
 L 15.9356,19.2628 L 18.2242,17.1137 L 20.2254,14.6946 L 21.9077,12.0438 L 23.2444,9.20311 L 24.2146,6.21724
 L 24.8029,3.13332 L 25,-0 L 24.8029,-3.13332 L 24.2146,-6.21724 L 23.2444,-9.20311 L 21.9077,-12.0438
 L 20.2254,-14.6946 L 18.2242,-17.1137 L 15.9356,-19.2628 L 13.3957,-21.1082 L 10.6445,-22.6207 L 7.72542,-23.7764
 L 4.68452,-24.5572 L 1.56975,-24.9507 L 0.532013,-24.9507 L 0.562134,-24.9469 L 0.927048,-24.8532 L 1.27733,-24.7145
 L 1.60747,-24.533 L 1.91226,-24.3115 L 2.1869,-24.0536 L 2.42705,-23.7634 L 2.62891,-23.4453 L 2.78932,-23.1044
 L 2.90575,-22.7461 L 2.97633,-22.376 L 3,-22 L 2.97633,-21.624 L 2.90575,-21.2539 L 2.78932,-20.8956
 L 2.62891,-20.5547 L 2.42705,-20.2366 L 2.1869,-19.9464 L 1.91226,-19.6884 L 1.60747,-19.467 L 1.27733,-19.2855
 L 0.927048,-19.1468 L 0.562134,-19.0531 L 0.18837,-19.0059 L -0.18837,-19.0059 L -0.562134,-19.0531 L -0.927048,-19.1468
 L -1.27733,-19.2855 L -1.60747,-19.467 L -1.91226,-19.6884 L -2.1869,-19.9464 L -2.42705,-20.2366 L -2.62891,-20.5547
 L -2.78932,-20.8956 L -2.90575,-21.2539 L -2.97633,-21.624 L -3,-22 L -2.97633,-22.376 L -2.90575,-22.7461
 L -2.78932,-23.1044 L -2.62891,-23.4453 L -2.42705,-23.7634 L -2.1869,-24.0536 L -1.91226,-24.3115 L -1.60747,-24.533
 L -1.27733,-24.7145 L -0.927048,-24.8532 L -0.562134,-24.9469 L -0.532013,-24.9507 L -1.56975,-24.9507 L -4.68452,-24.5572
 L -7.72542,-23.7764 L -10.6445,-22.6207 L -13.3957,-21.1082 L -15.9356,-19.2628 L -18.2242,-17.1137 L -20.2254,-14.6946
 L -21.9077,-12.0438 L -23.2444,-9.20311 L -24.2146,-6.21724 L -24.8029,-3.13332 L -25,-0 L -24.8029,3.13332
 L -24.2146,6.21724 L -23.2444,9.20311 L -21.9077,12.0438 L -20.2254,14.6946 L -18.2242,17.1137 L -15.9356,19.2628
 L -13.3957,21.1082 L -10.6445,22.6207 L -7.72542,23.7764 L -4.68452,24.5572 L -1.56975,24.9507 L -0.532013,24.9507
 z
M 13.4133,-12.2517 L 11.8265,-15 L 13.4133,-17.7483 L 16.5867,-17.7483 L 18.1735,-15 L 16.5867,-12.2517
 z
M -15.113,-13.2036 L -15.3373,-13.2319 L -15.5562,-13.2881 L -15.7664,-13.3713 L -15.9645,-13.4802 L -16.1474,-13.6131
 L -16.3121,-13.7678 L -16.4562,-13.942 L -16.5773,-14.1328 L -16.6736,-14.3374 L -16.7434,-14.5524 L -16.7858,-14.7744
 L -16.8,-15 L -16.7858,-15.2256 L -16.7434,-15.4476 L -16.6736,-15.6626 L -16.5773,-15.8671 L -16.4562,-16.058
 L -16.3121,-16.2322 L -16.1474,-16.3869 L -15.9645,-16.5198 L -15.7664,-16.6287 L -15.5562,-16.7119 L -15.3373,-16.7681
 L -15.113,-16.7964 L -14.887,-16.7964 L -14.6627,-16.7681 L -14.4438,-16.7119 L -14.2336,-16.6287 L -14.0355,-16.5198
 L -13.8526,-16.3869 L -13.6879,-16.2322 L -13.5438,-16.058 L -13.4226,-15.8671 L -13.3264,-15.6626 L -13.2565,-15.4476
 L -13.2142,-15.2256 L -13.2,-15 L -13.2142,-14.7744 L -13.2565,-14.5524 L -13.3264,-14.3374 L -13.4226,-14.1328
 L -13.5438,-13.942 L -13.6879,-13.7678 L -13.8526,-13.6131 L -14.0355,-13.4802 L -14.2336,-13.3713 L -14.4438,-13.2881
 L -14.6627,-13.2319 L -14.887,-13.2036 z
M -1.00464,15.9684 L -2.99809,15.7166 L -4.94426,15.2169 L -6.81245,14.4772 L -8.57323,13.5092 L -10.1988,12.3282
 L -11.6635,10.9527 L -12.9443,9.40456 L -14.0209,7.70805 L -14.8764,5.88998 L -15.4973,3.97903 L -15.8738,2.00533
 L -16,-0 L -15.8738,-2.00533 L -15.4973,-3.97903 L -14.8764,-5.88998 L -14.0209,-7.70805 L -12.9443,-9.40456
 L -11.6635,-10.9527 L -10.1988,-12.3282 L -8.57323,-13.5092 L -6.81245,-14.4772 L -4.94426,-15.2169 L -2.99809,-15.7166
 L -1.00464,-15.9684 L 1.00464,-15.9684 L 2.99809,-15.7166 L 4.94426,-15.2169 L 6.81245,-14.4772 L 8.57323,-13.5092
 L 10.1988,-12.3282 L 11.6635,-10.9527 L 12.9443,-9.40456 L 14.0209,-7.70805 L 14.8764,-5.88998 L 15.4973,-3.97903
 L 15.8738,-2.00533 L 16,-0 L 15.8738,2.00533 L 15.4973,3.97903 L 14.8764,5.88998 L 14.0209,7.70805
 L 12.9443,9.40456 L 11.6635,10.9527 L 10.1988,12.3282 L 8.57323,13.5092 L 6.81245,14.4772 L 4.94426,15.2169
 L 2.99809,15.7166 L 1.00464,15.9684 z
M 2.34225,12.2786 L 3.8627,11.8882 L 5.32224,11.3103 L 6.69783,10.5541 L 7.96779,9.63141 L 9.11211,8.55682
 L 10.1127,7.34731 L 10.9538,6.02191 L 11.6222,4.60155 L 12.1073,3.10861 L 12.4014,1.56665 L 12.5,-0
 L 12.4014,-1.56665 L 12.1073,-3.10861 L 11.6222,-4.60155 L 10.9538,-6.02191 L 10.1127,-7.34731 L 9.11211,-8.55682
 L 7.96779,-9.63141 L 6.69783,-10.5541 L 5.32224,-11.3103 L 3.8627,-11.8882 L 2.34225,-12.2786 L 0.784866,-12.4753
 L -0.784866,-12.4753 L -2.34225,-12.2786 L -3.8627,-11.8882 L -5.32224,-11.3103 L -6.69783,-10.5541 L -7.96779,-9.63141
 L -9.11211,-8.55682 L -10.1127,-7.34731 L -10.9538,-6.02191 L -11.6222,-4.60155 L -12.1073,-3.10861 L -12.4014,-1.56665
 L -12.5,-0 L -12.4014,1.56665 L -12.1073,3.10861 L -11.6222,4.60155 L -10.9538,6.02191 L -10.1127,7.34731
 L -9.11211,8.55682 L -7.96779,9.63141 L -6.69783,10.5541 L -5.32224,11.3103 L -3.8627,11.8882 L -2.34225,12.2786
 L -0.784866,12.4753 L 0.784866,12.4753 z
M -22.1884,2.99408 L -22.5621,2.94685 L -22.927,2.85316 L -23.2773,2.71448 L -23.6075,2.53297 L -23.9123,2.31154
 L -24.1869,2.05363 L -24.427,1.76335 L -24.6289,1.44525 L -24.7893,1.10437 L -24.9057,0.746063 L -24.9763,0.375992
 L -25,-0 L -24.9763,-0.375992 L -24.9057,-0.746063 L -24.7893,-1.10437 L -24.6289,-1.44525 L -24.427,-1.76335
 L -24.1869,-2.05363 L -23.9123,-2.31154 L -23.6075,-2.53297 L -23.2773,-2.71448 L -22.927,-2.85316 L -22.5621,-2.94685
 L -22.1884,-2.99408 L -21.8116,-2.99408 L -21.4379,-2.94685 L -21.0729,-2.85316 L -20.7227,-2.71448 L -20.3925,-2.53297
 L -20.0877,-2.31154 L -19.8131,-2.05363 L -19.5729,-1.76335 L -19.3711,-1.44525 L -19.2107,-1.10437 L -19.0942,-0.746063
 L -19.0237,-0.375992 L -19,-0 L -19.0237,0.375992 L -19.0942,0.746063 L -19.2107,1.10437 L -19.3711,1.44525
 L -19.5729,1.76335 L -19.8131,2.05363 L -20.0877,2.31154 L -20.3925,2.53297 L -20.7227,2.71448 L -21.0729,2.85316
 L -21.4379,2.94685 L -21.8116,2.99408 z
M 21.8116,2.99408 L 21.4379,2.94685 L 21.0729,2.85316 L 20.7227,2.71448 L 20.3925,2.53297 L 20.0877,2.31154
 L 19.8131,2.05363 L 19.5729,1.76335 L 19.3711,1.44525 L 19.2107,1.10437 L 19.0942,0.746063 L 19.0237,0.375992
 L 19,-0 L 19.0237,-0.375992 L 19.0942,-0.746063 L 19.2107,-1.10437 L 19.3711,-1.44525 L 19.5729,-1.76335
 L 19.8131,-2.05363 L 20.0877,-2.31154 L 20.3925,-2.53297 L 20.7227,-2.71448 L 21.0729,-2.85316 L 21.4379,-2.94685
 L 21.8116,-2.99408 L 22.1884,-2.99408 L 22.5621,-2.94685 L 22.927,-2.85316 L 23.2773,-2.71448 L 23.6075,-2.53297
 L 23.9123,-2.31154 L 24.1869,-2.05363 L 24.427,-1.76335 L 24.6289,-1.44525 L 24.7893,-1.10437 L 24.9057,-0.746063
 L 24.9763,-0.375992 L 25,-0 L 24.9763,0.375992 L 24.9057,0.746063 L 24.7893,1.10437 L 24.6289,1.44525
 L 24.427,1.76335 L 24.1869,2.05363 L 23.9123,2.31154 L 23.6075,2.53297 L 23.2773,2.71448 L 22.927,2.85316
 L 22.5621,2.94685 L 22.1884,2.99408 z
M -16.5867,17.7483 L -18.1735,15 L -16.5867,12.2517 L -13.4133,12.2517 L -11.8265,15 L -13.4133,17.7483
 z
M 14.887,16.7964 L 14.6627,16.7681 L 14.4438,16.7119 L 14.2336,16.6287 L 14.0355,16.5198 L 13.8526,16.3869
 L 13.6879,16.2322 L 13.5438,16.058 L 13.4226,15.8671 L 13.3264,15.6626 L 13.2565,15.4476 L 13.2142,15.2256
 L 13.2,15 L 13.2142,14.7744 L 13.2565,14.5524 L 13.3264,14.3374 L 13.4226,14.1328 L 13.5438,13.942
 L 13.6879,13.7678 L 13.8526,13.6131 L 14.0355,13.4802 L 14.2336,13.3713 L 14.4438,13.2881 L 14.6627,13.2319
 L 14.887,13.2036 L 15.113,13.2036 L 15.3373,13.2319 L 15.5562,13.2881 L 15.7664,13.3713 L 15.9645,13.4802
 L 16.1474,13.6131 L 16.3121,13.7678 L 16.4562,13.942 L 16.5773,14.1328 L 16.6736,14.3374 L 16.7434,14.5524
 L 16.7858,14.7744 L 16.8,15 L 16.7858,15.2256 L 16.7434,15.4476 L 16.6736,15.6626 L 16.5773,15.8671
 L 16.4562,16.058 L 16.3121,16.2322 L 16.1474,16.3869 L 15.9645,16.5198 L 15.7664,16.6287 L 15.5562,16.7119
 L 15.3373,16.7681 L 15.113,16.7964 z
M 40.8498,-25.5693 L 40.476,-25.6165 L 40.1111,-25.7102 L 39.7608,-25.8489 L 39.4307,-26.0304 L 39.1259,-26.2519
 L 38.8513,-26.5098 L 38.6111,-26.8 L 38.4092,-27.1181 L 38.2488,-27.459 L 38.1324,-27.8173 L 38.0618,-28.1874
 L 38.0382,-28.5634 L 38.0618,-28.9394 L 38.1324,-29.3095 L 38.2488,-29.6678 L 38.4092,-30.0087 L 38.6111,-30.3268
 L 38.8513,-30.6171 L 39.1259,-30.8749 L 39.4307,-31.0964 L 39.7608,-31.2779 L 40.1111,-31.4166 L 40.476,-31.5103
 L 40.8498,-31.5575 L 41.2265,-31.5575 L 41.6003,-31.5103 L 41.9652,-31.4166 L 42.3155,-31.2779 L 42.6456,-31.0964
 L 42.9504,-30.8749 L 43.2251,-30.6171 L 43.4652,-30.3268 L 43.6671,-30.0087 L 43.8275,-29.6678 L 43.9439,-29.3095
 L 44.0145,-28.9394 L 44.0382,-28.5634 L 44.0145,-28.1874 L 43.9439,-27.8173 L 43.8275,-27.459 L 43.6671,-27.1181
 L 43.4652,-26.8 L 43.2251,-26.5098 L 42.9504,-26.2519 L 42.6456,-26.0304 L 42.3155,-25.8489 L 41.9652,-25.7102
 L 41.6003,-25.6165 L 41.2265,-25.5693 z
M -43.9057,-21.271 L -44.2795,-21.3182 L -44.6444,-21.4119 L -44.9947,-21.5506 L -45.3248,-21.7321 L -45.6296,-21.9536
 L -45.9042,-22.2115 L -46.1444,-22.5017 L -46.3463,-22.8198 L -46.5067,-23.1607 L -46.6231,-23.519 L -46.6937,-23.8891
 L -46.7173,-24.2651 L -46.6937,-24.6411 L -46.6231,-25.0112 L -46.5067,-25.3695 L -46.3463,-25.7104 L -46.1444,-26.0284
 L -45.9042,-26.3187 L -45.6296,-26.5766 L -45.3248,-26.7981 L -44.9947,-26.9796 L -44.6444,-27.1183 L -44.2795,-27.212
 L -43.9057,-27.2592 L -43.5289,-27.2592 L -43.1552,-27.212 L -42.7903,-27.1183 L -42.44,-26.9796 L -42.1098,-26.7981
 L -41.8051,-26.5766 L -41.5304,-26.3187 L -41.2903,-26.0284 L -41.0884,-25.7104 L -40.928,-25.3695 L -40.8116,-25.0112
 L -40.741,-24.6411 L -40.7173,-24.2651 L -40.741,-23.8891 L -40.8116,-23.519 L -40.928,-23.1607 L -41.0884,-22.8198
 L -41.2903,-22.5017 L -41.5304,-22.2115 L -41.8051,-21.9536 L -42.1098,-21.7321 L -42.44,-21.5506 L -42.7903,-21.4119
 L -43.1552,-21.3182 L -43.5289,-21.271 z
M 45.7595,-16.7237 L 45.3857,-16.7709 L 45.0208,-16.8646 L 44.6705,-17.0033 L 44.3404,-17.1848 L 44.0356,-17.4062
 L 43.761,-17.6641 L 43.5208,-17.9544 L 43.319,-18.2725 L 43.1586,-18.6134 L 43.0421,-18.9717 L 42.9715,-19.3418
 L 42.9479,-19.7178 L 42.9715,-20.0938 L 43.0421,-20.4639 L 43.1586,-20.8222 L 43.319,-21.163 L 43.5208,-21.4811
 L 43.761,-21.7714 L 44.0356,-22.0293 L 44.3404,-22.2508 L 44.6705,-22.4323 L 45.0208,-22.571 L 45.3857,-22.6646
 L 45.7595,-22.7119 L 46.1363,-22.7119 L 46.51,-22.6646 L 46.8749,-22.571 L 47.2252,-22.4323 L 47.5554,-22.2508
 L 47.8602,-22.0293 L 48.1348,-21.7714 L 48.3749,-21.4811 L 48.5768,-21.163 L 48.7372,-20.8222 L 48.8536,-20.4639
 L 48.9242,-20.0938 L 48.9479,-19.7178 L 48.9242,-19.3418 L 48.8536,-18.9717 L 48.7372,-18.6134 L 48.5768,-18.2725
 L 48.3749,-17.9544 L 48.1348,-17.6641 L 47.8602,-17.4062 L 47.5554,-17.1848 L 47.2252,-17.0033 L 46.8749,-16.8646
 L 46.51,-16.7709 L 46.1363,-16.7237 z
M -47.8953,-11.9741 L -48.2691,-12.0213 L -48.634,-12.115 L -48.9843,-12.2537 L -49.3144,-12.4352 L -49.6192,-12.6566
 L -49.8939,-12.9145 L -50.134,-13.2048 L -50.3359,-13.5229 L -50.4963,-13.8638 L -50.6127,-14.2221 L -50.6833,-14.5921
 L -50.707,-14.9682 L -50.6833,-15.3441 L -50.6127,-15.7142 L -50.4963,-16.0725 L -50.3359,-16.4134 L -50.134,-16.7315
 L -49.8939,-17.0218 L -49.6192,-17.2797 L -49.3144,-17.5011 L -48.9843,-17.6826 L -48.634,-17.8213 L -48.2691,-17.915
 L -47.8953,-17.9622 L -47.5186,-17.9622 L -47.1448,-17.915 L -46.7799,-17.8213 L -46.4296,-17.6826 L -46.0995,-17.5011
 L -45.7947,-17.2797 L -45.5201,-17.0218 L -45.2799,-16.7315 L -45.078,-16.4134 L -44.9176,-16.0725 L -44.8012,-15.7142
 L -44.7306,-15.3441 L -44.707,-14.9682 L -44.7306,-14.5921 L -44.8012,-14.2221 L -44.9176,-13.8638 L -45.078,-13.5229
 L -45.2799,-13.2048 L -45.5201,-12.9145 L -45.7947,-12.6566 L -46.0995,-12.4352 L -46.4296,-12.2537 L -46.7799,-12.115
 L -47.1448,-12.0213 L -47.5186,-11.9741 z
M 48.7881,-7.07083 L 48.4144,-7.11806 L 48.0494,-7.21175 L 47.6992,-7.35043 L 47.369,-7.53194 L 47.0642,-7.75337
 L 46.7896,-8.01128 L 46.5494,-8.30156 L 46.3476,-8.61966 L 46.1872,-8.96054 L 46.0707,-9.31885 L 46.0002,-9.68892
 L 45.9765,-10.0649 L 46.0002,-10.4409 L 46.0707,-10.811 L 46.1872,-11.1693 L 46.3476,-11.5102 L 46.5494,-11.8283
 L 46.7896,-12.1186 L 47.0642,-12.3765 L 47.369,-12.5979 L 47.6992,-12.7794 L 48.0494,-12.9181 L 48.4144,-13.0118
 L 48.7881,-13.059 L 49.1649,-13.059 L 49.5386,-13.0118 L 49.9035,-12.9181 L 50.2538,-12.7794 L 50.584,-12.5979
 L 50.8888,-12.3765 L 51.1634,-12.1186 L 51.4035,-11.8283 L 51.6054,-11.5102 L 51.7658,-11.1693 L 51.8822,-10.811
 L 51.9528,-10.4409 L 51.9765,-10.0649 L 51.9528,-9.68892 L 51.8822,-9.31885 L 51.7658,-8.96054 L 51.6054,-8.61966
 L 51.4035,-8.30156 L 51.1634,-8.01128 L 50.8888,-7.75337 L 50.584,-7.53194 L 50.2538,-7.35043 L 49.9035,-7.21175
 L 49.5386,-7.11806 L 49.1649,-7.07083 z
M -49.9318,-2.06433 L -50.3056,-2.11154 L -50.6705,-2.20525 L -51.0208,-2.34393 L -51.3509,-2.52542 L -51.6557,-2.74687
 L -51.9304,-3.00476 L -52.1705,-3.29506 L -52.3724,-3.61314 L -52.5328,-3.95404 L -52.6492,-4.31233 L -52.7198,-4.6824
 L -52.7435,-5.05841 L -52.7198,-5.4344 L -52.6492,-5.80447 L -52.5328,-6.16278 L -52.3724,-6.50366 L -52.1705,-6.82176
 L -51.9304,-7.11205 L -51.6557,-7.36995 L -51.3509,-7.59138 L -51.0208,-7.77289 L -50.6705,-7.91158 L -50.3056,-8.00526
 L -49.9318,-8.05249 L -49.5551,-8.05249 L -49.1813,-8.00526 L -48.8164,-7.91158 L -48.4661,-7.77289 L -48.136,-7.59138
 L -47.8312,-7.36995 L -47.5565,-7.11205 L -47.3164,-6.82176 L -47.1145,-6.50366 L -46.9541,-6.16278 L -46.8377,-5.80447
 L -46.7671,-5.4344 L -46.7435,-5.05841 L -46.7671,-4.6824 L -46.8377,-4.31233 L -46.9541,-3.95404 L -47.1145,-3.61314
 L -47.3164,-3.29506 L -47.5565,-3.00476 L -47.8312,-2.74687 L -48.136,-2.52542 L -48.4661,-2.34393 L -48.8164,-2.20525
 L -49.1813,-2.11154 L -49.5551,-2.06433 z
M 49.8116,2.99408 L 49.4379,2.94685 L 49.0729,2.85316 L 48.7227,2.71448 L 48.3925,2.53297 L 48.0877,2.31154
 L 47.8131,2.05363 L 47.5729,1.76335 L 47.3711,1.44525 L 47.2107,1.10437 L 47.0942,0.746063 L 47.0237,0.375992
 L 47,-0 L 47.0237,-0.375992 L 47.0942,-0.746063 L 47.2107,-1.10437 L 47.3711,-1.44525 L 47.5729,-1.76335
 L 47.8131,-2.05363 L 48.0877,-2.31154 L 48.3925,-2.53297 L 48.7227,-2.71448 L 49.0729,-2.85316 L 49.4379,-2.94685
 L 49.8116,-2.99408 L 50.1884,-2.99408 L 50.5621,-2.94685 L 50.927,-2.85316 L 51.2773,-2.71448 L 51.6075,-2.53297
 L 51.9123,-2.31154 L 52.1869,-2.05363 L 52.427,-1.76335 L 52.6289,-1.44525 L 52.7893,-1.10437 L 52.9057,-0.746063
 L 52.9763,-0.375992 L 53,-0 L 52.9763,0.375992 L 52.9057,0.746063 L 52.7893,1.10437 L 52.6289,1.44525
 L 52.427,1.76335 L 52.1869,2.05363 L 51.9123,2.31154 L 51.6075,2.53297 L 51.2773,2.71448 L 50.927,2.85316
 L 50.5621,2.94685 L 50.1884,2.99408 z
M -60.1884,2.99408 L -60.5621,2.94685 L -60.927,2.85316 L -61.2773,2.71448 L -61.6075,2.53297 L -61.9123,2.31154
 L -62.1869,2.05363 L -62.427,1.76335 L -62.6289,1.44525 L -62.7893,1.10437 L -62.9057,0.746063 L -62.9763,0.375992
 L -63,-0 L -62.9763,-0.375992 L -62.9057,-0.746063 L -62.7893,-1.10437 L -62.6289,-1.44525 L -62.427,-1.76335
 L -62.1869,-2.05363 L -61.9123,-2.31154 L -61.6075,-2.53297 L -61.2773,-2.71448 L -60.927,-2.85316 L -60.5621,-2.94685
 L -60.1884,-2.99408 L -59.8116,-2.99408 L -59.4379,-2.94685 L -59.0729,-2.85316 L -58.7227,-2.71448 L -58.3925,-2.53297
 L -58.0877,-2.31154 L -57.8131,-2.05363 L -57.5729,-1.76335 L -57.3711,-1.44525 L -57.2107,-1.10437 L -57.0942,-0.746063
 L -57.0237,-0.375992 L -57,-0 L -57.0237,0.375992 L -57.0942,0.746063 L -57.2107,1.10437 L -57.3711,1.44525
 L -57.5729,1.76335 L -57.8131,2.05363 L -58.0877,2.31154 L -58.3925,2.53297 L -58.7227,2.71448 L -59.0729,2.85316
 L -59.4379,2.94685 L -59.8116,2.99408 z
M 59.8116,2.99408 L 59.4379,2.94685 L 59.0729,2.85316 L 58.7227,2.71448 L 58.3925,2.53297 L 58.0877,2.31154
 L 57.8131,2.05363 L 57.5729,1.76335 L 57.3711,1.44525 L 57.2107,1.10437 L 57.0942,0.746063 L 57.0237,0.375992
 L 57,-0 L 57.0237,-0.375992 L 57.0942,-0.746063 L 57.2107,-1.10437 L 57.3711,-1.44525 L 57.5729,-1.76335
 L 57.8131,-2.05363 L 58.0877,-2.31154 L 58.3925,-2.53297 L 58.7227,-2.71448 L 59.0729,-2.85316 L 59.4379,-2.94685
 L 59.8116,-2.99408 L 60.1884,-2.99408 L 60.5621,-2.94685 L 60.927,-2.85316 L 61.2773,-2.71448 L 61.6075,-2.53297
 L 61.9123,-2.31154 L 62.1869,-2.05363 L 62.427,-1.76335 L 62.6289,-1.44525 L 62.7893,-1.10437 L 62.9057,-0.746063
 L 62.9763,-0.375992 L 63,-0 L 62.9763,0.375992 L 62.9057,0.746063 L 62.7893,1.10437 L 62.6289,1.44525
 L 62.427,1.76335 L 62.1869,2.05363 L 61.9123,2.31154 L 61.6075,2.53297 L 61.2773,2.71448 L 60.927,2.85316
 L 60.5621,2.94685 L 60.1884,2.99408 z
M -49.9318,8.05249 L -50.3056,8.00526 L -50.6705,7.91158 L -51.0208,7.77289 L -51.3509,7.59138 L -51.6557,7.36995
 L -51.9304,7.11205 L -52.1705,6.82176 L -52.3724,6.50366 L -52.5328,6.16278 L -52.6492,5.80447 L -52.7198,5.4344
 L -52.7435,5.05841 L -52.7198,4.6824 L -52.6492,4.31233 L -52.5328,3.95404 L -52.3724,3.61314 L -52.1705,3.29506
 L -51.9304,3.00476 L -51.6557,2.74687 L -51.3509,2.52542 L -51.0208,2.34393 L -50.6705,2.20525 L -50.3056,2.11154
 L -49.9318,2.06433 L -49.5551,2.06433 L -49.1813,2.11154 L -48.8164,2.20525 L -48.4661,2.34393 L -48.136,2.52542
 L -47.8312,2.74687 L -47.5565,3.00476 L -47.3164,3.29506 L -47.1145,3.61314 L -46.9541,3.95404 L -46.8377,4.31233
 L -46.7671,4.6824 L -46.7435,5.05841 L -46.7671,5.4344 L -46.8377,5.80447 L -46.9541,6.16278 L -47.1145,6.50366
 L -47.3164,6.82176 L -47.5565,7.11205 L -47.8312,7.36995 L -48.136,7.59138 L -48.4661,7.77289 L -48.8164,7.91158
 L -49.1813,8.00526 L -49.5551,8.05249 z
M 48.7881,13.059 L 48.4144,13.0118 L 48.0494,12.9181 L 47.6992,12.7794 L 47.369,12.5979 L 47.0642,12.3765
 L 46.7896,12.1186 L 46.5494,11.8283 L 46.3476,11.5102 L 46.1872,11.1693 L 46.0707,10.811 L 46.0002,10.4409
 L 45.9765,10.0649 L 46.0002,9.68892 L 46.0707,9.31885 L 46.1872,8.96054 L 46.3476,8.61966 L 46.5494,8.30156
 L 46.7896,8.01128 L 47.0642,7.75337 L 47.369,7.53194 L 47.6992,7.35043 L 48.0494,7.21175 L 48.4144,7.11806
 L 48.7881,7.07083 L 49.1649,7.07083 L 49.5386,7.11806 L 49.9035,7.21175 L 50.2538,7.35043 L 50.584,7.53194
 L 50.8888,7.75337 L 51.1634,8.01128 L 51.4035,8.30156 L 51.6054,8.61966 L 51.7658,8.96054 L 51.8822,9.31885
 L 51.9528,9.68892 L 51.9765,10.0649 L 51.9528,10.4409 L 51.8822,10.811 L 51.7658,11.1693 L 51.6054,11.5102
 L 51.4035,11.8283 L 51.1634,12.1186 L 50.8888,12.3765 L 50.584,12.5979 L 50.2538,12.7794 L 49.9035,12.9181
 L 49.5386,13.0118 L 49.1649,13.059 z
M -47.8953,17.9622 L -48.2691,17.915 L -48.634,17.8213 L -48.9843,17.6826 L -49.3144,17.5011 L -49.6192,17.2797
 L -49.8939,17.0218 L -50.134,16.7315 L -50.3359,16.4134 L -50.4963,16.0725 L -50.6127,15.7142 L -50.6833,15.3441
 L -50.707,14.9682 L -50.6833,14.5921 L -50.6127,14.2221 L -50.4963,13.8638 L -50.3359,13.5229 L -50.134,13.2048
 L -49.8939,12.9145 L -49.6192,12.6566 L -49.3144,12.4352 L -48.9843,12.2537 L -48.634,12.115 L -48.2691,12.0213
 L -47.8953,11.9741 L -47.5186,11.9741 L -47.1448,12.0213 L -46.7799,12.115 L -46.4296,12.2537 L -46.0995,12.4352
 L -45.7947,12.6566 L -45.5201,12.9145 L -45.2799,13.2048 L -45.078,13.5229 L -44.9176,13.8638 L -44.8012,14.2221
 L -44.7306,14.5921 L -44.707,14.9682 L -44.7306,15.3441 L -44.8012,15.7142 L -44.9176,16.0725 L -45.078,16.4134
 L -45.2799,16.7315 L -45.5201,17.0218 L -45.7947,17.2797 L -46.0995,17.5011 L -46.4296,17.6826 L -46.7799,17.8213
 L -47.1448,17.915 L -47.5186,17.9622 z
M 45.7595,22.7119 L 45.3857,22.6646 L 45.0208,22.571 L 44.6705,22.4323 L 44.3404,22.2508 L 44.0356,22.0293
 L 43.761,21.7714 L 43.5208,21.4811 L 43.319,21.163 L 43.1586,20.8222 L 43.0421,20.4639 L 42.9715,20.0938
 L 42.9479,19.7178 L 42.9715,19.3418 L 43.0421,18.9717 L 43.1586,18.6134 L 43.319,18.2725 L 43.5208,17.9544
 L 43.761,17.6641 L 44.0356,17.4062 L 44.3404,17.1848 L 44.6705,17.0033 L 45.0208,16.8646 L 45.3857,16.7709
 L 45.7595,16.7237 L 46.1363,16.7237 L 46.51,16.7709 L 46.8749,16.8646 L 47.2252,17.0033 L 47.5554,17.1848
 L 47.8602,17.4062 L 48.1348,17.6641 L 48.3749,17.9544 L 48.5768,18.2725 L 48.7372,18.6134 L 48.8536,18.9717
 L 48.9242,19.3418 L 48.9479,19.7178 L 48.9242,20.0938 L 48.8536,20.4639 L 48.7372,20.8222 L 48.5768,21.163
 L 48.3749,21.4811 L 48.1348,21.7714 L 47.8602,22.0293 L 47.5554,22.2508 L 47.2252,22.4323 L 46.8749,22.571
 L 46.51,22.6646 L 46.1363,22.7119 z
M -43.9057,27.2592 L -44.2795,27.212 L -44.6444,27.1183 L -44.9947,26.9796 L -45.3248,26.7981 L -45.6296,26.5766
 L -45.9042,26.3187 L -46.1444,26.0284 L -46.3463,25.7104 L -46.5067,25.3695 L -46.6231,25.0112 L -46.6937,24.6411
 L -46.7173,24.2651 L -46.6937,23.8891 L -46.6231,23.519 L -46.5067,23.1607 L -46.3463,22.8198 L -46.1444,22.5017
 L -45.9042,22.2115 L -45.6296,21.9536 L -45.3248,21.7321 L -44.9947,21.5506 L -44.6444,21.4119 L -44.2795,21.3182
 L -43.9057,21.271 L -43.5289,21.271 L -43.1552,21.3182 L -42.7903,21.4119 L -42.44,21.5506 L -42.1098,21.7321
 L -41.8051,21.9536 L -41.5304,22.2115 L -41.2903,22.5017 L -41.0884,22.8198 L -40.928,23.1607 L -40.8116,23.519
 L -40.741,23.8891 L -40.7173,24.2651 L -40.741,24.6411 L -40.8116,25.0112 L -40.928,25.3695 L -41.0884,25.7104
 L -41.2903,26.0284 L -41.5304,26.3187 L -41.8051,26.5766 L -42.1098,26.7981 L -42.44,26.9796 L -42.7903,27.1183
 L -43.1552,27.212 L -43.5289,27.2592 z
M 40.8498,31.5575 L 40.476,31.5103 L 40.1111,31.4166 L 39.7608,31.2779 L 39.4307,31.0964 L 39.1259,30.8749
 L 38.8513,30.6171 L 38.6111,30.3268 L 38.4092,30.0087 L 38.2488,29.6678 L 38.1324,29.3095 L 38.0618,28.9394
 L 38.0382,28.5634 L 38.0618,28.1874 L 38.1324,27.8173 L 38.2488,27.459 L 38.4092,27.1181 L 38.6111,26.8
 L 38.8513,26.5098 L 39.1259,26.2519 L 39.4307,26.0304 L 39.7608,25.8489 L 40.1111,25.7102 L 40.476,25.6165
 L 40.8498,25.5693 L 41.2265,25.5693 L 41.6003,25.6165 L 41.9652,25.7102 L 42.3155,25.8489 L 42.6456,26.0304
 L 42.9504,26.2519 L 43.2251,26.5098 L 43.4652,26.8 L 43.6671,27.1181 L 43.8275,27.459 L 43.9439,27.8173
 L 44.0145,28.1874 L 44.0382,28.5634 L 44.0145,28.9394 L 43.9439,29.3095 L 43.8275,29.6678 L 43.6671,30.0087
 L 43.4652,30.3268 L 43.2251,30.6171 L 42.9504,30.8749 L 42.6456,31.0964 L 42.3155,31.2779 L 41.9652,31.4166
 L 41.6003,31.5103 L 41.2265,31.5575 z
M -38.1263,35.5627 L -38.5,35.5155 L -38.8649,35.4218 L -39.2152,35.2831 L -39.5454,35.1016 L -39.8502,34.8802
 L -40.1248,34.6223 L -40.3649,34.332 L -40.5668,34.0139 L -40.7272,33.673 L -40.8436,33.3147 L -40.9142,32.9446
 L -40.9379,32.5686 L -40.9142,32.1926 L -40.8436,31.8225 L -40.7272,31.4642 L -40.5668,31.1234 L -40.3649,30.8053
 L -40.1248,30.515 L -39.8502,30.2571 L -39.5454,30.0356 L -39.2152,29.8541 L -38.8649,29.7155 L -38.5,29.6217
 L -38.1263,29.5745 L -37.7495,29.5745 L -37.3758,29.6217 L -37.0108,29.7155 L -36.6606,29.8541 L -36.3304,30.0356
 L -36.0256,30.2571 L -35.751,30.515 L -35.5108,30.8053 L -35.309,31.1234 L -35.1486,31.4642 L -35.0322,31.8225
 L -34.9616,32.1926 L -34.9379,32.5686 L -34.9616,32.9446 L -35.0322,33.3147 L -35.1486,33.673 L -35.309,34.0139
 L -35.5108,34.332 L -35.751,34.6223 L -36.0256,34.8802 L -36.3304,35.1016 L -36.6606,35.2831 L -37.0108,35.4218
 L -37.3758,35.5155 L -37.7495,35.5627 z
M 34.26,39.2337 L 33.8862,39.1865 L 33.5213,39.0928 L 33.171,38.9541 L 32.8409,38.7726 L 32.5361,38.5512
 L 32.2614,38.2933 L 32.0213,38.003 L 31.8194,37.6849 L 31.659,37.344 L 31.5426,36.9857 L 31.472,36.6156
 L 31.4483,36.2396 L 31.472,35.8636 L 31.5426,35.4936 L 31.659,35.1353 L 31.8194,34.7944 L 32.0213,34.4763
 L 32.2614,34.186 L 32.5361,33.9281 L 32.8409,33.7066 L 33.171,33.5251 L 33.5213,33.3865 L 33.8862,33.2928
 L 34.26,33.2456 L 34.6367,33.2456 L 35.0105,33.2928 L 35.3754,33.3865 L 35.7257,33.5251 L 36.0558,33.7066
 L 36.3606,33.9281 L 36.6352,34.186 L 36.8754,34.4763 L 37.0773,34.7944 L 37.2377,35.1353 L 37.3541,35.4936
 L 37.4247,35.8636 L 37.4483,36.2396 L 37.4247,36.6156 L 37.3541,36.9857 L 37.2377,37.344 L 37.0773,37.6849
 L 36.8754,38.003 L 36.6352,38.2933 L 36.3606,38.5512 L 36.0558,38.7726 L 35.7257,38.9541 L 35.3754,39.0928
 L 35.0105,39.1865 L 34.6367,39.2337 z
M -30.7937,42.5329 L -31.1674,42.4856 L -31.5323,42.392 L -31.8826,42.2533 L -32.2128,42.0718 L -32.5176,41.8503
 L -32.7922,41.5924 L -33.0323,41.3021 L -33.2342,40.984 L -33.3946,40.6432 L -33.511,40.2849 L -33.5816,39.9148
 L -33.6053,39.5388 L -33.5816,39.1628 L -33.511,38.7927 L -33.3946,38.4344 L -33.2342,38.0935 L -33.0323,37.7754
 L -32.7922,37.4851 L -32.5176,37.2272 L -32.2128,37.0058 L -31.8826,36.8243 L -31.5323,36.6856 L -31.1674,36.5919
 L -30.7937,36.5447 L -30.4169,36.5447 L -30.0432,36.5919 L -29.6782,36.6856 L -29.328,36.8243 L -28.9978,37.0058
 L -28.693,37.2272 L -28.4184,37.4851 L -28.1782,37.7754 L -27.9764,38.0935 L -27.816,38.4344 L -27.6995,38.7927
 L -27.629,39.1628 L -27.6053,39.5388 L -27.629,39.9148 L -27.6995,40.2849 L -27.816,40.6432 L -27.9764,40.984
 L -28.1782,41.3021 L -28.4184,41.5924 L -28.693,41.8503 L -28.9978,42.0718 L -29.328,42.2533 L -29.6782,42.392
 L -30.0432,42.4856 L -30.4169,42.5329 z
M 26.2598,45.4263 L 25.886,45.3791 L 25.5211,45.2854 L 25.1709,45.1467 L 24.8407,44.9652 L 24.5359,44.7437
 L 24.2613,44.4859 L 24.0211,44.1956 L 23.8193,43.8775 L 23.6589,43.5366 L 23.5424,43.1783 L 23.4718,42.8082
 L 23.4482,42.4322 L 23.4718,42.0562 L 23.5424,41.6861 L 23.6589,41.3278 L 23.8193,40.987 L 24.0211,40.6689
 L 24.2613,40.3786 L 24.5359,40.1207 L 24.8407,39.8992 L 25.1709,39.7177 L 25.5211,39.579 L 25.886,39.4854
 L 26.2598,39.4381 L 26.6366,39.4381 L 27.0103,39.4854 L 27.3752,39.579 L 27.7255,39.7177 L 28.0557,39.8992
 L 28.3605,40.1207 L 28.6351,40.3786 L 28.8752,40.6689 L 29.0771,40.987 L 29.2375,41.3278 L 29.3539,41.6861
 L 29.4245,42.0562 L 29.4482,42.4322 L 29.4245,42.8082 L 29.3539,43.1783 L 29.2375,43.5366 L 29.0771,43.8775
 L 28.8752,44.1956 L 28.6351,44.4859 L 28.3605,44.7437 L 28.0557,44.9652 L 27.7255,45.1467 L 27.3752,45.2854
 L 27.0103,45.3791 L 26.6366,45.4263 z
M -22.2081,47.8843 L -22.5818,47.8371 L -22.9467,47.7434 L -23.297,47.6047 L -23.6272,47.4232 L -23.932,47.2018
 L -24.2066,46.9439 L -24.4467,46.6536 L -24.6486,46.3355 L -24.809,45.9946 L -24.9254,45.6363 L -24.996,45.2662
 L -25.0197,44.8902 L -24.996,44.5142 L -24.9254,44.1441 L -24.809,43.7858 L -24.6486,43.445 L -24.4467,43.1269
 L -24.2066,42.8366 L -23.932,42.5787 L -23.6272,42.3572 L -23.297,42.1757 L -22.9467,42.037 L -22.5818,41.9434
 L -22.2081,41.8961 L -21.8313,41.8961 L -21.4576,41.9434 L -21.0927,42.037 L -20.7424,42.1757 L -20.4122,42.3572
 L -20.1074,42.5787 L -19.8328,42.8366 L -19.5927,43.1269 L -19.3908,43.445 L -19.2304,43.7858 L -19.114,44.1441
 L -19.0434,44.5142 L -19.0197,44.8902 L -19.0434,45.2662 L -19.114,45.6363 L -19.2304,45.9946 L -19.3908,46.3355
 L -19.5927,46.6536 L -19.8328,46.9439 L -20.1074,47.2018 L -20.4122,47.4232 L -20.7424,47.6047 L -21.0927,47.7434
 L -21.4576,47.8371 L -21.8313,47.8843 z
M 17.1769,49.8817 L 16.8031,49.8345 L 16.4382,49.7408 L 16.0879,49.6021 L 15.7578,49.4206 L 15.453,49.1991
 L 15.1783,48.9412 L 14.9382,48.651 L 14.7363,48.3329 L 14.5759,47.992 L 14.4595,47.6337 L 14.3889,47.2636
 L 14.3652,46.8876 L 14.3889,46.5116 L 14.4595,46.1415 L 14.5759,45.7832 L 14.7363,45.4423 L 14.9382,45.1243
 L 15.1783,44.834 L 15.453,44.5761 L 15.7578,44.3546 L 16.0879,44.1731 L 16.4382,44.0344 L 16.8031,43.9407
 L 17.1769,43.8935 L 17.5536,43.8935 L 17.9274,43.9407 L 18.2923,44.0344 L 18.6426,44.1731 L 18.9727,44.3546
 L 19.2775,44.5761 L 19.5522,44.834 L 19.7923,45.1243 L 19.9942,45.4423 L 20.1546,45.7832 L 20.271,46.1415
 L 20.3416,46.5116 L 20.3652,46.8876 L 20.3416,47.2636 L 20.271,47.6337 L 20.1546,47.992 L 19.9942,48.3329
 L 19.7923,48.651 L 19.5522,48.9412 L 19.2775,49.1991 L 18.9727,49.4206 L 18.6426,49.6021 L 18.2923,49.7408
 L 17.9274,49.8345 L 17.5536,49.8817 z
M -12.721,51.3979 L -13.0948,51.3507 L -13.4597,51.257 L -13.81,51.1183 L -14.1401,50.9368 L -14.4449,50.7154
 L -14.7195,50.4575 L -14.9597,50.1672 L -15.1615,49.8491 L -15.3219,49.5082 L -15.4384,49.1499 L -15.509,48.7798
 L -15.5326,48.4039 L -15.509,48.0278 L -15.4384,47.6578 L -15.3219,47.2995 L -15.1615,46.9586 L -14.9597,46.6405
 L -14.7195,46.3502 L -14.4449,46.0923 L -14.1401,45.8709 L -13.81,45.6894 L -13.4597,45.5507 L -13.0948,45.457
 L -12.721,45.4098 L -12.3443,45.4098 L -11.9705,45.457 L -11.6056,45.5507 L -11.2553,45.6894 L -10.9251,45.8709
 L -10.6203,46.0923 L -10.3457,46.3502 L -10.1056,46.6405 L -9.9037,46.9586 L -9.74329,47.2995 L -9.62688,47.6578
 L -9.55627,48.0278 L -9.53262,48.4039 L -9.55627,48.7798 L -9.62688,49.1499 L -9.74329,49.5082 L -9.9037,49.8491
 L -10.1056,50.1672 L -10.3457,50.4575 L -10.6203,50.7154 L -10.9251,50.9368 L -11.2553,51.1183 L -11.6056,51.257
 L -11.9705,51.3507 L -12.3443,51.3979 z
M 7.38301,52.4175 L 7.00923,52.3703 L 6.64433,52.2766 L 6.29404,52.1379 L 5.9639,51.9564 L 5.6591,51.735
 L 5.38448,51.4771 L 5.14433,51.1868 L 4.94246,50.8687 L 4.78206,50.5278 L 4.66563,50.1695 L 4.59503,49.7994
 L 4.57138,49.4234 L 4.59503,49.0474 L 4.66563,48.6773 L 4.78206,48.319 L 4.94246,47.9781 L 5.14433,47.66
 L 5.38448,47.3698 L 5.6591,47.1119 L 5.9639,46.8904 L 6.29404,46.7089 L 6.64433,46.5702 L 7.00923,46.4765
 L 7.38301,46.4293 L 7.75975,46.4293 L 8.13353,46.4765 L 8.49843,46.5702 L 8.84872,46.7089 L 9.17886,46.8904
 L 9.48366,47.1119 L 9.75829,47.3698 L 9.99843,47.66 L 10.2003,47.9781 L 10.3607,48.319 L 10.4771,48.6773
 L 10.5477,49.0474 L 10.5714,49.4234 L 10.5477,49.7994 L 10.4771,50.1695 L 10.3607,50.5278 L 10.2003,50.8687
 L 9.99843,51.1868 L 9.75829,51.4771 L 9.48366,51.735 L 9.17886,51.9564 L 8.84872,52.1379 L 8.49843,52.2766
 L 8.13353,52.3703 L 7.75975,52.4175 z
M -2.72083,52.9299 L -3.09459,52.8827 L -3.4595,52.789 L -3.80978,52.6503 L -4.13994,52.4688 L -4.44472,52.2474
 L -4.71936,51.9895 L -4.9595,51.6992 L -5.16138,51.3811 L -5.32178,51.0402 L -5.4382,50.6819 L -5.50879,50.3118
 L -5.53246,49.9358 L -5.50879,49.5598 L -5.4382,49.1897 L -5.32178,48.8315 L -5.16138,48.4906 L -4.9595,48.1725
 L -4.71936,47.8822 L -4.44472,47.6243 L -4.13994,47.4028 L -3.80978,47.2213 L -3.4595,47.0827 L -3.09459,46.989
 L -2.72083,46.9417 L -2.34409,46.9417 L -1.97031,46.989 L -1.60539,47.0827 L -1.25511,47.2213 L -0.924973,47.4028
 L -0.620178,47.6243 L -0.345551,47.8822 L -0.105392,48.1725 L 0.0964508,48.4906 L 0.256866,48.8315 L 0.373291,49.1897
 L 0.443878,49.5598 L 0.467529,49.9358 L 0.443878,50.3118 L 0.373291,50.6819 L 0.256866,51.0402 L 0.0964508,51.3811
 L -0.105392,51.6992 L -0.345551,51.9895 L -0.620178,52.2474 L -0.924973,52.4688 L -1.25511,52.6503 L -1.60539,52.789
 L -1.97031,52.8827 L -2.34409,52.9299 z
M -0.18837,62.9941 L -0.562134,62.9469 L -0.927048,62.8532 L -1.27733,62.7145 L -1.60747,62.533 L -1.91226,62.3115
 L -2.1869,62.0536 L -2.42705,61.7634 L -2.62891,61.4453 L -2.78932,61.1044 L -2.90575,60.7461 L -2.97633,60.376
 L -3,60 L -2.97633,59.624 L -2.90575,59.2539 L -2.78932,58.8956 L -2.62891,58.5547 L -2.42705,58.2366
 L -2.1869,57.9464 L -1.91226,57.6885 L -1.60747,57.467 L -1.27733,57.2855 L -0.927048,57.1468 L -0.562134,57.0531
 L -0.18837,57.0059 L 0.18837,57.0059 L 0.562134,57.0531 L 0.927048,57.1468 L 1.27733,57.2855 L 1.60747,57.467
 L 1.91226,57.6885 L 2.1869,57.9464 L 2.42705,58.2366 L 2.62891,58.5547 L 2.78932,58.8956 L 2.90575,59.2539
 L 2.97633,59.624 L 3,60 L 2.97633,60.376 L 2.90575,60.7461 L 2.78932,61.1044 L 2.62891,61.4453
 L 2.42705,61.7634 L 2.1869,62.0536 L 1.91226,62.3115 L 1.60747,62.533 L 1.27733,62.7145 L 0.927048,62.8532
 L 0.562134,62.9469 L 0.18837,62.9941 z
" stroke="black" fill="lightgray" stroke-width="0.5"/>
</svg>
